<svg version="1.1" viewBox="0.0 0.0 785.0 371.0" fill="none" stroke="none" stroke-linecap="square" stroke-miterlimit="10" width="785" height="371" xmlns:xlink="http://www.w3.org/1999/xlink" xmlns="http://www.w3.org/2000/svg"><path fill="#ffffff" d="M0 0L785.0 0L785.0 371.0L0 371.0L0 0Z" fill-rule="nonzero"/><path fill="#6fa8dc" d="M341.87 18.55C363.00854 18.55 383.9548 22.5644 403.59552 30.37984L372.73276 107.93992C362.9124 104.0322 352.43927 102.025 341.87 102.025Z" fill-rule="nonzero"/><path fill="#cc0000" d="M256.9474 41.762558C282.66818 26.56625 311.99545 18.55 341.87 18.55L341.87 102.025C326.93274 102.025 312.2691 106.03313 299.4087 113.63128Z" fill-rule="nonzero"/><path fill="#93c47d" d="M403.59552 30.37984C475.75336 59.092934 518.5831 133.7703 506.92972 210.55174C495.2763 287.33322 432.21756 345.93945 354.78967 351.94934C277.3618 357.95923 206.01486 309.78546 182.65295 235.72186C159.29106 161.65826 190.08449 81.266335 256.9474 41.762558L299.4087 113.63128C265.97723 133.38316 250.58054 173.57913 262.26147 210.61093C273.9424 247.64273 309.6159 271.7296 348.32983 268.72467C387.04376 265.71973 418.57315 236.41661 424.39987 198.02588C430.22656 159.63515 408.81168 122.29647 372.73276 107.93992Z" fill-rule="nonzero"/><path fill="#000000" d="M358.1116 51.069317L356.89285 51.163067Q356.72098 50.42869 356.4241 50.100567Q355.9241 49.58494 355.18973 49.58494Q354.59598 49.58494 354.15848 49.913067Q353.58035 50.33494 353.2366 51.14744Q352.90848 51.95994 352.89285 53.45994Q353.33035 52.788067 353.97098 52.45994Q354.62723 52.131817 355.33035 52.131817Q356.56473 52.131817 357.4241 53.038067Q358.28348 53.944317 358.28348 55.381817Q358.28348 56.319317 357.87723 57.131817Q357.47098 57.944317 356.75223 58.381817Q356.0491 58.80369 355.14285 58.80369Q353.6116 58.80369 352.64285 57.67869Q351.6741 56.538067 351.6741 53.944317Q351.6741 51.038067 352.7366 49.70994Q353.6741 48.569317 355.26785 48.569317Q356.45535 48.569317 357.20535 49.24119Q357.95535 49.89744 358.1116 51.069317ZM353.08035 55.381817Q353.08035 56.02244 353.34598 56.600567Q353.62723 57.17869 354.1116 57.49119Q354.59598 57.788067 355.12723 57.788067Q355.90848 57.788067 356.47098 57.163067Q357.03348 56.538067 357.03348 55.45994Q357.03348 54.413067 356.47098 53.819317Q355.9241 53.20994 355.08035 53.20994Q354.25223 53.20994 353.65848 53.819317Q353.08035 54.413067 353.08035 55.381817ZM360.40848 58.631817L360.40848 57.225567L361.81473 57.225567L361.81473 58.631817L360.40848 58.631817ZM363.72098 53.694317Q363.72098 51.913067 364.08035 50.83494Q364.45535 49.74119 365.1741 49.163067Q365.89285 48.569317 366.9866 48.569317Q367.7991 48.569317 368.40848 48.89744Q369.01785 49.225567 369.40848 49.83494Q369.81473 50.444317 370.03348 51.319317Q370.25223 52.194317 370.25223 53.694317Q370.25223 55.45994 369.89285 56.538067Q369.53348 57.61619 368.81473 58.20994Q368.09598 58.80369 366.9866 58.80369Q365.5491 58.80369 364.72098 57.756817Q363.72098 56.506817 363.72098 53.694317ZM364.9866 53.694317Q364.9866 56.163067 365.56473 56.975567Q366.14285 57.788067 366.9866 57.788067Q367.84598 57.788067 368.4241 56.975567Q369.00223 56.14744 369.00223 53.694317Q369.00223 51.20994 368.4241 50.39744Q367.84598 49.58494 366.97098 49.58494Q366.12723 49.58494 365.62723 50.30369Q364.9866 51.225567 364.9866 53.694317ZM371.95535 51.02244Q371.95535 49.944317 372.4866 49.194317Q373.03348 48.444317 374.06473 48.444317Q375.00223 48.444317 375.6116 49.11619Q376.2366 49.788067 376.2366 51.08494Q376.2366 52.36619 375.6116 53.05369Q374.9866 53.74119 374.08035 53.74119Q373.1741 53.74119 372.56473 53.069317Q371.95535 52.381817 371.95535 51.02244ZM374.09598 49.288067Q373.64285 49.288067 373.33035 49.694317Q373.03348 50.08494 373.03348 51.131817Q373.03348 52.100567 373.33035 52.49119Q373.64285 52.881817 374.09598 52.881817Q374.56473 52.881817 374.8616 52.49119Q375.1741 52.100567 375.1741 51.038067Q375.1741 50.069317 374.8616 49.67869Q374.5491 49.288067 374.09598 49.288067ZM374.09598 59.006817L379.58035 48.444317L380.58035 48.444317L375.12723 59.006817L374.09598 59.006817ZM378.43973 56.27244Q378.43973 55.194317 378.97098 54.45994Q379.51785 53.70994 380.5491 53.70994Q381.4866 53.70994 382.1116 54.381817Q382.7366 55.05369 382.7366 56.350567Q382.7366 57.631817 382.1116 58.319317Q381.4866 59.006817 380.5491 59.006817Q379.64285 59.006817 379.03348 58.33494Q378.43973 57.64744 378.43973 56.27244ZM380.58035 54.55369Q380.1116 54.55369 379.81473 54.95994Q379.51785 55.350567 379.51785 56.39744Q379.51785 57.36619 379.81473 57.756817Q380.12723 58.14744 380.58035 58.14744Q381.0491 58.14744 381.34598 57.756817Q381.65848 57.36619 381.65848 56.30369Q381.65848 55.33494 381.34598 54.944317Q381.0491 54.55369 380.58035 54.55369Z" fill-rule="nonzero"/><path fill="#000000" d="M334.85162 320.50406Q334.086 320.2228 333.711 319.70718Q333.35162 319.19156 333.35162 318.45718Q333.35162 317.36343 334.13287 316.62906Q334.92975 315.87906 336.22662 315.87906Q337.53912 315.87906 338.336 316.64468Q339.1485 317.4103 339.1485 318.50406Q339.1485 319.19156 338.7735 319.70718Q338.41412 320.2228 337.66412 320.50406Q338.586 320.80093 339.07037 321.4728Q339.55475 322.14468 339.55475 323.08218Q339.55475 324.36343 338.6485 325.23843Q337.74225 326.11343 336.25787 326.11343Q334.7735 326.11343 333.85162 325.23843Q332.94537 324.3478 332.94537 323.0353Q332.94537 322.06656 333.44537 321.4103Q333.94537 320.73843 334.85162 320.50406ZM334.61725 318.42593Q334.61725 319.12906 335.07037 319.58218Q335.5235 320.0353 336.25787 320.0353Q336.97662 320.0353 337.42975 319.5978Q337.88287 319.14468 337.88287 318.48843Q337.88287 317.81656 337.41412 317.36343Q336.94537 316.89468 336.24225 316.89468Q335.53912 316.89468 335.07037 317.3478Q334.61725 317.7853 334.61725 318.42593ZM334.211 323.05093Q334.211 323.58218 334.461 324.08218Q334.711 324.56656 335.19537 324.83218Q335.69537 325.0978 336.2735 325.0978Q337.1485 325.0978 337.711 324.5353Q338.28912 323.9728 338.28912 323.0978Q338.28912 322.20718 337.69537 321.62906Q337.11725 321.0353 336.22662 321.0353Q335.35162 321.0353 334.7735 321.61343Q334.211 322.19156 334.211 323.05093ZM340.961 323.31656L342.25787 323.20718Q342.3985 324.14468 342.91412 324.62906Q343.44537 325.0978 344.17975 325.0978Q345.07037 325.0978 345.67975 324.42593Q346.30475 323.75406 346.30475 322.6603Q346.30475 321.5978 345.711 320.98843Q345.11725 320.37906 344.16412 320.37906Q343.57037 320.37906 343.086 320.6603Q342.61725 320.92593 342.336 321.3478L341.17975 321.20718L342.1485 316.05093L347.13287 316.05093L347.13287 317.23843L343.13287 317.23843L342.60162 319.92593Q343.50787 319.30093 344.49225 319.30093Q345.80475 319.30093 346.69537 320.20718Q347.60162 321.11343 347.60162 322.55093Q347.60162 323.9103 346.82037 324.89468Q345.85162 326.11343 344.17975 326.11343Q342.82037 326.11343 341.94537 325.3478Q341.086 324.58218 340.961 323.31656ZM349.6485 325.94156L349.6485 324.5353L351.05475 324.5353L351.05475 325.94156L349.6485 325.94156ZM352.961 323.31656L354.25787 323.20718Q354.3985 324.14468 354.91412 324.62906Q355.44537 325.0978 356.17975 325.0978Q357.07037 325.0978 357.67975 324.42593Q358.30475 323.75406 358.30475 322.6603Q358.30475 321.5978 357.711 320.98843Q357.11725 320.37906 356.16412 320.37906Q355.57037 320.37906 355.086 320.6603Q354.61725 320.92593 354.336 321.3478L353.17975 321.20718L354.1485 316.05093L359.13287 316.05093L359.13287 317.23843L355.13287 317.23843L354.60162 319.92593Q355.50787 319.30093 356.49225 319.30093Q357.80475 319.30093 358.69537 320.20718Q359.60162 321.11343 359.60162 322.55093Q359.60162 323.9103 358.82037 324.89468Q357.85162 326.11343 356.17975 326.11343Q354.82037 326.11343 353.94537 325.3478Q353.086 324.58218 352.961 323.31656ZM361.19537 318.33218Q361.19537 317.25406 361.72662 316.50406Q362.2735 315.75406 363.30475 315.75406Q364.24225 315.75406 364.85162 316.42593Q365.47662 317.0978 365.47662 318.39468Q365.47662 319.67593 364.85162 320.36343Q364.22662 321.05093 363.32037 321.05093Q362.41412 321.05093 361.80475 320.37906Q361.19537 319.69156 361.19537 318.33218ZM363.336 316.5978Q362.88287 316.5978 362.57037 317.00406Q362.2735 317.39468 362.2735 318.44156Q362.2735 319.4103 362.57037 319.80093Q362.88287 320.19156 363.336 320.19156Q363.80475 320.19156 364.10162 319.80093Q364.41412 319.4103 364.41412 318.3478Q364.41412 317.37906 364.10162 316.98843Q363.78912 316.5978 363.336 316.5978ZM363.336 326.31656L368.82037 315.75406L369.82037 315.75406L364.36725 326.31656L363.336 326.31656ZM367.67975 323.58218Q367.67975 322.50406 368.211 321.76968Q368.75787 321.01968 369.78912 321.01968Q370.72662 321.01968 371.35162 321.69156Q371.97662 322.36343 371.97662 323.6603Q371.97662 324.94156 371.35162 325.62906Q370.72662 326.31656 369.78912 326.31656Q368.88287 326.31656 368.2735 325.64468Q367.67975 324.95718 367.67975 323.58218ZM369.82037 321.86343Q369.35162 321.86343 369.05475 322.26968Q368.75787 322.6603 368.75787 323.70718Q368.75787 324.67593 369.05475 325.06656Q369.36725 325.45718 369.82037 325.45718Q370.28912 325.45718 370.586 325.06656Q370.8985 324.67593 370.8985 323.61343Q370.8985 322.64468 370.586 322.25406Q370.28912 321.86343 369.82037 321.86343Z" fill-rule="nonzero"/><path fill="#000000" d="M293.37094 57.13362Q292.60532 56.85237 292.23032 56.336746Q291.87094 55.82112 291.87094 55.086746Q291.87094 53.992996 292.6522 53.25862Q293.44907 52.50862 294.74594 52.50862Q296.05844 52.50862 296.85532 53.274246Q297.66782 54.03987 297.66782 55.13362Q297.66782 55.82112 297.29282 56.336746Q296.93344 56.85237 296.18344 57.13362Q297.10532 57.430496 297.5897 58.10237Q298.07407 58.774246 298.07407 59.711746Q298.07407 60.992996 297.16782 61.867996Q296.26157 62.742996 294.7772 62.742996Q293.29282 62.742996 292.37094 61.867996Q291.4647 60.97737 291.4647 59.66487Q291.4647 58.69612 291.9647 58.03987Q292.4647 57.367996 293.37094 57.13362ZM293.13657 55.055496Q293.13657 55.75862 293.5897 56.211746Q294.04282 56.66487 294.7772 56.66487Q295.49594 56.66487 295.94907 56.22737Q296.4022 55.774246 296.4022 55.117996Q296.4022 54.44612 295.93344 53.992996Q295.4647 53.524246 294.76157 53.524246Q294.05844 53.524246 293.5897 53.97737Q293.13657 54.41487 293.13657 55.055496ZM292.73032 59.680496Q292.73032 60.211746 292.98032 60.711746Q293.23032 61.19612 293.7147 61.461746Q294.2147 61.72737 294.79282 61.72737Q295.66782 61.72737 296.23032 61.16487Q296.80844 60.60237 296.80844 59.72737Q296.80844 58.836746 296.2147 58.25862Q295.63657 57.66487 294.74594 57.66487Q293.87094 57.66487 293.29282 58.242996Q292.73032 58.82112 292.73032 59.680496ZM300.16782 62.57112L300.16782 61.16487L301.57407 61.16487L301.57407 62.57112L300.16782 62.57112ZM303.48032 59.94612L304.7772 59.836746Q304.91782 60.774246 305.43344 61.25862Q305.9647 61.72737 306.69907 61.72737Q307.5897 61.72737 308.19907 61.055496Q308.82407 60.38362 308.82407 59.28987Q308.82407 58.22737 308.23032 57.617996Q307.63657 57.00862 306.68344 57.00862Q306.0897 57.00862 305.60532 57.28987Q305.13657 57.555496 304.85532 57.97737L303.69907 57.836746L304.66782 52.680496L309.6522 52.680496L309.6522 53.867996L305.6522 53.867996L305.12094 56.555496Q306.0272 55.930496 307.01157 55.930496Q308.32407 55.930496 309.2147 56.836746Q310.12094 57.742996 310.12094 59.180496Q310.12094 60.53987 309.3397 61.524246Q308.37094 62.742996 306.69907 62.742996Q305.3397 62.742996 304.4647 61.97737Q303.60532 61.211746 303.48032 59.94612ZM311.7147 54.961746Q311.7147 53.88362 312.24594 53.13362Q312.79282 52.38362 313.82407 52.38362Q314.76157 52.38362 315.37094 53.055496Q315.99594 53.72737 315.99594 55.024246Q315.99594 56.305496 315.37094 56.992996Q314.74594 57.680496 313.8397 57.680496Q312.93344 57.680496 312.32407 57.00862Q311.7147 56.32112 311.7147 54.961746ZM313.85532 53.22737Q313.4022 53.22737 313.0897 53.63362Q312.79282 54.024246 312.79282 55.07112Q312.79282 56.03987 313.0897 56.430496Q313.4022 56.82112 313.85532 56.82112Q314.32407 56.82112 314.62094 56.430496Q314.93344 56.03987 314.93344 54.97737Q314.93344 54.00862 314.62094 53.617996Q314.30844 53.22737 313.85532 53.22737ZM313.85532 62.94612L319.3397 52.38362L320.3397 52.38362L314.88657 62.94612L313.85532 62.94612ZM318.19907 60.211746Q318.19907 59.13362 318.73032 58.399246Q319.2772 57.649246 320.30844 57.649246Q321.24594 57.649246 321.87094 58.32112Q322.49594 58.992996 322.49594 60.28987Q322.49594 61.57112 321.87094 62.25862Q321.24594 62.94612 320.30844 62.94612Q319.4022 62.94612 318.79282 62.274246Q318.19907 61.586746 318.19907 60.211746ZM320.3397 58.492996Q319.87094 58.492996 319.57407 58.899246Q319.2772 59.28987 319.2772 60.336746Q319.2772 61.305496 319.57407 61.69612Q319.88657 62.086746 320.3397 62.086746Q320.80844 62.086746 321.10532 61.69612Q321.41782 61.305496 321.41782 60.242996Q321.41782 59.274246 321.10532 58.88362Q320.80844 58.492996 320.3397 58.492996Z" fill-rule="nonzero"/><path fill="#6fa8dc" d="M699.45 26.55C699.45 29.863708 696.76373 32.55 693.45 32.55C690.1363 32.55 687.45 29.863708 687.45 26.55C687.45 23.236292 690.1363 20.55 693.45 20.55C696.76373 20.55 699.45 23.236292 699.45 26.55Z" fill-rule="nonzero"/><path fill="#1a1a1a" d="M713.10626 30.659374Q712.4344 31.2375 711.79376 31.4875Q711.16876 31.721874 710.4344 31.721874Q709.2469 31.721874 708.59064 31.14375Q707.95 30.55 707.95 29.628124Q707.95 29.096874 708.1844 28.659374Q708.4344 28.221874 708.825 27.95625Q709.23126 27.690624 709.71564 27.55Q710.075 27.45625 710.8094 27.3625Q712.3094 27.190624 713.0125 26.940624Q713.0125 26.690624 713.0125 26.628124Q713.0125 25.8625 712.66876 25.565624Q712.2 25.14375 711.2625 25.14375Q710.40314 25.14375 709.98126 25.45625Q709.575 25.753124 709.3719 26.51875L708.16876 26.3625Q708.325 25.58125 708.7 25.1125Q709.09064 24.64375 709.79376 24.39375Q710.5125 24.128124 711.45 24.128124Q712.3719 24.128124 712.95 24.346874Q713.52814 24.565624 713.79376 24.89375Q714.075 25.221874 714.1844 25.7375Q714.2469 26.05 714.2469 26.8625L714.2469 28.503124Q714.2469 30.221874 714.325 30.675Q714.40314 31.128124 714.6375 31.55L713.35626 31.55Q713.16876 31.159374 713.10626 30.659374ZM713.0125 27.909374Q712.34064 28.175 710.9969 28.378124Q710.2469 28.4875 709.91876 28.628124Q709.60626 28.753124 709.4344 29.01875Q709.2625 29.284374 709.2625 29.596874Q709.2625 30.096874 709.6375 30.425Q710.0125 30.753124 710.73126 30.753124Q711.45 30.753124 711.9969 30.440624Q712.54376 30.128124 712.8094 29.58125Q713.0125 29.175 713.0125 28.3625L713.0125 27.909374ZM717.71564 31.55L715.4969 24.284374L716.7625 24.284374L717.91876 28.4875L718.35626 30.034374Q718.3719 29.925 718.73126 28.534374L719.8875 24.284374L721.1375 24.284374L722.23126 28.503124L722.59064 29.89375L723.0125 28.4875L724.2625 24.284374L725.45 24.284374L723.1844 31.55L721.90314 31.55L720.7469 27.20625L720.46564 25.971874L718.9969 31.55L717.71564 31.55ZM730.34064 29.20625L731.6219 29.3625Q731.3094 30.4875 730.4969 31.1125Q729.6844 31.721874 728.41876 31.721874Q726.825 31.721874 725.8875 30.7375Q724.96564 29.753124 724.96564 27.9875Q724.96564 26.14375 725.90314 25.14375Q726.85626 24.128124 728.35626 24.128124Q729.8094 24.128124 730.73126 25.128124Q731.65314 26.1125 731.65314 27.909374Q731.65314 28.01875 731.65314 28.2375L726.23126 28.2375Q726.3094 29.425 726.90314 30.065624Q727.5125 30.70625 728.4344 30.70625Q729.10626 30.70625 729.575 30.346874Q730.0594 29.9875 730.34064 29.20625ZM726.3094 27.221874L730.35626 27.221874Q730.27814 26.3 729.8875 25.846874Q729.3094 25.14375 728.3719 25.14375Q727.5125 25.14375 726.9344 25.70625Q726.3719 26.26875 726.3094 27.221874ZM732.8875 29.378124L734.09064 29.190624Q734.2 29.925 734.66876 30.315624Q735.1375 30.70625 735.98126 30.70625Q736.825 30.70625 737.23126 30.3625Q737.65314 30.01875 737.65314 29.55Q737.65314 29.128124 737.27814 28.89375Q737.02814 28.721874 736.02814 28.471874Q734.66876 28.128124 734.1375 27.878124Q733.6219 27.628124 733.35626 27.190624Q733.09064 26.753124 733.09064 26.221874Q733.09064 25.7375 733.3094 25.33125Q733.52814 24.909374 733.91876 24.628124Q734.2 24.425 734.6844 24.284374Q735.1844 24.128124 735.7625 24.128124Q736.60626 24.128124 737.2469 24.378124Q737.90314 24.6125 738.21564 25.034374Q738.52814 25.45625 738.6375 26.159374L737.4344 26.33125Q737.35626 25.76875 736.95 25.45625Q736.5594 25.14375 735.84064 25.14375Q734.9969 25.14375 734.6375 25.425Q734.27814 25.690624 734.27814 26.08125Q734.27814 26.315624 734.41876 26.503124Q734.575 26.70625 734.90314 26.83125Q735.075 26.89375 735.98126 27.14375Q737.29376 27.503124 737.8094 27.721874Q738.325 27.940624 738.60626 28.3625Q738.90314 28.784374 738.90314 29.409374Q738.90314 30.034374 738.54376 30.58125Q738.2 31.1125 737.5125 31.425Q736.84064 31.721874 735.98126 31.721874Q734.575 31.721874 733.825 31.128124Q733.09064 30.534374 732.8875 29.378124ZM739.91876 27.925Q739.91876 25.909374 741.04376 24.925Q741.96564 24.128124 743.325 24.128124Q744.8094 24.128124 745.7625 25.1125Q746.71564 26.08125 746.71564 27.815624Q746.71564 29.221874 746.29376 30.034374Q745.8719 30.83125 745.0594 31.284374Q744.2625 31.721874 743.325 31.721874Q741.79376 31.721874 740.85626 30.7375Q739.91876 29.753124 739.91876 27.925ZM741.1844 27.925Q741.1844 29.315624 741.79376 30.01875Q742.40314 30.70625 743.325 30.70625Q744.23126 30.70625 744.84064 30.003124Q745.45 29.3 745.45 27.878124Q745.45 26.534374 744.84064 25.846874Q744.23126 25.14375 743.325 25.14375Q742.40314 25.14375 741.79376 25.83125Q741.1844 26.51875 741.1844 27.925ZM748.3719 31.55L748.3719 24.284374L749.48126 24.284374L749.48126 25.315624Q749.8094 24.76875 750.3719 24.45625Q750.95 24.128124 751.66876 24.128124Q752.48126 24.128124 752.9969 24.471874Q753.5125 24.8 753.73126 25.39375Q754.59064 24.128124 755.96564 24.128124Q757.04376 24.128124 757.6219 24.721874Q758.21564 25.315624 758.21564 26.565624L758.21564 31.55L756.98126 31.55L756.98126 26.971874Q756.98126 26.2375 756.85626 25.909374Q756.7469 25.58125 756.4344 25.39375Q756.1219 25.190624 755.7 25.190624Q754.9344 25.190624 754.41876 25.70625Q753.91876 26.20625 753.91876 27.33125L753.91876 31.55L752.6844 31.55L752.6844 26.83125Q752.6844 26.01875 752.3875 25.6125Q752.09064 25.190624 751.40314 25.190624Q750.8875 25.190624 750.4344 25.471874Q749.9969 25.7375 749.79376 26.26875Q749.60626 26.784374 749.60626 27.784374L749.60626 31.55L748.3719 31.55ZM764.34064 29.20625L765.6219 29.3625Q765.3094 30.4875 764.4969 31.1125Q763.6844 31.721874 762.41876 31.721874Q760.825 31.721874 759.8875 30.7375Q758.96564 29.753124 758.96564 27.9875Q758.96564 26.14375 759.90314 25.14375Q760.85626 24.128124 762.35626 24.128124Q763.8094 24.128124 764.73126 25.128124Q765.65314 26.1125 765.65314 27.909374Q765.65314 28.01875 765.65314 28.2375L760.23126 28.2375Q760.3094 29.425 760.90314 30.065624Q761.5125 30.70625 762.4344 30.70625Q763.10626 30.70625 763.575 30.346874Q764.0594 29.9875 764.34064 29.20625ZM760.3094 27.221874L764.35626 27.221874Q764.27814 26.3 763.8875 25.846874Q763.3094 25.14375 762.3719 25.14375Q761.5125 25.14375 760.9344 25.70625Q760.3719 26.26875 760.3094 27.221874Z" fill-rule="nonzero"/><path fill="#93c47d" d="M699.45 52.55C699.45 55.86371 696.76373 58.55 693.45 58.55C690.1363 58.55 687.45 55.86371 687.45 52.55C687.45 49.23629 690.1363 46.55 693.45 46.55C696.76373 46.55 699.45 49.23629 699.45 52.55Z" fill-rule="nonzero"/><path fill="#1a1a1a" d="M708.15314 58.159374L709.34064 58.33125Q709.41876 58.878124 709.7625 59.14375Q710.21564 59.471874 711.0125 59.471874Q711.8719 59.471874 712.325 59.128124Q712.79376 58.8 712.96564 58.175Q713.0594 57.8 713.04376 56.596874Q712.2469 57.55 711.04376 57.55Q709.54376 57.55 708.71564 56.471874Q707.90314 55.39375 707.90314 53.878124Q707.90314 52.846874 708.27814 51.971874Q708.65314 51.08125 709.35626 50.6125Q710.075 50.128124 711.04376 50.128124Q712.325 50.128124 713.16876 51.159374L713.16876 50.284374L714.29376 50.284374L714.29376 56.565624Q714.29376 58.26875 713.95 58.971874Q713.60626 59.675 712.85626 60.08125Q712.10626 60.503124 711.0125 60.503124Q709.71564 60.503124 708.91876 59.909374Q708.1219 59.33125 708.15314 58.159374ZM709.16876 53.784374Q709.16876 55.221874 709.73126 55.878124Q710.29376 56.534374 711.15314 56.534374Q711.9969 56.534374 712.575 55.878124Q713.15314 55.221874 713.15314 53.83125Q713.15314 52.503124 712.5594 51.83125Q711.96564 51.14375 711.1375 51.14375Q710.3094 51.14375 709.73126 51.815624Q709.16876 52.471874 709.16876 53.784374ZM715.91876 53.925Q715.91876 51.909374 717.04376 50.925Q717.96564 50.128124 719.325 50.128124Q720.8094 50.128124 721.7625 51.1125Q722.71564 52.08125 722.71564 53.815624Q722.71564 55.221874 722.29376 56.034374Q721.8719 56.83125 721.0594 57.284374Q720.2625 57.721874 719.325 57.721874Q717.79376 57.721874 716.85626 56.7375Q715.91876 55.753124 715.91876 53.925ZM717.1844 53.925Q717.1844 55.315624 717.79376 56.01875Q718.40314 56.70625 719.325 56.70625Q720.23126 56.70625 720.84064 56.003124Q721.45 55.3 721.45 53.878124Q721.45 52.534374 720.84064 51.846874Q720.23126 51.14375 719.325 51.14375Q718.40314 51.14375 717.79376 51.83125Q717.1844 52.51875 717.1844 53.925ZM723.91876 53.925Q723.91876 51.909374 725.04376 50.925Q725.96564 50.128124 727.325 50.128124Q728.8094 50.128124 729.7625 51.1125Q730.71564 52.08125 730.71564 53.815624Q730.71564 55.221874 730.29376 56.034374Q729.8719 56.83125 729.0594 57.284374Q728.2625 57.721874 727.325 57.721874Q725.79376 57.721874 724.85626 56.7375Q723.91876 55.753124 723.91876 53.925ZM725.1844 53.925Q725.1844 55.315624 725.79376 56.01875Q726.40314 56.70625 727.325 56.70625Q728.23126 56.70625 728.84064 56.003124Q729.45 55.3 729.45 53.878124Q729.45 52.534374 728.84064 51.846874Q728.23126 51.14375 727.325 51.14375Q726.40314 51.14375 725.79376 51.83125Q725.1844 52.51875 725.1844 53.925ZM737.09064 57.55L737.09064 56.628124Q736.3875 57.721874 735.0594 57.721874Q734.1844 57.721874 733.45 57.2375Q732.73126 56.753124 732.325 55.89375Q731.9344 55.034374 731.9344 53.925Q731.9344 52.846874 732.29376 51.95625Q732.65314 51.065624 733.3719 50.596874Q734.10626 50.128124 734.9969 50.128124Q735.65314 50.128124 736.16876 50.409374Q736.6844 50.675 736.9969 51.128124L736.9969 47.534374L738.23126 47.534374L738.23126 57.55L737.09064 57.55ZM733.2 53.925Q733.2 55.315624 733.77814 56.01875Q734.3719 56.70625 735.16876 56.70625Q735.98126 56.70625 736.54376 56.05Q737.10626 55.378124 737.10626 54.034374Q737.10626 52.534374 736.52814 51.846874Q735.95 51.14375 735.1219 51.14375Q734.29376 51.14375 733.7469 51.815624Q733.2 52.4875 733.2 53.925Z" fill-rule="nonzero"/><path fill="#cc0000" d="M699.45 78.55C699.45 81.86371 696.76373 84.55 693.45 84.55C690.1363 84.55 687.45 81.86371 687.45 78.55C687.45 75.23629 690.1363 72.55 693.45 72.55C696.76373 72.55 699.45 75.23629 699.45 78.55Z" fill-rule="nonzero"/><path fill="#1a1a1a" d="M709.5125 83.55L708.3719 83.55L708.3719 73.53438L709.59064 73.53438L709.59064 77.09688Q710.3719 76.12813 711.59064 76.12813Q712.2625 76.12813 712.85626 76.39375Q713.45 76.65938 713.84064 77.15938Q714.23126 77.64375 714.45 78.33125Q714.66876 79.01875 714.66876 79.81563Q714.66876 81.675 713.73126 82.70625Q712.8094 83.72188 711.52814 83.72188Q710.2469 83.72188 709.5125 82.64375L709.5125 83.55ZM709.4969 79.8625Q709.4969 81.175 709.85626 81.75313Q710.4344 82.70625 711.41876 82.70625Q712.23126 82.70625 712.8094 82.00313Q713.40314 81.3 713.40314 79.90938Q713.40314 78.4875 712.84064 77.81563Q712.27814 77.14375 711.48126 77.14375Q710.66876 77.14375 710.075 77.84688Q709.4969 78.53438 709.4969 79.8625ZM721.10626 82.65938Q720.4344 83.2375 719.79376 83.4875Q719.16876 83.72188 718.4344 83.72188Q717.2469 83.72188 716.59064 83.14375Q715.95 82.55 715.95 81.62813Q715.95 81.09688 716.1844 80.65938Q716.4344 80.22188 716.825 79.95625Q717.23126 79.69063 717.71564 79.55Q718.075 79.45625 718.8094 79.3625Q720.3094 79.19063 721.0125 78.94063Q721.0125 78.69063 721.0125 78.62813Q721.0125 77.8625 720.66876 77.56563Q720.2 77.14375 719.2625 77.14375Q718.40314 77.14375 717.98126 77.45625Q717.575 77.75313 717.3719 78.51875L716.16876 78.3625Q716.325 77.58125 716.7 77.1125Q717.09064 76.64375 717.79376 76.39375Q718.5125 76.12813 719.45 76.12813Q720.3719 76.12813 720.95 76.34688Q721.52814 76.56563 721.79376 76.89375Q722.075 77.22188 722.1844 77.7375Q722.2469 78.05 722.2469 78.8625L722.2469 80.50313Q722.2469 82.22188 722.325 82.675Q722.40314 83.12813 722.6375 83.55L721.35626 83.55Q721.16876 83.15938 721.10626 82.65938ZM721.0125 79.90938Q720.34064 80.175 718.9969 80.37813Q718.2469 80.4875 717.91876 80.62813Q717.60626 80.75313 717.4344 81.01875Q717.2625 81.28438 717.2625 81.59688Q717.2625 82.09688 717.6375 82.425Q718.0125 82.75313 718.73126 82.75313Q719.45 82.75313 719.9969 82.44063Q720.54376 82.12813 720.8094 81.58125Q721.0125 81.175 721.0125 80.3625L721.0125 79.90938ZM729.09064 83.55L729.09064 82.62813Q728.3875 83.72188 727.0594 83.72188Q726.1844 83.72188 725.45 83.2375Q724.73126 82.75313 724.325 81.89375Q723.9344 81.03438 723.9344 79.925Q723.9344 78.84688 724.29376 77.95625Q724.65314 77.06563 725.3719 76.59688Q726.10626 76.12813 726.9969 76.12813Q727.65314 76.12813 728.16876 76.40938Q728.6844 76.675 728.9969 77.12813L728.9969 73.53438L730.23126 73.53438L730.23126 83.55L729.09064 83.55ZM725.2 79.925Q725.2 81.31563 725.77814 82.01875Q726.3719 82.70625 727.16876 82.70625Q727.98126 82.70625 728.54376 82.05Q729.10626 81.37813 729.10626 80.03438Q729.10626 78.53438 728.52814 77.84688Q727.95 77.14375 727.1219 77.14375Q726.29376 77.14375 725.7469 77.81563Q725.2 78.4875 725.2 79.925Z" fill-rule="nonzero"/></svg>