<svg version="1.1" viewBox="0.0 0.0 816.0 427.0" fill="none" stroke="none" stroke-linecap="square" stroke-miterlimit="10" width="816" height="427" xmlns:xlink="http://www.w3.org/1999/xlink" xmlns="http://www.w3.org/2000/svg"><path fill="#ffffff" d="M0 0L816.0 0L816.0 427.0L0 427.0L0 0Z" fill-rule="nonzero"/><path stroke="#333333" stroke-width="1.0" stroke-linecap="butt" d="M81.5 351.5L794.5 351.5" fill-rule="nonzero"/><path stroke="#cccccc" stroke-width="1.0" stroke-linecap="butt" d="M81.5 270.5L794.5 270.5" fill-rule="nonzero"/><path stroke="#cccccc" stroke-width="1.0" stroke-linecap="butt" d="M81.5 190.5L794.5 190.5" fill-rule="nonzero"/><path stroke="#cccccc" stroke-width="1.0" stroke-linecap="butt" d="M81.5 109.5L794.5 109.5" fill-rule="nonzero"/><path stroke="#cccccc" stroke-width="1.0" stroke-linecap="butt" d="M81.5 28.5L794.5 28.5" fill-rule="nonzero"/><clipPath id="id_0"><path d="M81.35 28.85L794.65 28.85L794.65 351.65L81.35 351.65L81.35 28.85Z" clip-rule="nonzero"/></clipPath><path stroke="#000000" stroke-width="2.0" stroke-linecap="butt" stroke-opacity="0.0" clip-path="url(#id_0)" d="M199.0 352.0L83.0 352.0L83.0 95.0C83.0 93.89543 83.89543 93.0 85.0 93.0L197.0 93.0C198.10457 93.0 199.0 93.89543 199.0 95.0Z" fill-rule="nonzero"/><path fill="#4285f4" clip-path="url(#id_0)" d="M199.0 352.0L83.0 352.0L83.0 95.0C83.0 93.89543 83.89543 93.0 85.0 93.0L197.0 93.0C198.10457 93.0 199.0 93.89543 199.0 95.0Z" fill-rule="nonzero"/><path stroke="#000000" stroke-width="2.0" stroke-linecap="butt" stroke-opacity="0.0" clip-path="url(#id_0)" d="M318.0 352.0L202.0 352.0L202.0 241.0C202.0 239.89543 202.89543 239.0 204.0 239.0L316.0 239.0C317.10458 239.0 318.0 239.89543 318.0 241.0Z" fill-rule="nonzero"/><path fill="#4285f4" clip-path="url(#id_0)" d="M318.0 352.0L202.0 352.0L202.0 241.0C202.0 239.89543 202.89543 239.0 204.0 239.0L316.0 239.0C317.10458 239.0 318.0 239.89543 318.0 241.0Z" fill-rule="nonzero"/><path stroke="#000000" stroke-width="2.0" stroke-linecap="butt" stroke-opacity="0.0" clip-path="url(#id_0)" d="M437.0 352.0L321.0 352.0L321.0 63.0C321.0 61.89543 321.89542 61.0 323.0 61.0L435.0 61.0C436.10458 61.0 437.0 61.89543 437.0 63.0Z" fill-rule="nonzero"/><path fill="#4285f4" clip-path="url(#id_0)" d="M437.0 352.0L321.0 352.0L321.0 63.0C321.0 61.89543 321.89542 61.0 323.0 61.0L435.0 61.0C436.10458 61.0 437.0 61.89543 437.0 63.0Z" fill-rule="nonzero"/><path stroke="#000000" stroke-width="2.0" stroke-linecap="butt" stroke-opacity="0.0" clip-path="url(#id_0)" d="M555.0 352.0L439.0 352.0L439.0 273.0C439.0 271.89542 439.89542 271.0 441.0 271.0L553.0 271.0C554.10455 271.0 555.0 271.89542 555.0 273.0Z" fill-rule="nonzero"/><path fill="#4285f4" clip-path="url(#id_0)" d="M555.0 352.0L439.0 352.0L439.0 273.0C439.0 271.89542 439.89542 271.0 441.0 271.0L553.0 271.0C554.10455 271.0 555.0 271.89542 555.0 273.0Z" fill-rule="nonzero"/><path stroke="#000000" stroke-width="2.0" stroke-linecap="butt" stroke-opacity="0.0" clip-path="url(#id_0)" d="M674.0 352.0L558.0 352.0L558.0 289.0C558.0 287.89542 558.89545 287.0 560.0 287.0L672.0 287.0C673.10455 287.0 674.0 287.89542 674.0 289.0Z" fill-rule="nonzero"/><path fill="#4285f4" clip-path="url(#id_0)" d="M674.0 352.0L558.0 352.0L558.0 289.0C558.0 287.89542 558.89545 287.0 560.0 287.0L672.0 287.0C673.10455 287.0 674.0 287.89542 674.0 289.0Z" fill-rule="nonzero"/><path stroke="#000000" stroke-width="2.0" stroke-linecap="butt" stroke-opacity="0.0" clip-path="url(#id_0)" d="M793.0 352.0L677.0 352.0L677.0 338.0C677.0 336.89542 677.89545 336.0 679.0 336.0L791.0 336.0C792.10455 336.0 793.0 336.89542 793.0 338.0Z" fill-rule="nonzero"/><path fill="#4285f4" clip-path="url(#id_0)" d="M793.0 352.0L677.0 352.0L677.0 338.0C677.0 336.89542 677.89545 336.0 679.0 336.0L791.0 336.0C792.10455 336.0 793.0 336.89542 793.0 338.0Z" fill-rule="nonzero"/><path fill="#424242" d="M378.34375 396.30624L378.375 397.00937Q379.0625 396.19687 380.25 396.19687Q381.57812 396.19687 382.0625 397.2125Q382.375 396.75937 382.875 396.47812Q383.39062 396.19687 384.07812 396.19687Q386.17188 396.19687 386.20312 398.4L386.20312 402.65L385.125 402.65L385.125 398.4625Q385.125 397.79062 384.8125 397.4625Q384.5 397.11874 383.76562 397.11874Q383.15625 397.11874 382.75 397.47812Q382.35938 397.8375 382.29688 398.44687L382.29688 402.65L381.21875 402.65L381.21875 398.49374Q381.21875 397.11874 379.85938 397.11874Q378.79688 397.11874 378.40625 398.025L378.40625 402.65L377.3125 402.65L377.3125 396.30624L378.34375 396.30624ZM388.03125 399.41562Q388.03125 398.49374 388.39062 397.74374Q388.76562 396.99374 389.42188 396.60312Q390.07812 396.19687 390.90625 396.19687Q392.20312 396.19687 393.0 397.0875Q393.8125 397.97812 393.8125 399.47812L393.8125 399.55624Q393.8125 400.47812 393.45312 401.2125Q393.09375 401.94687 392.4375 402.36874Q391.78125 402.775 390.92188 402.775Q389.64062 402.775 388.82812 401.88437Q388.03125 400.97812 388.03125 399.49374L388.03125 399.41562ZM389.125 399.55624Q389.125 400.60312 389.60938 401.24374Q390.10938 401.88437 390.92188 401.88437Q391.75 401.88437 392.23438 401.24374Q392.71875 400.5875 392.71875 399.41562Q392.71875 398.38437 392.21875 397.74374Q391.73438 397.0875 390.90625 397.0875Q390.10938 397.0875 389.60938 397.72812Q389.125 398.35312 389.125 399.55624ZM395.03125 399.41562Q395.03125 398.49374 395.39062 397.74374Q395.76562 396.99374 396.42188 396.60312Q397.07812 396.19687 397.90625 396.19687Q399.20312 396.19687 400.0 397.0875Q400.8125 397.97812 400.8125 399.47812L400.8125 399.55624Q400.8125 400.47812 400.45312 401.2125Q400.09375 401.94687 399.4375 402.36874Q398.78125 402.775 397.92188 402.775Q396.64062 402.775 395.82812 401.88437Q395.03125 400.97812 395.03125 399.49374L395.03125 399.41562ZM396.125 399.55624Q396.125 400.60312 396.60938 401.24374Q397.10938 401.88437 397.92188 401.88437Q398.75 401.88437 399.23438 401.24374Q399.71875 400.5875 399.71875 399.41562Q399.71875 398.38437 399.21875 397.74374Q398.73438 397.0875 397.90625 397.0875Q397.10938 397.0875 396.60938 397.72812Q396.125 398.35312 396.125 399.55624ZM402.0625 399.43124Q402.0625 397.9625 402.75 397.0875Q403.4375 396.19687 404.5625 396.19687Q405.67188 396.19687 406.32812 396.94687L406.32812 393.65L407.40625 393.65L407.40625 402.65L406.40625 402.65L406.35938 401.9625Q405.70312 402.775 404.54688 402.775Q403.45312 402.775 402.75 401.86874Q402.0625 400.9625 402.0625 399.50937L402.0625 399.43124ZM403.14062 399.55624Q403.14062 400.63437 403.57812 401.24374Q404.03125 401.85312 404.8125 401.85312Q405.84375 401.85312 406.32812 400.91562L406.32812 398.00937Q405.84375 397.11874 404.82812 397.11874Q404.03125 397.11874 403.57812 397.72812Q403.14062 398.3375 403.14062 399.55624ZM416.01562 400.9625Q416.01562 400.525 415.67188 400.29062Q415.34375 400.04062 414.51562 399.86874Q413.70312 399.69687 413.21875 399.44687Q412.73438 399.19687 412.5 398.86874Q412.28125 398.525 412.28125 398.05624Q412.28125 397.275 412.9375 396.74374Q413.59375 396.19687 414.625 396.19687Q415.70312 396.19687 416.35938 396.75937Q417.03125 397.30624 417.03125 398.16562L415.95312 398.16562Q415.95312 397.72812 415.5625 397.41562Q415.1875 397.0875 414.625 397.0875Q414.03125 397.0875 413.6875 397.35312Q413.35938 397.60312 413.35938 398.00937Q413.35938 398.4 413.67188 398.60312Q413.98438 398.80624 414.79688 398.99374Q415.60938 399.16562 416.10938 399.41562Q416.60938 399.66562 416.84375 400.025Q417.09375 400.38437 417.09375 400.88437Q417.09375 401.74374 416.40625 402.25937Q415.73438 402.775 414.65625 402.775Q413.89062 402.775 413.29688 402.50937Q412.71875 402.22812 412.39062 401.74374Q412.0625 401.25937 412.0625 400.69687L413.14062 400.69687Q413.17188 401.24374 413.57812 401.57187Q413.98438 401.88437 414.65625 401.88437Q415.26562 401.88437 415.64062 401.63437Q416.01562 401.38437 416.01562 400.9625ZM423.9375 401.15L425.15625 396.30624L426.23438 396.30624L424.39062 402.65L423.51562 402.65L421.96875 397.8375L420.46875 402.65L419.59375 402.65L417.75 396.30624L418.82812 396.30624L420.07812 401.05624L421.5625 396.30624L422.42188 396.30624L423.9375 401.15ZM428.5 402.65L427.42188 402.65L427.42188 396.30624L428.5 396.30624L428.5 402.65ZM427.32812 394.63437Q427.32812 394.36874 427.48438 394.18124Q427.65625 393.99374 427.96875 393.99374Q428.28125 393.99374 428.4375 394.18124Q428.60938 394.36874 428.60938 394.63437Q428.60938 394.88437 428.4375 395.07187Q428.28125 395.24374 427.96875 395.24374Q427.65625 395.24374 427.48438 395.07187Q427.32812 394.88437 427.32812 394.63437ZM431.34375 396.30624L431.375 397.10312Q432.10938 396.19687 433.28125 396.19687Q435.29688 396.19687 435.3125 398.4625L435.3125 402.65L434.21875 402.65L434.21875 398.44687Q434.21875 397.775 433.90625 397.44687Q433.60938 397.11874 432.95312 397.11874Q432.42188 397.11874 432.01562 397.4Q431.625 397.68124 431.40625 398.13437L431.40625 402.65L430.32812 402.65L430.32812 396.30624L431.34375 396.30624ZM437.0625 399.43124Q437.0625 397.94687 437.75 397.07187Q438.4375 396.19687 439.5625 396.19687Q440.71875 396.19687 441.375 397.00937L441.42188 396.30624L442.42188 396.30624L442.42188 402.49374Q442.42188 403.72812 441.6875 404.43124Q440.95312 405.15 439.73438 405.15Q439.04688 405.15 438.39062 404.85312Q437.73438 404.55624 437.39062 404.05624L437.95312 403.4Q438.64062 404.25937 439.65625 404.25937Q440.4375 404.25937 440.875 403.80624Q441.32812 403.36874 441.32812 402.55624L441.32812 402.00937Q440.67188 402.775 439.54688 402.775Q438.4375 402.775 437.75 401.88437Q437.0625 400.97812 437.0625 399.43124ZM438.15625 399.55624Q438.15625 400.61874 438.59375 401.24374Q439.03125 401.85312 439.82812 401.85312Q440.84375 401.85312 441.32812 400.91562L441.32812 398.025Q440.82812 397.11874 439.82812 397.11874Q439.04688 397.11874 438.59375 397.72812Q438.15625 398.3375 438.15625 399.55624ZM448.01562 400.9625Q448.01562 400.525 447.67188 400.29062Q447.34375 400.04062 446.51562 399.86874Q445.70312 399.69687 445.21875 399.44687Q444.73438 399.19687 444.5 398.86874Q444.28125 398.525 444.28125 398.05624Q444.28125 397.275 444.9375 396.74374Q445.59375 396.19687 446.625 396.19687Q447.70312 396.19687 448.35938 396.75937Q449.03125 397.30624 449.03125 398.16562L447.95312 398.16562Q447.95312 397.72812 447.5625 397.41562Q447.1875 397.0875 446.625 397.0875Q446.03125 397.0875 445.6875 397.35312Q445.35938 397.60312 445.35938 398.00937Q445.35938 398.4 445.67188 398.60312Q445.98438 398.80624 446.79688 398.99374Q447.60938 399.16562 448.10938 399.41562Q448.60938 399.66562 448.84375 400.025Q449.09375 400.38437 449.09375 400.88437Q449.09375 401.74374 448.40625 402.25937Q447.73438 402.775 446.65625 402.775Q445.89062 402.775 445.29688 402.50937Q444.71875 402.22812 444.39062 401.74374Q444.0625 401.25937 444.0625 400.69687L445.14062 400.69687Q445.17188 401.24374 445.57812 401.57187Q445.98438 401.88437 446.65625 401.88437Q447.26562 401.88437 447.64062 401.63437Q448.01562 401.38437 448.01562 400.9625ZM458.67188 399.55624Q458.67188 400.99374 458.01562 401.88437Q457.35938 402.775 456.21875 402.775Q455.0625 402.775 454.40625 402.04062L454.40625 405.0875L453.32812 405.0875L453.32812 396.30624L454.3125 396.30624L454.35938 397.00937Q455.03125 396.19687 456.20312 396.19687Q457.34375 396.19687 458.0 397.05624Q458.67188 397.91562 458.67188 399.44687L458.67188 399.55624ZM457.59375 399.43124Q457.59375 398.35312 457.125 397.74374Q456.67188 397.11874 455.875 397.11874Q454.89062 397.11874 454.40625 397.97812L454.40625 401.00937Q454.89062 401.88437 455.89062 401.88437Q456.67188 401.88437 457.125 401.275Q457.59375 400.65 457.59375 399.43124ZM462.95312 402.775Q461.65625 402.775 460.84375 401.93124Q460.04688 401.07187 460.04688 399.65L460.04688 399.4625Q460.04688 398.50937 460.40625 397.775Q460.76562 397.025 461.40625 396.61874Q462.0625 396.19687 462.8125 396.19687Q464.04688 396.19687 464.73438 397.00937Q465.42188 397.82187 465.42188 399.3375L465.42188 399.79062L461.125 399.79062Q461.15625 400.72812 461.67188 401.30624Q462.20312 401.88437 463.01562 401.88437Q463.57812 401.88437 463.96875 401.65Q464.375 401.41562 464.6875 401.025L465.34375 401.54062Q464.54688 402.775 462.95312 402.775ZM462.8125 397.0875Q462.15625 397.0875 461.70312 397.57187Q461.26562 398.04062 461.17188 398.9L464.34375 398.9L464.34375 398.82187Q464.29688 397.99374 463.89062 397.54062Q463.5 397.0875 462.8125 397.0875ZM469.39062 397.275Q469.14062 397.24374 468.85938 397.24374Q467.78125 397.24374 467.40625 398.15L467.40625 402.65L466.32812 402.65L466.32812 396.30624L467.375 396.30624L467.39062 397.04062Q467.92188 396.19687 468.90625 396.19687Q469.21875 396.19687 469.39062 396.275L469.39062 397.275ZM478.9375 401.15L480.15625 396.30624L481.23438 396.30624L479.39062 402.65L478.51562 402.65L476.96875 397.8375L475.46875 402.65L474.59375 402.65L472.75 396.30624L473.82812 396.30624L475.07812 401.05624L476.5625 396.30624L477.42188 396.30624L478.9375 401.15ZM484.95312 402.775Q483.65625 402.775 482.84375 401.93124Q482.04688 401.07187 482.04688 399.65L482.04688 399.4625Q482.04688 398.50937 482.40625 397.775Q482.76562 397.025 483.40625 396.61874Q484.0625 396.19687 484.8125 396.19687Q486.04688 396.19687 486.73438 397.00937Q487.42188 397.82187 487.42188 399.3375L487.42188 399.79062L483.125 399.79062Q483.15625 400.72812 483.67188 401.30624Q484.20312 401.88437 485.01562 401.88437Q485.57812 401.88437 485.96875 401.65Q486.375 401.41562 486.6875 401.025L487.34375 401.54062Q486.54688 402.775 484.95312 402.775ZM484.8125 397.0875Q484.15625 397.0875 483.70312 397.57187Q483.26562 398.04062 483.17188 398.9L486.34375 398.9L486.34375 398.82187Q486.29688 397.99374 485.89062 397.54062Q485.5 397.0875 484.8125 397.0875ZM490.95312 402.775Q489.65625 402.775 488.84375 401.93124Q488.04688 401.07187 488.04688 399.65L488.04688 399.4625Q488.04688 398.50937 488.40625 397.775Q488.76562 397.025 489.40625 396.61874Q490.0625 396.19687 490.8125 396.19687Q492.04688 396.19687 492.73438 397.00937Q493.42188 397.82187 493.42188 399.3375L493.42188 399.79062L489.125 399.79062Q489.15625 400.72812 489.67188 401.30624Q490.20312 401.88437 491.01562 401.88437Q491.57812 401.88437 491.96875 401.65Q492.375 401.41562 492.6875 401.025L493.34375 401.54062Q492.54688 402.775 490.95312 402.775ZM490.8125 397.0875Q490.15625 397.0875 489.70312 397.57187Q489.26562 398.04062 489.17188 398.9L492.34375 398.9L492.34375 398.82187Q492.29688 397.99374 491.89062 397.54062Q491.5 397.0875 490.8125 397.0875ZM496.09375 399.7125L495.40625 400.41562L495.40625 402.65L494.32812 402.65L494.32812 393.65L495.40625 393.65L495.40625 399.0875L495.98438 398.4L497.96875 396.30624L499.28125 396.30624L496.8125 398.9625L499.57812 402.65L498.29688 402.65L496.09375 399.7125Z" fill-rule="nonzero"/><path fill="#424242" d="M32.58437 234.14062Q32.58437 233.5625 32.24062 233.125Q31.881245 232.6875 31.349995 232.64062L31.349995 231.60938Q31.89687 231.64062 32.39687 232.0Q32.881245 232.34375 33.17812 232.92188Q33.474995 233.48438 33.474995 234.14062Q33.474995 235.4375 32.61562 236.20312Q31.74062 236.95312 30.24062 236.95312L30.05312 236.95312Q29.131245 236.95312 28.412495 236.625Q27.693745 236.28125 27.30312 235.65625Q26.89687 235.01562 26.89687 234.14062Q26.89687 233.07812 27.537495 232.375Q28.162495 231.65625 29.193745 231.60938L29.193745 232.64062Q28.568745 232.6875 28.17812 233.10938Q27.787495 233.53125 27.787495 234.14062Q27.787495 234.96875 28.381245 235.42188Q28.974995 235.875 30.099995 235.875L30.30312 235.875Q31.39687 235.875 31.99062 235.42188Q32.58437 234.96875 32.58437 234.14062ZM30.11562 230.96875Q29.193745 230.96875 28.443745 230.60938Q27.693745 230.23438 27.30312 229.57812Q26.89687 228.92188 26.89687 228.09375Q26.89687 226.79688 27.787495 226.0Q28.67812 225.1875 30.17812 225.1875L30.256245 225.1875Q31.17812 225.1875 31.912495 225.54688Q32.64687 225.90625 33.068745 226.5625Q33.474995 227.21875 33.474995 228.07812Q33.474995 229.35938 32.58437 230.17188Q31.67812 230.96875 30.193745 230.96875L30.11562 230.96875ZM30.256245 229.875Q31.30312 229.875 31.943745 229.39062Q32.58437 228.89062 32.58437 228.07812Q32.58437 227.25 31.943745 226.76562Q31.287495 226.28125 30.11562 226.28125Q29.08437 226.28125 28.443745 226.78125Q27.787495 227.26562 27.787495 228.09375Q27.787495 228.89062 28.42812 229.39062Q29.05312 229.875 30.256245 229.875ZM32.724995 219.76562Q33.474995 220.39062 33.474995 221.625Q33.474995 222.64062 32.881245 223.17188Q32.287495 223.70312 31.131245 223.70312L27.006245 223.70312L27.006245 222.625L31.099995 222.625Q32.55312 222.625 32.55312 221.45312Q32.55312 220.20312 31.61562 219.79688L27.006245 219.79688L27.006245 218.70312L33.349995 218.70312L33.349995 219.73438L32.724995 219.76562ZM27.006245 215.65625L27.80312 215.625Q26.89687 214.89062 26.89687 213.71875Q26.89687 211.70312 29.162495 211.6875L33.349995 211.6875L33.349995 212.78125L29.14687 212.78125Q28.474995 212.78125 28.14687 213.09375Q27.818745 213.39062 27.818745 214.04688Q27.818745 214.57812 28.099995 214.98438Q28.381245 215.375 28.83437 215.59375L33.349995 215.59375L33.349995 216.67188L27.006245 216.67188L27.006245 215.65625ZM25.474995 208.20312L27.006245 208.20312L27.006245 207.03125L27.849995 207.03125L27.849995 208.20312L31.77187 208.20312Q32.162495 208.20312 32.349995 208.04688Q32.537495 207.89062 32.537495 207.51562Q32.537495 207.32812 32.474995 207.0L33.349995 207.0Q33.474995 207.42188 33.474995 207.82812Q33.474995 208.54688 33.037495 208.92188Q32.58437 209.29688 31.77187 209.29688L27.849995 209.29688L27.849995 210.45312L27.006245 210.45312L27.006245 209.29688L25.474995 209.29688L25.474995 208.20312ZM30.11562 202.96875Q29.193745 202.96875 28.443745 202.60938Q27.693745 202.23438 27.30312 201.57812Q26.89687 200.92188 26.89687 200.09375Q26.89687 198.79688 27.787495 198.0Q28.67812 197.1875 30.17812 197.1875L30.256245 197.1875Q31.17812 197.1875 31.912495 197.54688Q32.64687 197.90625 33.068745 198.5625Q33.474995 199.21875 33.474995 200.07812Q33.474995 201.35938 32.58437 202.17188Q31.67812 202.96875 30.193745 202.96875L30.11562 202.96875ZM30.256245 201.875Q31.30312 201.875 31.943745 201.39062Q32.58437 200.89062 32.58437 200.07812Q32.58437 199.25 31.943745 198.76562Q31.287495 198.28125 30.11562 198.28125Q29.08437 198.28125 28.443745 198.78125Q27.787495 199.26562 27.787495 200.09375Q27.787495 200.89062 28.42812 201.39062Q29.05312 201.875 30.256245 201.875ZM33.349995 195.14062L27.849995 195.14062L27.849995 196.14062L27.006245 196.14062L27.006245 195.14062L26.36562 195.14062Q25.33437 195.14062 24.787495 194.60938Q24.224995 194.0625 24.224995 193.0625Q24.224995 192.6875 24.318745 192.3125L25.20937 192.375Q25.14687 192.65625 25.14687 192.95312Q25.14687 193.48438 25.45937 193.78125Q25.77187 194.0625 26.33437 194.0625L27.006245 194.0625L27.006245 192.70312L27.849995 192.70312L27.849995 194.0625L33.349995 194.0625L33.349995 195.14062ZM31.849995 183.0625L27.006245 181.84375L27.006245 180.76562L33.349995 182.60938L33.349995 183.48438L28.537495 185.03125L33.349995 186.53125L33.349995 187.40625L27.006245 189.25L27.006245 188.17188L31.756245 186.92188L27.006245 185.4375L27.006245 184.57812L31.849995 183.0625ZM33.474995 177.04688Q33.474995 178.34375 32.631245 179.15625Q31.77187 179.95312 30.349995 179.95312L30.162495 179.95312Q29.20937 179.95312 28.474995 179.59375Q27.724995 179.23438 27.318745 178.59375Q26.89687 177.9375 26.89687 177.1875Q26.89687 175.95312 27.70937 175.26562Q28.52187 174.57812 30.037495 174.57812L30.49062 174.57812L30.49062 178.875Q31.42812 178.84375 32.006245 178.32812Q32.58437 177.79688 32.58437 176.98438Q32.58437 176.42188 32.349995 176.03125Q32.11562 175.625 31.724995 175.3125L32.24062 174.65625Q33.474995 175.45312 33.474995 177.04688ZM27.787495 177.1875Q27.787495 177.84375 28.27187 178.29688Q28.74062 178.73438 29.599995 178.82812L29.599995 175.65625L29.52187 175.65625Q28.693745 175.70312 28.24062 176.10938Q27.787495 176.5 27.787495 177.1875ZM33.474995 171.04688Q33.474995 172.34375 32.631245 173.15625Q31.77187 173.95312 30.349995 173.95312L30.162495 173.95312Q29.20937 173.95312 28.474995 173.59375Q27.724995 173.23438 27.318745 172.59375Q26.89687 171.9375 26.89687 171.1875Q26.89687 169.95312 27.70937 169.26562Q28.52187 168.57812 30.037495 168.57812L30.49062 168.57812L30.49062 172.875Q31.42812 172.84375 32.006245 172.32812Q32.58437 171.79688 32.58437 170.98438Q32.58437 170.42188 32.349995 170.03125Q32.11562 169.625 31.724995 169.3125L32.24062 168.65625Q33.474995 169.45312 33.474995 171.04688ZM27.787495 171.1875Q27.787495 171.84375 28.27187 172.29688Q28.74062 172.73438 29.599995 172.82812L29.599995 169.65625L29.52187 169.65625Q28.693745 169.70312 28.24062 170.10938Q27.787495 170.5 27.787495 171.1875ZM30.412495 165.90625L31.11562 166.59375L33.349995 166.59375L33.349995 167.67188L24.349995 167.67188L24.349995 166.59375L29.787495 166.59375L29.099995 166.01562L27.006245 164.03125L27.006245 162.71875L29.662495 165.1875L33.349995 162.42188L33.349995 163.70312L30.412495 165.90625ZM31.662495 157.98438Q31.224995 157.98438 30.99062 158.32812Q30.74062 158.65625 30.568745 159.48438Q30.39687 160.29688 30.14687 160.78125Q29.89687 161.26562 29.568745 161.5Q29.224995 161.71875 28.756245 161.71875Q27.974995 161.71875 27.443745 161.0625Q26.89687 160.40625 26.89687 159.375Q26.89687 158.29688 27.45937 157.64062Q28.006245 156.96875 28.86562 156.96875L28.86562 158.04688Q28.42812 158.04688 28.11562 158.4375Q27.787495 158.8125 27.787495 159.375Q27.787495 159.96875 28.05312 160.3125Q28.30312 160.64062 28.70937 160.64062Q29.099995 160.64062 29.30312 160.32812Q29.506245 160.01562 29.693745 159.20312Q29.86562 158.39062 30.11562 157.89062Q30.36562 157.39062 30.724995 157.15625Q31.08437 156.90625 31.58437 156.90625Q32.443745 156.90625 32.95937 157.59375Q33.474995 158.26562 33.474995 159.34375Q33.474995 160.10938 33.20937 160.70312Q32.92812 161.28125 32.443745 161.60938Q31.95937 161.9375 31.39687 161.9375L31.39687 160.85938Q31.943745 160.82812 32.27187 160.42188Q32.58437 160.01562 32.58437 159.34375Q32.58437 158.73438 32.33437 158.35938Q32.08437 157.98438 31.662495 157.98438Z" fill-rule="nonzero"/><path fill="#757575" d="M74.4125 352.50937Q74.4125 354.41562 73.75625 355.35312Q73.11562 356.275 71.725 356.275Q70.36562 356.275 69.70937 355.36874Q69.05312 354.4625 69.02187 352.65L69.02187 351.2125Q69.02187 349.32187 69.6625 348.41562Q70.31875 347.49374 71.70937 347.49374Q73.08437 347.49374 73.74062 348.38437Q74.39687 349.25937 74.4125 351.10312L74.4125 352.50937ZM73.31875 351.025Q73.31875 349.65 72.92812 349.025Q72.55312 348.38437 71.70937 348.38437Q70.88125 348.38437 70.49062 349.025Q70.11562 349.65 70.11562 350.94687L70.11562 352.68124Q70.11562 354.05624 70.50625 354.72812Q70.9125 355.38437 71.725 355.38437Q72.52187 355.38437 72.9125 354.75937Q73.30312 354.13437 73.31875 352.80624L73.31875 351.025Z" fill-rule="nonzero"/><path fill="#757575" d="M69.55312 271.16876L69.99062 266.91876L74.36562 266.91876L74.36562 267.91876L70.9125 267.91876L70.64687 270.2469Q71.2875 269.8719 72.08437 269.8719Q73.24062 269.8719 73.92812 270.65314Q74.61562 271.41876 74.61562 272.73126Q74.61562 274.04376 73.89687 274.8094Q73.19375 275.575 71.9125 275.575Q70.7875 275.575 70.06875 274.95Q69.35 274.3094 69.25625 273.2L70.27187 273.2Q70.38125 273.9344 70.80312 274.3094Q71.225 274.6844 71.9125 274.6844Q72.6625 274.6844 73.1 274.16876Q73.5375 273.65314 73.5375 272.7469Q73.5375 271.8875 73.06875 271.3719Q72.6 270.85626 71.81875 270.85626Q71.11562 270.85626 70.70937 271.15314L70.42812 271.3875L69.55312 271.16876Z" fill-rule="nonzero"/><path fill="#757575" d="M65.61562 194.75L64.5375 194.75L64.5375 187.53125L62.35 188.32812L62.35 187.34375L65.45937 186.17188L65.61562 186.17188L65.61562 194.75ZM74.4125 191.10938Q74.4125 193.01562 73.75625 193.95312Q73.11562 194.875 71.725 194.875Q70.36562 194.875 69.70937 193.96875Q69.05312 193.0625 69.02187 191.25L69.02187 189.8125Q69.02187 187.92188 69.6625 187.01562Q70.31875 186.09375 71.70937 186.09375Q73.08437 186.09375 73.74062 186.98438Q74.39687 187.85938 74.4125 189.70312L74.4125 191.10938ZM73.31875 189.625Q73.31875 188.25 72.92812 187.625Q72.55312 186.98438 71.70937 186.98438Q70.88125 186.98438 70.49062 187.625Q70.11562 188.25 70.11562 189.54688L70.11562 191.28125Q70.11562 192.65625 70.50625 193.32812Q70.9125 193.98438 71.725 193.98438Q72.52187 193.98438 72.9125 193.35938Q73.30312 192.73438 73.31875 191.40625L73.31875 189.625Z" fill-rule="nonzero"/><path fill="#757575" d="M65.61562 114.05L64.5375 114.05L64.5375 106.83125L62.35 107.62813L62.35 106.64375L65.45937 105.47188L65.61562 105.47188L65.61562 114.05ZM69.55312 109.76875L69.99062 105.51875L74.36562 105.51875L74.36562 106.51875L70.9125 106.51875L70.64687 108.84688Q71.2875 108.47188 72.08437 108.47188Q73.24062 108.47188 73.92812 109.25313Q74.61562 110.01875 74.61562 111.33125Q74.61562 112.64375 73.89687 113.40938Q73.19375 114.175 71.9125 114.175Q70.7875 114.175 70.06875 113.55Q69.35 112.90938 69.25625 111.8L70.27187 111.8Q70.38125 112.53438 70.80312 112.90938Q71.225 113.28438 71.9125 113.28438Q72.6625 113.28438 73.1 112.76875Q73.5375 112.25313 73.5375 111.34688Q73.5375 110.4875 73.06875 109.97188Q72.6 109.45625 71.81875 109.45625Q71.11562 109.45625 70.70937 109.75313L70.42812 109.9875L69.55312 109.76875Z" fill-rule="nonzero"/><path fill="#757575" d="M67.64687 33.35L62.053123 33.35L62.053123 32.56875L65.00625 29.287498Q65.6625 28.537498 65.9125 28.084373Q66.1625 27.615623 66.1625 27.115623Q66.1625 26.443748 65.75625 26.021873Q65.36562 25.584373 64.67812 25.584373Q63.88125 25.584373 63.428123 26.053123Q62.975 26.506248 62.975 27.334373L61.896873 27.334373Q61.896873 26.146873 62.646873 25.428123Q63.4125 24.693748 64.67812 24.693748Q65.88125 24.693748 66.56875 25.318748Q67.25625 25.943748 67.25625 26.990623Q67.25625 28.240623 65.64687 29.990623L63.365623 32.459373L67.64687 32.459373L67.64687 33.35ZM74.4125 29.709373Q74.4125 31.615623 73.75625 32.553123Q73.11562 33.475 71.725 33.475Q70.36562 33.475 69.70937 32.56875Q69.05312 31.662498 69.02187 29.849998L69.02187 28.412498Q69.02187 26.521873 69.6625 25.615623Q70.31875 24.693748 71.70937 24.693748Q73.08437 24.693748 73.74062 25.584373Q74.39687 26.459373 74.4125 28.303123L74.4125 29.709373ZM73.31875 28.224998Q73.31875 26.849998 72.92812 26.224998Q72.55312 25.584373 71.70937 25.584373Q70.88125 25.584373 70.49062 26.224998Q70.11562 26.849998 70.11562 28.146873L70.11562 29.881248Q70.11562 31.256248 70.50625 31.928123Q70.9125 32.584373 71.725 32.584373Q72.52187 32.584373 72.9125 31.959373Q73.30312 31.334373 73.31875 30.006248L73.31875 28.224998Z" fill-rule="nonzero"/><path fill="#757575" d="M83.9125 366.00937Q83.9125 367.91562 83.25625 368.85312Q82.61562 369.775 81.225 369.775Q79.86562 369.775 79.20937 368.86874Q78.55312 367.9625 78.52187 366.15L78.52187 364.7125Q78.52187 362.82187 79.1625 361.91562Q79.81875 360.99374 81.20937 360.99374Q82.58437 360.99374 83.24062 361.88437Q83.89687 362.75937 83.9125 364.60312L83.9125 366.00937ZM82.81875 364.525Q82.81875 363.15 82.42812 362.525Q82.05312 361.88437 81.20937 361.88437Q80.38125 361.88437 79.99062 362.525Q79.61562 363.15 79.61562 364.44687L79.61562 366.18124Q79.61562 367.55624 80.00625 368.22812Q80.4125 368.88437 81.225 368.88437Q82.02187 368.88437 82.4125 368.25937Q82.80312 367.63437 82.81875 366.30624L82.81875 364.525Z" fill-rule="nonzero"/><path fill="#757575" d="M200.99896 369.65L199.92084 369.65L199.92084 362.43124L197.73334 363.22812L197.73334 362.24374L200.84271 361.07187L200.99896 361.07187L200.99896 369.65Z" fill-rule="nonzero"/><path fill="#757575" d="M321.91354 369.65L316.3198 369.65L316.3198 368.86874L319.27292 365.5875Q319.92917 364.8375 320.17917 364.38437Q320.42917 363.91562 320.42917 363.41562Q320.42917 362.74374 320.02292 362.32187Q319.6323 361.88437 318.9448 361.88437Q318.14792 361.88437 317.6948 362.35312Q317.24167 362.80624 317.24167 363.63437L316.16354 363.63437Q316.16354 362.44687 316.91354 361.72812Q317.67917 360.99374 318.9448 360.99374Q320.14792 360.99374 320.83542 361.61874Q321.52292 362.24374 321.52292 363.29062Q321.52292 364.54062 319.91354 366.29062L317.6323 368.75937L321.91354 368.75937L321.91354 369.65Z" fill-rule="nonzero"/><path fill="#757575" d="M436.78125 364.85312L437.59375 364.85312Q438.375 364.8375 438.8125 364.44687Q439.25 364.05624 439.25 363.38437Q439.25 361.88437 437.75 361.88437Q437.04688 361.88437 436.625 362.29062Q436.21875 362.69687 436.21875 363.35312L435.125 363.35312Q435.125 362.3375 435.85938 361.66562Q436.60938 360.99374 437.75 360.99374Q438.95312 360.99374 439.64062 361.63437Q440.32812 362.275 440.32812 363.41562Q440.32812 363.97812 439.96875 364.49374Q439.60938 365.00937 438.98438 365.275Q439.6875 365.49374 440.0625 366.00937Q440.45312 366.525 440.45312 367.275Q440.45312 368.41562 439.70312 369.10312Q438.95312 369.775 437.75 369.775Q436.5625 369.775 435.79688 369.11874Q435.04688 368.4625 435.04688 367.4L436.14062 367.4Q436.14062 368.07187 436.57812 368.47812Q437.01562 368.88437 437.76562 368.88437Q438.54688 368.88437 438.95312 368.47812Q439.375 368.05624 439.375 367.29062Q439.375 366.55624 438.92188 366.16562Q438.46875 365.75937 437.59375 365.74374L436.78125 365.74374L436.78125 364.85312Z" fill-rule="nonzero"/><path fill="#757575" d="M558.6646 366.79062L559.8521 366.79062L559.8521 367.66562L558.6646 367.66562L558.6646 369.65L557.5865 369.65L557.5865 367.66562L553.69586 367.66562L553.69586 367.025L557.50836 361.11874L558.6646 361.11874L558.6646 366.79062ZM554.93024 366.79062L557.5865 366.79062L557.5865 362.60312L557.44586 362.8375L554.93024 366.79062Z" fill-rule="nonzero"/><path fill="#757575" d="M673.4698 365.36874L673.9073 361.11874L678.2823 361.11874L678.2823 362.11874L674.82916 362.11874L674.56354 364.44687Q675.20416 364.07187 676.00104 364.07187Q677.1573 364.07187 677.8448 364.85312Q678.5323 365.61874 678.5323 366.93124Q678.5323 368.24374 677.81354 369.00937Q677.1104 369.775 675.82916 369.775Q674.70416 369.775 673.9854 369.15Q673.26666 368.50937 673.1729 367.4L674.18854 367.4Q674.2979 368.13437 674.7198 368.50937Q675.14166 368.88437 675.82916 368.88437Q676.57916 368.88437 677.01666 368.36874Q677.45416 367.85312 677.45416 366.94687Q677.45416 366.0875 676.9854 365.57187Q676.51666 365.05624 675.7354 365.05624Q675.0323 365.05624 674.62604 365.35312L674.3448 365.5875L673.4698 365.36874Z" fill-rule="nonzero"/><path fill="#757575" d="M792.35315 365.36874L792.79065 361.11874L797.16565 361.11874L797.16565 362.11874L793.7125 362.11874L793.4469 364.44687Q794.0875 364.07187 794.8844 364.07187Q796.04065 364.07187 796.72815 364.85312Q797.41565 365.61874 797.41565 366.93124Q797.41565 368.24374 796.6969 369.00937Q795.9938 369.775 794.7125 369.775Q793.5875 369.775 792.8688 369.15Q792.15 368.50937 792.0563 367.4L793.0719 367.4Q793.1813 368.13437 793.60315 368.50937Q794.025 368.88437 794.7125 368.88437Q795.4625 368.88437 795.9 368.36874Q796.3375 367.85312 796.3375 366.94687Q796.3375 366.0875 795.8688 365.57187Q795.4 365.05624 794.6188 365.05624Q793.91565 365.05624 793.5094 365.35312L793.22815 365.5875L792.35315 365.36874Z" fill-rule="nonzero"/></svg>