<?xml version="1.0" encoding="UTF-8" standalone="no"?><svg xmlns="http://www.w3.org/2000/svg" xmlns:xlink="http://www.w3.org/1999/xlink" contentScriptType="application/ecmascript" contentStyleType="text/css" height="502px" preserveAspectRatio="none" style="width:978px;height:502px;" version="1.1" viewBox="0 0 978 502" width="978px" zoomAndPan="magnify"><defs><filter height="1" id="b1of7bqlt9ienn0" width="1" x="0" y="0"><feFlood flood-color="#FFB6C1" result="flood"/><feComposite in="SourceGraphic" in2="flood" operator="over"/></filter><filter height="1" id="b1of7bqlt9ienn1" width="1" x="0" y="0"><feFlood flood-color="#FFEFD5" result="flood"/><feComposite in="SourceGraphic" in2="flood" operator="over"/></filter></defs><g><!--entity code.abhinavsarkar.net--><polygon fill="#FFB6C1" points="204.5,132,204.5,132.2102,214.5909,131.5857,224.6818,132.1933,234.7727,132.3997,244.8636,131.2866,254.9545,131.9223,265.0455,131.5735,275.1364,131.6165,285.2273,131.9318,295.3182,131.3086,305.4091,132.5536,315.5,131.3697,325.5909,131.8022,335.6818,132.4319,345.7727,131.9142,355.8636,132.0682,365.9545,131.9681,376.0455,132.1785,386.1364,132.2391,396.2273,132.5857,406.3182,132.6711,416.4091,132.6793,426.5,132,426.5849,132,426.6545,140.2398,426.7341,148.4797,426.2596,156.7195,426.7262,164.9594,426.5,173.1992,426.5,172.9027,416.4091,173.733,406.3182,172.7042,396.2273,173.1307,386.1364,173.9408,376.0455,173.1505,365.9545,173.3045,355.8636,173.5378,345.7727,173.6155,335.6818,173.1953,325.5909,173.4864,315.5,172.6268,305.4091,173.4836,295.3182,173.7474,285.2273,173.6438,275.1364,173.8122,265.0455,172.7161,254.9545,172.547,244.8636,172.5778,234.7727,173.1403,224.6818,173.0027,214.5909,173.8806,204.5,173.1992,204.4418,173.1992,204.3856,164.9594,204.5761,156.7195,204.2777,148.4797,204.327,140.2398,204.5,132" style="stroke: #808080; stroke-width: 1.5;"/><polygon fill="#FFB6C1" points="199.5,137,199.5,137.0701,201.5,136.8619,203.5,137.0644,205.5,137.1332,207.5,136.7622,209.5,137,209.4741,137,209.3578,138,209.3722,139,209.4773,140,209.2695,141,209.5,142,209.5,142.1845,207.5,141.7899,205.5,141.9341,203.5,142.144,201.5,141.9714,199.5,142,199.5227,142,199.4894,141,199.5595,140,199.5797,139,199.6952,138,199.5,137" style="stroke: #808080; stroke-width: 1.5;"/><polygon fill="#FFB6C1" points="199.5,163.1992,199.5,163.2693,201.5,163.0611,203.5,163.2636,205.5,163.3324,207.5,162.9614,209.5,163.1992,209.4741,163.1992,209.3578,164.1992,209.3722,165.1992,209.4773,166.1992,209.2695,167.1992,209.5,168.1992,209.5,168.3838,207.5,167.9891,205.5,168.1333,203.5,168.3432,201.5,168.1706,199.5,168.1992,199.5227,168.1992,199.4894,167.1992,199.5595,166.1992,199.5797,165.1992,199.6952,164.1992,199.5,163.1992" style="stroke: #808080; stroke-width: 1.5;"/><text fill="#000000" font-family="monospace" font-size="18" lengthAdjust="spacingAndGlyphs" textLength="202" x="214.5" y="159.4023">code.abhinavsarkar.net</text><!--entity Drone CI--><polygon fill="#FFB6C1" points="583,132,583,132.2102,592.5,131.5857,602,132.1933,611.5,132.3997,621,131.2866,630.5,131.9223,640,131.5735,649.5,131.6165,659,131.9318,668.5,131.3086,678,132,678.1845,132,677.7899,140.2398,677.9341,148.4797,678.144,156.7195,677.9714,164.9594,678,173.1992,678,173.2675,668.5,173.1673,659,173.3777,649.5,173.4384,640,173.7849,630.5,173.8703,621,173.8785,611.5,173.4538,602,173.6628,592.5,173.9015,583,173.1992,582.7596,173.1992,583.2262,164.9594,582.9012,156.7195,583.1779,148.4797,582.835,140.2398,583,132" style="stroke: #808080; stroke-width: 1.5;"/><polygon fill="#FFB6C1" points="578,137,578,137.0701,580,136.8619,582,137.0644,584,137.1332,586,136.7622,588,137,587.9741,137,587.8578,138,587.8722,139,587.9773,140,587.7695,141,588,142,588,142.1845,586,141.7899,584,141.9341,582,142.144,580,141.9714,578,142,578.0227,142,577.9894,141,578.0595,140,578.0797,139,578.1952,138,578,137" style="stroke: #808080; stroke-width: 1.5;"/><polygon fill="#FFB6C1" points="578,163.1992,578,163.2693,580,163.0611,582,163.2636,584,163.3324,586,162.9614,588,163.1992,587.9741,163.1992,587.8578,164.1992,587.8722,165.1992,587.9773,166.1992,587.7695,167.1992,588,168.1992,588,168.3838,586,167.9891,584,168.1333,582,168.3432,580,168.1706,578,168.1992,578.0227,168.1992,577.9894,167.1992,578.0595,166.1992,578.0797,165.1992,578.1952,164.1992,578,163.1992" style="stroke: #808080; stroke-width: 1.5;"/><text fill="#000000" font-family="monospace" font-size="18" lengthAdjust="spacingAndGlyphs" textLength="75" x="593" y="159.4023">Drone CI</text><!--entity Docker Compose--><polygon fill="#FFB6C1" points="175.5,380,175.5,380.2102,185.3824,379.5857,195.2647,380.1933,205.1471,380.3997,215.0294,379.2866,224.9118,379.9223,234.7941,379.5735,244.6765,379.6165,254.5588,379.9318,264.4412,379.3086,274.3235,380.5536,284.2059,379.3697,294.0882,379.8022,303.9706,380.4319,313.8529,379.9142,323.7353,380.0682,333.6176,379.9681,343.5,380,343.5595,380,343.5797,388.2398,343.6952,396.4797,343.7237,404.7195,343.7264,412.9594,343.5,421.1992,343.5,421.4538,333.6176,421.6628,323.7353,421.9015,313.8529,420.478,303.9706,421.8777,294.0882,420.9027,284.2059,421.733,274.3235,420.7042,264.4412,421.1307,254.5588,421.9408,244.6765,421.1505,234.7941,421.3045,224.9118,421.5378,215.0294,421.6155,205.1471,421.1953,195.2647,421.4864,185.3824,420.6268,175.5,421.1992,175.5948,421.1992,175.6827,412.9594,175.6482,404.7195,175.7043,396.4797,175.339,388.2398,175.5,380" style="stroke: #808080; stroke-width: 1.5;"/><polygon fill="#FFB6C1" points="170.5,385,170.5,385.0701,172.5,384.8619,174.5,385.0644,176.5,385.1332,178.5,384.7622,180.5,385,180.4741,385,180.3578,386,180.3722,387,180.4773,388,180.2695,389,180.5,390,180.5,390.1845,178.5,389.7899,176.5,389.9341,174.5,390.144,172.5,389.9714,170.5,390,170.5227,390,170.4894,389,170.5595,388,170.5797,387,170.6952,386,170.5,385" style="stroke: #808080; stroke-width: 1.5;"/><polygon fill="#FFB6C1" points="170.5,411.1992,170.5,411.2693,172.5,411.0611,174.5,411.2636,176.5,411.3324,178.5,410.9614,180.5,411.1992,180.4741,411.1992,180.3578,412.1992,180.3722,413.1992,180.4773,414.1992,180.2695,415.1992,180.5,416.1992,180.5,416.3838,178.5,415.9891,176.5,416.1333,174.5,416.3432,172.5,416.1706,170.5,416.1992,170.5227,416.1992,170.4894,415.1992,170.5595,414.1992,170.5797,413.1992,170.6952,412.1992,170.5,411.1992" style="stroke: #808080; stroke-width: 1.5;"/><text fill="#000000" font-family="monospace" font-size="18" lengthAdjust="spacingAndGlyphs" textLength="148" x="185.5" y="407.4023">Docker Compose</text><!--entity hooks.abhinavsarkar.net--><polygon fill="#FFB6C1" points="142.5,256,142.5,256.2102,152.6739,255.5857,162.8478,256.1933,173.0217,256.3997,183.1957,255.2866,193.3696,255.9223,203.5435,255.5735,213.7174,255.6165,223.8913,255.9318,234.0652,255.3086,244.2391,256.5536,254.413,255.3697,264.587,255.8022,274.7609,256.4319,284.9348,255.9142,295.1087,256.0682,305.2826,255.9681,315.4565,256.1785,325.6304,256.2391,335.8043,256.5857,345.9783,256.6711,356.1522,256.6793,366.3261,256.2546,376.5,256,376.6545,256,376.7341,264.2398,376.2596,272.4797,376.7262,280.7195,376.4012,288.9594,376.5,297.1992,376.5,297.733,366.3261,296.7042,356.1522,297.1307,345.9783,297.9408,335.8043,297.1505,325.6304,297.3045,315.4565,297.5378,305.2826,297.6155,295.1087,297.1953,284.9348,297.4864,274.7609,296.6268,264.587,297.4836,254.413,297.7474,244.2391,297.6438,234.0652,297.8122,223.8913,296.7161,213.7174,296.547,203.5435,296.5778,193.3696,297.1403,183.1957,297.0027,173.0217,297.8806,162.8478,297.0245,152.6739,296.8562,142.5,297.1992,142.5761,297.1992,142.2777,288.9594,142.327,280.7195,142.7163,272.4797,142.6452,264.2398,142.5,256" style="stroke: #808080; stroke-width: 1.5;"/><polygon fill="#FFB6C1" points="137.5,261,137.5,261.0701,139.5,260.8619,141.5,261.0644,143.5,261.1332,145.5,260.7622,147.5,261,147.4741,261,147.3578,262,147.3722,263,147.4773,264,147.2695,265,147.5,266,147.5,266.1845,145.5,265.7899,143.5,265.9341,141.5,266.144,139.5,265.9714,137.5,266,137.5227,266,137.4894,265,137.5595,264,137.5797,263,137.6952,262,137.5,261" style="stroke: #808080; stroke-width: 1.5;"/><polygon fill="#FFB6C1" points="137.5,287.1992,137.5,287.2693,139.5,287.0611,141.5,287.2636,143.5,287.3324,145.5,286.9614,147.5,287.1992,147.4741,287.1992,147.3578,288.1992,147.3722,289.1992,147.4773,290.1992,147.2695,291.1992,147.5,292.1992,147.5,292.3838,145.5,291.9891,143.5,292.1333,141.5,292.3432,139.5,292.1706,137.5,292.1992,137.5227,292.1992,137.4894,291.1992,137.5595,290.1992,137.5797,289.1992,137.6952,288.1992,137.5,287.1992" style="stroke: #808080; stroke-width: 1.5;"/><text fill="#000000" font-family="monospace" font-size="18" lengthAdjust="spacingAndGlyphs" textLength="214" x="152.5" y="283.4023">hooks.abhinavsarkar.net</text><!--entity abhinavsarkar.net--><polygon fill="#FFB6C1" points="706,380,706,380.2102,715.7222,379.5857,725.4444,380.1933,735.1667,380.3997,744.8889,379.2866,754.6111,379.9223,764.3333,379.5735,774.0556,379.6165,783.7778,379.9318,793.5,379.3086,803.2222,380.5536,812.9444,379.3697,822.6667,379.8022,832.3889,380.4319,842.1111,379.9142,851.8333,380.0682,861.5556,379.9681,871.2778,380.1785,881,380,881.0797,380,881.1952,388.2398,881.2237,396.4797,881.2264,404.7195,881.0849,412.9594,881,421.1992,881,421.6628,871.2778,421.9015,861.5556,420.478,851.8333,421.8777,842.1111,420.9027,832.3889,421.733,822.6667,420.7042,812.9444,421.1307,803.2222,421.9408,793.5,421.1505,783.7778,421.3045,774.0556,421.5378,764.3333,421.6155,754.6111,421.1953,744.8889,421.4864,735.1667,420.6268,725.4444,421.4836,715.7222,421.7474,706,421.1992,706.1482,421.1992,706.2043,412.9594,705.839,404.7195,705.7826,396.4797,705.7929,388.2398,706,380" style="stroke: #808080; stroke-width: 1.5;"/><polygon fill="#FFB6C1" points="701,385,701,385.0701,703,384.8619,705,385.0644,707,385.1332,709,384.7622,711,385,710.9741,385,710.8578,386,710.8722,387,710.9773,388,710.7695,389,711,390,711,390.1845,709,389.7899,707,389.9341,705,390.144,703,389.9714,701,390,701.0227,390,700.9894,389,701.0595,388,701.0797,387,701.1952,386,701,385" style="stroke: #808080; stroke-width: 1.5;"/><polygon fill="#FFB6C1" points="701,411.1992,701,411.2693,703,411.0611,705,411.2636,707,411.3324,709,410.9614,711,411.1992,710.9741,411.1992,710.8578,412.1992,710.8722,413.1992,710.9773,414.1992,710.7695,415.1992,711,416.1992,711,416.3838,709,415.9891,707,416.1333,705,416.3432,703,416.1706,701,416.1992,701.0227,416.1992,700.9894,415.1992,701.0595,414.1992,701.0797,413.1992,701.1952,412.1992,701,411.1992" style="stroke: #808080; stroke-width: 1.5;"/><text fill="#000000" font-family="monospace" font-size="18" lengthAdjust="spacingAndGlyphs" textLength="155" x="716" y="407.4023">abhinavsarkar.net</text><!--entity notes.abhinavsarkar.net--><polygon fill="#FFB6C1" points="722,8,722,8.2102,731.9565,7.5857,741.913,8.1933,751.8696,8.3997,761.8261,7.2866,771.7826,7.9223,781.7391,7.5735,791.6957,7.6165,801.6522,7.9318,811.6087,7.3086,821.5652,8.5536,831.5217,7.3697,841.4783,7.8022,851.4348,8.4319,861.3913,7.9142,871.3478,8.0682,881.3043,7.9681,891.2609,8.1785,901.2174,8.2391,911.1739,8.5857,921.1304,8.6711,931.087,8.6793,941.0435,8.2546,951,8,951.1545,8,951.2341,16.2398,950.7596,24.4797,951.2262,32.7195,950.9012,40.9594,951,49.1992,951,49.733,941.0435,48.7042,931.087,49.1307,921.1304,49.9408,911.1739,49.1505,901.2174,49.3045,891.2609,49.5378,881.3043,49.6155,871.3478,49.1953,861.3913,49.4864,851.4348,48.6268,841.4783,49.4836,831.5217,49.7474,821.5652,49.6438,811.6087,49.8122,801.6522,48.7161,791.6957,48.547,781.7391,48.5778,771.7826,49.1403,761.8261,49.0027,751.8696,49.8806,741.913,49.0245,731.9565,48.8562,722,49.1992,722.0761,49.1992,721.7777,40.9594,721.827,32.7195,722.2163,24.4797,722.1452,16.2398,722,8" style="stroke: #808080; stroke-width: 1.5;"/><polygon fill="#FFB6C1" points="717,13,717,13.0701,719,12.8619,721,13.0644,723,13.1332,725,12.7622,727,13,726.9741,13,726.8578,14,726.8722,15,726.9773,16,726.7695,17,727,18,727,18.1845,725,17.7899,723,17.9341,721,18.144,719,17.9714,717,18,717.0227,18,716.9894,17,717.0595,16,717.0797,15,717.1952,14,717,13" style="stroke: #808080; stroke-width: 1.5;"/><polygon fill="#FFB6C1" points="717,39.1992,717,39.2693,719,39.0611,721,39.2636,723,39.3324,725,38.9614,727,39.1992,726.9741,39.1992,726.8578,40.1992,726.8722,41.1992,726.9773,42.1992,726.7695,43.1992,727,44.1992,727,44.3838,725,43.9891,723,44.1333,721,44.3432,719,44.1706,717,44.1992,717.0227,44.1992,716.9894,43.1992,717.0595,42.1992,717.0797,41.1992,717.1952,40.1992,717,39.1992" style="stroke: #808080; stroke-width: 1.5;"/><text fill="#000000" font-family="monospace" font-size="18" lengthAdjust="spacingAndGlyphs" textLength="209" x="732" y="35.4023">notes.abhinavsarkar.net</text><polygon fill="#FFEFD5" points="68.008,31.2036,67.383,34.2481,64.9975,36.5647,62.2603,38.8727,60.0007,41.5533,55.7375,43.0817,51.8428,44.724,47.2716,45.7837,42.2351,46.2914,37.861,46.8119,31.9285,45.9931,28.1427,45.9021,23.2465,44.6143,18.5355,42.8372,15.2345,41.2522,11.9178,39.0317,9.4364,36.6728,7.3822,33.9637,6.1857,31.1897,5.5114,28.2091,5.8253,25.3539,6.9645,22.605,9.1974,20.2006,11.588,17.6934,14.5771,15.4323,19.4975,14.2818,22.5155,12.1353,27.8643,11.5227,31.945,10.4654,37.6972,10.7375,42.2354,10.7543,46.333,11.0247,51.5277,12.4842,55.5849,13.8853,59.1231,15.6067,62.2465,17.7161,65.162,20.3246,66.7978,22.7931,68.6609,25.9504,68.3313,28.3537" style="stroke: #A80036; stroke-width: 1.5;"/><text fill="#000000" font-family="monospace" font-size="18" lengthAdjust="spacingAndGlyphs" textLength="40" x="17.2843" y="35.5897">start</text><!--entity Me--><polygon fill="#FFEFD5" points="14.5,132,14.5,132.2102,23.7,131.5857,32.9,132.1933,42.1,132.3997,51.3,131.2866,60.5,132,60.4741,132,60.3578,140.2398,60.3722,148.4797,60.4773,156.7195,60.2695,164.9594,60.5,173.1992,60.5,173.7529,51.3,172.5689,42.1,173.0015,32.9,173.6312,23.7,173.1134,14.5,173.1992,14.5227,173.1992,14.4894,164.9594,14.5595,156.7195,14.5797,148.4797,14.6952,140.2398,14.5,132" style="stroke: #808080; stroke-width: 1.5;"/><polygon fill="#FFEFD5" points="9.5,137,9.5,137.0701,11.5,136.8619,13.5,137.0644,15.5,137.1332,17.5,136.7622,19.5,137,19.4741,137,19.3578,138,19.3722,139,19.4773,140,19.2695,141,19.5,142,19.5,142.1845,17.5,141.7899,15.5,141.9341,13.5,142.144,11.5,141.9714,9.5,142,9.5227,142,9.4894,141,9.5595,140,9.5797,139,9.6952,138,9.5,137" style="stroke: #808080; stroke-width: 1.5;"/><polygon fill="#FFEFD5" points="9.5,163.1992,9.5,163.2693,11.5,163.0611,13.5,163.2636,15.5,163.3324,17.5,162.9614,19.5,163.1992,19.4741,163.1992,19.3578,164.1992,19.3722,165.1992,19.4773,166.1992,19.2695,167.1992,19.5,168.1992,19.5,168.3838,17.5,167.9891,15.5,168.1333,13.5,168.3432,11.5,168.1706,9.5,168.1992,9.5227,168.1992,9.4894,167.1992,9.5595,166.1992,9.5797,165.1992,9.6952,164.1992,9.5,163.1992" style="stroke: #808080; stroke-width: 1.5;"/><text fill="#000000" font-family="monospace" font-size="18" lengthAdjust="spacingAndGlyphs" textLength="26" x="24.5" y="159.4023">Me</text><!--entity Strava--><polygon fill="#FFEFD5" points="430,8,430,8.2102,440.4286,7.5857,450.8571,8.1933,461.2857,8.3997,471.7143,7.2866,482.1429,7.9223,492.5714,7.5735,503,8,502.8722,8,502.9773,16.2398,502.7695,24.4797,503.1845,32.7195,502.7899,40.9594,503,49.1992,503,49.0015,492.5714,49.6312,482.1429,49.1134,471.7143,49.2675,461.2857,49.1673,450.8571,49.3777,440.4286,49.4384,430,49.1992,430.1952,49.1992,430.2237,40.9594,430.2264,32.7195,430.0849,24.4797,430.1545,16.2398,430,8" style="stroke: #808080; stroke-width: 1.5;"/><polygon fill="#FFEFD5" points="425,13,425,13.0701,427,12.8619,429,13.0644,431,13.1332,433,12.7622,435,13,434.9741,13,434.8578,14,434.8722,15,434.9773,16,434.7695,17,435,18,435,18.1845,433,17.7899,431,17.9341,429,18.144,427,17.9714,425,18,425.0227,18,424.9894,17,425.0595,16,425.0797,15,425.1952,14,425,13" style="stroke: #808080; stroke-width: 1.5;"/><polygon fill="#FFEFD5" points="425,39.1992,425,39.2693,427,39.0611,429,39.2636,431,39.3324,433,38.9614,435,39.1992,434.9741,39.1992,434.8578,40.1992,434.8722,41.1992,434.9773,42.1992,434.7695,43.1992,435,44.1992,435,44.3838,433,43.9891,431,44.1333,429,44.3432,427,44.1706,425,44.1992,425.0227,44.1992,424.9894,43.1992,425.0595,42.1992,425.0797,41.1992,425.1952,40.1992,425,39.1992" style="stroke: #808080; stroke-width: 1.5;"/><text fill="#000000" font-family="monospace" font-size="18" lengthAdjust="spacingAndGlyphs" textLength="53" x="440" y="35.4023">Strava</text><!--entity Goodreads--><polygon fill="#FFEFD5" points="574,8,574,8.2102,584.2727,7.5857,594.5455,8.1933,604.8182,8.3997,615.0909,7.2866,625.3636,7.9223,635.6364,7.5735,645.9091,7.6165,656.1818,7.9318,666.4545,7.3086,676.7273,8.5536,687,8,686.7899,8,686.9341,16.2398,687.144,24.4797,686.9714,32.7195,687.0227,40.9594,687,49.1992,687,49.1673,676.7273,49.3777,666.4545,49.4384,656.1818,49.7849,645.9091,49.8703,635.6364,49.8785,625.3636,49.4538,615.0909,49.6628,604.8182,49.9015,594.5455,48.478,584.2727,49.8777,574,49.1992,573.9012,49.1992,574.1779,40.9594,573.835,32.7195,573.9772,24.4797,574.2472,16.2398,574,8" style="stroke: #808080; stroke-width: 1.5;"/><polygon fill="#FFEFD5" points="569,13,569,13.0701,571,12.8619,573,13.0644,575,13.1332,577,12.7622,579,13,578.9741,13,578.8578,14,578.8722,15,578.9773,16,578.7695,17,579,18,579,18.1845,577,17.7899,575,17.9341,573,18.144,571,17.9714,569,18,569.0227,18,568.9894,17,569.0595,16,569.0797,15,569.1952,14,569,13" style="stroke: #808080; stroke-width: 1.5;"/><polygon fill="#FFEFD5" points="569,39.1992,569,39.2693,571,39.0611,573,39.2636,575,39.3324,577,38.9614,579,39.1992,578.9741,39.1992,578.8578,40.1992,578.8722,41.1992,578.9773,42.1992,578.7695,43.1992,579,44.1992,579,44.3838,577,43.9891,575,44.1333,573,44.3432,571,44.1706,569,44.1992,569.0227,44.1992,568.9894,43.1992,569.0595,42.1992,569.0797,41.1992,569.1952,40.1992,569,39.1992" style="stroke: #808080; stroke-width: 1.5;"/><text fill="#000000" font-family="monospace" font-size="18" lengthAdjust="spacingAndGlyphs" textLength="93" x="584" y="35.4023">Goodreads</text><!--entity Docker Hub--><polygon fill="#FFEFD5" points="569.5,256,569.5,256.2102,579.6667,255.5857,589.8333,256.1933,600,256.3997,610.1667,255.2866,620.3333,255.9223,630.5,255.5735,640.6667,255.6165,650.8333,255.9318,661,255.3086,671.1667,256.5536,681.3333,255.3697,691.5,256,691.4341,256,691.644,264.2398,691.4714,272.4797,691.5227,280.7195,691.4894,288.9594,691.5,297.1992,691.5,297.3777,681.3333,297.4384,671.1667,297.7849,661,297.8703,650.8333,297.8785,640.6667,297.4538,630.5,297.6628,620.3333,297.9015,610.1667,296.478,600,297.8777,589.8333,296.9027,579.6667,297.733,569.5,297.1992,569.335,297.1992,569.4772,288.9594,569.7472,280.7195,569.4838,272.4797,569.5351,264.2398,569.5,256" style="stroke: #808080; stroke-width: 1.5;"/><polygon fill="#FFEFD5" points="564.5,261,564.5,261.0701,566.5,260.8619,568.5,261.0644,570.5,261.1332,572.5,260.7622,574.5,261,574.4741,261,574.3578,262,574.3722,263,574.4773,264,574.2695,265,574.5,266,574.5,266.1845,572.5,265.7899,570.5,265.9341,568.5,266.144,566.5,265.9714,564.5,266,564.5227,266,564.4894,265,564.5595,264,564.5797,263,564.6952,262,564.5,261" style="stroke: #808080; stroke-width: 1.5;"/><polygon fill="#FFEFD5" points="564.5,287.1992,564.5,287.2693,566.5,287.0611,568.5,287.2636,570.5,287.3324,572.5,286.9614,574.5,287.1992,574.4741,287.1992,574.3578,288.1992,574.3722,289.1992,574.4773,290.1992,574.2695,291.1992,574.5,292.1992,574.5,292.3838,572.5,291.9891,570.5,292.1333,568.5,292.3432,566.5,292.1706,564.5,292.1992,564.5227,292.1992,564.4894,291.1992,564.5595,290.1992,564.5797,289.1992,564.6952,288.1992,564.5,287.1992" style="stroke: #808080; stroke-width: 1.5;"/><text fill="#000000" font-family="monospace" font-size="18" lengthAdjust="spacingAndGlyphs" textLength="102" x="579.5" y="283.4023">Docker Hub</text><polygon fill="#FFEFD5" points="966.7957,403.2036,966.2837,406.2481,964.3295,408.5647,962.0873,410.8727,960.2363,413.5533,956.7439,415.0817,953.5535,416.724,949.8088,417.7837,945.683,418.2914,942.0999,418.8119,937.24,417.9931,934.1388,417.9021,930.128,416.6143,926.2688,414.8372,923.5647,413.2522,920.8478,411.0317,918.8151,408.6728,917.1323,405.9637,916.1521,403.1897,915.5997,400.2091,915.8569,397.3539,916.7901,394.605,918.6192,392.2006,920.5776,389.6934,923.0262,387.4323,927.0569,386.2818,929.5291,384.1353,933.9107,383.5227,937.2536,382.4654,941.9657,382.7375,945.6832,382.7543,949.0399,383.0247,953.2953,384.4842,956.6189,385.8853,959.5173,387.6067,962.076,389.7161,964.4643,392.3246,965.8043,394.7931,967.3305,397.9504,967.0605,400.3537" style="stroke: #A80036; stroke-width: 1.5;"/><text fill="#000000" font-family="monospace" font-size="18" lengthAdjust="spacingAndGlyphs" textLength="32" x="925.6274" y="407.5897">end</text><!--link start to Me--><path d="M37.5,46.5307 L37.7802,46.5307 L36.9476,56.5556 L37.7577,66.5806 L38.0329,76.6055 L36.5488,86.6305 L37.3964,96.6554 L36.9313,106.6803 L36.9887,116.7053 L37.5,126.7302 " fill="none" style="stroke: #808080; stroke-width: 2.0;"/><polygon fill="#808080" points="37.5,131.9685,37.564,131.997,38.1738,130.1124,39.1589,128.3947,40.0217,126.6226,40.4827,124.6719,41.5,122.9685,41.4817,122.9502,40.5995,123.668,39.8096,124.4781,39.0839,125.3524,38.137,126.0055,37.5,126.9685,37.6305,127.099,36.5514,126.0199,35.8534,125.3219,35.2018,124.6703,34.2798,123.7483,33.5,122.9685,33.5208,122.9777,34.2903,124.7642,35.1544,126.5927,35.9728,128.4009,36.8784,130.2478,37.5,131.9685" style="stroke: #808080; stroke-width: 2.0;"/><!--link Me to code.abhinavsarkar.net--><path d="M60.724,152.5 L60.724,152.7802 L70.6034,151.9476 L80.4828,152.7577 L90.3622,153.0329 L100.2416,151.5488 L110.121,152.3964 L120.0004,151.9313 L129.8799,151.9887 L139.7593,152.4091 L149.6387,151.5782 L159.5181,153.2382 L169.3975,151.6596 L179.2769,152.2363 L189.1563,153.0759 L199.0357,152.5 " fill="none" style="stroke: #808080; stroke-width: 2.0;"/><polygon fill="#808080" points="204.3481,152.5,204.3766,152.564,202.492,151.5738,200.7743,150.9589,199.0022,150.2217,197.0515,149.0827,195.3481,148.5,195.3298,148.4817,196.0476,149.1995,196.8577,150.0096,197.732,150.8839,198.3851,151.537,199.3481,152.5,199.4786,152.6305,198.3995,153.1514,197.7015,154.0534,197.0499,155.0018,196.1279,155.6798,195.3481,156.5,195.3573,156.5208,197.1438,155.6903,198.9723,154.9544,200.7805,154.1728,202.6274,153.4784,204.3481,152.5" style="stroke: #808080; stroke-width: 2.0;"/><text fill="#000000" font-family="monospace" font-size="18" lengthAdjust="spacingAndGlyphs" textLength="107" x="79" y="144.9023">Pushes code</text><!--link code.abhinavsarkar.net to Drone CI--><path d="M426.5572,152.5 L426.5572,152.7802 L436.6221,151.9476 L446.687,152.7577 L456.7519,153.0329 L466.8169,151.5488 L476.8818,152.3964 L486.9467,151.9313 L497.0116,151.9887 L507.0765,152.4091 L517.1414,151.5782 L527.2063,153.2382 L537.2712,151.6596 L547.3362,152.2363 L557.4011,153.0759 L567.466,152.3856 L577.5309,152.5 " fill="none" style="stroke: #808080; stroke-width: 2.0;"/><polygon fill="#808080" points="582.7144,152.5,582.7429,152.564,580.8583,151.5738,579.1406,150.9589,577.3685,150.2217,575.4178,149.0827,573.7144,148.5,573.6961,148.4817,574.4139,149.1995,575.224,150.0096,576.0983,150.8839,576.7514,151.537,577.7144,152.5,577.8449,152.6305,576.7658,153.1514,576.0678,154.0534,575.4162,155.0018,574.4942,155.6798,573.7144,156.5,573.7236,156.5208,575.5101,155.6903,577.3386,154.9544,579.1468,154.1728,580.9937,153.4784,582.7144,152.5" style="stroke: #808080; stroke-width: 2.0;"/><text fill="#000000" font-family="monospace" font-size="18" lengthAdjust="spacingAndGlyphs" textLength="120" x="444.75" y="144.9023">Triggers build</text><!--link Strava to Drone CI--><path d="M470.83,49.108 L470.9192,49.1358 L471.4722,51.6828 L472.5482,54.3924 L473.4538,57.0491 L473.7995,59.5316 L474.9203,62.2553 L474.8884,62.2421 L475.9081,64.9992 L477.0887,67.8227 L478.3812,70.6924 L479.2882,73.4029 L480.7352,76.3364 L480.9491,76.458 L482.0476,78.936 L483.7707,81.769 L485.57,84.6453 L486.9259,87.2696 L488.515,90.0264 L488.5382,90.0458 L490.5011,92.412 L492.5699,94.8666 L494.5876,97.2786 L496.7029,99.772 L498.5,102 L498.6951,102.2256 L500.4084,103.7079 L501.9958,105.0447 L503.7674,106.5945 L505.5477,108.1543 L507.0544,109.3978 L506.8675,109.1374 L509.0849,110.9742 L510.6868,111.9537 L512.7567,113.5849 L514.3447,114.545 L516.3276,116.0552 L516.3118,116.0291 L518.4641,117.528 L520.2477,118.4184 L522.2489,119.6679 L524.2683,120.9474 L526.156,122.0096 L526.241,122.1739 L528.1992,123.0658 L530.3026,124.2385 L532.171,124.9569 L534.39,126.3529 L536.3759,127.2984 L536.4752,127.5209 L538.546,128.411 L540.6661,129.4115 L542.5572,129.8987 L544.6162,130.7622 L546.8238,131.959 L546.7241,131.7015 L548.9169,132.7486 L550.9972,133.5055 L553.2406,134.6833 L555.2057,135.1425 L557.3362,136.0288 L557.2874,135.8844 L559.4512,136.8282 L561.4066,137.1546 L563.5102,137.9201 L565.7589,139.1152 L567.7493,139.5452 L567.8042,139.7309 L569.8719,140.4583 L571.7689,140.6082 L573.8797,141.4814 L575.9439,142.1971 L577.8996,142.5455 " fill="none" style="stroke: #808080; stroke-width: 2.0;"/><polygon fill="#808080" points="582.8049,143.8586,582.8489,143.9131,581.1862,142.5129,579.7816,141.4322,578.293,140.2474,576.5278,138.7206,575.1454,137.6673,575.123,137.6543,575.5882,138.5758,576.1665,139.5627,576.8235,140.5949,577.2095,141.4707,577.975,142.5656,578.0673,142.7254,576.8902,142.9496,575.9827,143.6404,575.108,144.388,574.042,144.8045,573.0766,145.3952,573.0802,145.4176,575.0206,145.0773,576.9772,144.8393,578.926,144.552,580.8897,144.3588,582.8049,143.8586" style="stroke: #808080; stroke-width: 2.0;"/><text fill="#000000" font-family="monospace" font-size="18" lengthAdjust="spacingAndGlyphs" textLength="122" x="499.5" y="97.4023">Pulls activities</text><!--link Goodreads to Drone CI--><path d="M630.5,49.2548 L630.7802,49.2548 L629.9476,58.9292 L630.7577,68.6036 L631.0329,78.2779 L629.5488,87.9523 L630.3964,97.6267 L629.9313,107.3011 L629.9887,116.9754 L630.5,126.6498 " fill="none" style="stroke: #808080; stroke-width: 2.0;"/><polygon fill="#808080" points="630.5,131.6775,630.564,131.706,631.1738,129.8214,632.1589,128.1037,633.0217,126.3316,633.4827,124.3809,634.5,122.6775,634.4817,122.6592,633.5995,123.377,632.8096,124.1871,632.0839,125.0614,631.137,125.7145,630.5,126.6775,630.6305,126.808,629.5514,125.7289,628.8534,125.0309,628.2018,124.3793,627.2798,123.4573,626.5,122.6775,626.5208,122.6867,627.2903,124.4732,628.1544,126.3017,628.9728,128.1099,629.8784,129.9568,630.5,131.6775" style="stroke: #808080; stroke-width: 2.0;"/><text fill="#000000" font-family="monospace" font-size="18" lengthAdjust="spacingAndGlyphs" textLength="143" x="631.5" y="97.4023">Pulls books read</text><!--link notes.abhinavsarkar.net to Drone CI--><path d="M826.372,49.0254 L826.4523,49.0731 L824.6368,51.5888 L823.2921,54.384 L821.7942,57.0881 L819.7919,59.493 L818.4877,62.3122 L818.4593,62.2924 L816.3564,65.0418 L814.3963,67.8906 L812.5355,70.8085 L810.3325,73.4882 L808.6089,76.5016 L808.7959,76.6616 L806.053,79.0585 L803.856,81.9225 L801.7257,84.8434 L799.2078,87.4328 L796.8937,90.1966 L796.9137,90.2193 L794.2056,92.5466 L791.5887,94.9775 L788.9277,97.3584 L786.3508,99.8346 L783.5,102 L783.666,102.2478 L781.3664,103.7927 L778.9597,105.1779 L776.7097,106.797 L774.4671,108.427 L771.9918,109.7097 L771.834,109.4307 L769.6963,111.3546 L767.0389,112.3598 L764.7766,114.0634 L762.1075,115.0478 L759.7719,116.6217 L759.7586,116.5943 L757.3708,118.1495 L754.6732,119.0643 L752.1583,120.357 L749.6589,121.6814 L747.0487,122.777 L747.12,122.9477 L744.4444,123.8632 L741.8906,125.0705 L739.1397,125.8058 L736.6829,127.245 L734.0306,128.2162 L734.1138,128.4452 L731.4771,129.3547 L728.8818,130.3779 L726.0944,130.8728 L723.4478,131.755 L720.9259,132.9802 L720.8422,132.717 L718.3214,133.7812 L715.7063,134.5488 L713.228,135.7465 L710.5161,136.2099 L707.9431,137.1098 L707.902,136.9629 L705.4399,137.9147 L702.8023,138.2387 L700.2894,139.0091 L697.8986,140.2163 L695.2904,140.6457 L695.3367,140.8337 L692.9457,141.5593 L690.4106,141.7001 L688.0559,142.5733 L685.662,143.287 L683.1764,143.6288 " fill="none" style="stroke: #808080; stroke-width: 2.0;"/><polygon fill="#808080" points="678.2079,144.7467,678.2216,144.8154,680.1126,144.9966,682.0839,145.5806,684.0291,146.0335,685.8882,146.055,687.8664,146.6735,687.8526,146.6517,686.8343,145.9485,685.8859,145.3558,684.986,144.8397,683.9188,144.0593,683.086,143.6491,683.2419,143.7478,683.5133,142.5807,684.24,141.7017,685.0223,140.8578,685.4813,139.8095,686.1104,138.8687,686.1239,138.8869,684.5235,140.0357,682.9849,141.2676,681.4165,142.4594,679.9049,143.7277,678.2079,144.7467" style="stroke: #808080; stroke-width: 2.0;"/><text fill="#000000" font-family="monospace" font-size="18" lengthAdjust="spacingAndGlyphs" textLength="94" x="806.5" y="97.4023">Pulls notes</text><!--link Drone CI to Drone CI--><path d="M678.3896,140.9325 L678.3924,141.0259 L681.0569,140.8274 L683.7377,141.1763 L686.4132,141.347 L689.0714,140.9315 L691.7535,141.3274 L691.7472,141.2934 L693.9214,141.553 L696.1275,141.9837 L698.356,142.5333 L700.5077,142.673 L702.7669,143.3869 L702.9305,143.5707 L704.6272,145.0003 L706.8017,146.9665 L709.0344,148.9981 L710.928,150.6489 L713,152.5 L713.0215,152.5214 L711.2847,154.1983 L709.6457,155.9727 L707.9596,157.7 L706.3634,159.5172 L704.4739,161.0416 L704.5429,161.3318 L702.677,161.7793 L700.7665,162.0397 L698.9211,162.5741 L697.0788,163.1213 L695.1398,163.2616 L695.1162,162.942 L692.8543,163.7329 L690.5147,163.4714 L688.2342,164.01 L685.8928,163.7245 L683.6013,164.1145 " fill="none" style="stroke: #808080; stroke-width: 2.0;"/><polygon fill="#808080" points="678.3896,164.0675,678.4186,164.1313,680.1251,164.758,682.0017,165.7586,683.8229,166.6374,685.4619,167.116,687.3531,168.1486,687.3346,168.1304,686.4589,167.2418,685.6764,166.4446,684.9587,165.7111,684.0177,164.7584,683.3894,164.1126,683.5187,164.2443,684.0494,163.17,684.9576,162.4801,685.9119,161.8371,686.5981,160.9213,687.4253,160.1489,687.4344,160.1698,685.614,160.9229,683.8347,161.7709,682.0356,162.5732,680.2744,163.4629,678.3896,164.0675" style="stroke: #808080; stroke-width: 2.0;"/><text fill="#000000" font-family="monospace" font-size="18" lengthAdjust="spacingAndGlyphs" textLength="247" x="719" y="159.4023">Builds website docker image</text><!--link Drone CI to Docker Hub--><path d="M630.5,173.2548 L630.7802,173.2548 L629.9476,182.9292 L630.7577,192.6035 L631.0329,202.2779 L629.5488,211.9523 L630.3964,221.6267 L629.9313,231.3011 L629.9887,240.9754 L630.5,250.6498 " fill="none" style="stroke: #808080; stroke-width: 2.0;"/><polygon fill="#808080" points="630.5,255.6775,630.564,255.706,631.1738,253.8214,632.1589,252.1037,633.0217,250.3316,633.4827,248.3809,634.5,246.6775,634.4817,246.6592,633.5995,247.377,632.8096,248.1871,632.0839,249.0614,631.137,249.7145,630.5,250.6775,630.6305,250.808,629.5514,249.7289,628.8534,249.0309,628.2018,248.3793,627.2798,247.4573,626.5,246.6775,626.5208,246.6867,627.2903,248.4732,628.1544,250.3017,628.9728,252.1099,629.8784,253.9568,630.5,255.6775" style="stroke: #808080; stroke-width: 2.0;"/><text fill="#000000" font-family="monospace" font-size="18" lengthAdjust="spacingAndGlyphs" textLength="256" x="631.5" y="221.4023">Pushes website docker image</text><!--link hooks.abhinavsarkar.net to Docker Hub--><path d="M381.9026,276.5 L381.9026,276.7802 L391.7633,275.9476 L401.6239,276.7577 L411.4846,277.0329 L421.3453,275.5488 L431.2059,276.3964 L441.0666,275.9313 L450.9272,275.9887 L460.7879,276.4091 L470.6486,275.5782 L480.5092,277.2382 L490.3699,275.6596 L500.2306,276.2363 L510.0912,277.0759 L519.9519,276.3856 L529.8125,276.591 L539.6732,276.4574 L549.5339,276.738 L559.3945,276.8188 L569.2552,276.5 " fill="none" style="stroke: #808080; stroke-width: 2.0;"/><polygon fill="#808080" points="376.632,276.5,376.6605,276.564,378.3759,277.1738,380.2582,278.1589,382.0861,279.0217,383.7354,279.4827,385.632,280.5,385.6137,280.4817,384.7315,279.5995,383.9416,278.8096,383.2159,278.0839,382.269,277.137,381.632,276.5,381.7625,276.6305,382.2834,275.5514,383.1854,274.8534,384.1338,274.2018,384.8118,273.2798,385.632,272.5,385.6412,272.5208,383.8277,273.2903,382.0562,274.1544,380.2644,274.9728,378.5113,275.8784,376.632,276.5" style="stroke: #808080; stroke-width: 2.0;"/><text fill="#000000" font-family="monospace" font-size="18" lengthAdjust="spacingAndGlyphs" textLength="156" x="395" y="268.9023">Triggers webhook</text><!--link hooks.abhinavsarkar.net to Docker Compose--><path d="M259.5,297.2548 L259.7802,297.2548 L258.9476,306.9292 L259.7577,316.6036 L260.0329,326.2779 L258.5488,335.9523 L259.3964,345.6267 L258.9313,355.3011 L258.9887,364.9754 L259.5,374.6498 " fill="none" style="stroke: #808080; stroke-width: 2.0;"/><polygon fill="#808080" points="259.5,379.6775,259.564,379.706,260.1738,377.8214,261.1589,376.1037,262.0217,374.3316,262.4827,372.3809,263.5,370.6775,263.4817,370.6592,262.5995,371.377,261.8096,372.1871,261.0839,373.0614,260.137,373.7145,259.5,374.6775,259.6305,374.808,258.5514,373.7289,257.8534,373.0309,257.2018,372.3793,256.2798,371.4573,255.5,370.6775,255.5208,370.6867,256.2903,372.4732,257.1544,374.3017,257.9728,376.1099,258.8784,377.9568,259.5,379.6775" style="stroke: #808080; stroke-width: 2.0;"/><text fill="#000000" font-family="monospace" font-size="18" lengthAdjust="spacingAndGlyphs" textLength="260" x="260.5" y="345.4023">Runs docker compose pull/up</text><!--link Docker Compose to abhinavsarkar.net--><path d="M343.5249,400.5 L343.5249,400.7802 L353.4527,399.9476 L363.3805,400.7577 L373.3083,401.0329 L383.2361,399.5488 L393.1639,400.3964 L403.0917,399.9313 L413.0195,399.9887 L422.9473,400.4091 L432.8751,399.5782 L442.8029,401.2382 L452.7307,399.6596 L462.6585,400.2363 L472.5863,401.0759 L482.5141,400.3856 L492.4419,400.591 L502.3697,400.4574 L512.2975,400.738 L522.2253,400.8188 L532.1532,401.2809 L542.081,401.3947 L552.0088,401.4057 L561.9366,400.8395 L571.8644,401.1181 L581.7922,401.4363 L591.72,399.5384 L601.6478,401.4047 L611.5756,400.1047 L621.5034,401.2117 L631.4312,399.84 L641.359,400.4087 L651.2868,401.4888 L661.2146,400.435 L671.1424,400.6404 L681.0702,400.9515 L690.998,401.055 L700.9258,400.5 " fill="none" style="stroke: #808080; stroke-width: 2.0;"/><polygon fill="#808080" points="705.9741,400.5,706.0026,400.564,704.118,399.5738,702.4003,398.9589,700.6282,398.2217,698.6775,397.0827,696.9741,396.5,696.9558,396.4817,697.6736,397.1995,698.4837,398.0096,699.358,398.8839,700.0111,399.537,700.9741,400.5,701.1046,400.6305,700.0255,401.1514,699.3275,402.0534,698.6759,403.0018,697.7539,403.6798,696.9741,404.5,696.9833,404.5208,698.7698,403.6903,700.5983,402.9544,702.4065,402.1728,704.2534,401.4784,705.9741,400.5" style="stroke: #808080; stroke-width: 2.0;"/><text fill="#000000" font-family="monospace" font-size="18" lengthAdjust="spacingAndGlyphs" textLength="326" x="361.75" y="392.9023">Pulls and deploys built website image</text><!--link abhinavsarkar.net to end--><path d="M881.0859,400.5 L881.0859,400.5934 L886.954,400.3159 L892.8221,400.5859 L898.6902,400.6776 L904.5583,400.1829 L910.4264,400.5 " fill="none" style="stroke: #808080; stroke-width: 2.0;"/><polygon fill="#808080" points="915.5408,400.5,915.5693,400.564,913.6847,399.5738,911.967,398.9589,910.1949,398.2217,908.2442,397.0827,906.5408,396.5,906.5225,396.4817,907.2403,397.1995,908.0504,398.0096,908.9247,398.8839,909.5778,399.537,910.5408,400.5,910.6713,400.6305,909.5922,401.1514,908.8942,402.0534,908.2426,403.0018,907.3206,403.6798,906.5408,404.5,906.55,404.5208,908.3365,403.6903,910.165,402.9544,911.9732,402.1728,913.8201,401.4784,915.5408,400.5" style="stroke: #808080; stroke-width: 2.0;"/><polygon fill="#FFFFFF" points="423.5,439,423.5,439.2102,433.6429,438.5857,443.7857,439.1933,453.9286,439.3997,464.0714,438.2866,474.2143,438.9223,484.3571,438.5735,494.5,438.6165,504.6429,438.9318,514.7857,438.3086,524.9286,439.5536,535.0714,438.3697,545.2143,438.8022,555.3571,439.4319,565.5,439,565.4891,438.9736,566.2158,439.3139,566.9101,439.5759,567.6441,439.9337,568.3589,440.2452,569.0355,440.4645,569.2159,440.5392,569.5351,441.2572,569.8305,441.9653,569.9926,442.6183,570.3499,443.352,570.5,444,570.7341,444,570.2596,452.4797,570.7262,460.9594,570.4012,469.4391,570.6779,477.9188,570.5,486.3984,570.3476,486.3353,570.186,487.0968,570.1426,487.9073,569.6063,488.5135,569.3609,489.2403,569.0355,489.934,569.0787,490.0383,568.3815,490.355,567.6208,490.5186,566.9509,490.9011,566.1341,490.9293,565.5,491.3984,565.5,491.6828,555.3571,491.9466,545.2143,491.843,535.0714,492.0115,524.9286,490.9154,514.7857,490.7463,504.6429,490.777,494.5,491.3396,484.3571,491.2019,474.2143,492.0798,464.0714,491.2238,453.9286,491.0554,443.7857,491.6267,433.6429,490.7316,423.5,491.3984,423.4338,491.2386,422.8757,491.3054,422.1414,490.9468,421.4724,490.746,420.6305,490.1278,419.9645,489.934,420.0628,489.9747,419.8534,489.3022,419.2332,488.4595,419.0563,487.8004,418.8317,487.1216,418.5,486.3984,418.7173,486.3984,418.4986,477.9188,418.6542,469.4391,418.3154,460.9594,418.2742,452.4797,418.5,444,418.6551,444.0642,418.5721,443.2014,419.2425,442.6507,419.4423,441.905,419.5891,441.1374,419.9645,440.4645,419.9193,440.3555,420.7301,440.3129,421.3405,439.7865,422.1613,439.7681,422.7224,439.1227,423.5,439" style="stroke: #FFFFFF; stroke-width: 1.0;"/><text fill="#000000" filter="url(#b1of7bqlt9ienn0)" font-family="monospace" font-size="18" lengthAdjust="spacingAndGlyphs" textLength="140" x="424.5" y="461.4023">Runs on my VPS</text><text fill="#000000" filter="url(#b1of7bqlt9ienn1)" font-family="monospace" font-size="18" lengthAdjust="spacingAndGlyphs" textLength="134" x="424.5" y="482.6016">Runs elsewhere</text><!--
@startuml
skinparam Shadowing false
skinparam BackgroundColor transparent
skinparam handwritten true
skinparam Default {
  FontColor Black
  FontSize  18
  FontStyle plain
  FontName monospace
}

skinparam usecase {
  BackgroundColor PapayaWhip
}

skinparam component {
  BackgroundColor PapayaWhip
  BorderColor Gray
  ArrowThickness 2
  ArrowColor Gray
}

skinparam legend {
  BackgroundColor transparent
  BorderColor transparent
}

component [code.abhinavsarkar.net] #LightPink
component [Drone CI] #LightPink
component [Docker Compose] #LightPink
component [hooks.abhinavsarkar.net] #LightPink
component [abhinavsarkar.net] #LightPink
component [notes.abhinavsarkar.net] #LightPink

(start) -d-> [Me]
[Me] -r-> [code.abhinavsarkar.net]: Pushes code
[code.abhinavsarkar.net] -r-> [Drone CI]: Triggers build
[Strava] - -> [Drone CI]: Pulls activities
[Goodreads] - -> [Drone CI]: Pulls books read
[notes.abhinavsarkar.net] - -> [Drone CI]: Pulls notes
[Drone CI] - -> [Drone CI]: Builds website docker image
[Drone CI] -d-> [Docker Hub]: Pushes website docker image
[Docker Hub] -l-> [hooks.abhinavsarkar.net]: Triggers webhook
[hooks.abhinavsarkar.net] -d-> [Docker Compose]: Runs docker compose pull/up
[Docker Compose] -r-> [abhinavsarkar.net]: Pulls and deploys built website image
[abhinavsarkar.net] -r-> (end)
legend
<back:#LightPink>Runs on my VPS</back>
<back:#PapayaWhip>Runs elsewhere</back>
endlegend
@enduml

PlantUML version 1.2019.06(Fri May 24 22:40:25 IST 2019)
(GPL source distribution)
Java Runtime: Java(TM) SE Runtime Environment
JVM: Java HotSpot(TM) 64-Bit Server VM
Java Version: 1.8.0_181-b13
Operating System: Mac OS X
OS Version: 10.13.6
Default Encoding: UTF-8
Language: en
Country: IN
--></g></svg>