<?xml version="1.0" encoding="UTF-8" standalone="no"?>
<svg xmlns="http://www.w3.org/2000/svg" xmlns:xlink="http://www.w3.org/1999/xlink" contentScriptType="application/ecmascript" contentStyleType="text/css" height="498px" preserveAspectRatio="none" style="width:1200px;height:498px;background:#00000000;" version="1.1" viewBox="0 0 1200 498" width="1200px" zoomAndPan="magnify"><defs><filter height="1" id="b1ekv89msw8caf0" width="1" x="0" y="0"><feFlood flood-color="#FFB6C1" result="flood"/><feComposite in="SourceGraphic" in2="flood" operator="over"/></filter><filter height="1" id="b1ekv89msw8caf1" width="1" x="0" y="0"><feFlood flood-color="#FFEFD5" result="flood"/><feComposite in="SourceGraphic" in2="flood" operator="over"/></filter></defs><g><!--MD5=[bb1c9409d16c06df6ec9080012c42db2]
entity code.abhinavsarkar.net--><polygon fill="#FFB6C1" points="221,131,221,131.2102,231.125,130.5857,241.25,131.1933,251.375,131.3997,261.5,130.2866,271.625,130.9223,281.75,130.5735,291.875,130.6165,302,130.9318,312.125,130.3086,322.25,131.5536,332.375,130.3697,342.5,130.8022,352.625,131.4319,362.75,130.9142,372.875,131.0682,383,130.9681,393.125,131.1785,403.25,131.2391,413.375,131.5857,423.5,131.6711,433.625,131.6793,443.75,131.2546,453.875,131.4636,464,131,464.2341,131,463.7596,139.1906,464.2262,147.3813,463.9012,155.5719,464.1779,163.7625,464,171.9531,464,171.4581,453.875,171.8846,443.75,172.6947,433.625,171.9044,423.5,172.0584,413.375,172.2918,403.25,172.3694,393.125,171.9492,383,172.2403,372.875,171.3807,362.75,172.2375,352.625,172.5013,342.5,172.3977,332.375,172.5661,322.25,171.47,312.125,171.3009,302,171.3317,291.875,171.8942,281.75,171.7566,271.625,172.6345,261.5,171.7784,251.375,171.6101,241.25,172.1814,231.125,171.2863,221,171.9531,220.827,171.9531,221.2163,163.7625,221.1452,155.5719,221.2448,147.3813,220.8927,139.1906,221,131" style="stroke: #808080; stroke-width: 1.5;"/><polygon fill="#FFB6C1" points="216,136,216,136.0701,218,135.8619,220,136.0644,222,136.1332,224,135.7622,226,136,225.9741,136,225.8578,137,225.8722,138,225.9773,139,225.7695,140,226,141,226,141.1845,224,140.7899,222,140.9341,220,141.144,218,140.9714,216,141,216.0227,141,215.9894,140,216.0595,139,216.0797,138,216.1952,137,216,136" style="stroke: #808080; stroke-width: 1.5;"/><polygon fill="#FFB6C1" points="216,161.9531,216,162.0232,218,161.815,220,162.0176,222,162.0864,224,161.7153,226,161.9531,225.9741,161.9531,225.8578,162.9531,225.8722,163.9531,225.9773,164.9531,225.7695,165.9531,226,166.9531,226,167.1377,224,166.743,222,166.8872,220,167.0971,218,166.9245,216,166.9531,216.0227,166.9531,215.9894,165.9531,216.0595,164.9531,216.0797,163.9531,216.1952,162.9531,216,161.9531" style="stroke: #808080; stroke-width: 1.5;"/><text fill="#000000" font-family="monospace" font-size="18" lengthAdjust="spacingAndGlyphs" textLength="223" x="231" y="157.708">code.abhinavsarkar.net</text><!--MD5=[f156994843f561f587bc6859bc8a8c75]
entity Drone CI--><polygon fill="#FFB6C1" points="637,131,637,131.2102,647.1,130.5857,657.2,131.1933,667.3,131.3997,677.4,130.2866,687.5,130.9223,697.6,130.5735,707.7,130.6165,717.8,130.9318,727.9,130.3086,738,131,738.1845,131,737.7899,139.1906,737.9341,147.3813,738.144,155.5719,737.9714,163.7625,738,171.9531,738,172.0214,727.9,171.9212,717.8,172.1317,707.7,172.1923,697.6,172.5388,687.5,172.6242,677.4,172.6324,667.3,172.2078,657.2,172.4167,647.1,172.6554,637,171.9531,636.7596,171.9531,637.2262,163.7625,636.9012,155.5719,637.1779,147.3813,636.835,139.1906,637,131" style="stroke: #808080; stroke-width: 1.5;"/><polygon fill="#FFB6C1" points="632,136,632,136.0701,634,135.8619,636,136.0644,638,136.1332,640,135.7622,642,136,641.9741,136,641.8578,137,641.8722,138,641.9773,139,641.7695,140,642,141,642,141.1845,640,140.7899,638,140.9341,636,141.144,634,140.9714,632,141,632.0227,141,631.9894,140,632.0595,139,632.0797,138,632.1952,137,632,136" style="stroke: #808080; stroke-width: 1.5;"/><polygon fill="#FFB6C1" points="632,161.9531,632,162.0232,634,161.815,636,162.0176,638,162.0864,640,161.7153,642,161.9531,641.9741,161.9531,641.8578,162.9531,641.8722,163.9531,641.9773,164.9531,641.7695,165.9531,642,166.9531,642,167.1377,640,166.743,638,166.8872,636,167.0971,634,166.9245,632,166.9531,632.0227,166.9531,631.9894,165.9531,632.0595,164.9531,632.0797,163.9531,632.1952,162.9531,632,161.9531" style="stroke: #808080; stroke-width: 1.5;"/><text fill="#000000" font-family="monospace" font-size="18" lengthAdjust="spacingAndGlyphs" textLength="81" x="647" y="157.708">Drone CI</text><!--MD5=[0ea14562d8747a1341ee8dab95f4d0e5]
entity Docker Compose--><polygon fill="#FFB6C1" points="199,377,199,377.2102,208.8333,376.5857,218.6667,377.1933,228.5,377.3997,238.3333,376.2866,248.1667,376.9223,258,376.5735,267.8333,376.6165,277.6667,376.9318,287.5,376.3086,297.3333,377.5536,307.1667,376.3697,317,376.8022,326.8333,377.4319,336.6667,376.9142,346.5,377.0682,356.3333,376.9681,366.1667,377.1785,376,377,376.0797,377,376.1952,385.1906,376.2237,393.3813,376.2264,401.5719,376.0849,409.7625,376,417.9531,376,418.4167,366.1667,418.6554,356.3333,417.2319,346.5,418.6316,336.6667,417.6566,326.8333,418.4869,317,417.4581,307.1667,417.8846,297.3333,418.6947,287.5,417.9044,277.6667,418.0584,267.8333,418.2918,258,418.3694,248.1667,417.9492,238.3333,418.2403,228.5,417.3807,218.6667,418.2375,208.8333,418.5013,199,417.9531,199.1482,417.9531,199.2043,409.7625,198.839,401.5719,198.7826,393.3813,198.7929,385.1906,199,377" style="stroke: #808080; stroke-width: 1.5;"/><polygon fill="#FFB6C1" points="194,382,194,382.0701,196,381.8619,198,382.0644,200,382.1332,202,381.7622,204,382,203.9741,382,203.8578,383,203.8722,384,203.9773,385,203.7695,386,204,387,204,387.1845,202,386.7899,200,386.9341,198,387.144,196,386.9714,194,387,194.0227,387,193.9894,386,194.0595,385,194.0797,384,194.1952,383,194,382" style="stroke: #808080; stroke-width: 1.5;"/><polygon fill="#FFB6C1" points="194,407.9531,194,408.0232,196,407.815,198,408.0176,200,408.0864,202,407.7153,204,407.9531,203.9741,407.9531,203.8578,408.9531,203.8722,409.9531,203.9773,410.9531,203.7695,411.9531,204,412.9531,204,413.1377,202,412.743,200,412.8872,198,413.0971,196,412.9245,194,412.9531,194.0227,412.9531,193.9894,411.9531,194.0595,410.9531,194.0797,409.9531,194.1952,408.9531,194,407.9531" style="stroke: #808080; stroke-width: 1.5;"/><text fill="#000000" font-family="monospace" font-size="18" lengthAdjust="spacingAndGlyphs" textLength="157" x="209" y="403.708">Docker Compose</text><!--MD5=[5208f83c23d22ab92442a9bf17c0bde7]
entity hooks.abhinavsarkar.net--><polygon fill="#FFB6C1" points="160.5,254,160.5,254.2102,170.66,253.5857,180.82,254.1933,190.98,254.3997,201.14,253.2866,211.3,253.9223,221.46,253.5735,231.62,253.6165,241.78,253.9318,251.94,253.3086,262.1,254.5536,272.26,253.3697,282.42,253.8022,292.58,254.4319,302.74,253.9142,312.9,254.0682,323.06,253.9681,333.22,254.1785,343.38,254.2391,353.54,254.5857,363.7,254.6711,373.86,254.6793,384.02,254.2546,394.18,254.4636,404.34,254.7022,414.5,254,414.2596,254,414.7262,262.1906,414.4012,270.3813,414.6779,278.5719,414.335,286.7625,414.5,294.9531,414.5,294.8846,404.34,295.6947,394.18,294.9044,384.02,295.0584,373.86,295.2918,363.7,295.3694,353.54,294.9492,343.38,295.2403,333.22,294.3807,323.06,295.2375,312.9,295.5013,302.74,295.3977,292.58,295.5661,282.42,294.47,272.26,294.3009,262.1,294.3317,251.94,294.8942,241.78,294.7566,231.62,295.6345,221.46,294.7784,211.3,294.6101,201.14,295.1814,190.98,294.2863,180.82,294.434,170.66,295.6021,160.5,294.9531,160.6452,294.9531,160.7448,286.7625,160.3927,278.5719,160.6064,270.3813,160.6968,262.1906,160.5,254" style="stroke: #808080; stroke-width: 1.5;"/><polygon fill="#FFB6C1" points="155.5,259,155.5,259.0701,157.5,258.8619,159.5,259.0644,161.5,259.1332,163.5,258.7622,165.5,259,165.4741,259,165.3578,260,165.3722,261,165.4773,262,165.2695,263,165.5,264,165.5,264.1845,163.5,263.7899,161.5,263.9341,159.5,264.144,157.5,263.9714,155.5,264,155.5227,264,155.4894,263,155.5595,262,155.5797,261,155.6952,260,155.5,259" style="stroke: #808080; stroke-width: 1.5;"/><polygon fill="#FFB6C1" points="155.5,284.9531,155.5,285.0232,157.5,284.815,159.5,285.0176,161.5,285.0864,163.5,284.7153,165.5,284.9531,165.4741,284.9531,165.3578,285.9531,165.3722,286.9531,165.4773,287.9531,165.2695,288.9531,165.5,289.9531,165.5,290.1377,163.5,289.743,161.5,289.8872,159.5,290.0971,157.5,289.9245,155.5,289.9531,155.5227,289.9531,155.4894,288.9531,155.5595,287.9531,155.5797,286.9531,155.6952,285.9531,155.5,284.9531" style="stroke: #808080; stroke-width: 1.5;"/><text fill="#000000" font-family="monospace" font-size="18" lengthAdjust="spacingAndGlyphs" textLength="234" x="170.5" y="280.708">hooks.abhinavsarkar.net</text><!--MD5=[4e2904014b52d481c35bc41247b269d4]
entity abhinavsarkar.net--><polygon fill="#FFB6C1" points="774,377,774,377.2102,784.1579,376.5857,794.3158,377.1933,804.4737,377.3997,814.6316,376.2866,824.7895,376.9223,834.9474,376.5735,845.1053,376.6165,855.2632,376.9318,865.4211,376.3086,875.5789,377.5536,885.7368,376.3697,895.8947,376.8022,906.0526,377.4319,916.2105,376.9142,926.3684,377.0682,936.5263,376.9681,946.6842,377.1785,956.8421,377.2391,967,377,967.1952,377,967.2237,385.1906,967.2264,393.3813,967.0849,401.5719,967.1545,409.7625,967,417.9531,967,418.6554,956.8421,417.2319,946.6842,418.6316,936.5263,417.6566,926.3684,418.4869,916.2105,417.4581,906.0526,417.8846,895.8947,418.6947,885.7368,417.9044,875.5789,418.0584,865.4211,418.2918,855.2632,418.3694,845.1053,417.9492,834.9474,418.2403,824.7895,417.3807,814.6316,418.2375,804.4737,418.5013,794.3158,418.3977,784.1579,418.5661,774,417.9531,773.839,417.9531,773.7826,409.7625,773.7929,401.5719,773.9804,393.3813,773.9345,385.1906,774,377" style="stroke: #808080; stroke-width: 1.5;"/><polygon fill="#FFB6C1" points="769,382,769,382.0701,771,381.8619,773,382.0644,775,382.1332,777,381.7622,779,382,778.9741,382,778.8578,383,778.8722,384,778.9773,385,778.7695,386,779,387,779,387.1845,777,386.7899,775,386.9341,773,387.144,771,386.9714,769,387,769.0227,387,768.9894,386,769.0595,385,769.0797,384,769.1952,383,769,382" style="stroke: #808080; stroke-width: 1.5;"/><polygon fill="#FFB6C1" points="769,407.9531,769,408.0232,771,407.815,773,408.0176,775,408.0864,777,407.7153,779,407.9531,778.9741,407.9531,778.8578,408.9531,778.8722,409.9531,778.9773,410.9531,778.7695,411.9531,779,412.9531,779,413.1377,777,412.743,775,412.8872,773,413.0971,771,412.9245,769,412.9531,769.0227,412.9531,768.9894,411.9531,769.0595,410.9531,769.0797,409.9531,769.1952,408.9531,769,407.9531" style="stroke: #808080; stroke-width: 1.5;"/><text fill="#000000" font-family="monospace" font-size="18" lengthAdjust="spacingAndGlyphs" textLength="173" x="784" y="403.708">abhinavsarkar.net</text><polygon fill="#FFEFD5" points="76.4173,31.0033,75.7075,34.0184,72.9985,36.3126,69.8901,38.5982,67.3241,41.2529,62.4827,42.7665,58.0598,44.393,52.8687,45.4424,47.1491,45.9452,42.1819,46.4607,35.4448,45.6498,31.1456,45.5597,25.5854,44.2843,20.2355,42.5244,16.4869,40.9547,12.7204,38.7557,9.9025,36.4196,7.5697,33.7368,6.2108,30.9895,5.4451,28.0378,5.8016,25.2102,7.0953,22.4879,9.631,20.1068,12.3458,17.6238,15.7403,15.3846,21.328,14.2452,24.7552,12.1195,30.8294,11.5128,35.4636,10.4657,41.9959,10.7352,47.1494,10.7519,51.8027,11.0196,57.702,12.465,62.3093,13.8525,66.3274,15.5573,69.8745,17.6463,73.1853,20.2296,75.0429,22.6742,77.1587,25.801,76.7844,28.181" style="stroke: #A80036; stroke-width: 1.5;"/><text fill="#000000" font-family="monospace" font-size="18" lengthAdjust="spacingAndGlyphs" textLength="46" x="18.5269" y="35.2927">start</text><!--MD5=[f78695049e0a27d4224b05117a5117c4]
entity Me--><polygon fill="#FFEFD5" points="18,131,18,131.2102,27.4,130.5857,36.8,131.1933,46.2,131.3997,55.6,130.2866,65,131,64.9741,131,64.8578,139.1906,64.8722,147.3813,64.9773,155.5719,64.7695,163.7625,65,171.9531,65,172.5068,55.6,171.3228,46.2,171.7554,36.8,172.3851,27.4,171.8673,18,171.9531,18.0227,171.9531,17.9894,163.7625,18.0595,155.5719,18.0797,147.3813,18.1952,139.1906,18,131" style="stroke: #808080; stroke-width: 1.5;"/><polygon fill="#FFEFD5" points="13,136,13,136.0701,15,135.8619,17,136.0644,19,136.1332,21,135.7622,23,136,22.9741,136,22.8578,137,22.8722,138,22.9773,139,22.7695,140,23,141,23,141.1845,21,140.7899,19,140.9341,17,141.144,15,140.9714,13,141,13.0227,141,12.9894,140,13.0595,139,13.0797,138,13.1952,137,13,136" style="stroke: #808080; stroke-width: 1.5;"/><polygon fill="#FFEFD5" points="13,161.9531,13,162.0232,15,161.815,17,162.0176,19,162.0864,21,161.7153,23,161.9531,22.9741,161.9531,22.8578,162.9531,22.8722,163.9531,22.9773,164.9531,22.7695,165.9531,23,166.9531,23,167.1377,21,166.743,19,166.8872,17,167.0971,15,166.9245,13,166.9531,13.0227,166.9531,12.9894,165.9531,13.0595,164.9531,13.0797,163.9531,13.1952,162.9531,13,161.9531" style="stroke: #808080; stroke-width: 1.5;"/><text fill="#000000" font-family="monospace" font-size="18" lengthAdjust="spacingAndGlyphs" textLength="27" x="28" y="157.708">Me</text><!--MD5=[7efd6656d79648579a1492c29b625c4f]
entity Strava--><polygon fill="#FFEFD5" points="1042,8,1042,8.2102,1052.125,7.5857,1062.25,8.1933,1072.375,8.3997,1082.5,7.2866,1092.625,7.9223,1102.75,7.5735,1112.875,7.6165,1123,8,1122.9773,8,1122.7695,16.1906,1123.1845,24.3813,1122.7899,32.5719,1122.9341,40.7625,1123,48.9531,1123,49.3851,1112.875,48.8673,1102.75,49.0214,1092.625,48.9212,1082.5,49.1317,1072.375,49.1923,1062.25,49.5388,1052.125,49.6242,1042,48.9531,1042.2264,48.9531,1042.0849,40.7625,1042.1545,32.5719,1042.2341,24.3812,1041.7596,16.1906,1042,8" style="stroke: #808080; stroke-width: 1.5;"/><polygon fill="#FFEFD5" points="1037,13,1037,13.0701,1039,12.8619,1041,13.0644,1043,13.1332,1045,12.7622,1047,13,1046.9741,13,1046.8578,14,1046.8722,15,1046.9773,16,1046.7695,17,1047,18,1047,18.1845,1045,17.7899,1043,17.9341,1041,18.144,1039,17.9714,1037,18,1037.0227,18,1036.9894,17,1037.0595,16,1037.0797,15,1037.1952,14,1037,13" style="stroke: #808080; stroke-width: 1.5;"/><polygon fill="#FFEFD5" points="1037,38.9531,1037,39.0232,1039,38.815,1041,39.0176,1043,39.0864,1045,38.7153,1047,38.9531,1046.9741,38.9531,1046.8578,39.9531,1046.8722,40.9531,1046.9773,41.9531,1046.7695,42.9531,1047,43.9531,1047,44.1377,1045,43.743,1043,43.8872,1041,44.0971,1039,43.9245,1037,43.9531,1037.0227,43.9531,1036.9894,42.9531,1037.0595,41.9531,1037.0797,40.9531,1037.1952,39.9531,1037,38.9531" style="stroke: #808080; stroke-width: 1.5;"/><text fill="#000000" font-family="monospace" font-size="18" lengthAdjust="spacingAndGlyphs" textLength="61" x="1052" y="34.708">Strava</text><!--MD5=[d10c65eac2370ec9dcb4bf91a6f64407]
entity Goodreads--><polygon fill="#FFEFD5" points="306,8,306,8.2102,316.0833,7.5857,326.1667,8.1933,336.25,8.3997,346.3333,7.2866,356.4167,7.9223,366.5,7.5735,376.5833,7.6165,386.6667,7.9318,396.75,7.3086,406.8333,8.5536,416.9167,7.3697,427,8,426.9341,8,427.144,16.1906,426.9714,24.3813,427.0227,32.5719,426.9894,40.7625,427,48.9531,427,49.1317,416.9167,49.1923,406.8333,49.5388,396.75,49.6242,386.6667,49.6324,376.5833,49.2078,366.5,49.4167,356.4167,49.6554,346.3333,48.2319,336.25,49.6316,326.1667,48.6566,316.0833,49.4869,306,48.9531,305.835,48.9531,305.9772,40.7625,306.2472,32.5719,305.9838,24.3812,306.0351,16.1906,306,8" style="stroke: #808080; stroke-width: 1.5;"/><polygon fill="#FFEFD5" points="301,13,301,13.0701,303,12.8619,305,13.0644,307,13.1332,309,12.7622,311,13,310.9741,13,310.8578,14,310.8722,15,310.9773,16,310.7695,17,311,18,311,18.1845,309,17.7899,307,17.9341,305,18.144,303,17.9714,301,18,301.0227,18,300.9894,17,301.0595,16,301.0797,15,301.1952,14,301,13" style="stroke: #808080; stroke-width: 1.5;"/><polygon fill="#FFEFD5" points="301,38.9531,301,39.0232,303,38.815,305,39.0176,307,39.0864,309,38.7153,311,38.9531,310.9741,38.9531,310.8578,39.9531,310.8722,40.9531,310.9773,41.9531,310.7695,42.9531,311,43.9531,311,44.1377,309,43.743,307,43.8872,305,44.0971,303,43.9245,301,43.9531,301.0227,43.9531,300.9894,42.9531,301.0595,41.9531,301.0797,40.9531,301.1952,39.9531,301,38.9531" style="stroke: #808080; stroke-width: 1.5;"/><text fill="#000000" font-family="monospace" font-size="18" lengthAdjust="spacingAndGlyphs" textLength="101" x="316" y="34.708">Goodreads</text><!--MD5=[3c9b710a80de0a7e75be719e3cab2797]
entity Reddit / lobste.rs--><polygon fill="#FFEFD5" points="475,8,475,8.2102,485.1667,7.5857,495.3333,8.1933,505.5,8.3997,515.6667,7.2866,525.8333,7.9223,536,7.5735,546.1667,7.6165,556.3333,7.9318,566.5,7.3086,576.6667,8.5536,586.8333,7.3697,597,7.8022,607.1667,8.4319,617.3333,7.9142,627.5,8.0682,637.6667,7.9681,647.8333,8.1785,658,8,658.0797,8,658.1952,16.1906,658.2237,24.3813,658.2264,32.5719,658.0849,40.7625,658,48.9531,658,49.4167,647.8333,49.6554,637.6667,48.2319,627.5,49.6316,617.3333,48.6566,607.1667,49.4869,597,48.4581,586.8333,48.8846,576.6667,49.6947,566.5,48.9044,556.3333,49.0584,546.1667,49.2918,536,49.3694,525.8333,48.9492,515.6667,49.2403,505.5,48.3807,495.3333,49.2375,485.1667,49.5013,475,48.9531,475.1482,48.9531,475.2043,40.7625,474.839,32.5719,474.7826,24.3812,474.7929,16.1906,475,8" style="stroke: #808080; stroke-width: 1.5;"/><polygon fill="#FFEFD5" points="470,13,470,13.0701,472,12.8619,474,13.0644,476,13.1332,478,12.7622,480,13,479.9741,13,479.8578,14,479.8722,15,479.9773,16,479.7695,17,480,18,480,18.1845,478,17.7899,476,17.9341,474,18.144,472,17.9714,470,18,470.0227,18,469.9894,17,470.0595,16,470.0797,15,470.1952,14,470,13" style="stroke: #808080; stroke-width: 1.5;"/><polygon fill="#FFEFD5" points="470,38.9531,470,39.0232,472,38.815,474,39.0176,476,39.0864,478,38.7153,480,38.9531,479.9741,38.9531,479.8578,39.9531,479.8722,40.9531,479.9773,41.9531,479.7695,42.9531,480,43.9531,480,44.1377,478,43.743,476,43.8872,474,44.0971,472,43.9245,470,43.9531,470.0227,43.9531,469.9894,42.9531,470.0595,41.9531,470.0797,40.9531,470.1952,39.9531,470,38.9531" style="stroke: #808080; stroke-width: 1.5;"/><text fill="#000000" font-family="monospace" font-size="18" lengthAdjust="spacingAndGlyphs" textLength="163" x="485" y="34.708">Reddit / lobste.rs</text><!--MD5=[e680fe3100789c8b53d1027e26705d6c]
entity webmentions.io--><polygon fill="#FFEFD5" points="723,8,723,8.2102,732.9412,7.5857,742.8824,8.1933,752.8235,8.3997,762.7647,7.2866,772.7059,7.9223,782.6471,7.5735,792.5882,7.6165,802.5294,7.9318,812.4706,7.3086,822.4118,8.5536,832.3529,7.3697,842.2941,7.8022,852.2353,8.4319,862.1765,7.9142,872.1176,8.0682,882.0588,7.9681,892,8,892.0595,8,892.0797,16.1906,892.1952,24.3813,892.2237,32.5719,892.2264,40.7625,892,48.9531,892,49.2078,882.0588,49.4167,872.1176,49.6554,862.1765,48.2319,852.2353,49.6316,842.2941,48.6566,832.3529,49.4869,822.4118,48.4581,812.4706,48.8846,802.5294,49.6947,792.5882,48.9044,782.6471,49.0584,772.7059,49.2918,762.7647,49.3694,752.8235,48.9492,742.8824,49.2403,732.9412,48.3807,723,48.9531,723.0948,48.9531,723.1827,40.7625,723.1482,32.5719,723.2043,24.3812,722.839,16.1906,723,8" style="stroke: #808080; stroke-width: 1.5;"/><polygon fill="#FFEFD5" points="718,13,718,13.0701,720,12.8619,722,13.0644,724,13.1332,726,12.7622,728,13,727.9741,13,727.8578,14,727.8722,15,727.9773,16,727.7695,17,728,18,728,18.1845,726,17.7899,724,17.9341,722,18.144,720,17.9714,718,18,718.0227,18,717.9894,17,718.0595,16,718.0797,15,718.1952,14,718,13" style="stroke: #808080; stroke-width: 1.5;"/><polygon fill="#FFEFD5" points="718,38.9531,718,39.0232,720,38.815,722,39.0176,724,39.0864,726,38.7153,728,38.9531,727.9741,38.9531,727.8578,39.9531,727.8722,40.9531,727.9773,41.9531,727.7695,42.9531,728,43.9531,728,44.1377,726,43.743,724,43.8872,722,44.0971,720,43.9245,718,43.9531,718.0227,43.9531,717.9894,42.9531,718.0595,41.9531,718.0797,40.9531,718.1952,39.9531,718,38.9531" style="stroke: #808080; stroke-width: 1.5;"/><text fill="#000000" font-family="monospace" font-size="18" lengthAdjust="spacingAndGlyphs" textLength="149" x="733" y="34.708">webmentions.io</text><!--MD5=[65145a89e021d0e029b8cd61b863044f]
entity notes.abhinavsarkar.net--><polygon fill="#FFEFD5" points="881,131,881,131.2102,891.04,130.5857,901.08,131.1933,911.12,131.3997,921.16,130.2866,931.2,130.9223,941.24,130.5735,951.28,130.6165,961.32,130.9318,971.36,130.3086,981.4,131.5536,991.44,130.3697,1001.48,130.8022,1011.52,131.4319,1021.56,130.9142,1031.6,131.0682,1041.64,130.9681,1051.68,131.1785,1061.72,131.2391,1071.76,131.5857,1081.8,131.6711,1091.84,131.6793,1101.88,131.2546,1111.92,131.4636,1121.96,131.7022,1132,131,1131.7596,131,1132.2262,139.1906,1131.9012,147.3813,1132.1779,155.5719,1131.835,163.7625,1132,171.9531,1132,171.8846,1121.96,172.6947,1111.92,171.9044,1101.88,172.0584,1091.84,172.2918,1081.8,172.3694,1071.76,171.9492,1061.72,172.2403,1051.68,171.3807,1041.64,172.2375,1031.6,172.5013,1021.56,172.3977,1011.52,172.5661,1001.48,171.47,991.44,171.3009,981.4,171.3317,971.36,171.8942,961.32,171.7566,951.28,172.6345,941.24,171.7784,931.2,171.6101,921.16,172.1814,911.12,171.2863,901.08,171.434,891.04,172.6021,881,171.9531,881.1452,171.9531,881.2448,163.7625,880.8927,155.5719,881.1064,147.3813,881.1968,139.1906,881,131" style="stroke: #808080; stroke-width: 1.5;"/><polygon fill="#FFEFD5" points="876,136,876,136.0701,878,135.8619,880,136.0644,882,136.1332,884,135.7622,886,136,885.9741,136,885.8578,137,885.8722,138,885.9773,139,885.7695,140,886,141,886,141.1845,884,140.7899,882,140.9341,880,141.144,878,140.9714,876,141,876.0227,141,875.9894,140,876.0595,139,876.0797,138,876.1952,137,876,136" style="stroke: #808080; stroke-width: 1.5;"/><polygon fill="#FFEFD5" points="876,161.9531,876,162.0232,878,161.815,880,162.0176,882,162.0864,884,161.7153,886,161.9531,885.9741,161.9531,885.8578,162.9531,885.8722,163.9531,885.9773,164.9531,885.7695,165.9531,886,166.9531,886,167.1377,884,166.743,882,166.8872,880,167.0971,878,166.9245,876,166.9531,876.0227,166.9531,875.9894,165.9531,876.0595,164.9531,876.0797,163.9531,876.1952,162.9531,876,161.9531" style="stroke: #808080; stroke-width: 1.5;"/><text fill="#000000" font-family="monospace" font-size="18" lengthAdjust="spacingAndGlyphs" textLength="231" x="891" y="157.708">notes.abhinavsarkar.net</text><!--MD5=[a56e534deed5548d9a6b9dacc124ed79]
entity Docker Hub--><polygon fill="#FFEFD5" points="622.5,254,622.5,254.2102,632.5,253.5857,642.5,254.1933,652.5,254.3997,662.5,253.2866,672.5,253.9223,682.5,253.5735,692.5,253.6165,702.5,253.9318,712.5,253.3086,722.5,254.5536,732.5,253.3697,742.5,253.8022,752.5,254,752.644,254,752.4714,262.1906,752.5227,270.3813,752.4894,278.5719,752.5595,286.7625,752.5,294.9531,752.5,295.1923,742.5,295.5388,732.5,295.6242,722.5,295.6324,712.5,295.2078,702.5,295.4167,692.5,295.6554,682.5,294.2319,672.5,295.6316,662.5,294.6566,652.5,295.4869,642.5,294.4581,632.5,294.8846,622.5,294.9531,622.7472,294.9531,622.4838,286.7625,622.5351,278.5719,622.6129,270.3813,622.6387,262.1906,622.5,254" style="stroke: #808080; stroke-width: 1.5;"/><polygon fill="#FFEFD5" points="617.5,259,617.5,259.0701,619.5,258.8619,621.5,259.0644,623.5,259.1332,625.5,258.7622,627.5,259,627.4741,259,627.3578,260,627.3722,261,627.4773,262,627.2695,263,627.5,264,627.5,264.1845,625.5,263.7899,623.5,263.9341,621.5,264.144,619.5,263.9714,617.5,264,617.5227,264,617.4894,263,617.5595,262,617.5797,261,617.6952,260,617.5,259" style="stroke: #808080; stroke-width: 1.5;"/><polygon fill="#FFEFD5" points="617.5,284.9531,617.5,285.0232,619.5,284.815,621.5,285.0176,623.5,285.0864,625.5,284.7153,627.5,284.9531,627.4741,284.9531,627.3578,285.9531,627.3722,286.9531,627.4773,287.9531,627.2695,288.9531,627.5,289.9531,627.5,290.1377,625.5,289.743,623.5,289.8872,621.5,290.0971,619.5,289.9245,617.5,289.9531,617.5227,289.9531,617.4894,288.9531,617.5595,287.9531,617.5797,286.9531,617.6952,285.9531,617.5,284.9531" style="stroke: #808080; stroke-width: 1.5;"/><text fill="#000000" font-family="monospace" font-size="18" lengthAdjust="spacingAndGlyphs" textLength="110" x="632.5" y="280.708">Docker Hub</text><polygon fill="#FFEFD5" points="1059.0003,400.0033,1058.4459,403.0184,1056.33,405.3126,1053.9022,407.5982,1051.8979,410.2529,1048.1165,411.7665,1044.662,413.393,1040.6073,414.4424,1036.14,414.9452,1032.2603,415.4607,1026.9982,414.6498,1023.6403,414.5597,1019.2974,413.2843,1015.1188,411.5244,1012.1909,409.9547,1009.249,407.7557,1007.0481,405.4196,1005.226,402.7368,1004.1647,399.9895,1003.5666,397.0378,1003.8451,394.2102,1004.8555,391.4879,1006.836,389.1068,1008.9565,386.6238,1011.6078,384.3846,1015.9721,383.2452,1018.649,381.1195,1023.3933,380.5128,1027.0129,379.4657,1032.115,379.7352,1036.1403,379.7519,1039.7748,380.0196,1044.3825,381.465,1047.9811,382.8525,1051.1195,384.5573,1053.8899,386.6463,1056.4759,389.2296,1057.9268,391.6742,1059.5794,394.801,1059.287,397.181" style="stroke: #A80036; stroke-width: 1.5;"/><text fill="#000000" font-family="monospace" font-size="18" lengthAdjust="spacingAndGlyphs" textLength="35" x="1014.2487" y="404.2927">end</text><!--MD5=[fab4e712643123244702528bcf57609d]
link start to Me--><path d="M41.5,46.58 L41.7802,46.58 L40.9476,56.4505 L41.7577,66.321 L42.0329,76.1915 L40.5488,86.062 L41.3964,95.9325 L40.9313,105.803 L40.9887,115.6735 L41.5,125.544 " fill="none" style="stroke: #808080; stroke-width: 2.0;"/><polygon fill="#808080" points="41.5,130.695,41.564,130.7235,42.1738,128.8389,43.1589,127.1212,44.0217,125.3491,44.4827,123.3984,45.5,121.695,45.4817,121.6767,44.5995,122.3945,43.8096,123.2046,43.0839,124.0789,42.137,124.732,41.5,125.695,41.6305,125.8255,40.5514,124.7464,39.8534,124.0484,39.2018,123.3968,38.2798,122.4748,37.5,121.695,37.5208,121.7042,38.2903,123.4907,39.1544,125.3192,39.9728,127.1274,40.8784,128.9743,41.5,130.695" style="stroke: #808080; stroke-width: 2.0;"/><!--MD5=[8ba0af35e3d8bba4f5f07a98fc861f32]
link Me to code.abhinavsarkar.net--><path d="M65.119,151.5 L65.119,151.7802 L75.1555,150.9476 L85.1919,151.7577 L95.2284,152.0329 L105.2649,150.5488 L115.3013,151.3964 L125.3378,150.9313 L135.3743,150.9887 L145.4107,151.4091 L155.4472,150.5782 L165.4837,152.2382 L175.5201,150.6596 L185.5566,151.2363 L195.5931,152.0759 L205.6295,151.3856 L215.666,151.5 " fill="none" style="stroke: #808080; stroke-width: 2.0;"/><polygon fill="#808080" points="220.784,151.5,220.8125,151.564,218.9279,150.5738,217.2102,149.9589,215.4381,149.2217,213.4874,148.0827,211.784,147.5,211.7657,147.4817,212.4835,148.1995,213.2936,149.0096,214.1679,149.8839,214.821,150.537,215.784,151.5,215.9145,151.6305,214.8354,152.1514,214.1374,153.0534,213.4858,154.0018,212.5638,154.6798,211.784,155.5,211.7932,155.5208,213.5797,154.6903,215.4082,153.9544,217.2164,153.1728,219.0633,152.4784,220.784,151.5" style="stroke: #808080; stroke-width: 2.0;"/><text fill="#000000" font-family="monospace" font-size="18" lengthAdjust="spacingAndGlyphs" textLength="117" x="84.5" y="144.208">Pushes code</text><!--MD5=[8fb1a45fe71593a495bd95c645b06b85]
link code.abhinavsarkar.net to Drone CI--><path d="M464.134,151.5 L464.134,151.7802 L473.9978,150.9476 L483.8615,151.7577 L493.7253,152.0329 L503.5891,150.5488 L513.4528,151.3964 L523.3166,150.9313 L533.1804,150.9887 L543.0441,151.4091 L552.9079,150.5782 L562.7716,152.2382 L572.6354,150.6596 L582.4992,151.2363 L592.3629,152.0759 L602.2267,151.3856 L612.0905,151.591 L621.9542,151.4574 L631.818,151.5 " fill="none" style="stroke: #808080; stroke-width: 2.0;"/><polygon fill="#808080" points="636.95,151.5,636.9785,151.564,635.0939,150.5738,633.3762,149.9589,631.6041,149.2217,629.6534,148.0827,627.95,147.5,627.9317,147.4817,628.6495,148.1995,629.4596,149.0096,630.3339,149.8839,630.987,150.537,631.95,151.5,632.0805,151.6305,631.0014,152.1514,630.3034,153.0534,629.6518,154.0018,628.7298,154.6798,627.95,155.5,627.9592,155.5208,629.7457,154.6903,631.5742,153.9544,633.3824,153.1728,635.2293,152.4784,636.95,151.5" style="stroke: #808080; stroke-width: 2.0;"/><text fill="#000000" font-family="monospace" font-size="18" lengthAdjust="spacingAndGlyphs" textLength="134" x="483.5" y="144.208">Triggers build</text><!--MD5=[2840d1cb291e1a29e43f6b1a7b8ac19b]
link Strava to Drone CI--><path d="M1072.21,49.034 L1072.2886,49.0845 L1070.3273,51.6264 L1068.8268,54.4641 L1067.1762,57.2056 L1065.0322,59.6302 L1063.5713,62.4934 L1063.5439,62.4723 L1061.2297,65.2269 L1059.0536,68.0876 L1056.9735,71.0221 L1054.5627,73.7022 L1052.615,76.7386 L1052.7909,76.9106 L1049.7975,79.2197 L1047.3177,82.031 L1044.9005,84.9035 L1042.1187,87.4195 L1039.5288,90.1231 L1039.5465,90.1476 L1036.5147,92.287 L1033.5638,94.5381 L1030.5738,96.7353 L1027.6584,99.0355 L1024.5,101 L1024.599,101.2813 L1021.5412,102.3612 L1018.4195,103.2596 L1015.3912,104.4236 L1012.3674,105.6001 L1009.2047,106.3821 L1009.1299,106.0704 L1006.8966,107.2463 L1004.4169,107.396 L1002.1246,108.3259 L999.6393,108.4523 L997.3122,109.2373 L997.306,109.2075 L994.5208,110.1466 L991.5925,110.389 L988.7486,111.0426 L985.9118,111.7306 L983.0239,112.1697 L983.0571,112.3516 L979.752,112.765 L976.5035,113.4893 L973.1633,113.7105 L969.96,114.6822 L966.6657,115.1549 L966.7057,115.3952 L963.0777,115.9526 L959.4695,116.6292 L955.769,116.7515 L952.1362,117.2801 L948.5633,118.1688 L948.5211,117.8959 L944.6551,118.7466 L940.7416,119.2898 L936.897,120.2791 L932.9347,120.5067 L929.0424,121.1871 L929.0205,121.0362 L924.9343,121.8872 L920.7543,122.0932 L916.641,122.7578 L912.593,123.8712 L908.4288,124.1855 L908.4547,124.3774 L899.8319,125.6771 L891.1285,126.3799 L882.5261,127.8302 L873.9017,129.1178 L865.226,130.0258 L865.1999,129.8174 L856.4877,131.0775 L847.767,132.2693 L839.063,133.5951 L830.2938,134.3998 L821.561,135.4956 L821.5851,135.6998 L813.2278,136.2322 L804.917,137.1588 L796.6743,138.6611 L788.3063,139.1035 L780.0394,140.401 L780.0647,140.6258 L772.6952,141.3217 L765.3171,141.9415 L757.9583,142.733 L750.6443,143.9212 L743.267,144.548 " fill="none" style="stroke: #808080; stroke-width: 2.0;"/><polygon fill="#808080" points="738.281,145.097,738.3023,145.1638,740.1158,145.5636,742.054,146.3548,743.9517,147.0186,745.7157,147.2633,747.6647,148.0881,747.6485,148.0679,746.693,147.2696,745.8192,146.5731,745.0022,145.9474,743.9896,145.0777,743.251,144.5499,743.395,144.6653,743.7947,143.5357,744.6148,142.7432,745.4863,141.9917,746.0593,141.001,746.7892,140.1362,746.8007,140.1558,745.0822,141.1191,743.4159,142.1719,741.7244,143.1815,740.081,144.2735,738.281,145.097" style="stroke: #808080; stroke-width: 2.0;"/><text fill="#000000" font-family="monospace" font-size="18" lengthAdjust="spacingAndGlyphs" textLength="139" x="1049.5" y="96.708">Pulls activities</text><!--MD5=[14dfacfec11e80e28e7a3537ae7e2be8]
link Goodreads to Drone CI--><path d="M365.917,49.118 L366.01,49.1263 L365.9683,51.7287 L366.472,54.3798 L366.7981,57.015 L366.5401,59.598 L367.0906,62.2533 L367.0569,62.246 L367.5097,65.0146 L368.1327,67.8199 L368.874,70.6508 L369.2076,73.3937 L370.1123,76.2598 L370.3395,76.3542 L370.9675,78.8335 L372.259,81.5885 L373.6314,84.377 L374.5328,86.97 L375.682,89.6658 L375.7059,89.6844 L377.4344,91.9239 L379.2718,94.2482 L381.0567,96.5316 L382.9419,98.893 L384.5,101 L384.6342,101.2663 L387.108,102.5152 L389.4953,103.5923 L392.0093,104.9208 L394.5292,106.2612 L396.8609,107.2281 L396.765,106.9222 L398.9496,108.1427 L400.8183,108.3561 L402.9272,109.335 L404.7888,109.5256 L406.8531,110.3624 L406.8455,110.3329 L409.3667,111.3069 L411.7108,111.5921 L414.1594,112.2837 L416.6168,113.0095 L419.0109,113.4891 L419.0508,113.6697 L421.8189,114.1081 L424.6552,114.8551 L427.3811,115.1027 L430.2717,116.0952 L433.0528,116.5924 L433.0996,116.8315 L436.2196,117.3992 L439.3629,118.0855 L442.3982,118.2203 L445.5126,118.7593 L448.6972,119.6566 L448.649,119.3847 L452.0857,120.2327 L455.4681,120.7743 L458.9293,121.7604 L462.2559,121.9876 L465.6626,122.6659 L465.638,122.5154 L469.2798,123.3537 L472.8167,123.5488 L476.4282,124.2013 L480.1128,125.3013 L483.6672,125.6044 L483.6963,125.7958 L487.4688,126.4975 L491.1507,126.6038 L494.946,127.4558 L498.7166,128.1454 L502.4297,128.4563 L502.4,128.2485 L506.2714,128.9641 L510.1331,129.6116 L514.0139,130.3929 L517.8203,130.6542 L521.6683,131.2059 L521.6953,131.4098 L529.3919,131.9878 L537.1406,132.9592 L544.9653,134.5053 L552.6501,134.9933 L560.4478,136.335 L560.475,136.5595 L567.9198,137.3322 L575.3554,138.0288 L582.8119,138.897 L590.3164,140.1615 L597.7529,140.8651 L597.7379,140.7329 L604.4981,141.8875 L611.1565,142.143 L617.9306,143.4207 L624.6396,144.1229 L631.331,144.67 " fill="none" style="stroke: #808080; stroke-width: 2.0;"/><polygon fill="#808080" points="636.676,145.254,636.7112,145.3146,634.904,144.1439,633.3034,143.3283,631.6355,142.397,629.7464,141.0856,628.1635,140.3004,628.1433,140.2842,628.7611,141.0935,629.4807,141.9846,630.271,142.9326,630.8175,143.6847,631.7056,144.7111,631.8211,144.855,630.6919,145.2557,629.9,146.0765,629.1493,146.9486,628.1591,147.5224,627.2949,148.2531,627.3018,148.2748,629.1679,147.6432,631.0655,147.1102,632.9478,146.5296,634.8592,146.0398,636.676,145.254" style="stroke: #808080; stroke-width: 2.0;"/><text fill="#000000" font-family="monospace" font-size="18" lengthAdjust="spacingAndGlyphs" textLength="156" x="385.5" y="96.708">Pulls books read</text><!--MD5=[7bdee1dff788ad0d2184c7181e2f8bf8]
link Reddit / lobste.rs to Drone CI--><path d="M557.727,49.119 L557.8167,49.1451 L556.8223,51.5642 L556.3537,54.1366 L555.7139,56.6591 L554.5111,59.0174 L554.0876,61.6029 L554.0534,61.5981 L553.5166,64.2894 L553.1521,67.0051 L552.9076,69.7377 L552.25,72.4119 L552.1709,75.1679 L552.4162,75.187 L552.1025,77.8482 L552.5051,80.5653 L552.995,83.2893 L552.9765,85.9735 L553.2255,88.6786 L553.2533,88.6906 L554.2673,91.1373 L555.4082,93.6384 L556.4879,96.1133 L557.6844,98.6382 L558.5,101 L558.7328,101.1865 L560.0922,102.8824 L561.3016,104.458 L562.7307,106.2097 L564.1701,107.9696 L565.2831,109.4681 L565.0625,109.2356 L567.0596,111.1755 L568.3302,112.3498 L570.1531,114.1061 L571.4073,115.263 L573.1277,116.9113 L573.1095,116.8868 L575.0672,118.4725 L576.6003,119.4876 L578.384,120.8394 L580.1887,122.2194 L581.8416,123.3955 L581.9362,123.5545 L583.7189,124.5123 L585.6633,125.7418 L587.3461,126.5318 L589.4191,127.9773 L591.2326,128.987 L591.3385,129.2064 L593.2937,130.1179 L595.3014,131.1383 L597.0649,131.6525 L599.0074,132.5378 L601.1086,133.7518 L601.0074,133.4948 L603.1327,134.5283 L605.1441,135.2722 L607.3208,136.4361 L609.2151,136.8829 L611.2773,137.756 L611.2305,137.6109 L613.3622,138.5145 L615.294,138.7978 L617.368,139.5222 L619.5811,140.6783 L621.5465,141.0657 L621.5958,141.2529 L623.6651,141.9176 L625.581,141.9999 L627.6891,142.8117 L629.7553,143.4645 L631.724,143.747 " fill="none" style="stroke: #808080; stroke-width: 2.0;"/><polygon fill="#808080" points="636.698,144.868,636.7398,144.9242,635.0356,143.5809,633.5766,142.567,632.0377,141.4459,630.2362,139.972,628.7982,138.9864,628.7763,138.9725,629.2825,139.8668,629.8991,140.8308,630.5924,141.8433,631.0212,142.6887,631.8204,143.7682,631.919,143.9242,630.7518,144.1951,629.8725,144.9214,629.0283,145.7033,627.9797,146.1618,627.0386,146.7905,627.043,146.8128,628.9684,146.3955,630.914,146.0798,632.8498,145.7152,634.8042,145.444,636.698,144.868" style="stroke: #808080; stroke-width: 2.0;"/><text fill="#000000" font-family="monospace" font-size="18" lengthAdjust="spacingAndGlyphs" textLength="197" x="559.5" y="96.708">Pulls post comments</text><!--MD5=[3656d1304ac7166e1c5d374f6caa24a0]
link webmentions.io to Drone CI--><path d="M799.461,49.103 L799.545,49.1438 L798.0826,51.5182 L797.1127,54.1319 L795.9824,56.6676 L794.3247,58.947 L793.3971,61.5813 L793.3669,61.5644 L791.7149,64.2015 L790.2148,66.9235 L788.8203,69.7046 L787.0618,72.2822 L785.8132,75.1449 L786.0181,75.2812 L783.78,77.693 L782.14,80.5029 L780.5729,83.3614 L778.5814,85.9373 L776.8131,88.6618 L776.8363,88.6812 L774.7396,91.1203 L772.7487,93.648 L770.7068,96.1329 L768.7623,98.6993 L766.5,101 L766.7055,101.2161 L765.1042,102.7442 L763.3703,104.1329 L761.8304,105.7257 L760.2997,107.328 L758.4807,108.6273 L758.2782,108.3789 L756.9263,110.2841 L754.9074,111.3714 L753.3956,113.0804 L751.3616,114.1492 L749.7556,115.7428 L749.7379,115.718 L748.1201,117.3235 L746.0874,118.3513 L744.2996,119.7199 L742.5323,121.1172 L740.6167,122.3081 L740.717,122.4635 L738.7636,123.502 L736.9816,124.8061 L734.9223,125.6805 L733.2767,127.1958 L731.356,128.285 " fill="none" style="stroke: #808080; stroke-width: 2.0;"/><polygon fill="#808080" points="726.851,130.994,726.8596,131.0635,728.7889,130.6149,730.7686,130.5739,732.7319,130.4002,734.6412,129.7899,736.6252,129.7839,736.619,129.7588,735.493,129.3727,734.3986,129.1132,733.3262,128.9419,732.1781,128.467,731.1359,128.4173,731.315,128.4619,731.2054,127.2687,731.6186,126.2057,732.0956,125.1585,732.2015,124.019,732.5026,122.928,732.5212,122.9411,731.3635,124.5351,730.2907,126.1886,729.1769,127.8134,728.1412,129.4928,726.851,130.994" style="stroke: #808080; stroke-width: 2.0;"/><text fill="#000000" font-family="monospace" font-size="18" lengthAdjust="spacingAndGlyphs" textLength="231" x="783.5" y="96.708">Pulls likes and mentions</text><!--MD5=[e03a7813c0d8da092b56ed52b82dec57]
reverse link Drone CI to notes.abhinavsarkar.net--><path d="M743.082,151.5 L743.082,151.7802 L752.9214,150.9476 L762.7607,151.7577 L772.6001,152.0329 L782.4394,150.5488 L792.2788,151.3964 L802.1181,150.9313 L811.9575,150.9887 L821.7969,151.4091 L831.6362,150.5782 L841.4756,152.2382 L851.3149,150.6596 L861.1543,151.2363 L870.9936,152.0759 L880.833,151.5 " fill="none" style="stroke: #808080; stroke-width: 2.0;"/><polygon fill="#808080" points="738.046,151.5,738.0745,151.564,739.7899,152.1738,741.6722,153.1589,743.5001,154.0217,745.1494,154.4827,747.046,155.5,747.0277,155.4817,746.1455,154.5995,745.3556,153.8096,744.6299,153.0839,743.683,152.137,743.046,151.5,743.1765,151.6305,743.6974,150.5514,744.5994,149.8534,745.5478,149.2018,746.2258,148.2798,747.046,147.5,747.0552,147.5208,745.2417,148.2903,743.4702,149.1544,741.6784,149.9728,739.9253,150.8784,738.046,151.5" style="stroke: #808080; stroke-width: 2.0;"/><text fill="#000000" font-family="monospace" font-size="18" lengthAdjust="spacingAndGlyphs" textLength="104" x="757.5" y="144.208">Pulls notes</text><!--MD5=[23a3850f920a16777662c1582d455bd5]
link Drone CI to Docker Hub--><path d="M687.5,172.21 L687.7802,172.21 L686.9476,181.7548 L687.7577,191.2995 L688.0329,200.8443 L686.5488,210.389 L687.3964,219.9338 L686.9313,229.4785 L686.9887,239.0233 L687.5,248.568 " fill="none" style="stroke: #808080; stroke-width: 2.0;"/><polygon fill="#808080" points="687.5,253.798,687.564,253.8265,688.1738,251.9419,689.1589,250.2242,690.0217,248.4521,690.4827,246.5014,691.5,244.798,691.4817,244.7797,690.5995,245.4975,689.8096,246.3076,689.0839,247.1819,688.137,247.835,687.5,248.798,687.6305,248.9285,686.5514,247.8494,685.8534,247.1514,685.2018,246.4998,684.2798,245.5778,683.5,244.798,683.5208,244.8072,684.2903,246.5937,685.1544,248.4222,685.9728,250.2304,686.8784,252.0773,687.5,253.798" style="stroke: #808080; stroke-width: 2.0;"/><text fill="#000000" font-family="monospace" font-size="18" lengthAdjust="spacingAndGlyphs" textLength="385" x="688.5" y="219.708">Builds and pushes website docker image</text><!--MD5=[6b66effe3192c6b91d723648d2871ac4]
reverse link hooks.abhinavsarkar.net to Docker Hub--><path d="M419.9,274.5 L419.9,274.7802 L430.0202,273.9476 L440.1403,274.7577 L450.2605,275.0329 L460.3806,273.5488 L470.5008,274.3964 L480.6209,273.9313 L490.7411,273.9887 L500.8612,274.4091 L510.9813,273.5782 L521.1015,275.2382 L531.2217,273.6596 L541.3418,274.2363 L551.462,275.0759 L561.5821,274.3856 L571.7023,274.591 L581.8224,274.4574 L591.9426,274.738 L602.0627,274.8188 L612.1829,275.2809 L622.303,274.5 " fill="none" style="stroke: #808080; stroke-width: 2.0;"/><polygon fill="#808080" points="414.612,274.5,414.6405,274.564,416.3559,275.1738,418.2382,276.1589,420.0661,277.0217,421.7154,277.4827,423.612,278.5,423.5937,278.4817,422.7115,277.5995,421.9216,276.8096,421.1959,276.0839,420.249,275.137,419.612,274.5,419.7425,274.6305,420.2634,273.5514,421.1654,272.8534,422.1138,272.2018,422.7918,271.2798,423.612,270.5,423.6212,270.5208,421.8077,271.2903,420.0362,272.1544,418.2444,272.9728,416.4913,273.8784,414.612,274.5" style="stroke: #808080; stroke-width: 2.0;"/><text fill="#000000" font-family="monospace" font-size="18" lengthAdjust="spacingAndGlyphs" textLength="169" x="434" y="267.208">Triggers webhook</text><!--MD5=[e52d4e25d478f4f11af2f361fd328afd]
link hooks.abhinavsarkar.net to Docker Compose--><path d="M287.5,295.21 L287.7802,295.21 L286.9476,304.7547 L287.7577,314.2995 L288.0329,323.8442 L286.5488,333.389 L287.3964,342.9337 L286.9313,352.4784 L286.9887,362.0232 L287.5,371.5679 " fill="none" style="stroke: #808080; stroke-width: 2.0;"/><polygon fill="#808080" points="287.5,376.7984,287.564,376.8269,288.1738,374.9423,289.1589,373.2246,290.0217,371.4525,290.4827,369.5018,291.5,367.7984,291.4817,367.7801,290.5995,368.4979,289.8096,369.308,289.0839,370.1823,288.137,370.8354,287.5,371.7984,287.6305,371.9289,286.5514,370.8498,285.8534,370.1518,285.2018,369.5002,284.2798,368.5782,283.5,367.7984,283.5208,367.8076,284.2903,369.5941,285.1544,371.4226,285.9728,373.2308,286.8784,375.0777,287.5,376.7984" style="stroke: #808080; stroke-width: 2.0;"/><text fill="#000000" font-family="monospace" font-size="18" lengthAdjust="spacingAndGlyphs" textLength="278" x="288.5" y="342.708">Runs docker compose pull/up</text><!--MD5=[48bab1963d1d6d28da68c5d6dd500f77]
link Docker Compose to abhinavsarkar.net--><path d="M376.045,397.5 L376.045,397.7802 L386.1101,396.9476 L396.1752,397.7577 L406.2402,398.0329 L416.3053,396.5488 L426.3704,397.3964 L436.4355,396.9313 L446.5005,396.9887 L456.5656,397.4091 L466.6307,396.5782 L476.6958,398.2382 L486.7608,396.6596 L496.8259,397.2363 L506.891,398.0759 L516.9561,397.3856 L527.0212,397.591 L537.0862,397.4574 L547.1513,397.738 L557.2164,397.8188 L567.2815,398.2809 L577.3465,398.3947 L587.4116,398.4057 L597.4767,397.8395 L607.5418,398.1181 L617.6068,398.4363 L627.6719,396.5384 L637.737,398.4047 L647.8021,397.1047 L657.8672,398.2117 L667.9322,396.84 L677.9973,397.4087 L688.0624,398.4888 L698.1275,397.435 L708.1925,397.6404 L718.2576,397.9515 L728.3227,398.055 L738.3878,397.4948 L748.4528,397.883 L758.5179,396.7368 L768.583,397.5 " fill="none" style="stroke: #808080; stroke-width: 2.0;"/><polygon fill="#808080" points="773.823,397.5,773.8515,397.564,771.9669,396.5738,770.2492,395.9589,768.4771,395.2217,766.5264,394.0827,764.823,393.5,764.8047,393.4817,765.5225,394.1995,766.3326,395.0096,767.2069,395.8839,767.86,396.537,768.823,397.5,768.9535,397.6305,767.8744,398.1514,767.1764,399.0534,766.5248,400.0018,765.6028,400.6798,764.823,401.5,764.8322,401.5208,766.6187,400.6903,768.4472,399.9544,770.2554,399.1728,772.1023,398.4784,773.823,397.5" style="stroke: #808080; stroke-width: 2.0;"/><text fill="#000000" font-family="monospace" font-size="18" lengthAdjust="spacingAndGlyphs" textLength="359" x="395.5" y="390.208">Pulls and deploys built website image</text><!--MD5=[5bccd2fd64c09015e4675b27f84e757e]
link abhinavsarkar.net to end--><path d="M967.037,397.5 L967.037,397.5934 L973.3558,397.3159 L979.6746,397.5859 L985.9934,397.6776 L992.3122,397.1829 L998.631,397.5 " fill="none" style="stroke: #808080; stroke-width: 2.0;"/><polygon fill="#808080" points="1003.801,397.5,1003.8295,397.564,1001.9449,396.5738,1000.2272,395.9589,998.4551,395.2217,996.5044,394.0827,994.801,393.5,994.7827,393.4817,995.5005,394.1995,996.3106,395.0096,997.1849,395.8839,997.838,396.537,998.801,397.5,998.9315,397.6305,997.8524,398.1514,997.1544,399.0534,996.5028,400.0018,995.5808,400.6798,994.801,401.5,994.8102,401.5208,996.5967,400.6903,998.4252,399.9544,1000.2334,399.1728,1002.0803,398.4784,1003.801,397.5" style="stroke: #808080; stroke-width: 2.0;"/><polygon fill="#00000000" points="526.5,436,526.5,436.2102,536.7667,435.5857,547.0333,436.1933,557.3,436.3997,567.5667,435.2866,577.8333,435.9223,588.1,435.5735,598.3667,435.6165,608.6333,435.9318,618.9,435.3086,629.1667,436.5536,639.4333,435.3697,649.7,435.8022,659.9667,436.4319,670.2333,435.9142,680.5,436,680.5087,436.021,681.203,436.2831,681.937,436.6408,682.6518,436.9523,683.4031,437.3519,684.0355,437.4645,684.2422,437.5501,684.5376,438.2582,684.6997,438.9112,685.057,439.6449,685.4234,440.3825,685.5,441,685.2596,441,685.7262,449.3813,685.4012,457.7625,685.6779,466.1438,685.335,474.525,685.5,482.9063,685.4789,482.8975,685.4355,483.708,684.8992,484.3142,684.6537,485.041,684.4327,485.7779,684.0355,486.4418,684.0886,486.57,683.3279,486.7335,682.658,487.116,681.8412,487.1442,681.2434,487.7009,680.5,487.9063,680.5,488.4544,670.2333,488.3508,659.9667,488.5193,649.7,487.4232,639.4333,487.2541,629.1667,487.2848,618.9,487.8474,608.6333,487.7097,598.3667,488.5877,588.1,487.7316,577.8333,487.5632,567.5667,488.1345,557.3,487.2394,547.0333,487.3871,536.7667,488.5552,526.5,487.9063,526.5556,488.0404,525.8866,487.8396,525.0447,487.2214,524.4194,487.1259,523.7469,486.9165,522.9645,486.4418,522.819,486.3815,522.6421,485.7224,522.4175,485.0436,522.2865,484.4036,521.7916,483.6128,521.5,482.9063,521.6542,482.9063,521.3154,474.525,521.2742,466.1438,521.6679,457.7625,521.261,449.3813,521.5,441,521.6567,441.0649,521.8565,440.3193,522.0033,439.5516,522.2697,438.8336,522.8129,438.2301,522.9645,437.4645,522.9263,437.3723,523.7471,437.3538,524.3082,436.7085,525.1645,436.7759,525.8547,436.442,526.5,436" style="stroke: #00000000; stroke-width: 1.0;"/><text fill="#000000" filter="url(#b1ekv89msw8caf0)" font-family="monospace" font-size="18" lengthAdjust="spacingAndGlyphs" textLength="152" x="527.5" y="457.708">Runs on my VPS</text><text fill="#000000" filter="url(#b1ekv89msw8caf1)" font-family="monospace" font-size="18" lengthAdjust="spacingAndGlyphs" textLength="149" x="527.5" y="478.6611">Runs elsewhere</text><!--MD5=[68829da53154e622620b5af605d73844]
@startuml
skinparam Shadowing false
skinparam BackgroundColor transparent
skinparam handwritten true
skinparam Default {
  FontColor Black
  FontSize  18
  FontStyle plain
  FontName monospace
}

skinparam usecase {
  BackgroundColor PapayaWhip
}

skinparam component {
  BackgroundColor PapayaWhip
  BorderColor Gray
  ArrowThickness 2
  ArrowColor Gray
}

skinparam legend {
  BackgroundColor transparent
  BorderColor transparent
}

component [code.abhinavsarkar.net] #LightPink
component [Drone CI] #LightPink
component [Docker Compose] #LightPink
component [hooks.abhinavsarkar.net] #LightPink
component [abhinavsarkar.net] #LightPink

(start) -d-> [Me]
[Me] -r-> [code.abhinavsarkar.net]: Pushes code
[code.abhinavsarkar.net] -r-> [Drone CI]: Triggers build
[Strava] -d-> [Drone CI]: Pulls activities
[Goodreads] -d-> [Drone CI]: Pulls books read
[Reddit / lobste.rs] -d-> [Drone CI]: Pulls post comments
[webmentions.io] -d-> [Drone CI]: Pulls likes and mentions
[notes.abhinavsarkar.net] -l-> [Drone CI]: Pulls notes
[Drone CI] -d-> [Docker Hub]: Builds and pushes website docker image
[Docker Hub] -l-> [hooks.abhinavsarkar.net]: Triggers webhook
[hooks.abhinavsarkar.net] -d-> [Docker Compose]: Runs docker compose pull/up
[Docker Compose] -r-> [abhinavsarkar.net]: Pulls and deploys built website image
[abhinavsarkar.net] -r-> (end)
legend
<back:#LightPink>Runs on my VPS</back>
<back:#PapayaWhip>Runs elsewhere</back>
endlegend
@enduml

PlantUML version 1.2020.09beta3(Unknown compile time)
(GPL source distribution)
Java Runtime: Java(TM) SE Runtime Environment
JVM: Java HotSpot(TM) 64-Bit Server VM
Java Version: 14.0.1+7
Operating System: Linux
Default Encoding: UTF-8
Language: en
Country: US
--></g></svg>