<svg version="1.1" viewBox="0.0 0.0 917.0 411.0" fill="none" stroke="none" stroke-linecap="square" stroke-miterlimit="10" width="917" height="411" xmlns:xlink="http://www.w3.org/1999/xlink" xmlns="http://www.w3.org/2000/svg"><path fill="#ffffff" d="M0 0L917.0 0L917.0 411.0L0 411.0L0 0Z" fill-rule="nonzero"/><path stroke="#333333" stroke-width="1.0" stroke-linecap="butt" d="M83.5 330.5L896.5 330.5" fill-rule="nonzero"/><path stroke="#cccccc" stroke-width="1.0" stroke-linecap="butt" d="M83.5 291.5L896.5 291.5" fill-rule="nonzero"/><path stroke="#cccccc" stroke-width="1.0" stroke-linecap="butt" d="M83.5 252.5L896.5 252.5" fill-rule="nonzero"/><path stroke="#cccccc" stroke-width="1.0" stroke-linecap="butt" d="M83.5 213.5L896.5 213.5" fill-rule="nonzero"/><path stroke="#cccccc" stroke-width="1.0" stroke-linecap="butt" d="M83.5 174.5L896.5 174.5" fill-rule="nonzero"/><path stroke="#cccccc" stroke-width="1.0" stroke-linecap="butt" d="M83.5 136.5L896.5 136.5" fill-rule="nonzero"/><path stroke="#cccccc" stroke-width="1.0" stroke-linecap="butt" d="M83.5 97.5L896.5 97.5" fill-rule="nonzero"/><path stroke="#cccccc" stroke-width="1.0" stroke-linecap="butt" d="M83.5 58.5L896.5 58.5" fill-rule="nonzero"/><clipPath id="id_0"><path d="M83.55 58.25L896.45 58.25L896.45 330.45L83.55 330.45L83.55 58.25Z" clip-rule="nonzero"/></clipPath><path stroke="#000000" stroke-width="0.0" stroke-linecap="butt" stroke-opacity="0.0" clip-path="url(#id_0)" d="M114.0 330.0L100.0 330.0L100.0 96.0C100.0 94.89543 100.89543 94.0 102.0 94.0L112.0 94.0C113.10457 94.0 114.0 94.89543 114.0 96.0Z" fill-rule="nonzero"/><path fill="#a64d79" clip-path="url(#id_0)" d="M114.0 330.0L100.0 330.0L100.0 96.0C100.0 94.89543 100.89543 94.0 102.0 94.0L112.0 94.0C113.10457 94.0 114.0 94.89543 114.0 96.0Z" fill-rule="nonzero"/><path stroke="#000000" stroke-width="0.0" stroke-linecap="butt" stroke-opacity="0.0" clip-path="url(#id_0)" d="M161.0 330.0L147.0 330.0L147.0 302.0C147.0 300.89542 147.89543 300.0 149.0 300.0L159.0 300.0C160.10457 300.0 161.0 300.89542 161.0 302.0Z" fill-rule="nonzero"/><path fill="#a64d79" clip-path="url(#id_0)" d="M161.0 330.0L147.0 330.0L147.0 302.0C147.0 300.89542 147.89543 300.0 149.0 300.0L159.0 300.0C160.10457 300.0 161.0 300.89542 161.0 302.0Z" fill-rule="nonzero"/><path stroke="#000000" stroke-width="0.0" stroke-linecap="butt" stroke-opacity="0.0" clip-path="url(#id_0)" d="M208.0 330.0L194.0 330.0L194.0 305.0C194.0 303.89542 194.89543 303.0 196.0 303.0L206.0 303.0C207.10457 303.0 208.0 303.89542 208.0 305.0Z" fill-rule="nonzero"/><path fill="#a64d79" clip-path="url(#id_0)" d="M208.0 330.0L194.0 330.0L194.0 305.0C194.0 303.89542 194.89543 303.0 196.0 303.0L206.0 303.0C207.10457 303.0 208.0 303.89542 208.0 305.0Z" fill-rule="nonzero"/><path stroke="#000000" stroke-width="0.0" stroke-linecap="butt" stroke-opacity="0.0" clip-path="url(#id_0)" d="M255.0 330.0L241.0 330.0L241.0 309.0C241.0 307.89542 241.89543 307.0 243.0 307.0L253.0 307.0C254.10457 307.0 255.0 307.89542 255.0 309.0Z" fill-rule="nonzero"/><path fill="#a64d79" clip-path="url(#id_0)" d="M255.0 330.0L241.0 330.0L241.0 309.0C241.0 307.89542 241.89543 307.0 243.0 307.0L253.0 307.0C254.10457 307.0 255.0 307.89542 255.0 309.0Z" fill-rule="nonzero"/><path stroke="#000000" stroke-width="0.0" stroke-linecap="butt" stroke-opacity="0.0" clip-path="url(#id_0)" d="M302.0 330.0L288.0 330.0L288.0 306.0C288.0 304.89542 288.89542 304.0 290.0 304.0L300.0 304.0C301.10458 304.0 302.0 304.89542 302.0 306.0Z" fill-rule="nonzero"/><path fill="#a64d79" clip-path="url(#id_0)" d="M302.0 330.0L288.0 330.0L288.0 306.0C288.0 304.89542 288.89542 304.0 290.0 304.0L300.0 304.0C301.10458 304.0 302.0 304.89542 302.0 306.0Z" fill-rule="nonzero"/><path stroke="#000000" stroke-width="0.0" stroke-linecap="butt" stroke-opacity="0.0" clip-path="url(#id_0)" d="M348.0 330.0L334.0 330.0L334.0 319.0C334.0 317.89542 334.89542 317.0 336.0 317.0L346.0 317.0C347.10458 317.0 348.0 317.89542 348.0 319.0Z" fill-rule="nonzero"/><path fill="#a64d79" clip-path="url(#id_0)" d="M348.0 330.0L334.0 330.0L334.0 319.0C334.0 317.89542 334.89542 317.0 336.0 317.0L346.0 317.0C347.10458 317.0 348.0 317.89542 348.0 319.0Z" fill-rule="nonzero"/><path stroke="#000000" stroke-width="0.0" stroke-linecap="butt" stroke-opacity="0.0" clip-path="url(#id_0)" d="M395.0 330.0L381.0 330.0L381.0 323.0C381.0 321.89542 381.89542 321.0 383.0 321.0L393.0 321.0C394.10458 321.0 395.0 321.89542 395.0 323.0Z" fill-rule="nonzero"/><path fill="#a64d79" clip-path="url(#id_0)" d="M395.0 330.0L381.0 330.0L381.0 323.0C381.0 321.89542 381.89542 321.0 383.0 321.0L393.0 321.0C394.10458 321.0 395.0 321.89542 395.0 323.0Z" fill-rule="nonzero"/><path stroke="#000000" stroke-width="0.0" stroke-linecap="butt" stroke-opacity="0.0" clip-path="url(#id_0)" d="M442.0 330.0L428.0 330.0L428.0 327.0C428.0 325.89542 428.89542 325.0 430.0 325.0L440.0 325.0C441.10458 325.0 442.0 325.89542 442.0 327.0Z" fill-rule="nonzero"/><path fill="#a64d79" clip-path="url(#id_0)" d="M442.0 330.0L428.0 330.0L428.0 327.0C428.0 325.89542 428.89542 325.0 430.0 325.0L440.0 325.0C441.10458 325.0 442.0 325.89542 442.0 327.0Z" fill-rule="nonzero"/><path stroke="#000000" stroke-width="0.0" stroke-linecap="butt" stroke-opacity="0.0" clip-path="url(#id_0)" d="M489.0 330.0L475.0 330.0L475.0 328.5C475.0 327.67157 475.67157 327.0 476.5 327.0L487.5 327.0C488.32843 327.0 489.0 327.67157 489.0 328.5Z" fill-rule="nonzero"/><path fill="#a64d79" clip-path="url(#id_0)" d="M489.0 330.0L475.0 330.0L475.0 328.5C475.0 327.67157 475.67157 327.0 476.5 327.0L487.5 327.0C488.32843 327.0 489.0 327.67157 489.0 328.5Z" fill-rule="nonzero"/><path stroke="#000000" stroke-width="0.0" stroke-linecap="butt" stroke-opacity="0.0" clip-path="url(#id_0)" d="M536.0 330.0L522.0 330.0L522.0 328.5C522.0 327.67157 522.6716 327.0 523.5 327.0L534.5 327.0C535.3284 327.0 536.0 327.67157 536.0 328.5Z" fill-rule="nonzero"/><path fill="#a64d79" clip-path="url(#id_0)" d="M536.0 330.0L522.0 330.0L522.0 328.5C522.0 327.67157 522.6716 327.0 523.5 327.0L534.5 327.0C535.3284 327.0 536.0 327.67157 536.0 328.5Z" fill-rule="nonzero"/><path stroke="#000000" stroke-width="0.0" stroke-linecap="butt" stroke-opacity="0.0" clip-path="url(#id_0)" d="M583.0 330.0L569.0 330.0L569.0 330.0L583.0 330.0Z" fill-rule="nonzero"/><path fill="#a64d79" clip-path="url(#id_0)" d="M583.0 330.0L569.0 330.0L569.0 330.0L583.0 330.0Z" fill-rule="nonzero"/><path stroke="#000000" stroke-width="0.0" stroke-linecap="butt" stroke-opacity="0.0" clip-path="url(#id_0)" d="M630.0 330.0L616.0 330.0L616.0 328.0C616.0 326.89542 616.89545 326.0 618.0 326.0L628.0 326.0C629.10455 326.0 630.0 326.89542 630.0 328.0Z" fill-rule="nonzero"/><path fill="#a64d79" clip-path="url(#id_0)" d="M630.0 330.0L616.0 330.0L616.0 328.0C616.0 326.89542 616.89545 326.0 618.0 326.0L628.0 326.0C629.10455 326.0 630.0 326.89542 630.0 328.0Z" fill-rule="nonzero"/><path stroke="#000000" stroke-width="0.0" stroke-linecap="butt" stroke-opacity="0.0" clip-path="url(#id_0)" d="M676.0 330.0L662.0 330.0L662.0 328.5C662.0 327.67157 662.6716 327.0 663.5 327.0L674.5 327.0C675.3284 327.0 676.0 327.67157 676.0 328.5Z" fill-rule="nonzero"/><path fill="#a64d79" clip-path="url(#id_0)" d="M676.0 330.0L662.0 330.0L662.0 328.5C662.0 327.67157 662.6716 327.0 663.5 327.0L674.5 327.0C675.3284 327.0 676.0 327.67157 676.0 328.5Z" fill-rule="nonzero"/><path stroke="#000000" stroke-width="0.0" stroke-linecap="butt" stroke-opacity="0.0" clip-path="url(#id_0)" d="M723.0 330.0L709.0 330.0L709.0 330.0L723.0 330.0Z" fill-rule="nonzero"/><path fill="#a64d79" clip-path="url(#id_0)" d="M723.0 330.0L709.0 330.0L709.0 330.0L723.0 330.0Z" fill-rule="nonzero"/><path stroke="#000000" stroke-width="0.0" stroke-linecap="butt" stroke-opacity="0.0" clip-path="url(#id_0)" d="M770.0 330.0L756.0 330.0L756.0 329.5C756.0 329.22385 756.2239 329.0 756.5 329.0L769.5 329.0C769.7761 329.0 770.0 329.22385 770.0 329.5Z" fill-rule="nonzero"/><path fill="#a64d79" clip-path="url(#id_0)" d="M770.0 330.0L756.0 330.0L756.0 329.5C756.0 329.22385 756.2239 329.0 756.5 329.0L769.5 329.0C769.7761 329.0 770.0 329.22385 770.0 329.5Z" fill-rule="nonzero"/><path stroke="#000000" stroke-width="0.0" stroke-linecap="butt" stroke-opacity="0.0" clip-path="url(#id_0)" d="M817.0 330.0L803.0 330.0L803.0 330.0L817.0 330.0Z" fill-rule="nonzero"/><path fill="#a64d79" clip-path="url(#id_0)" d="M817.0 330.0L803.0 330.0L803.0 330.0L817.0 330.0Z" fill-rule="nonzero"/><path stroke="#000000" stroke-width="0.0" stroke-linecap="butt" stroke-opacity="0.0" clip-path="url(#id_0)" d="M864.0 330.0L850.0 330.0L850.0 329.5C850.0 329.22385 850.2239 329.0 850.5 329.0L863.5 329.0C863.7761 329.0 864.0 329.22385 864.0 329.5Z" fill-rule="nonzero"/><path fill="#a64d79" clip-path="url(#id_0)" d="M864.0 330.0L850.0 330.0L850.0 329.5C850.0 329.22385 850.2239 329.0 850.5 329.0L863.5 329.0C863.7761 329.0 864.0 329.22385 864.0 329.5Z" fill-rule="nonzero"/><path stroke="#000000" stroke-width="0.0" stroke-linecap="butt" stroke-opacity="0.0" clip-path="url(#id_0)" d="M129.0 330.0L115.0 330.0L115.0 265.0C115.0 263.89542 115.89543 263.0 117.0 263.0L127.0 263.0C128.10457 263.0 129.0 263.89542 129.0 265.0Z" fill-rule="nonzero"/><path fill="#93c47d" clip-path="url(#id_0)" d="M129.0 330.0L115.0 330.0L115.0 265.0C115.0 263.89542 115.89543 263.0 117.0 263.0L127.0 263.0C128.10457 263.0 129.0 263.89542 129.0 265.0Z" fill-rule="nonzero"/><path stroke="#000000" stroke-width="0.0" stroke-linecap="butt" stroke-opacity="0.0" clip-path="url(#id_0)" d="M176.0 330.0L162.0 330.0L162.0 201.0C162.0 199.89543 162.89543 199.0 164.0 199.0L174.0 199.0C175.10457 199.0 176.0 199.89543 176.0 201.0Z" fill-rule="nonzero"/><path fill="#93c47d" clip-path="url(#id_0)" d="M176.0 330.0L162.0 330.0L162.0 201.0C162.0 199.89543 162.89543 199.0 164.0 199.0L174.0 199.0C175.10457 199.0 176.0 199.89543 176.0 201.0Z" fill-rule="nonzero"/><path stroke="#000000" stroke-width="0.0" stroke-linecap="butt" stroke-opacity="0.0" clip-path="url(#id_0)" d="M223.0 330.0L209.0 330.0L209.0 260.0C209.0 258.89542 209.89543 258.0 211.0 258.0L221.0 258.0C222.10457 258.0 223.0 258.89542 223.0 260.0Z" fill-rule="nonzero"/><path fill="#93c47d" clip-path="url(#id_0)" d="M223.0 330.0L209.0 330.0L209.0 260.0C209.0 258.89542 209.89543 258.0 211.0 258.0L221.0 258.0C222.10457 258.0 223.0 258.89542 223.0 260.0Z" fill-rule="nonzero"/><path stroke="#000000" stroke-width="0.0" stroke-linecap="butt" stroke-opacity="0.0" clip-path="url(#id_0)" d="M270.0 330.0L256.0 330.0L256.0 283.0C256.0 281.89542 256.89542 281.0 258.0 281.0L268.0 281.0C269.10458 281.0 270.0 281.89542 270.0 283.0Z" fill-rule="nonzero"/><path fill="#93c47d" clip-path="url(#id_0)" d="M270.0 330.0L256.0 330.0L256.0 283.0C256.0 281.89542 256.89542 281.0 258.0 281.0L268.0 281.0C269.10458 281.0 270.0 281.89542 270.0 283.0Z" fill-rule="nonzero"/><path stroke="#000000" stroke-width="0.0" stroke-linecap="butt" stroke-opacity="0.0" clip-path="url(#id_0)" d="M317.0 330.0L303.0 330.0L303.0 313.0C303.0 311.89542 303.89542 311.0 305.0 311.0L315.0 311.0C316.10458 311.0 317.0 311.89542 317.0 313.0Z" fill-rule="nonzero"/><path fill="#93c47d" clip-path="url(#id_0)" d="M317.0 330.0L303.0 330.0L303.0 313.0C303.0 311.89542 303.89542 311.0 305.0 311.0L315.0 311.0C316.10458 311.0 317.0 311.89542 317.0 313.0Z" fill-rule="nonzero"/><path stroke="#000000" stroke-width="0.0" stroke-linecap="butt" stroke-opacity="0.0" clip-path="url(#id_0)" d="M363.0 330.0L349.0 330.0L349.0 326.0C349.0 324.89542 349.89542 324.0 351.0 324.0L361.0 324.0C362.10458 324.0 363.0 324.89542 363.0 326.0Z" fill-rule="nonzero"/><path fill="#93c47d" clip-path="url(#id_0)" d="M363.0 330.0L349.0 330.0L349.0 326.0C349.0 324.89542 349.89542 324.0 351.0 324.0L361.0 324.0C362.10458 324.0 363.0 324.89542 363.0 326.0Z" fill-rule="nonzero"/><path stroke="#000000" stroke-width="0.0" stroke-linecap="butt" stroke-opacity="0.0" clip-path="url(#id_0)" d="M410.0 330.0L396.0 330.0L396.0 326.0C396.0 324.89542 396.89542 324.0 398.0 324.0L408.0 324.0C409.10458 324.0 410.0 324.89542 410.0 326.0Z" fill-rule="nonzero"/><path fill="#93c47d" clip-path="url(#id_0)" d="M410.0 330.0L396.0 330.0L396.0 326.0C396.0 324.89542 396.89542 324.0 398.0 324.0L408.0 324.0C409.10458 324.0 410.0 324.89542 410.0 326.0Z" fill-rule="nonzero"/><path stroke="#000000" stroke-width="0.0" stroke-linecap="butt" stroke-opacity="0.0" clip-path="url(#id_0)" d="M457.0 330.0L443.0 330.0L443.0 323.0C443.0 321.89542 443.89542 321.0 445.0 321.0L455.0 321.0C456.10458 321.0 457.0 321.89542 457.0 323.0Z" fill-rule="nonzero"/><path fill="#93c47d" clip-path="url(#id_0)" d="M457.0 330.0L443.0 330.0L443.0 323.0C443.0 321.89542 443.89542 321.0 445.0 321.0L455.0 321.0C456.10458 321.0 457.0 321.89542 457.0 323.0Z" fill-rule="nonzero"/><path stroke="#000000" stroke-width="0.0" stroke-linecap="butt" stroke-opacity="0.0" clip-path="url(#id_0)" d="M504.0 330.0L490.0 330.0L490.0 328.5C490.0 327.67157 490.67157 327.0 491.5 327.0L502.5 327.0C503.32843 327.0 504.0 327.67157 504.0 328.5Z" fill-rule="nonzero"/><path fill="#93c47d" clip-path="url(#id_0)" d="M504.0 330.0L490.0 330.0L490.0 328.5C490.0 327.67157 490.67157 327.0 491.5 327.0L502.5 327.0C503.32843 327.0 504.0 327.67157 504.0 328.5Z" fill-rule="nonzero"/><path stroke="#000000" stroke-width="0.0" stroke-linecap="butt" stroke-opacity="0.0" clip-path="url(#id_0)" d="M551.0 330.0L537.0 330.0L537.0 328.0C537.0 326.89542 537.89545 326.0 539.0 326.0L549.0 326.0C550.10455 326.0 551.0 326.89542 551.0 328.0Z" fill-rule="nonzero"/><path fill="#93c47d" clip-path="url(#id_0)" d="M551.0 330.0L537.0 330.0L537.0 328.0C537.0 326.89542 537.89545 326.0 539.0 326.0L549.0 326.0C550.10455 326.0 551.0 326.89542 551.0 328.0Z" fill-rule="nonzero"/><path stroke="#000000" stroke-width="0.0" stroke-linecap="butt" stroke-opacity="0.0" clip-path="url(#id_0)" d="M598.0 330.0L584.0 330.0L584.0 327.0C584.0 325.89542 584.89545 325.0 586.0 325.0L596.0 325.0C597.10455 325.0 598.0 325.89542 598.0 327.0Z" fill-rule="nonzero"/><path fill="#93c47d" clip-path="url(#id_0)" d="M598.0 330.0L584.0 330.0L584.0 327.0C584.0 325.89542 584.89545 325.0 586.0 325.0L596.0 325.0C597.10455 325.0 598.0 325.89542 598.0 327.0Z" fill-rule="nonzero"/><path stroke="#000000" stroke-width="0.0" stroke-linecap="butt" stroke-opacity="0.0" clip-path="url(#id_0)" d="M645.0 330.0L631.0 330.0L631.0 329.5C631.0 329.22385 631.2239 329.0 631.5 329.0L644.5 329.0C644.7761 329.0 645.0 329.22385 645.0 329.5Z" fill-rule="nonzero"/><path fill="#93c47d" clip-path="url(#id_0)" d="M645.0 330.0L631.0 330.0L631.0 329.5C631.0 329.22385 631.2239 329.0 631.5 329.0L644.5 329.0C644.7761 329.0 645.0 329.22385 645.0 329.5Z" fill-rule="nonzero"/><path stroke="#000000" stroke-width="0.0" stroke-linecap="butt" stroke-opacity="0.0" clip-path="url(#id_0)" d="M691.0 330.0L677.0 330.0L677.0 327.0C677.0 325.89542 677.89545 325.0 679.0 325.0L689.0 325.0C690.10455 325.0 691.0 325.89542 691.0 327.0Z" fill-rule="nonzero"/><path fill="#93c47d" clip-path="url(#id_0)" d="M691.0 330.0L677.0 330.0L677.0 327.0C677.0 325.89542 677.89545 325.0 679.0 325.0L689.0 325.0C690.10455 325.0 691.0 325.89542 691.0 327.0Z" fill-rule="nonzero"/><path stroke="#000000" stroke-width="0.0" stroke-linecap="butt" stroke-opacity="0.0" clip-path="url(#id_0)" d="M738.0 330.0L724.0 330.0L724.0 329.5C724.0 329.22385 724.2239 329.0 724.5 329.0L737.5 329.0C737.7761 329.0 738.0 329.22385 738.0 329.5Z" fill-rule="nonzero"/><path fill="#93c47d" clip-path="url(#id_0)" d="M738.0 330.0L724.0 330.0L724.0 329.5C724.0 329.22385 724.2239 329.0 724.5 329.0L737.5 329.0C737.7761 329.0 738.0 329.22385 738.0 329.5Z" fill-rule="nonzero"/><path stroke="#000000" stroke-width="0.0" stroke-linecap="butt" stroke-opacity="0.0" clip-path="url(#id_0)" d="M785.0 330.0L771.0 330.0L771.0 329.0C771.0 328.44772 771.4477 328.0 772.0 328.0L784.0 328.0C784.5523 328.0 785.0 328.44772 785.0 329.0Z" fill-rule="nonzero"/><path fill="#93c47d" clip-path="url(#id_0)" d="M785.0 330.0L771.0 330.0L771.0 329.0C771.0 328.44772 771.4477 328.0 772.0 328.0L784.0 328.0C784.5523 328.0 785.0 328.44772 785.0 329.0Z" fill-rule="nonzero"/><path stroke="#000000" stroke-width="0.0" stroke-linecap="butt" stroke-opacity="0.0" clip-path="url(#id_0)" d="M832.0 330.0L818.0 330.0L818.0 329.0C818.0 328.44772 818.4477 328.0 819.0 328.0L831.0 328.0C831.5523 328.0 832.0 328.44772 832.0 329.0Z" fill-rule="nonzero"/><path fill="#93c47d" clip-path="url(#id_0)" d="M832.0 330.0L818.0 330.0L818.0 329.0C818.0 328.44772 818.4477 328.0 819.0 328.0L831.0 328.0C831.5523 328.0 832.0 328.44772 832.0 329.0Z" fill-rule="nonzero"/><path stroke="#000000" stroke-width="0.0" stroke-linecap="butt" stroke-opacity="0.0" clip-path="url(#id_0)" d="M879.0 330.0L865.0 330.0L865.0 330.0L879.0 330.0Z" fill-rule="nonzero"/><path fill="#93c47d" clip-path="url(#id_0)" d="M879.0 330.0L865.0 330.0L865.0 330.0L879.0 330.0Z" fill-rule="nonzero"/><path fill="#000000" d="M445.57812 387.45L445.57812 377.4344L449.03125 377.4344Q450.20312 377.4344 450.8125 377.575Q451.67188 377.7625 452.28125 378.29376Q453.07812 378.96564 453.46875 380.0125Q453.85938 381.04376 453.85938 382.3875Q453.85938 383.52814 453.59375 384.41876Q453.32812 385.29376 452.90625 385.8719Q452.5 386.45 452.0 386.77814Q451.5 387.10626 450.79688 387.27814Q450.10938 387.45 449.20312 387.45L445.57812 387.45ZM446.90625 386.2625L449.04688 386.2625Q450.03125 386.2625 450.59375 386.09064Q451.17188 385.90314 451.5 385.5594Q451.96875 385.09064 452.23438 384.29376Q452.5 383.4969 452.5 382.35626Q452.5 380.79376 451.98438 379.95Q451.46875 379.10626 450.73438 378.8094Q450.1875 378.60626 449.01562 378.60626L446.90625 378.60626L446.90625 386.2625ZM460.1875 387.45L460.1875 386.3875Q459.32812 387.6219 457.875 387.6219Q457.23438 387.6219 456.67188 387.3719Q456.125 387.1219 455.84375 386.7469Q455.57812 386.3719 455.46875 385.84064Q455.39062 385.48126 455.39062 384.6844L455.39062 380.1844L456.625 380.1844L456.625 384.21564Q456.625 385.1844 456.70312 385.5125Q456.8125 385.9969 457.1875 386.27814Q457.5625 386.5594 458.125 386.5594Q458.67188 386.5594 459.15625 386.27814Q459.64062 385.98126 459.84375 385.4969Q460.04688 385.0125 460.04688 384.075L460.04688 380.1844L461.28125 380.1844L461.28125 387.45L460.1875 387.45ZM463.40625 387.45L463.40625 380.1844L464.51562 380.1844L464.51562 381.29376Q464.9375 380.5125 465.29688 380.27814Q465.65625 380.02814 466.09375 380.02814Q466.71875 380.02814 467.35938 380.41876L466.9375 381.5594Q466.48438 381.29376 466.03125 381.29376Q465.625 381.29376 465.29688 381.54376Q464.98438 381.77814 464.84375 382.21564Q464.64062 382.8719 464.64062 383.65314L464.64062 387.45L463.40625 387.45ZM473.15625 386.5594Q472.48438 387.1375 471.84375 387.3875Q471.21875 387.6219 470.48438 387.6219Q469.29688 387.6219 468.64062 387.04376Q468.0 386.45 468.0 385.52814Q468.0 384.9969 468.23438 384.5594Q468.48438 384.1219 468.875 383.85626Q469.28125 383.59064 469.76562 383.45Q470.125 383.35626 470.85938 383.2625Q472.35938 383.09064 473.0625 382.84064Q473.0625 382.59064 473.0625 382.52814Q473.0625 381.7625 472.71875 381.46564Q472.25 381.04376 471.3125 381.04376Q470.45312 381.04376 470.03125 381.35626Q469.625 381.65314 469.42188 382.41876L468.21875 382.2625Q468.375 381.48126 468.75 381.0125Q469.14062 380.54376 469.84375 380.29376Q470.5625 380.02814 471.5 380.02814Q472.42188 380.02814 473.0 380.2469Q473.57812 380.46564 473.84375 380.79376Q474.125 381.1219 474.23438 381.6375Q474.29688 381.95 474.29688 382.7625L474.29688 384.40314Q474.29688 386.1219 474.375 386.575Q474.45312 387.02814 474.6875 387.45L473.40625 387.45Q473.21875 387.0594 473.15625 386.5594ZM473.0625 383.8094Q472.39062 384.075 471.04688 384.27814Q470.29688 384.3875 469.96875 384.52814Q469.65625 384.65314 469.48438 384.91876Q469.3125 385.1844 469.3125 385.4969Q469.3125 385.9969 469.6875 386.325Q470.0625 386.65314 470.78125 386.65314Q471.5 386.65314 472.04688 386.34064Q472.59375 386.02814 472.85938 385.48126Q473.0625 385.075 473.0625 384.2625L473.0625 383.8094ZM479.10938 386.35626L479.28125 387.4344Q478.76562 387.54376 478.35938 387.54376Q477.6875 387.54376 477.3125 387.34064Q476.95312 387.1219 476.79688 386.77814Q476.65625 386.4344 476.65625 385.325L476.65625 381.15314L475.75 381.15314L475.75 380.1844L476.65625 380.1844L476.65625 378.3875L477.875 377.65314L477.875 380.1844L479.10938 380.1844L479.10938 381.15314L477.875 381.15314L477.875 385.3875Q477.875 385.91876 477.9375 386.075Q478.0 386.21564 478.14062 386.3094Q478.29688 386.40314 478.5625 386.40314Q478.78125 386.40314 479.10938 386.35626ZM480.4375 378.84064L480.4375 377.4344L481.65625 377.4344L481.65625 378.84064L480.4375 378.84064ZM480.4375 387.45L480.4375 380.1844L481.65625 380.1844L481.65625 387.45L480.4375 387.45ZM482.96875 383.825Q482.96875 381.8094 484.09375 380.825Q485.01562 380.02814 486.375 380.02814Q487.85938 380.02814 488.8125 381.0125Q489.76562 381.98126 489.76562 383.71564Q489.76562 385.1219 489.34375 385.9344Q488.92188 386.73126 488.10938 387.1844Q487.3125 387.6219 486.375 387.6219Q484.84375 387.6219 483.90625 386.6375Q482.96875 385.65314 482.96875 383.825ZM484.23438 383.825Q484.23438 385.21564 484.84375 385.91876Q485.45312 386.60626 486.375 386.60626Q487.28125 386.60626 487.89062 385.90314Q488.5 385.2 488.5 383.77814Q488.5 382.4344 487.89062 381.7469Q487.28125 381.04376 486.375 381.04376Q485.45312 381.04376 484.84375 381.73126Q484.23438 382.41876 484.23438 383.825ZM491.42188 387.45L491.42188 380.1844L492.53125 380.1844L492.53125 381.21564Q493.32812 380.02814 494.84375 380.02814Q495.5 380.02814 496.04688 380.2625Q496.59375 380.4969 496.85938 380.8875Q497.14062 381.2625 497.25 381.79376Q497.32812 382.1375 497.32812 382.98126L497.32812 387.45L496.09375 387.45L496.09375 383.02814Q496.09375 382.27814 495.95312 381.91876Q495.8125 381.54376 495.4375 381.325Q495.07812 381.09064 494.57812 381.09064Q493.79688 381.09064 493.21875 381.59064Q492.65625 382.09064 492.65625 383.48126L492.65625 387.45L491.42188 387.45ZM505.78125 390.40314Q504.75 389.10626 504.04688 387.3875Q503.34375 385.66876 503.34375 383.825Q503.34375 382.2 503.875 380.7Q504.48438 378.96564 505.78125 377.2625L506.65625 377.2625Q505.82812 378.6844 505.5625 379.29376Q505.14062 380.23126 504.90625 381.2625Q504.60938 382.52814 504.60938 383.825Q504.60938 387.1219 506.65625 390.40314L505.78125 390.40314ZM508.42188 387.45L508.42188 380.1844L509.53125 380.1844L509.53125 381.21564Q509.85938 380.66876 510.42188 380.35626Q511.0 380.02814 511.71875 380.02814Q512.53125 380.02814 513.0469 380.3719Q513.5625 380.7 513.78125 381.29376Q514.6406 380.02814 516.0156 380.02814Q517.09375 380.02814 517.6719 380.6219Q518.2656 381.21564 518.2656 382.46564L518.2656 387.45L517.03125 387.45L517.03125 382.8719Q517.03125 382.1375 516.90625 381.8094Q516.7969 381.48126 516.4844 381.29376Q516.1719 381.09064 515.75 381.09064Q514.9844 381.09064 514.46875 381.60626Q513.96875 382.10626 513.96875 383.23126L513.96875 387.45L512.7344 387.45L512.7344 382.73126Q512.7344 381.91876 512.4375 381.5125Q512.1406 381.09064 511.45312 381.09064Q510.9375 381.09064 510.48438 381.3719Q510.04688 381.6375 509.84375 382.16876Q509.65625 382.6844 509.65625 383.6844L509.65625 387.45L508.42188 387.45ZM520.4375 378.84064L520.4375 377.4344L521.65625 377.4344L521.65625 378.84064L520.4375 378.84064ZM520.4375 387.45L520.4375 380.1844L521.65625 380.1844L521.65625 387.45L520.4375 387.45ZM523.4219 387.45L523.4219 380.1844L524.53125 380.1844L524.53125 381.21564Q525.3281 380.02814 526.84375 380.02814Q527.5 380.02814 528.0469 380.2625Q528.59375 380.4969 528.8594 380.8875Q529.1406 381.2625 529.25 381.79376Q529.3281 382.1375 529.3281 382.98126L529.3281 387.45L528.09375 387.45L528.09375 383.02814Q528.09375 382.27814 527.9531 381.91876Q527.8125 381.54376 527.4375 381.325Q527.0781 381.09064 526.5781 381.09064Q525.7969 381.09064 525.21875 381.59064Q524.65625 382.09064 524.65625 383.48126L524.65625 387.45L523.4219 387.45ZM532.2344 390.40314L531.34375 390.40314Q533.3906 387.1219 533.3906 383.825Q533.3906 382.54376 533.09375 381.27814Q532.8594 380.2469 532.4531 379.3094Q532.1875 378.7 531.34375 377.2625L532.2344 377.2625Q533.5156 378.96564 534.125 380.7Q534.65625 382.2 534.65625 383.825Q534.65625 385.66876 533.9375 387.3875Q533.2344 389.10626 532.2344 390.40314Z" fill-rule="nonzero"/><path fill="#000000" d="M31.550013 232.42813L22.956263 232.42813L22.956263 229.17813Q22.956263 228.33438 23.034388 227.88126Q23.143763 227.24063 23.440638 226.81876Q23.737513 226.38126 24.268763 226.13126Q24.800013 225.86563 25.440638 225.86563Q26.534388 225.86563 27.300013 226.56876Q28.050013 227.25626 28.050013 229.08438L28.050013 231.2875L31.550013 231.2875L31.550013 232.42813ZM27.050013 231.2875L27.050013 229.06876Q27.050013 227.95938 26.643763 227.50626Q26.221888 227.0375 25.471888 227.0375Q24.940638 227.0375 24.565638 227.31876Q24.175013 227.58438 24.050013 228.02188Q23.971888 228.31876 23.971888 229.08438L23.971888 231.2875L27.050013 231.2875ZM29.550013 220.30313L29.675013 219.20938Q30.628138 219.45938 31.159388 220.1625Q31.690638 220.86563 31.690638 221.94376Q31.690638 223.30313 30.846888 224.11563Q30.003138 224.9125 28.487513 224.9125Q26.925013 224.9125 26.065638 224.1Q25.190638 223.2875 25.190638 222.00626Q25.190638 220.75626 26.034388 219.975Q26.878138 219.17813 28.425013 219.17813Q28.518763 219.17813 28.706263 219.17813L28.706263 223.81876Q29.737513 223.75626 30.284388 223.24063Q30.815638 222.725 30.815638 221.94376Q30.815638 221.36563 30.518763 220.95938Q30.206263 220.5375 29.550013 220.30313ZM27.846888 223.75626L27.846888 220.2875Q27.050013 220.35 26.659388 220.67813Q26.050013 221.19376 26.050013 221.99063Q26.050013 222.725 26.534388 223.225Q27.018763 223.70938 27.846888 223.75626ZM31.550013 217.56876L25.331263 217.56876L25.331263 216.61563L26.268763 216.61563Q25.612513 216.25626 25.409388 215.95938Q25.190638 215.64688 25.190638 215.27188Q25.190638 214.74063 25.518763 214.19376L26.503138 214.55313Q26.268763 214.94376 26.268763 215.31876Q26.268763 215.67813 26.487513 215.95938Q26.690638 216.225 27.065638 216.33438Q27.628138 216.52188 28.284388 216.52188L31.550013 216.52188L31.550013 217.56876ZM29.268763 209.49063L29.409388 208.45938Q30.471888 208.63126 31.081263 209.33438Q31.690638 210.0375 31.690638 211.05313Q31.690638 212.33438 30.862513 213.11563Q30.018763 213.88126 28.456263 213.88126Q27.456263 213.88126 26.706263 213.55313Q25.940638 213.20938 25.565638 212.5375Q25.190638 211.85 25.190638 211.0375Q25.190638 210.0375 25.706263 209.39688Q26.206263 208.74063 27.159388 208.55313L27.315638 209.58438Q26.690638 209.725 26.378138 210.1Q26.050013 210.475 26.050013 211.00626Q26.050013 211.80313 26.628138 212.30313Q27.190638 212.80313 28.425013 212.80313Q29.690638 212.80313 30.253138 212.31876Q30.815638 211.83438 30.815638 211.06876Q30.815638 210.44376 30.440638 210.0375Q30.065638 209.61563 29.268763 209.49063ZM29.550013 203.30313L29.675013 202.20938Q30.628138 202.45938 31.159388 203.1625Q31.690638 203.86563 31.690638 204.94376Q31.690638 206.30313 30.846888 207.11563Q30.003138 207.9125 28.487513 207.9125Q26.925013 207.9125 26.065638 207.1Q25.190638 206.2875 25.190638 205.00626Q25.190638 203.75626 26.034388 202.975Q26.878138 202.17813 28.425013 202.17813Q28.518763 202.17813 28.706263 202.17813L28.706263 206.81876Q29.737513 206.75626 30.284388 206.24063Q30.815638 205.725 30.815638 204.94376Q30.815638 204.36563 30.518763 203.95938Q30.206263 203.5375 29.550013 203.30313ZM27.846888 206.75626L27.846888 203.2875Q27.050013 203.35 26.659388 203.67813Q26.050013 204.19376 26.050013 204.99063Q26.050013 205.725 26.534388 206.225Q27.018763 206.70938 27.846888 206.75626ZM31.550013 200.55313L25.331263 200.55313L25.331263 199.61563L26.206263 199.61563Q25.190638 198.92813 25.190638 197.63126Q25.190638 197.06876 25.393763 196.6Q25.596888 196.11563 25.925013 195.88126Q26.253138 195.64688 26.690638 195.55313Q26.987513 195.50626 27.721888 195.50626L31.550013 195.50626L31.550013 196.55313L27.768763 196.55313Q27.112513 196.55313 26.800013 196.67813Q26.487513 196.80313 26.300013 197.11563Q26.096888 197.42813 26.096888 197.85Q26.096888 198.52188 26.534388 199.02188Q26.956263 199.50626 28.143763 199.50626L31.550013 199.50626L31.550013 200.55313ZM30.612513 191.25626L31.534388 191.1Q31.628138 191.55313 31.628138 191.89688Q31.628138 192.475 31.456263 192.7875Q31.268763 193.1 30.971888 193.24063Q30.675013 193.36563 29.721888 193.36563L26.143763 193.36563L26.143763 194.13126L25.331263 194.13126L25.331263 193.36563L23.784388 193.36563L23.159388 192.31876L25.331263 192.31876L25.331263 191.25626L26.143763 191.25626L26.143763 192.31876L29.784388 192.31876Q30.237513 192.31876 30.362513 192.27188Q30.487513 192.20938 30.565638 192.08438Q30.643763 191.95938 30.643763 191.725Q30.643763 191.5375 30.612513 191.25626ZM30.784388 186.49063Q31.284388 187.08438 31.487513 187.63126Q31.690638 188.1625 31.690638 188.7875Q31.690638 189.81876 31.190638 190.36563Q30.690638 190.9125 29.909388 190.9125Q29.456263 190.9125 29.081263 190.70938Q28.690638 190.50626 28.471888 190.1625Q28.237513 189.81876 28.128138 189.39688Q28.034388 189.1 27.956263 188.45938Q27.815638 187.19376 27.596888 186.58438Q27.378138 186.58438 27.331263 186.58438Q26.675013 186.58438 26.409388 186.88126Q26.065638 187.2875 26.065638 188.08438Q26.065638 188.81876 26.331263 189.17813Q26.581263 189.5375 27.237513 189.70938L27.096888 190.74063Q26.440638 190.6 26.034388 190.27188Q25.628138 189.94376 25.409388 189.33438Q25.190638 188.725 25.190638 187.92813Q25.190638 187.13126 25.378138 186.63126Q25.565638 186.13126 25.846888 185.89688Q26.128138 185.6625 26.565638 185.56876Q26.831263 185.52188 27.534388 185.52188L28.940638 185.52188Q30.409388 185.52188 30.800013 185.45938Q31.190638 185.38126 31.550013 185.17813L31.550013 186.2875Q31.221888 186.44376 30.784388 186.49063ZM28.425013 186.58438Q28.659388 187.1625 28.831263 188.30313Q28.925013 188.95938 29.050013 189.225Q29.159388 189.49063 29.378138 189.64688Q29.596888 189.7875 29.878138 189.7875Q30.300013 189.7875 30.581263 189.475Q30.862513 189.14688 30.862513 188.5375Q30.862513 187.92813 30.596888 187.45938Q30.331263 186.975 29.862513 186.75626Q29.503138 186.58438 28.815638 186.58438L28.425013 186.58438ZM32.065636 183.75626L32.221886 182.725Q32.690636 182.6625 32.909386 182.36563Q33.20626 181.975 33.20626 181.30313Q33.20626 180.56876 32.909386 180.17813Q32.61251 179.77188 32.096886 179.63126Q31.768763 179.5375 30.737513 179.55313Q31.550013 180.24063 31.550013 181.27188Q31.550013 182.55313 30.628138 183.25626Q29.690638 183.95938 28.409388 183.95938Q27.518763 183.95938 26.768763 183.64688Q26.003138 183.31876 25.596888 182.70938Q25.190638 182.1 25.190638 181.27188Q25.190638 180.1625 26.081263 179.44376L25.331263 179.44376L25.331263 178.475L30.706263 178.475Q32.159386 178.475 32.76876 178.77188Q33.378136 179.06876 33.721886 179.70938Q34.08126 180.35 34.08126 181.2875Q34.08126 182.39688 33.58126 183.08438Q33.08126 183.77188 32.065636 183.75626ZM28.331263 182.88126Q29.550013 182.88126 30.112513 182.39688Q30.675013 181.9125 30.675013 181.17813Q30.675013 180.44376 30.112513 179.95938Q29.550013 179.45938 28.362513 179.45938Q27.221888 179.45938 26.643763 179.975Q26.065638 180.475 26.065638 181.19376Q26.065638 181.89688 26.643763 182.39688Q27.206263 182.88126 28.331263 182.88126ZM29.550013 172.30313L29.675013 171.20938Q30.628138 171.45938 31.159388 172.1625Q31.690638 172.86563 31.690638 173.94376Q31.690638 175.30313 30.846888 176.11563Q30.003138 176.9125 28.487513 176.9125Q26.925013 176.9125 26.065638 176.1Q25.190638 175.2875 25.190638 174.00626Q25.190638 172.75626 26.034388 171.975Q26.878138 171.17813 28.425013 171.17813Q28.518763 171.17813 28.706263 171.17813L28.706263 175.81876Q29.737513 175.75626 30.284388 175.24063Q30.815638 174.725 30.815638 173.94376Q30.815638 173.36563 30.518763 172.95938Q30.206263 172.5375 29.550013 172.30313ZM27.846888 175.75626L27.846888 172.2875Q27.050013 172.35 26.659388 172.67813Q26.050013 173.19376 26.050013 173.99063Q26.050013 174.725 26.534388 175.225Q27.018763 175.70938 27.846888 175.75626Z" fill-rule="nonzero"/><path fill="#000000" d="M69.12813 330.5125Q69.12813 328.73126 69.4875 327.65314Q69.8625 326.5594 70.58125 325.98126Q71.3 325.3875 72.39375 325.3875Q73.20625 325.3875 73.81563 325.71564Q74.425 326.04376 74.81563 326.65314Q75.22188 327.2625 75.44063 328.1375Q75.65938 329.0125 75.65938 330.5125Q75.65938 332.27814 75.3 333.35626Q74.94063 334.4344 74.22188 335.02814Q73.50313 335.6219 72.39375 335.6219Q70.95625 335.6219 70.12813 334.575Q69.12813 333.325 69.12813 330.5125ZM70.39375 330.5125Q70.39375 332.98126 70.97188 333.79376Q71.55 334.60626 72.39375 334.60626Q73.25313 334.60626 73.83125 333.79376Q74.40938 332.96564 74.40938 330.5125Q74.40938 328.02814 73.83125 327.21564Q73.25313 326.40314 72.37813 326.40314Q71.53438 326.40314 71.03438 327.1219Q70.39375 328.04376 70.39375 330.5125Z" fill-rule="nonzero"/><path fill="#000000" d="M65.76875 296.5643L64.53438 296.5643L64.53438 288.72055Q64.09688 289.14243 63.3625 289.57993Q62.64375 290.0018 62.08125 290.20493L62.08125 289.01743Q63.1125 288.53305 63.878124 287.84555Q64.65938 287.15805 64.97188 286.5018L65.76875 286.5018L65.76875 296.5643ZM69.12813 291.6268Q69.12813 289.84555 69.4875 288.76743Q69.8625 287.67368 70.58125 287.09555Q71.3 286.5018 72.39375 286.5018Q73.20625 286.5018 73.81563 286.82993Q74.425 287.15805 74.81563 287.76743Q75.22188 288.3768 75.44063 289.2518Q75.65938 290.1268 75.65938 291.6268Q75.65938 293.39243 75.3 294.47055Q74.94063 295.54868 74.22188 296.14243Q73.50313 296.73618 72.39375 296.73618Q70.95625 296.73618 70.12813 295.6893Q69.12813 294.4393 69.12813 291.6268ZM70.39375 291.6268Q70.39375 294.09555 70.97188 294.90805Q71.55 295.72055 72.39375 295.72055Q73.25313 295.72055 73.83125 294.90805Q74.40938 294.07993 74.40938 291.6268Q74.40938 289.14243 73.83125 288.32993Q73.25313 287.51743 72.37813 287.51743Q71.53438 287.51743 71.03438 288.23618Q70.39375 289.15805 70.39375 291.6268Z" fill-rule="nonzero"/><path fill="#000000" d="M67.59688 256.49106L67.59688 257.67856L60.971874 257.67856Q60.95625 257.24106 61.1125 256.81918Q61.378124 256.1473 61.925 255.49106Q62.4875 254.83481 63.534374 253.97543Q65.175 252.63168 65.7375 251.85043Q66.31563 251.06918 66.31563 250.36606Q66.31563 249.63168 65.78438 249.13168Q65.26875 248.63168 64.44063 248.63168Q63.55 248.63168 63.003124 249.16293Q62.471874 249.69418 62.471874 250.64731L61.20625 250.50668Q61.33125 249.10043 62.175 248.36606Q63.034374 247.61606 64.45625 247.61606Q65.90938 247.61606 66.7375 248.41293Q67.58125 249.20981 67.58125 250.39731Q67.58125 251.00668 67.33125 251.58481Q67.09688 252.16293 66.51875 252.80356Q65.95625 253.44418 64.62813 254.56918Q63.51875 255.49106 63.20625 255.83481Q62.89375 256.16293 62.690624 256.49106L67.59688 256.49106ZM69.12813 252.74106Q69.12813 250.95981 69.4875 249.88168Q69.8625 248.78793 70.58125 248.20981Q71.3 247.61606 72.39375 247.61606Q73.20625 247.61606 73.81563 247.94418Q74.425 248.27231 74.81563 248.88168Q75.22188 249.49106 75.44063 250.36606Q75.65938 251.24106 75.65938 252.74106Q75.65938 254.50668 75.3 255.58481Q74.94063 256.66293 74.22188 257.25668Q73.50313 257.85043 72.39375 257.85043Q70.95625 257.85043 70.12813 256.80356Q69.12813 255.55356 69.12813 252.74106ZM70.39375 252.74106Q70.39375 255.20981 70.97188 256.0223Q71.55 256.8348 72.39375 256.8348Q73.25313 256.8348 73.83125 256.0223Q74.40938 255.19418 74.40938 252.74106Q74.40938 250.25668 73.83125 249.44418Q73.25313 248.63168 72.37813 248.63168Q71.53438 248.63168 71.03438 249.35043Q70.39375 250.27231 70.39375 252.74106Z" fill-rule="nonzero"/><path fill="#000000" d="M61.14375 216.15224L62.3625 215.98036Q62.58125 217.02724 63.08125 217.49599Q63.596874 217.94911 64.33125 217.94911Q65.20625 217.94911 65.8 217.35536Q66.39375 216.74599 66.39375 215.85536Q66.39375 215.01161 65.83125 214.46474Q65.28438 213.91786 64.44063 213.91786Q64.08125 213.91786 63.565624 214.04286L63.70625 212.96474Q63.83125 212.98036 63.89375 212.98036Q64.69063 212.98036 65.31563 212.57411Q65.94063 212.16786 65.94063 211.30849Q65.94063 210.63661 65.4875 210.19911Q65.03438 209.74599 64.3 209.74599Q63.58125 209.74599 63.096874 210.19911Q62.628124 210.63661 62.4875 211.54286L61.26875 211.32411Q61.4875 210.08974 62.284374 209.41786Q63.08125 208.73036 64.26875 208.73036Q65.09688 208.73036 65.78438 209.08974Q66.47188 209.43349 66.83125 210.04286Q67.20625 210.65224 67.20625 211.33974Q67.20625 211.98036 66.8625 212.51161Q66.51875 213.04286 65.83125 213.37099Q66.72188 213.57411 67.20625 214.21474Q67.70625 214.85536 67.70625 215.83974Q67.70625 217.15224 66.7375 218.05849Q65.78438 218.96474 64.33125 218.96474Q63.003124 218.96474 62.128124 218.18349Q61.26875 217.40224 61.14375 216.15224ZM69.12813 213.85536Q69.12813 212.07411 69.4875 210.99599Q69.8625 209.90224 70.58125 209.32411Q71.3 208.73036 72.39375 208.73036Q73.20625 208.73036 73.81563 209.05849Q74.425 209.38661 74.81563 209.99599Q75.22188 210.60536 75.44063 211.48036Q75.65938 212.35536 75.65938 213.85536Q75.65938 215.62099 75.3 216.69911Q74.94063 217.77724 74.22188 218.37099Q73.50313 218.96474 72.39375 218.96474Q70.95625 218.96474 70.12813 217.91786Q69.12813 216.66786 69.12813 213.85536ZM70.39375 213.85536Q70.39375 216.32411 70.97188 217.13661Q71.55 217.94911 72.39375 217.94911Q73.25313 217.94911 73.83125 217.13661Q74.40938 216.30849 74.40938 213.85536Q74.40938 211.37099 73.83125 210.55849Q73.25313 209.74599 72.37813 209.74599Q71.53438 209.74599 71.03438 210.46474Q70.39375 211.38661 70.39375 213.85536Z" fill-rule="nonzero"/><path fill="#000000" d="M65.08125 179.90715L65.08125 177.5009L60.721874 177.5009L60.721874 176.3759L65.3 169.89153L66.3 169.89153L66.3 176.3759L67.65938 176.3759L67.65938 177.5009L66.3 177.5009L66.3 179.90715L65.08125 179.90715ZM65.08125 176.3759L65.08125 171.86028L61.940624 176.3759L65.08125 176.3759ZM69.12813 174.96965Q69.12813 173.1884 69.4875 172.11028Q69.8625 171.01653 70.58125 170.4384Q71.3 169.84465 72.39375 169.84465Q73.20625 169.84465 73.81563 170.17278Q74.425 170.5009 74.81563 171.11028Q75.22188 171.71965 75.44063 172.59465Q75.65938 173.46965 75.65938 174.96965Q75.65938 176.73528 75.3 177.8134Q74.94063 178.89153 74.22188 179.48528Q73.50313 180.07903 72.39375 180.07903Q70.95625 180.07903 70.12813 179.03215Q69.12813 177.78215 69.12813 174.96965ZM70.39375 174.96965Q70.39375 177.4384 70.97188 178.2509Q71.55 179.0634 72.39375 179.0634Q73.25313 179.0634 73.83125 178.2509Q74.40938 177.42278 74.40938 174.96965Q74.40938 172.48528 73.83125 171.67278Q73.25313 170.86028 72.37813 170.86028Q71.53438 170.86028 71.03438 171.57903Q70.39375 172.5009 70.39375 174.96965Z" fill-rule="nonzero"/><path fill="#000000" d="M61.128124 138.39642L62.425 138.28705Q62.565624 139.22455 63.08125 139.70892Q63.6125 140.17767 64.34688 140.17767Q65.2375 140.17767 65.84688 139.5058Q66.47188 138.83392 66.47188 137.74017Q66.47188 136.67767 65.87813 136.0683Q65.28438 135.45892 64.33125 135.45892Q63.7375 135.45892 63.253124 135.74017Q62.784374 136.0058 62.503124 136.42767L61.346874 136.28705L62.315624 131.1308L67.3 131.1308L67.3 132.3183L63.3 132.3183L62.76875 135.0058Q63.675 134.3808 64.65938 134.3808Q65.97188 134.3808 66.8625 135.28705Q67.76875 136.1933 67.76875 137.6308Q67.76875 138.99017 66.9875 139.97455Q66.01875 141.1933 64.34688 141.1933Q62.9875 141.1933 62.1125 140.42767Q61.253124 139.66205 61.128124 138.39642ZM69.12813 136.08392Q69.12813 134.30267 69.4875 133.22455Q69.8625 132.1308 70.58125 131.55267Q71.3 130.95892 72.39375 130.95892Q73.20625 130.95892 73.81563 131.28705Q74.425 131.61517 74.81563 132.22455Q75.22188 132.83392 75.44063 133.70892Q75.65938 134.58392 75.65938 136.08392Q75.65938 137.84955 75.3 138.92767Q74.94063 140.0058 74.22188 140.59955Q73.50313 141.1933 72.39375 141.1933Q70.95625 141.1933 70.12813 140.14642Q69.12813 138.89642 69.12813 136.08392ZM70.39375 136.08392Q70.39375 138.55267 70.97188 139.36517Q71.55 140.17767 72.39375 140.17767Q73.25313 140.17767 73.83125 139.36517Q74.40938 138.53705 74.40938 136.08392Q74.40938 133.59955 73.83125 132.78705Q73.25313 131.97455 72.37813 131.97455Q71.53438 131.97455 71.03438 132.6933Q70.39375 133.61517 70.39375 136.08392Z" fill-rule="nonzero"/><path fill="#000000" d="M67.51875 94.57321L66.3 94.66696Q66.12813 93.93259 65.83125 93.60446Q65.33125 93.08884 64.59688 93.08884Q64.00313 93.08884 63.565624 93.41696Q62.9875 93.83884 62.64375 94.65134Q62.315624 95.46384 62.3 96.96384Q62.7375 96.29196 63.378124 95.96384Q64.03438 95.63571 64.7375 95.63571Q65.97188 95.63571 66.83125 96.54196Q67.69063 97.44821 67.69063 98.88571Q67.69063 99.82321 67.28438 100.63571Q66.87813 101.44821 66.15938 101.88571Q65.45625 102.30759 64.55 102.30759Q63.01875 102.30759 62.05 101.18259Q61.08125 100.04196 61.08125 97.44821Q61.08125 94.54196 62.14375 93.21384Q63.08125 92.07321 64.675 92.07321Q65.8625 92.07321 66.6125 92.74509Q67.3625 93.40134 67.51875 94.57321ZM62.4875 98.88571Q62.4875 99.52634 62.753124 100.10446Q63.034374 100.68259 63.51875 100.99509Q64.00313 101.29196 64.53438 101.29196Q65.31563 101.29196 65.87813 100.66696Q66.44063 100.04196 66.44063 98.96384Q66.44063 97.91696 65.87813 97.32321Q65.33125 96.71384 64.4875 96.71384Q63.659374 96.71384 63.065624 97.32321Q62.4875 97.91696 62.4875 98.88571ZM69.12813 97.19821Q69.12813 95.41696 69.4875 94.33884Q69.8625 93.24509 70.58125 92.66696Q71.3 92.07321 72.39375 92.07321Q73.20625 92.07321 73.81563 92.40134Q74.425 92.72946 74.81563 93.33884Q75.22188 93.94821 75.44063 94.82321Q75.65938 95.69821 75.65938 97.19821Q75.65938 98.96384 75.3 100.04196Q74.94063 101.12009 74.22188 101.71384Q73.50313 102.30759 72.39375 102.30759Q70.95625 102.30759 70.12813 101.26071Q69.12813 100.01071 69.12813 97.19821ZM70.39375 97.19821Q70.39375 99.66696 70.97188 100.47946Q71.55 101.29196 72.39375 101.29196Q73.25313 101.29196 73.83125 100.47946Q74.40938 99.65134 74.40938 97.19821Q74.40938 94.71384 73.83125 93.90134Q73.25313 93.08884 72.37813 93.08884Q71.53438 93.08884 71.03438 93.80759Q70.39375 94.72946 70.39375 97.19821Z" fill-rule="nonzero"/><path fill="#000000" d="M61.20625 54.546875L61.20625 53.359375L67.70625 53.359375L67.70625 54.3125Q66.7375 55.328125 65.8 57.015625Q64.8625 58.703125 64.34688 60.5Q63.9875 61.75 63.878124 63.25L62.6125 63.25Q62.628124 62.0625 63.065624 60.390625Q63.51875 58.71875 64.34688 57.171875Q65.19063 55.609375 66.12813 54.546875L61.20625 54.546875ZM69.12813 58.3125Q69.12813 56.53125 69.4875 55.453125Q69.8625 54.359375 70.58125 53.78125Q71.3 53.1875 72.39375 53.1875Q73.20625 53.1875 73.81563 53.515625Q74.425 53.84375 74.81563 54.453125Q75.22188 55.0625 75.44063 55.9375Q75.65938 56.8125 75.65938 58.3125Q75.65938 60.078125 75.3 61.15625Q74.94063 62.234375 74.22188 62.828125Q73.50313 63.421875 72.39375 63.421875Q70.95625 63.421875 70.12813 62.375Q69.12813 61.125 69.12813 58.3125ZM70.39375 58.3125Q70.39375 60.78125 70.97188 61.59375Q71.55 62.40625 72.39375 62.40625Q73.25313 62.40625 73.83125 61.59375Q74.40938 60.765625 74.40938 58.3125Q74.40938 55.828125 73.83125 55.015625Q73.25313 54.203125 72.37813 54.203125Q71.53438 54.203125 71.03438 54.921875Q70.39375 55.84375 70.39375 58.3125Z" fill-rule="nonzero"/><path fill="#000000" d="M111.753914 345.5125Q111.753914 343.73126 112.11329 342.65314Q112.48829 341.5594 113.20704 340.98126Q113.92579 340.3875 115.01954 340.3875Q115.83204 340.3875 116.441414 340.71564Q117.05079 341.04376 117.441414 341.65314Q117.847664 342.2625 118.066414 343.1375Q118.285164 344.0125 118.285164 345.5125Q118.285164 347.27814 117.92579 348.35626Q117.566414 349.4344 116.847664 350.02814Q116.128914 350.6219 115.01954 350.6219Q113.58204 350.6219 112.753914 349.575Q111.753914 348.325 111.753914 345.5125ZM113.01954 345.5125Q113.01954 347.98126 113.597664 348.79376Q114.17579 349.60626 115.01954 349.60626Q115.878914 349.60626 116.45704 348.79376Q117.035164 347.96564 117.035164 345.5125Q117.035164 343.02814 116.45704 342.21564Q115.878914 341.40314 115.003914 341.40314Q114.160164 341.40314 113.660164 342.1219Q113.01954 343.04376 113.01954 345.5125Z" fill-rule="nonzero"/><path fill="#000000" d="M158.60695 347.825L159.90382 347.71564Q160.04445 348.65314 160.56007 349.1375Q161.09132 349.60626 161.8257 349.60626Q162.71632 349.60626 163.3257 348.9344Q163.9507 348.2625 163.9507 347.16876Q163.9507 346.10626 163.35695 345.4969Q162.7632 344.8875 161.81007 344.8875Q161.21632 344.8875 160.73195 345.16876Q160.2632 345.4344 159.98195 345.85626L158.8257 345.71564L159.79445 340.5594L164.77882 340.5594L164.77882 341.7469L160.77882 341.7469L160.24757 344.4344Q161.15382 343.8094 162.1382 343.8094Q163.4507 343.8094 164.34132 344.71564Q165.24757 345.6219 165.24757 347.0594Q165.24757 348.41876 164.46632 349.40314Q163.49757 350.6219 161.8257 350.6219Q160.46632 350.6219 159.59132 349.85626Q158.73195 349.09064 158.60695 347.825Z" fill-rule="nonzero"/><path fill="#000000" d="M206.1006 350.45L204.86623 350.45L204.86623 342.60626Q204.42873 343.02814 203.69435 343.46564Q202.9756 343.8875 202.4131 344.09064L202.4131 342.90314Q203.44435 342.41876 204.20998 341.73126Q204.99123 341.04376 205.30373 340.3875L206.1006 340.3875L206.1006 350.45ZM209.45998 345.5125Q209.45998 343.73126 209.81935 342.65314Q210.19435 341.5594 210.9131 340.98126Q211.63185 340.3875 212.7256 340.3875Q213.5381 340.3875 214.14748 340.71564Q214.75685 341.04376 215.14748 341.65314Q215.55373 342.2625 215.77248 343.1375Q215.99123 344.0125 215.99123 345.5125Q215.99123 347.27814 215.63185 348.35626Q215.27248 349.4344 214.55373 350.02814Q213.83498 350.6219 212.7256 350.6219Q211.2881 350.6219 210.45998 349.575Q209.45998 348.325 209.45998 345.5125ZM210.7256 345.5125Q210.7256 347.98126 211.30373 348.79376Q211.88185 349.60626 212.7256 349.60626Q213.58498 349.60626 214.1631 348.79376Q214.74123 347.96564 214.74123 345.5125Q214.74123 343.02814 214.1631 342.21564Q213.58498 341.40314 212.70998 341.40314Q211.86623 341.40314 211.36623 342.1219Q210.7256 343.04376 210.7256 345.5125Z" fill-rule="nonzero"/><path fill="#000000" d="M252.95361 350.45L251.71924 350.45L251.71924 342.60626Q251.28174 343.02814 250.54736 343.46564Q249.82861 343.8875 249.26611 344.09064L249.26611 342.90314Q250.29736 342.41876 251.06299 341.73126Q251.84424 341.04376 252.15674 340.3875L252.95361 340.3875L252.95361 350.45ZM256.313 347.825L257.60986 347.71564Q257.7505 348.65314 258.2661 349.1375Q258.79736 349.60626 259.53174 349.60626Q260.42236 349.60626 261.03174 348.9344Q261.65674 348.2625 261.65674 347.16876Q261.65674 346.10626 261.063 345.4969Q260.46924 344.8875 259.5161 344.8875Q258.92236 344.8875 258.438 345.16876Q257.96924 345.4344 257.688 345.85626L256.53174 345.71564L257.5005 340.5594L262.48486 340.5594L262.48486 341.7469L258.48486 341.7469L257.9536 344.4344Q258.85986 343.8094 259.84424 343.8094Q261.15674 343.8094 262.04736 344.71564Q262.9536 345.6219 262.9536 347.0594Q262.9536 348.41876 262.17236 349.40314Q261.2036 350.6219 259.53174 350.6219Q258.17236 350.6219 257.29736 349.85626Q256.438 349.09064 256.313 347.825Z" fill-rule="nonzero"/><path fill="#000000" d="M301.63477 349.2625L301.63477 350.45L295.00977 350.45Q294.99414 350.0125 295.1504 349.59064Q295.41602 348.91876 295.9629 348.2625Q296.5254 347.60626 297.57227 346.7469Q299.2129 345.40314 299.7754 344.6219Q300.35352 343.84064 300.35352 343.1375Q300.35352 342.40314 299.82227 341.90314Q299.30664 341.40314 298.47852 341.40314Q297.5879 341.40314 297.04102 341.9344Q296.50977 342.46564 296.50977 343.41876L295.24414 343.27814Q295.36914 341.8719 296.2129 341.1375Q297.07227 340.3875 298.49414 340.3875Q299.94727 340.3875 300.7754 341.1844Q301.61914 341.98126 301.61914 343.16876Q301.61914 343.77814 301.36914 344.35626Q301.13477 344.9344 300.55664 345.575Q299.99414 346.21564 298.66602 347.34064Q297.55664 348.2625 297.24414 348.60626Q296.93164 348.9344 296.72852 349.2625L301.63477 349.2625ZM303.16602 345.5125Q303.16602 343.73126 303.5254 342.65314Q303.9004 341.5594 304.61914 340.98126Q305.3379 340.3875 306.43164 340.3875Q307.24414 340.3875 307.85352 340.71564Q308.4629 341.04376 308.85352 341.65314Q309.25977 342.2625 309.47852 343.1375Q309.69727 344.0125 309.69727 345.5125Q309.69727 347.27814 309.3379 348.35626Q308.97852 349.4344 308.25977 350.02814Q307.54102 350.6219 306.43164 350.6219Q304.99414 350.6219 304.16602 349.575Q303.16602 348.325 303.16602 345.5125ZM304.43164 345.5125Q304.43164 347.98126 305.00977 348.79376Q305.5879 349.60626 306.43164 349.60626Q307.29102 349.60626 307.86914 348.79376Q308.44727 347.96564 308.44727 345.5125Q308.44727 343.02814 307.86914 342.21564Q307.29102 341.40314 306.41602 341.40314Q305.57227 341.40314 305.07227 342.1219Q304.43164 343.04376 304.43164 345.5125Z" fill-rule="nonzero"/><path fill="#000000" d="M348.4878 349.2625L348.4878 350.45L341.8628 350.45Q341.84717 350.0125 342.00342 349.59064Q342.26904 348.91876 342.81592 348.2625Q343.37842 347.60626 344.4253 346.7469Q346.06592 345.40314 346.62842 344.6219Q347.20654 343.84064 347.20654 343.1375Q347.20654 342.40314 346.6753 341.90314Q346.15967 341.40314 345.33154 341.40314Q344.44092 341.40314 343.89404 341.9344Q343.3628 342.46564 343.3628 343.41876L342.09717 343.27814Q342.22217 341.8719 343.06592 341.1375Q343.9253 340.3875 345.34717 340.3875Q346.8003 340.3875 347.62842 341.1844Q348.47217 341.98126 348.47217 343.16876Q348.47217 343.77814 348.22217 344.35626Q347.9878 344.9344 347.40967 345.575Q346.84717 346.21564 345.51904 347.34064Q344.40967 348.2625 344.09717 348.60626Q343.78467 348.9344 343.58154 349.2625L348.4878 349.2625ZM350.01904 347.825L351.31592 347.71564Q351.45654 348.65314 351.97217 349.1375Q352.50342 349.60626 353.2378 349.60626Q354.12842 349.60626 354.7378 348.9344Q355.3628 348.2625 355.3628 347.16876Q355.3628 346.10626 354.76904 345.4969Q354.1753 344.8875 353.22217 344.8875Q352.62842 344.8875 352.14404 345.16876Q351.6753 345.4344 351.39404 345.85626L350.2378 345.71564L351.20654 340.5594L356.19092 340.5594L356.19092 341.7469L352.19092 341.7469L351.65967 344.4344Q352.56592 343.8094 353.5503 343.8094Q354.8628 343.8094 355.75342 344.71564Q356.65967 345.6219 356.65967 347.0594Q356.65967 348.41876 355.87842 349.40314Q354.90967 350.6219 353.2378 350.6219Q351.87842 350.6219 351.00342 349.85626Q350.14404 349.09064 350.01904 347.825Z" fill-rule="nonzero"/><path fill="#000000" d="M388.8877 347.8094L390.10645 347.6375Q390.3252 348.6844 390.8252 349.15314Q391.34082 349.60626 392.0752 349.60626Q392.9502 349.60626 393.54395 349.0125Q394.1377 348.40314 394.1377 347.5125Q394.1377 346.66876 393.5752 346.1219Q393.02832 345.575 392.18457 345.575Q391.8252 345.575 391.30957 345.7L391.4502 344.6219Q391.5752 344.6375 391.6377 344.6375Q392.43457 344.6375 393.05957 344.23126Q393.68457 343.825 393.68457 342.96564Q393.68457 342.29376 393.23145 341.85626Q392.77832 341.40314 392.04395 341.40314Q391.3252 341.40314 390.84082 341.85626Q390.37207 342.29376 390.23145 343.2L389.0127 342.98126Q389.23145 341.7469 390.02832 341.075Q390.8252 340.3875 392.0127 340.3875Q392.84082 340.3875 393.52832 340.7469Q394.21582 341.09064 394.5752 341.7Q394.9502 342.3094 394.9502 342.9969Q394.9502 343.6375 394.60645 344.16876Q394.2627 344.7 393.5752 345.02814Q394.46582 345.23126 394.9502 345.8719Q395.4502 346.5125 395.4502 347.4969Q395.4502 348.8094 394.48145 349.71564Q393.52832 350.6219 392.0752 350.6219Q390.74707 350.6219 389.87207 349.84064Q389.0127 349.0594 388.8877 347.8094ZM396.87207 345.5125Q396.87207 343.73126 397.23145 342.65314Q397.60645 341.5594 398.3252 340.98126Q399.04395 340.3875 400.1377 340.3875Q400.9502 340.3875 401.55957 340.71564Q402.16895 341.04376 402.55957 341.65314Q402.96582 342.2625 403.18457 343.1375Q403.40332 344.0125 403.40332 345.5125Q403.40332 347.27814 403.04395 348.35626Q402.68457 349.4344 401.96582 350.02814Q401.24707 350.6219 400.1377 350.6219Q398.7002 350.6219 397.87207 349.575Q396.87207 348.325 396.87207 345.5125ZM398.1377 345.5125Q398.1377 347.98126 398.71582 348.79376Q399.29395 349.60626 400.1377 349.60626Q400.99707 349.60626 401.5752 348.79376Q402.15332 347.96564 402.15332 345.5125Q402.15332 343.02814 401.5752 342.21564Q400.99707 341.40314 400.12207 341.40314Q399.27832 341.40314 398.77832 342.1219Q398.1377 343.04376 398.1377 345.5125Z" fill-rule="nonzero"/><path fill="#000000" d="M435.74072 347.8094L436.95947 347.6375Q437.17822 348.6844 437.67822 349.15314Q438.19385 349.60626 438.92822 349.60626Q439.80322 349.60626 440.39697 349.0125Q440.99072 348.40314 440.99072 347.5125Q440.99072 346.66876 440.42822 346.1219Q439.88135 345.575 439.0376 345.575Q438.67822 345.575 438.1626 345.7L438.30322 344.6219Q438.42822 344.6375 438.49072 344.6375Q439.2876 344.6375 439.9126 344.23126Q440.5376 343.825 440.5376 342.96564Q440.5376 342.29376 440.08447 341.85626Q439.63135 341.40314 438.89697 341.40314Q438.17822 341.40314 437.69385 341.85626Q437.2251 342.29376 437.08447 343.2L435.86572 342.98126Q436.08447 341.7469 436.88135 341.075Q437.67822 340.3875 438.86572 340.3875Q439.69385 340.3875 440.38135 340.7469Q441.06885 341.09064 441.42822 341.7Q441.80322 342.3094 441.80322 342.9969Q441.80322 343.6375 441.45947 344.16876Q441.11572 344.7 440.42822 345.02814Q441.31885 345.23126 441.80322 345.8719Q442.30322 346.5125 442.30322 347.4969Q442.30322 348.8094 441.33447 349.71564Q440.38135 350.6219 438.92822 350.6219Q437.6001 350.6219 436.7251 349.84064Q435.86572 349.0594 435.74072 347.8094ZM443.7251 347.825L445.02197 347.71564Q445.1626 348.65314 445.67822 349.1375Q446.20947 349.60626 446.94385 349.60626Q447.83447 349.60626 448.44385 348.9344Q449.06885 348.2625 449.06885 347.16876Q449.06885 346.10626 448.4751 345.4969Q447.88135 344.8875 446.92822 344.8875Q446.33447 344.8875 445.8501 345.16876Q445.38135 345.4344 445.1001 345.85626L443.94385 345.71564L444.9126 340.5594L449.89697 340.5594L449.89697 341.7469L445.89697 341.7469L445.36572 344.4344Q446.27197 343.8094 447.25635 343.8094Q448.56885 343.8094 449.45947 344.71564Q450.36572 345.6219 450.36572 347.0594Q450.36572 348.41876 449.58447 349.40314Q448.61572 350.6219 446.94385 350.6219Q445.58447 350.6219 444.70947 349.85626Q443.8501 349.09064 443.7251 347.825Z" fill-rule="nonzero"/><path fill="#000000" d="M486.53125 350.45L486.53125 348.04376L482.17188 348.04376L482.17188 346.91876L486.75 340.4344L487.75 340.4344L487.75 346.91876L489.10938 346.91876L489.10938 348.04376L487.75 348.04376L487.75 350.45L486.53125 350.45ZM486.53125 346.91876L486.53125 342.40314L483.39062 346.91876L486.53125 346.91876ZM490.57812 345.5125Q490.57812 343.73126 490.9375 342.65314Q491.3125 341.5594 492.03125 340.98126Q492.75 340.3875 493.84375 340.3875Q494.65625 340.3875 495.26562 340.71564Q495.875 341.04376 496.26562 341.65314Q496.67188 342.2625 496.89062 343.1375Q497.10938 344.0125 497.10938 345.5125Q497.10938 347.27814 496.75 348.35626Q496.39062 349.4344 495.67188 350.02814Q494.95312 350.6219 493.84375 350.6219Q492.40625 350.6219 491.57812 349.575Q490.57812 348.325 490.57812 345.5125ZM491.84375 345.5125Q491.84375 347.98126 492.42188 348.79376Q493.0 349.60626 493.84375 349.60626Q494.70312 349.60626 495.28125 348.79376Q495.85938 347.96564 495.85938 345.5125Q495.85938 343.02814 495.28125 342.21564Q494.70312 341.40314 493.82812 341.40314Q492.98438 341.40314 492.48438 342.1219Q491.84375 343.04376 491.84375 345.5125Z" fill-rule="nonzero"/><path fill="#000000" d="M533.3843 350.45L533.3843 348.04376L529.0249 348.04376L529.0249 346.91876L533.603 340.4344L534.603 340.4344L534.603 346.91876L535.9624 346.91876L535.9624 348.04376L534.603 348.04376L534.603 350.45L533.3843 350.45ZM533.3843 346.91876L533.3843 342.40314L530.24365 346.91876L533.3843 346.91876ZM537.43115 347.825L538.728 347.71564Q538.86865 348.65314 539.3843 349.1375Q539.9155 349.60626 540.6499 349.60626Q541.5405 349.60626 542.1499 348.9344Q542.7749 348.2625 542.7749 347.16876Q542.7749 346.10626 542.18115 345.4969Q541.5874 344.8875 540.6343 344.8875Q540.0405 344.8875 539.55615 345.16876Q539.0874 345.4344 538.80615 345.85626L537.6499 345.71564L538.61865 340.5594L543.603 340.5594L543.603 341.7469L539.603 341.7469L539.0718 344.4344Q539.978 343.8094 540.9624 343.8094Q542.2749 343.8094 543.1655 344.71564Q544.0718 345.6219 544.0718 347.0594Q544.0718 348.41876 543.2905 349.40314Q542.3218 350.6219 540.6499 350.6219Q539.2905 350.6219 538.4155 349.85626Q537.55615 349.09064 537.43115 347.825Z" fill-rule="nonzero"/><path fill="#000000" d="M576.2842 347.825L577.58105 347.71564Q577.7217 348.65314 578.2373 349.1375Q578.76855 349.60626 579.5029 349.60626Q580.39355 349.60626 581.0029 348.9344Q581.6279 348.2625 581.6279 347.16876Q581.6279 346.10626 581.0342 345.4969Q580.4404 344.8875 579.4873 344.8875Q578.89355 344.8875 578.4092 345.16876Q577.9404 345.4344 577.6592 345.85626L576.5029 345.71564L577.4717 340.5594L582.45605 340.5594L582.45605 341.7469L578.45605 341.7469L577.9248 344.4344Q578.83105 343.8094 579.8154 343.8094Q581.1279 343.8094 582.01855 344.71564Q582.9248 345.6219 582.9248 347.0594Q582.9248 348.41876 582.14355 349.40314Q581.1748 350.6219 579.5029 350.6219Q578.14355 350.6219 577.26855 349.85626Q576.4092 349.09064 576.2842 347.825ZM584.2842 345.5125Q584.2842 343.73126 584.64355 342.65314Q585.01855 341.5594 585.7373 340.98126Q586.45605 340.3875 587.5498 340.3875Q588.3623 340.3875 588.9717 340.71564Q589.58105 341.04376 589.9717 341.65314Q590.3779 342.2625 590.5967 343.1375Q590.8154 344.0125 590.8154 345.5125Q590.8154 347.27814 590.45605 348.35626Q590.0967 349.4344 589.3779 350.02814Q588.6592 350.6219 587.5498 350.6219Q586.1123 350.6219 585.2842 349.575Q584.2842 348.325 584.2842 345.5125ZM585.5498 345.5125Q585.5498 347.98126 586.1279 348.79376Q586.70605 349.60626 587.5498 349.60626Q588.4092 349.60626 588.9873 348.79376Q589.5654 347.96564 589.5654 345.5125Q589.5654 343.02814 588.9873 342.21564Q588.4092 341.40314 587.5342 341.40314Q586.6904 341.40314 586.1904 342.1219Q585.5498 343.04376 585.5498 345.5125Z" fill-rule="nonzero"/><path fill="#000000" d="M623.1372 347.825L624.4341 347.71564Q624.5747 348.65314 625.09033 349.1375Q625.6216 349.60626 626.35596 349.60626Q627.2466 349.60626 627.85596 348.9344Q628.48096 348.2625 628.48096 347.16876Q628.48096 346.10626 627.8872 345.4969Q627.29346 344.8875 626.34033 344.8875Q625.7466 344.8875 625.2622 345.16876Q624.79346 345.4344 624.5122 345.85626L623.35596 345.71564L624.3247 340.5594L629.3091 340.5594L629.3091 341.7469L625.3091 341.7469L624.77783 344.4344Q625.6841 343.8094 626.66846 343.8094Q627.98096 343.8094 628.8716 344.71564Q629.77783 345.6219 629.77783 347.0594Q629.77783 348.41876 628.9966 349.40314Q628.02783 350.6219 626.35596 350.6219Q624.9966 350.6219 624.1216 349.85626Q623.2622 349.09064 623.1372 347.825ZM631.1372 347.825L632.4341 347.71564Q632.5747 348.65314 633.09033 349.1375Q633.6216 349.60626 634.35596 349.60626Q635.2466 349.60626 635.85596 348.9344Q636.48096 348.2625 636.48096 347.16876Q636.48096 346.10626 635.8872 345.4969Q635.29346 344.8875 634.34033 344.8875Q633.7466 344.8875 633.2622 345.16876Q632.79346 345.4344 632.5122 345.85626L631.35596 345.71564L632.3247 340.5594L637.3091 340.5594L637.3091 341.7469L633.3091 341.7469L632.77783 344.4344Q633.6841 343.8094 634.66846 343.8094Q635.98096 343.8094 636.8716 344.71564Q637.77783 345.6219 637.77783 347.0594Q637.77783 348.41876 636.9966 349.40314Q636.02783 350.6219 634.35596 350.6219Q632.9966 350.6219 632.1216 349.85626Q631.2622 349.09064 631.1372 347.825Z" fill-rule="nonzero"/><path fill="#000000" d="M676.38086 342.8875L675.1621 342.98126Q674.99023 342.2469 674.69336 341.91876Q674.19336 341.40314 673.459 341.40314Q672.86523 341.40314 672.42773 341.73126Q671.8496 342.15314 671.50586 342.96564Q671.17773 343.77814 671.1621 345.27814Q671.5996 344.60626 672.24023 344.27814Q672.8965 343.95 673.5996 343.95Q674.834 343.95 675.69336 344.85626Q676.55273 345.7625 676.55273 347.2Q676.55273 348.1375 676.1465 348.95Q675.74023 349.7625 675.0215 350.2Q674.31836 350.6219 673.4121 350.6219Q671.88086 350.6219 670.9121 349.4969Q669.94336 348.35626 669.94336 345.7625Q669.94336 342.85626 671.00586 341.52814Q671.94336 340.3875 673.5371 340.3875Q674.7246 340.3875 675.4746 341.0594Q676.2246 341.71564 676.38086 342.8875ZM671.3496 347.2Q671.3496 347.84064 671.61523 348.41876Q671.8965 348.9969 672.38086 349.3094Q672.86523 349.60626 673.3965 349.60626Q674.17773 349.60626 674.74023 348.98126Q675.30273 348.35626 675.30273 347.27814Q675.30273 346.23126 674.74023 345.6375Q674.19336 345.02814 673.3496 345.02814Q672.5215 345.02814 671.92773 345.6375Q671.3496 346.23126 671.3496 347.2ZM677.99023 345.5125Q677.99023 343.73126 678.3496 342.65314Q678.7246 341.5594 679.44336 340.98126Q680.1621 340.3875 681.25586 340.3875Q682.06836 340.3875 682.67773 340.71564Q683.2871 341.04376 683.67773 341.65314Q684.084 342.2625 684.30273 343.1375Q684.5215 344.0125 684.5215 345.5125Q684.5215 347.27814 684.1621 348.35626Q683.80273 349.4344 683.084 350.02814Q682.36523 350.6219 681.25586 350.6219Q679.81836 350.6219 678.99023 349.575Q677.99023 348.325 677.99023 345.5125ZM679.25586 345.5125Q679.25586 347.98126 679.834 348.79376Q680.4121 349.60626 681.25586 349.60626Q682.11523 349.60626 682.69336 348.79376Q683.2715 347.96564 683.2715 345.5125Q683.2715 343.02814 682.69336 342.21564Q682.11523 341.40314 681.24023 341.40314Q680.3965 341.40314 679.8965 342.1219Q679.25586 343.04376 679.25586 345.5125Z" fill-rule="nonzero"/><path fill="#000000" d="M723.2339 342.8875L722.01514 342.98126Q721.84326 342.2469 721.5464 341.91876Q721.0464 341.40314 720.312 341.40314Q719.71826 341.40314 719.28076 341.73126Q718.70264 342.15314 718.3589 342.96564Q718.03076 343.77814 718.01514 345.27814Q718.45264 344.60626 719.09326 344.27814Q719.7495 343.95 720.45264 343.95Q721.687 343.95 722.5464 344.85626Q723.40576 345.7625 723.40576 347.2Q723.40576 348.1375 722.9995 348.95Q722.59326 349.7625 721.8745 350.2Q721.1714 350.6219 720.26514 350.6219Q718.7339 350.6219 717.76514 349.4969Q716.7964 348.35626 716.7964 345.7625Q716.7964 342.85626 717.8589 341.52814Q718.7964 340.3875 720.39014 340.3875Q721.57764 340.3875 722.32764 341.0594Q723.07764 341.71564 723.2339 342.8875ZM718.20264 347.2Q718.20264 347.84064 718.46826 348.41876Q718.7495 348.9969 719.2339 349.3094Q719.71826 349.60626 720.2495 349.60626Q721.03076 349.60626 721.59326 348.98126Q722.15576 348.35626 722.15576 347.27814Q722.15576 346.23126 721.59326 345.6375Q721.0464 345.02814 720.20264 345.02814Q719.3745 345.02814 718.78076 345.6375Q718.20264 346.23126 718.20264 347.2ZM724.84326 347.825L726.14014 347.71564Q726.28076 348.65314 726.7964 349.1375Q727.32764 349.60626 728.062 349.60626Q728.95264 349.60626 729.562 348.9344Q730.187 348.2625 730.187 347.16876Q730.187 346.10626 729.59326 345.4969Q728.9995 344.8875 728.0464 344.8875Q727.45264 344.8875 726.96826 345.16876Q726.4995 345.4344 726.21826 345.85626L725.062 345.71564L726.03076 340.5594L731.01514 340.5594L731.01514 341.7469L727.01514 341.7469L726.4839 344.4344Q727.39014 343.8094 728.3745 343.8094Q729.687 343.8094 730.57764 344.71564Q731.4839 345.6219 731.4839 347.0594Q731.4839 348.41876 730.70264 349.40314Q729.7339 350.6219 728.062 350.6219Q726.70264 350.6219 725.82764 349.85626Q724.96826 349.09064 724.84326 347.825Z" fill-rule="nonzero"/><path fill="#000000" d="M763.7744 341.7469L763.7744 340.5594L770.2744 340.5594L770.2744 341.5125Q769.30566 342.52814 768.36816 344.21564Q767.43066 345.90314 766.91504 347.7Q766.55566 348.95 766.4463 350.45L765.18066 350.45Q765.1963 349.2625 765.6338 347.59064Q766.0869 345.91876 766.91504 344.3719Q767.7588 342.8094 768.6963 341.7469L763.7744 341.7469ZM771.6963 345.5125Q771.6963 343.73126 772.05566 342.65314Q772.43066 341.5594 773.1494 340.98126Q773.86816 340.3875 774.9619 340.3875Q775.7744 340.3875 776.3838 340.71564Q776.99316 341.04376 777.3838 341.65314Q777.79004 342.2625 778.0088 343.1375Q778.22754 344.0125 778.22754 345.5125Q778.22754 347.27814 777.86816 348.35626Q777.5088 349.4344 776.79004 350.02814Q776.0713 350.6219 774.9619 350.6219Q773.5244 350.6219 772.6963 349.575Q771.6963 348.325 771.6963 345.5125ZM772.9619 345.5125Q772.9619 347.98126 773.54004 348.79376Q774.11816 349.60626 774.9619 349.60626Q775.8213 349.60626 776.3994 348.79376Q776.97754 347.96564 776.97754 345.5125Q776.97754 343.02814 776.3994 342.21564Q775.8213 341.40314 774.9463 341.40314Q774.10254 341.40314 773.60254 342.1219Q772.9619 343.04376 772.9619 345.5125Z" fill-rule="nonzero"/><path fill="#000000" d="M810.62744 341.7469L810.62744 340.5594L817.12744 340.5594L817.12744 341.5125Q816.1587 342.52814 815.2212 344.21564Q814.2837 345.90314 813.76807 347.7Q813.4087 348.95 813.2993 350.45L812.0337 350.45Q812.0493 349.2625 812.4868 347.59064Q812.93994 345.91876 813.76807 344.3719Q814.6118 342.8094 815.5493 341.7469L810.62744 341.7469ZM818.5493 347.825L819.8462 347.71564Q819.9868 348.65314 820.50244 349.1375Q821.0337 349.60626 821.76807 349.60626Q822.6587 349.60626 823.26807 348.9344Q823.89307 348.2625 823.89307 347.16876Q823.89307 346.10626 823.2993 345.4969Q822.70557 344.8875 821.75244 344.8875Q821.1587 344.8875 820.6743 345.16876Q820.20557 345.4344 819.9243 345.85626L818.76807 345.71564L819.7368 340.5594L824.7212 340.5594L824.7212 341.7469L820.7212 341.7469L820.18994 344.4344Q821.0962 343.8094 822.08057 343.8094Q823.39307 343.8094 824.2837 344.71564Q825.18994 345.6219 825.18994 347.0594Q825.18994 348.41876 824.4087 349.40314Q823.43994 350.6219 821.76807 350.6219Q820.4087 350.6219 819.5337 349.85626Q818.6743 349.09064 818.5493 347.825Z" fill-rule="nonzero"/><path fill="#000000" d="M859.29297 345.0125Q858.52734 344.73126 858.15234 344.21564Q857.79297 343.7 857.79297 342.96564Q857.79297 341.8719 858.5742 341.1375Q859.3711 340.3875 860.66797 340.3875Q861.98047 340.3875 862.77734 341.15314Q863.58984 341.91876 863.58984 343.0125Q863.58984 343.7 863.21484 344.21564Q862.85547 344.73126 862.10547 345.0125Q863.02734 345.3094 863.5117 345.98126Q863.9961 346.65314 863.9961 347.59064Q863.9961 348.8719 863.08984 349.7469Q862.1836 350.6219 860.6992 350.6219Q859.21484 350.6219 858.29297 349.7469Q857.3867 348.85626 857.3867 347.54376Q857.3867 346.575 857.8867 345.91876Q858.3867 345.2469 859.29297 345.0125ZM859.0586 342.9344Q859.0586 343.6375 859.5117 344.09064Q859.96484 344.54376 860.6992 344.54376Q861.41797 344.54376 861.8711 344.10626Q862.3242 343.65314 862.3242 342.9969Q862.3242 342.325 861.85547 341.8719Q861.3867 341.40314 860.6836 341.40314Q859.98047 341.40314 859.5117 341.85626Q859.0586 342.29376 859.0586 342.9344ZM858.65234 347.5594Q858.65234 348.09064 858.90234 348.59064Q859.15234 349.075 859.6367 349.34064Q860.1367 349.60626 860.71484 349.60626Q861.58984 349.60626 862.15234 349.04376Q862.73047 348.48126 862.73047 347.60626Q862.73047 346.71564 862.1367 346.1375Q861.5586 345.54376 860.66797 345.54376Q859.79297 345.54376 859.21484 346.1219Q858.65234 346.7 858.65234 347.5594ZM865.40234 345.5125Q865.40234 343.73126 865.7617 342.65314Q866.1367 341.5594 866.85547 340.98126Q867.5742 340.3875 868.66797 340.3875Q869.48047 340.3875 870.08984 340.71564Q870.6992 341.04376 871.08984 341.65314Q871.4961 342.2625 871.71484 343.1375Q871.9336 344.0125 871.9336 345.5125Q871.9336 347.27814 871.5742 348.35626Q871.21484 349.4344 870.4961 350.02814Q869.77734 350.6219 868.66797 350.6219Q867.23047 350.6219 866.40234 349.575Q865.40234 348.325 865.40234 345.5125ZM866.66797 345.5125Q866.66797 347.98126 867.2461 348.79376Q867.8242 349.60626 868.66797 349.60626Q869.52734 349.60626 870.10547 348.79376Q870.6836 347.96564 870.6836 345.5125Q870.6836 343.02814 870.10547 342.21564Q869.52734 341.40314 868.65234 341.40314Q867.8086 341.40314 867.3086 342.1219Q866.66797 343.04376 866.66797 345.5125Z" fill-rule="nonzero"/><path fill="#a64d79" d="M352.5 23.55C352.5 22.997715 352.94772 22.55 353.5 22.55L363.5 22.55C364.05228 22.55 364.5 22.997715 364.5 23.55L364.5 33.55C364.5 34.102283 364.05228 34.55 363.5 34.55L353.5 34.55C352.94772 34.55 352.5 34.102283 352.5 33.55Z" fill-rule="nonzero"/><path fill="#1a1a1a" d="M373.57812 33.55L373.57812 23.534374L377.03125 23.534374Q378.20312 23.534374 378.8125 23.675Q379.67188 23.8625 380.28125 24.39375Q381.07812 25.065624 381.46875 26.1125Q381.85938 27.14375 381.85938 28.4875Q381.85938 29.628124 381.59375 30.51875Q381.32812 31.39375 380.90625 31.971874Q380.5 32.55 380.0 32.878124Q379.5 33.20625 378.79688 33.378124Q378.10938 33.55 377.20312 33.55L373.57812 33.55ZM374.90625 32.3625L377.04688 32.3625Q378.03125 32.3625 378.59375 32.190624Q379.17188 32.003124 379.5 31.659374Q379.96875 31.190624 380.23438 30.39375Q380.5 29.596874 380.5 28.45625Q380.5 26.89375 379.98438 26.05Q379.46875 25.20625 378.73438 24.909374Q378.1875 24.70625 377.01562 24.70625L374.90625 24.70625L374.90625 32.3625ZM388.39062 31.20625L389.67188 31.3625Q389.35938 32.4875 388.54688 33.1125Q387.73438 33.721874 386.46875 33.721874Q384.875 33.721874 383.9375 32.7375Q383.01562 31.753124 383.01562 29.9875Q383.01562 28.14375 383.95312 27.14375Q384.90625 26.128124 386.40625 26.128124Q387.85938 26.128124 388.78125 27.128124Q389.70312 28.1125 389.70312 29.909374Q389.70312 30.01875 389.70312 30.2375L384.28125 30.2375Q384.35938 31.425 384.95312 32.065624Q385.5625 32.70625 386.48438 32.70625Q387.15625 32.70625 387.625 32.346874Q388.10938 31.9875 388.39062 31.20625ZM384.35938 29.221874L388.40625 29.221874Q388.32812 28.3 387.9375 27.846874Q387.35938 27.14375 386.42188 27.14375Q385.5625 27.14375 384.98438 27.70625Q384.42188 28.26875 384.35938 29.221874ZM396.39062 31.20625L397.67188 31.3625Q397.35938 32.4875 396.54688 33.1125Q395.73438 33.721874 394.46875 33.721874Q392.875 33.721874 391.9375 32.7375Q391.01562 31.753124 391.01562 29.9875Q391.01562 28.14375 391.95312 27.14375Q392.90625 26.128124 394.40625 26.128124Q395.85938 26.128124 396.78125 27.128124Q397.70312 28.1125 397.70312 29.909374Q397.70312 30.01875 397.70312 30.2375L392.28125 30.2375Q392.35938 31.425 392.95312 32.065624Q393.5625 32.70625 394.48438 32.70625Q395.15625 32.70625 395.625 32.346874Q396.10938 31.9875 396.39062 31.20625ZM392.35938 29.221874L396.40625 29.221874Q396.32812 28.3 395.9375 27.846874Q395.35938 27.14375 394.42188 27.14375Q393.5625 27.14375 392.98438 27.70625Q392.42188 28.26875 392.35938 29.221874ZM399.42188 36.33125L399.42188 26.284374L400.54688 26.284374L400.54688 27.2375Q400.9375 26.675 401.4375 26.409374Q401.9375 26.128124 402.65625 26.128124Q403.57812 26.128124 404.28125 26.6125Q405.0 27.08125 405.35938 27.95625Q405.71875 28.83125 405.71875 29.8625Q405.71875 30.971874 405.3125 31.878124Q404.92188 32.76875 404.15625 33.253124Q403.40625 33.721874 402.5625 33.721874Q401.95312 33.721874 401.45312 33.45625Q400.96875 33.190624 400.65625 32.8L400.65625 36.33125L399.42188 36.33125ZM400.53125 29.95625Q400.53125 31.3625 401.09375 32.034374Q401.67188 32.70625 402.48438 32.70625Q403.29688 32.70625 403.875 32.01875Q404.46875 31.315624 404.46875 29.8625Q404.46875 28.471874 403.89062 27.784374Q403.32812 27.096874 402.53125 27.096874Q401.75 27.096874 401.14062 27.83125Q400.53125 28.565624 400.53125 29.95625ZM411.125 30.33125L412.375 30.221874Q412.46875 30.971874 412.79688 31.45625Q413.125 31.940624 413.79688 32.2375Q414.48438 32.534374 415.34375 32.534374Q416.09375 32.534374 416.67188 32.315624Q417.26562 32.08125 417.54688 31.690624Q417.82812 31.3 417.82812 30.83125Q417.82812 30.3625 417.54688 30.01875Q417.28125 29.659374 416.65625 29.409374Q416.25 29.253124 414.85938 28.925Q413.48438 28.596874 412.9375 28.3Q412.21875 27.925 411.85938 27.378124Q411.51562 26.815624 411.51562 26.1125Q411.51562 25.3625 411.9375 24.70625Q412.375 24.034374 413.20312 23.70625Q414.03125 23.3625 415.04688 23.3625Q416.15625 23.3625 417.0 23.721874Q417.85938 24.08125 418.3125 24.784374Q418.76562 25.471874 418.8125 26.346874L417.53125 26.440624Q417.4375 25.503124 416.84375 25.01875Q416.25 24.51875 415.09375 24.51875Q413.89062 24.51875 413.34375 24.971874Q412.79688 25.409374 412.79688 26.034374Q412.79688 26.565624 413.1875 26.925Q413.5625 27.26875 415.17188 27.64375Q416.79688 28.003124 417.39062 28.26875Q418.26562 28.675 418.6875 29.3Q419.10938 29.909374 419.10938 30.721874Q419.10938 31.51875 418.64062 32.2375Q418.1875 32.940624 417.32812 33.33125Q416.46875 33.721874 415.40625 33.721874Q414.04688 33.721874 413.125 33.33125Q412.20312 32.925 411.67188 32.128124Q411.15625 31.33125 411.125 30.33125ZM420.39062 33.55L420.39062 23.534374L421.625 23.534374L421.625 33.55L420.39062 33.55ZM428.39062 31.20625L429.67188 31.3625Q429.35938 32.4875 428.54688 33.1125Q427.73438 33.721874 426.46875 33.721874Q424.875 33.721874 423.9375 32.7375Q423.01562 31.753124 423.01562 29.9875Q423.01562 28.14375 423.95312 27.14375Q424.90625 26.128124 426.40625 26.128124Q427.85938 26.128124 428.78125 27.128124Q429.70312 28.1125 429.70312 29.909374Q429.70312 30.01875 429.70312 30.2375L424.28125 30.2375Q424.35938 31.425 424.95312 32.065624Q425.5625 32.70625 426.48438 32.70625Q427.15625 32.70625 427.625 32.346874Q428.10938 31.9875 428.39062 31.20625ZM424.35938 29.221874L428.40625 29.221874Q428.32812 28.3 427.9375 27.846874Q427.35938 27.14375 426.42188 27.14375Q425.5625 27.14375 424.98438 27.70625Q424.42188 28.26875 424.35938 29.221874ZM436.39062 31.20625L437.67188 31.3625Q437.35938 32.4875 436.54688 33.1125Q435.73438 33.721874 434.46875 33.721874Q432.875 33.721874 431.9375 32.7375Q431.01562 31.753124 431.01562 29.9875Q431.01562 28.14375 431.95312 27.14375Q432.90625 26.128124 434.40625 26.128124Q435.85938 26.128124 436.78125 27.128124Q437.70312 28.1125 437.70312 29.909374Q437.70312 30.01875 437.70312 30.2375L432.28125 30.2375Q432.35938 31.425 432.95312 32.065624Q433.5625 32.70625 434.48438 32.70625Q435.15625 32.70625 435.625 32.346874Q436.10938 31.9875 436.39062 31.20625ZM432.35938 29.221874L436.40625 29.221874Q436.32812 28.3 435.9375 27.846874Q435.35938 27.14375 434.42188 27.14375Q433.5625 27.14375 432.98438 27.70625Q432.42188 28.26875 432.35938 29.221874ZM439.42188 36.33125L439.42188 26.284374L440.54688 26.284374L440.54688 27.2375Q440.9375 26.675 441.4375 26.409374Q441.9375 26.128124 442.65625 26.128124Q443.57812 26.128124 444.28125 26.6125Q445.0 27.08125 445.35938 27.95625Q445.71875 28.83125 445.71875 29.8625Q445.71875 30.971874 445.3125 31.878124Q444.92188 32.76875 444.15625 33.253124Q443.40625 33.721874 442.5625 33.721874Q441.95312 33.721874 441.45312 33.45625Q440.96875 33.190624 440.65625 32.8L440.65625 36.33125L439.42188 36.33125ZM440.53125 29.95625Q440.53125 31.3625 441.09375 32.034374Q441.67188 32.70625 442.48438 32.70625Q443.29688 32.70625 443.875 32.01875Q444.46875 31.315624 444.46875 29.8625Q444.46875 28.471874 443.89062 27.784374Q443.32812 27.096874 442.53125 27.096874Q441.75 27.096874 441.14062 27.83125Q440.53125 28.565624 440.53125 29.95625Z" fill-rule="nonzero"/><path fill="#93c47d" d="M462.5 23.55C462.5 22.997715 462.94772 22.55 463.5 22.55L473.5 22.55C474.05228 22.55 474.5 22.997715 474.5 23.55L474.5 33.55C474.5 34.102283 474.05228 34.55 473.5 34.55L463.5 34.55C462.94772 34.55 462.5 34.102283 462.5 33.55Z" fill-rule="nonzero"/><path fill="#1a1a1a" d="M482.48438 33.55L486.32812 23.534374L487.75 23.534374L491.85938 33.55L490.34375 33.55L489.17188 30.51875L484.98438 30.51875L483.89062 33.55L482.48438 33.55ZM485.375 29.440624L488.76562 29.440624L487.71875 26.659374Q487.25 25.39375 487.01562 24.58125Q486.82812 25.55 486.46875 26.4875L485.375 29.440624ZM493.76562 33.55L491.54688 26.284374L492.8125 26.284374L493.96875 30.4875L494.40625 32.034374Q494.42188 31.925 494.78125 30.534374L495.9375 26.284374L497.1875 26.284374L498.28125 30.503124L498.64062 31.89375L499.0625 30.4875L500.3125 26.284374L501.5 26.284374L499.23438 33.55L497.95312 33.55L496.79688 29.20625L496.51562 27.971874L495.04688 33.55L493.76562 33.55ZM507.15625 32.659374Q506.48438 33.2375 505.84375 33.4875Q505.21875 33.721874 504.48438 33.721874Q503.29688 33.721874 502.64062 33.14375Q502.0 32.55 502.0 31.628124Q502.0 31.096874 502.23438 30.659374Q502.48438 30.221874 502.875 29.95625Q503.28125 29.690624 503.76562 29.55Q504.125 29.45625 504.85938 29.3625Q506.35938 29.190624 507.0625 28.940624Q507.0625 28.690624 507.0625 28.628124Q507.0625 27.8625 506.71875 27.565624Q506.25 27.14375 505.3125 27.14375Q504.45312 27.14375 504.03125 27.45625Q503.625 27.753124 503.42188 28.51875L502.21875 28.3625Q502.375 27.58125 502.75 27.1125Q503.14062 26.64375 503.84375 26.39375Q504.5625 26.128124 505.5 26.128124Q506.42188 26.128124 507.0 26.346874Q507.57812 26.565624 507.84375 26.89375Q508.125 27.221874 508.23438 27.7375Q508.29688 28.05 508.29688 28.8625L508.29688 30.503124Q508.29688 32.221874 508.375 32.675Q508.45312 33.128124 508.6875 33.55L507.40625 33.55Q507.21875 33.159374 507.15625 32.659374ZM507.0625 29.909374Q506.39062 30.175 505.04688 30.378124Q504.29688 30.4875 503.96875 30.628124Q503.65625 30.753124 503.48438 31.01875Q503.3125 31.284374 503.3125 31.596874Q503.3125 32.096874 503.6875 32.425Q504.0625 32.753124 504.78125 32.753124Q505.5 32.753124 506.04688 32.440624Q506.59375 32.128124 506.85938 31.58125Q507.0625 31.175 507.0625 30.3625L507.0625 29.909374ZM510.4375 33.55L510.4375 23.534374L511.65625 23.534374L511.65625 29.2375L514.5781 26.284374L516.1719 26.284374L513.3906 28.9875L516.4531 33.55L514.9219 33.55L512.53125 29.83125L511.65625 30.675L511.65625 33.55L510.4375 33.55ZM522.3906 31.20625L523.6719 31.3625Q523.3594 32.4875 522.5469 33.1125Q521.7344 33.721874 520.46875 33.721874Q518.875 33.721874 517.9375 32.7375Q517.0156 31.753124 517.0156 29.9875Q517.0156 28.14375 517.9531 27.14375Q518.90625 26.128124 520.40625 26.128124Q521.8594 26.128124 522.78125 27.128124Q523.7031 28.1125 523.7031 29.909374Q523.7031 30.01875 523.7031 30.2375L518.28125 30.2375Q518.3594 31.425 518.9531 32.065624Q519.5625 32.70625 520.4844 32.70625Q521.15625 32.70625 521.625 32.346874Q522.1094 31.9875 522.3906 31.20625ZM518.3594 29.221874L522.40625 29.221874Q522.3281 28.3 521.9375 27.846874Q521.3594 27.14375 520.4219 27.14375Q519.5625 27.14375 518.9844 27.70625Q518.4219 28.26875 518.3594 29.221874ZM529.125 30.33125L530.375 30.221874Q530.46875 30.971874 530.7969 31.45625Q531.125 31.940624 531.7969 32.2375Q532.4844 32.534374 533.34375 32.534374Q534.09375 32.534374 534.6719 32.315624Q535.2656 32.08125 535.5469 31.690624Q535.8281 31.3 535.8281 30.83125Q535.8281 30.3625 535.5469 30.01875Q535.28125 29.659374 534.65625 29.409374Q534.25 29.253124 532.8594 28.925Q531.4844 28.596874 530.9375 28.3Q530.21875 27.925 529.8594 27.378124Q529.5156 26.815624 529.5156 26.1125Q529.5156 25.3625 529.9375 24.70625Q530.375 24.034374 531.2031 23.70625Q532.03125 23.3625 533.0469 23.3625Q534.15625 23.3625 535.0 23.721874Q535.8594 24.08125 536.3125 24.784374Q536.7656 25.471874 536.8125 26.346874L535.53125 26.440624Q535.4375 25.503124 534.84375 25.01875Q534.25 24.51875 533.09375 24.51875Q531.8906 24.51875 531.34375 24.971874Q530.7969 25.409374 530.7969 26.034374Q530.7969 26.565624 531.1875 26.925Q531.5625 27.26875 533.1719 27.64375Q534.7969 28.003124 535.3906 28.26875Q536.2656 28.675 536.6875 29.3Q537.1094 29.909374 537.1094 30.721874Q537.1094 31.51875 536.6406 32.2375Q536.1875 32.940624 535.3281 33.33125Q534.46875 33.721874 533.40625 33.721874Q532.0469 33.721874 531.125 33.33125Q530.2031 32.925 529.6719 32.128124Q529.15625 31.33125 529.125 30.33125ZM538.3906 33.55L538.3906 23.534374L539.625 23.534374L539.625 33.55L538.3906 33.55ZM546.3906 31.20625L547.6719 31.3625Q547.3594 32.4875 546.5469 33.1125Q545.7344 33.721874 544.46875 33.721874Q542.875 33.721874 541.9375 32.7375Q541.0156 31.753124 541.0156 29.9875Q541.0156 28.14375 541.9531 27.14375Q542.90625 26.128124 544.40625 26.128124Q545.8594 26.128124 546.78125 27.128124Q547.7031 28.1125 547.7031 29.909374Q547.7031 30.01875 547.7031 30.2375L542.28125 30.2375Q542.3594 31.425 542.9531 32.065624Q543.5625 32.70625 544.4844 32.70625Q545.15625 32.70625 545.625 32.346874Q546.1094 31.9875 546.3906 31.20625ZM542.3594 29.221874L546.40625 29.221874Q546.3281 28.3 545.9375 27.846874Q545.3594 27.14375 544.4219 27.14375Q543.5625 27.14375 542.9844 27.70625Q542.4219 28.26875 542.3594 29.221874ZM554.3906 31.20625L555.6719 31.3625Q555.3594 32.4875 554.5469 33.1125Q553.7344 33.721874 552.46875 33.721874Q550.875 33.721874 549.9375 32.7375Q549.0156 31.753124 549.0156 29.9875Q549.0156 28.14375 549.9531 27.14375Q550.90625 26.128124 552.40625 26.128124Q553.8594 26.128124 554.78125 27.128124Q555.7031 28.1125 555.7031 29.909374Q555.7031 30.01875 555.7031 30.2375L550.28125 30.2375Q550.3594 31.425 550.9531 32.065624Q551.5625 32.70625 552.4844 32.70625Q553.15625 32.70625 553.625 32.346874Q554.1094 31.9875 554.3906 31.20625ZM550.3594 29.221874L554.40625 29.221874Q554.3281 28.3 553.9375 27.846874Q553.3594 27.14375 552.4219 27.14375Q551.5625 27.14375 550.9844 27.70625Q550.4219 28.26875 550.3594 29.221874ZM557.4219 36.33125L557.4219 26.284374L558.5469 26.284374L558.5469 27.2375Q558.9375 26.675 559.4375 26.409374Q559.9375 26.128124 560.65625 26.128124Q561.5781 26.128124 562.28125 26.6125Q563.0 27.08125 563.3594 27.95625Q563.71875 28.83125 563.71875 29.8625Q563.71875 30.971874 563.3125 31.878124Q562.9219 32.76875 562.15625 33.253124Q561.40625 33.721874 560.5625 33.721874Q559.9531 33.721874 559.4531 33.45625Q558.96875 33.190624 558.65625 32.8L558.65625 36.33125L557.4219 36.33125ZM558.53125 29.95625Q558.53125 31.3625 559.09375 32.034374Q559.6719 32.70625 560.4844 32.70625Q561.2969 32.70625 561.875 32.01875Q562.46875 31.315624 562.46875 29.8625Q562.46875 28.471874 561.8906 27.784374Q561.3281 27.096874 560.53125 27.096874Q559.75 27.096874 559.1406 27.83125Q558.53125 28.565624 558.53125 29.95625Z" fill-rule="nonzero"/></svg>