<svg version="1.1" viewBox="0.0 0.0 917.0 371.0" fill="none" stroke="none" stroke-linecap="square" stroke-miterlimit="10" width="917" height="371" xmlns:xlink="http://www.w3.org/1999/xlink" xmlns="http://www.w3.org/2000/svg"><path fill="#ffffff" d="M0 0L917.0 0L917.0 371.0L0 371.0L0 0Z" fill-rule="nonzero"/><path stroke="#333333" stroke-width="1.0" stroke-linecap="butt" d="M86.5 292.5L898.5 292.5" fill-rule="nonzero"/><path stroke="#cccccc" stroke-width="1.0" stroke-linecap="butt" d="M86.5 248.5L898.5 248.5" fill-rule="nonzero"/><path stroke="#cccccc" stroke-width="1.0" stroke-linecap="butt" d="M86.5 203.5L898.5 203.5" fill-rule="nonzero"/><path stroke="#cccccc" stroke-width="1.0" stroke-linecap="butt" d="M86.5 159.5L898.5 159.5" fill-rule="nonzero"/><path stroke="#cccccc" stroke-width="1.0" stroke-linecap="butt" d="M86.5 115.5L898.5 115.5" fill-rule="nonzero"/><path stroke="#cccccc" stroke-width="1.0" stroke-linecap="butt" d="M86.5 70.5L898.5 70.5" fill-rule="nonzero"/><path stroke="#cccccc" stroke-width="1.0" stroke-linecap="butt" d="M86.5 26.5L898.5 26.5" fill-rule="nonzero"/><clipPath id="id_0"><path d="M86.55 26.55L898.45 26.55L898.45 292.45L86.55 292.45L86.55 26.55Z" clip-rule="nonzero"/></clipPath><path stroke="#000000" stroke-width="0.0" stroke-linecap="butt" stroke-opacity="0.0" clip-path="url(#id_0)" d="M133.0 292.0L103.0 292.0L103.0 292.0L133.0 292.0Z" fill-rule="nonzero"/><path fill="#4285f4" clip-path="url(#id_0)" d="M133.0 292.0L103.0 292.0L103.0 292.0L133.0 292.0Z" fill-rule="nonzero"/><path stroke="#000000" stroke-width="0.0" stroke-linecap="butt" stroke-opacity="0.0" clip-path="url(#id_0)" d="M180.0 292.0L150.0 292.0L150.0 291.0C150.0 290.44772 150.44771 290.0 151.0 290.0L179.0 290.0C179.55229 290.0 180.0 290.44772 180.0 291.0Z" fill-rule="nonzero"/><path fill="#4285f4" clip-path="url(#id_0)" d="M180.0 292.0L150.0 292.0L150.0 291.0C150.0 290.44772 150.44771 290.0 151.0 290.0L179.0 290.0C179.55229 290.0 180.0 290.44772 180.0 291.0Z" fill-rule="nonzero"/><path stroke="#000000" stroke-width="0.0" stroke-linecap="butt" stroke-opacity="0.0" clip-path="url(#id_0)" d="M227.0 292.0L197.0 292.0L197.0 291.0C197.0 290.44772 197.44771 290.0 198.0 290.0L226.0 290.0C226.55229 290.0 227.0 290.44772 227.0 291.0Z" fill-rule="nonzero"/><path fill="#4285f4" clip-path="url(#id_0)" d="M227.0 292.0L197.0 292.0L197.0 291.0C197.0 290.44772 197.44771 290.0 198.0 290.0L226.0 290.0C226.55229 290.0 227.0 290.44772 227.0 291.0Z" fill-rule="nonzero"/><path stroke="#000000" stroke-width="0.0" stroke-linecap="butt" stroke-opacity="0.0" clip-path="url(#id_0)" d="M274.0 292.0L244.0 292.0L244.0 291.0C244.0 290.44772 244.44771 290.0 245.0 290.0L273.0 290.0C273.55228 290.0 274.0 290.44772 274.0 291.0Z" fill-rule="nonzero"/><path fill="#4285f4" clip-path="url(#id_0)" d="M274.0 292.0L244.0 292.0L244.0 291.0C244.0 290.44772 244.44771 290.0 245.0 290.0L273.0 290.0C273.55228 290.0 274.0 290.44772 274.0 291.0Z" fill-rule="nonzero"/><path stroke="#000000" stroke-width="0.0" stroke-linecap="butt" stroke-opacity="0.0" clip-path="url(#id_0)" d="M320.0 292.0L290.0 292.0L290.0 291.0C290.0 290.44772 290.44772 290.0 291.0 290.0L319.0 290.0C319.55228 290.0 320.0 290.44772 320.0 291.0Z" fill-rule="nonzero"/><path fill="#4285f4" clip-path="url(#id_0)" d="M320.0 292.0L290.0 292.0L290.0 291.0C290.0 290.44772 290.44772 290.0 291.0 290.0L319.0 290.0C319.55228 290.0 320.0 290.44772 320.0 291.0Z" fill-rule="nonzero"/><path stroke="#000000" stroke-width="0.0" stroke-linecap="butt" stroke-opacity="0.0" clip-path="url(#id_0)" d="M367.0 292.0L337.0 292.0L337.0 291.0C337.0 290.44772 337.44772 290.0 338.0 290.0L366.0 290.0C366.55228 290.0 367.0 290.44772 367.0 291.0Z" fill-rule="nonzero"/><path fill="#4285f4" clip-path="url(#id_0)" d="M367.0 292.0L337.0 292.0L337.0 291.0C337.0 290.44772 337.44772 290.0 338.0 290.0L366.0 290.0C366.55228 290.0 367.0 290.44772 367.0 291.0Z" fill-rule="nonzero"/><path stroke="#000000" stroke-width="0.0" stroke-linecap="butt" stroke-opacity="0.0" clip-path="url(#id_0)" d="M414.0 292.0L384.0 292.0L384.0 285.0C384.0 283.89542 384.89542 283.0 386.0 283.0L412.0 283.0C413.10458 283.0 414.0 283.89542 414.0 285.0Z" fill-rule="nonzero"/><path fill="#4285f4" clip-path="url(#id_0)" d="M414.0 292.0L384.0 292.0L384.0 285.0C384.0 283.89542 384.89542 283.0 386.0 283.0L412.0 283.0C413.10458 283.0 414.0 283.89542 414.0 285.0Z" fill-rule="nonzero"/><path stroke="#000000" stroke-width="0.0" stroke-linecap="butt" stroke-opacity="0.0" clip-path="url(#id_0)" d="M461.0 292.0L431.0 292.0L431.0 248.0C431.0 246.89543 431.89542 246.0 433.0 246.0L459.0 246.0C460.10458 246.0 461.0 246.89543 461.0 248.0Z" fill-rule="nonzero"/><path fill="#4285f4" clip-path="url(#id_0)" d="M461.0 292.0L431.0 292.0L431.0 248.0C431.0 246.89543 431.89542 246.0 433.0 246.0L459.0 246.0C460.10458 246.0 461.0 246.89543 461.0 248.0Z" fill-rule="nonzero"/><path stroke="#000000" stroke-width="0.0" stroke-linecap="butt" stroke-opacity="0.0" clip-path="url(#id_0)" d="M508.0 292.0L478.0 292.0L478.0 208.0C478.0 206.89543 478.89542 206.0 480.0 206.0L506.0 206.0C507.10458 206.0 508.0 206.89543 508.0 208.0Z" fill-rule="nonzero"/><path fill="#4285f4" clip-path="url(#id_0)" d="M508.0 292.0L478.0 292.0L478.0 208.0C478.0 206.89543 478.89542 206.0 480.0 206.0L506.0 206.0C507.10458 206.0 508.0 206.89543 508.0 208.0Z" fill-rule="nonzero"/><path stroke="#000000" stroke-width="0.0" stroke-linecap="butt" stroke-opacity="0.0" clip-path="url(#id_0)" d="M554.0 292.0L524.0 292.0L524.0 110.0C524.0 108.89543 524.89545 108.0 526.0 108.0L552.0 108.0C553.10455 108.0 554.0 108.89543 554.0 110.0Z" fill-rule="nonzero"/><path fill="#4285f4" clip-path="url(#id_0)" d="M554.0 292.0L524.0 292.0L524.0 110.0C524.0 108.89543 524.89545 108.0 526.0 108.0L552.0 108.0C553.10455 108.0 554.0 108.89543 554.0 110.0Z" fill-rule="nonzero"/><path stroke="#000000" stroke-width="0.0" stroke-linecap="butt" stroke-opacity="0.0" clip-path="url(#id_0)" d="M601.0 292.0L571.0 292.0L571.0 53.0C571.0 51.89543 571.89545 51.0 573.0 51.0L599.0 51.0C600.10455 51.0 601.0 51.89543 601.0 53.0Z" fill-rule="nonzero"/><path fill="#4285f4" clip-path="url(#id_0)" d="M601.0 292.0L571.0 292.0L571.0 53.0C571.0 51.89543 571.89545 51.0 573.0 51.0L599.0 51.0C600.10455 51.0 601.0 51.89543 601.0 53.0Z" fill-rule="nonzero"/><path stroke="#000000" stroke-width="0.0" stroke-linecap="butt" stroke-opacity="0.0" clip-path="url(#id_0)" d="M648.0 292.0L618.0 292.0L618.0 122.0C618.0 120.89543 618.89545 120.0 620.0 120.0L646.0 120.0C647.10455 120.0 648.0 120.89543 648.0 122.0Z" fill-rule="nonzero"/><path fill="#4285f4" clip-path="url(#id_0)" d="M648.0 292.0L618.0 292.0L618.0 122.0C618.0 120.89543 618.89545 120.0 620.0 120.0L646.0 120.0C647.10455 120.0 648.0 120.89543 648.0 122.0Z" fill-rule="nonzero"/><path stroke="#000000" stroke-width="0.0" stroke-linecap="butt" stroke-opacity="0.0" clip-path="url(#id_0)" d="M695.0 292.0L665.0 292.0L665.0 208.0C665.0 206.89543 665.89545 206.0 667.0 206.0L693.0 206.0C694.10455 206.0 695.0 206.89543 695.0 208.0Z" fill-rule="nonzero"/><path fill="#4285f4" clip-path="url(#id_0)" d="M695.0 292.0L665.0 292.0L665.0 208.0C665.0 206.89543 665.89545 206.0 667.0 206.0L693.0 206.0C694.10455 206.0 695.0 206.89543 695.0 208.0Z" fill-rule="nonzero"/><path stroke="#000000" stroke-width="0.0" stroke-linecap="butt" stroke-opacity="0.0" clip-path="url(#id_0)" d="M741.0 292.0L711.0 292.0L711.0 262.0C711.0 260.89542 711.89545 260.0 713.0 260.0L739.0 260.0C740.10455 260.0 741.0 260.89542 741.0 262.0Z" fill-rule="nonzero"/><path fill="#4285f4" clip-path="url(#id_0)" d="M741.0 292.0L711.0 292.0L711.0 262.0C711.0 260.89542 711.89545 260.0 713.0 260.0L739.0 260.0C740.10455 260.0 741.0 260.89542 741.0 262.0Z" fill-rule="nonzero"/><path stroke="#000000" stroke-width="0.0" stroke-linecap="butt" stroke-opacity="0.0" clip-path="url(#id_0)" d="M788.0 292.0L758.0 292.0L758.0 287.0C758.0 285.89542 758.89545 285.0 760.0 285.0L786.0 285.0C787.10455 285.0 788.0 285.89542 788.0 287.0Z" fill-rule="nonzero"/><path fill="#4285f4" clip-path="url(#id_0)" d="M788.0 292.0L758.0 292.0L758.0 287.0C758.0 285.89542 758.89545 285.0 760.0 285.0L786.0 285.0C787.10455 285.0 788.0 285.89542 788.0 287.0Z" fill-rule="nonzero"/><path stroke="#000000" stroke-width="0.0" stroke-linecap="butt" stroke-opacity="0.0" clip-path="url(#id_0)" d="M835.0 292.0L805.0 292.0L805.0 287.0C805.0 285.89542 805.89545 285.0 807.0 285.0L833.0 285.0C834.10455 285.0 835.0 285.89542 835.0 287.0Z" fill-rule="nonzero"/><path fill="#4285f4" clip-path="url(#id_0)" d="M835.0 292.0L805.0 292.0L805.0 287.0C805.0 285.89542 805.89545 285.0 807.0 285.0L833.0 285.0C834.10455 285.0 835.0 285.89542 835.0 287.0Z" fill-rule="nonzero"/><path stroke="#000000" stroke-width="0.0" stroke-linecap="butt" stroke-opacity="0.0" clip-path="url(#id_0)" d="M882.0 292.0L852.0 292.0L852.0 292.0L882.0 292.0Z" fill-rule="nonzero"/><path fill="#4285f4" clip-path="url(#id_0)" d="M882.0 292.0L852.0 292.0L852.0 292.0L882.0 292.0Z" fill-rule="nonzero"/><path fill="#000000" d="M439.57812 349.45L439.57812 339.4344L443.03125 339.4344Q444.20312 339.4344 444.8125 339.575Q445.67188 339.7625 446.28125 340.29376Q447.07812 340.96564 447.46875 342.0125Q447.85938 343.04376 447.85938 344.3875Q447.85938 345.52814 447.59375 346.41876Q447.32812 347.29376 446.90625 347.8719Q446.5 348.45 446.0 348.77814Q445.5 349.10626 444.79688 349.27814Q444.10938 349.45 443.20312 349.45L439.57812 349.45ZM440.90625 348.2625L443.04688 348.2625Q444.03125 348.2625 444.59375 348.09064Q445.17188 347.90314 445.5 347.5594Q445.96875 347.09064 446.23438 346.29376Q446.5 345.4969 446.5 344.35626Q446.5 342.79376 445.98438 341.95Q445.46875 341.10626 444.73438 340.8094Q444.1875 340.60626 443.01562 340.60626L440.90625 340.60626L440.90625 348.2625ZM454.1875 349.45L454.1875 348.3875Q453.32812 349.6219 451.875 349.6219Q451.23438 349.6219 450.67188 349.3719Q450.125 349.1219 449.84375 348.7469Q449.57812 348.3719 449.46875 347.84064Q449.39062 347.48126 449.39062 346.6844L449.39062 342.1844L450.625 342.1844L450.625 346.21564Q450.625 347.1844 450.70312 347.5125Q450.8125 347.9969 451.1875 348.27814Q451.5625 348.5594 452.125 348.5594Q452.67188 348.5594 453.15625 348.27814Q453.64062 347.98126 453.84375 347.4969Q454.04688 347.0125 454.04688 346.075L454.04688 342.1844L455.28125 342.1844L455.28125 349.45L454.1875 349.45ZM457.40625 349.45L457.40625 342.1844L458.51562 342.1844L458.51562 343.29376Q458.9375 342.5125 459.29688 342.27814Q459.65625 342.02814 460.09375 342.02814Q460.71875 342.02814 461.35938 342.41876L460.9375 343.5594Q460.48438 343.29376 460.03125 343.29376Q459.625 343.29376 459.29688 343.54376Q458.98438 343.77814 458.84375 344.21564Q458.64062 344.8719 458.64062 345.65314L458.64062 349.45L457.40625 349.45ZM467.15625 348.5594Q466.48438 349.1375 465.84375 349.3875Q465.21875 349.6219 464.48438 349.6219Q463.29688 349.6219 462.64062 349.04376Q462.0 348.45 462.0 347.52814Q462.0 346.9969 462.23438 346.5594Q462.48438 346.1219 462.875 345.85626Q463.28125 345.59064 463.76562 345.45Q464.125 345.35626 464.85938 345.2625Q466.35938 345.09064 467.0625 344.84064Q467.0625 344.59064 467.0625 344.52814Q467.0625 343.7625 466.71875 343.46564Q466.25 343.04376 465.3125 343.04376Q464.45312 343.04376 464.03125 343.35626Q463.625 343.65314 463.42188 344.41876L462.21875 344.2625Q462.375 343.48126 462.75 343.0125Q463.14062 342.54376 463.84375 342.29376Q464.5625 342.02814 465.5 342.02814Q466.42188 342.02814 467.0 342.2469Q467.57812 342.46564 467.84375 342.79376Q468.125 343.1219 468.23438 343.6375Q468.29688 343.95 468.29688 344.7625L468.29688 346.40314Q468.29688 348.1219 468.375 348.575Q468.45312 349.02814 468.6875 349.45L467.40625 349.45Q467.21875 349.0594 467.15625 348.5594ZM467.0625 345.8094Q466.39062 346.075 465.04688 346.27814Q464.29688 346.3875 463.96875 346.52814Q463.65625 346.65314 463.48438 346.91876Q463.3125 347.1844 463.3125 347.4969Q463.3125 347.9969 463.6875 348.325Q464.0625 348.65314 464.78125 348.65314Q465.5 348.65314 466.04688 348.34064Q466.59375 348.02814 466.85938 347.48126Q467.0625 347.075 467.0625 346.2625L467.0625 345.8094ZM473.10938 348.35626L473.28125 349.4344Q472.76562 349.54376 472.35938 349.54376Q471.6875 349.54376 471.3125 349.34064Q470.95312 349.1219 470.79688 348.77814Q470.65625 348.4344 470.65625 347.325L470.65625 343.15314L469.75 343.15314L469.75 342.1844L470.65625 342.1844L470.65625 340.3875L471.875 339.65314L471.875 342.1844L473.10938 342.1844L473.10938 343.15314L471.875 343.15314L471.875 347.3875Q471.875 347.91876 471.9375 348.075Q472.0 348.21564 472.14062 348.3094Q472.29688 348.40314 472.5625 348.40314Q472.78125 348.40314 473.10938 348.35626ZM474.4375 340.84064L474.4375 339.4344L475.65625 339.4344L475.65625 340.84064L474.4375 340.84064ZM474.4375 349.45L474.4375 342.1844L475.65625 342.1844L475.65625 349.45L474.4375 349.45ZM476.96875 345.825Q476.96875 343.8094 478.09375 342.825Q479.01562 342.02814 480.375 342.02814Q481.85938 342.02814 482.8125 343.0125Q483.76562 343.98126 483.76562 345.71564Q483.76562 347.1219 483.34375 347.9344Q482.92188 348.73126 482.10938 349.1844Q481.3125 349.6219 480.375 349.6219Q478.84375 349.6219 477.90625 348.6375Q476.96875 347.65314 476.96875 345.825ZM478.23438 345.825Q478.23438 347.21564 478.84375 347.91876Q479.45312 348.60626 480.375 348.60626Q481.28125 348.60626 481.89062 347.90314Q482.5 347.2 482.5 345.77814Q482.5 344.4344 481.89062 343.7469Q481.28125 343.04376 480.375 343.04376Q479.45312 343.04376 478.84375 343.73126Q478.23438 344.41876 478.23438 345.825ZM485.42188 349.45L485.42188 342.1844L486.53125 342.1844L486.53125 343.21564Q487.32812 342.02814 488.84375 342.02814Q489.5 342.02814 490.04688 342.2625Q490.59375 342.4969 490.85938 342.8875Q491.14062 343.2625 491.25 343.79376Q491.32812 344.1375 491.32812 344.98126L491.32812 349.45L490.09375 349.45L490.09375 345.02814Q490.09375 344.27814 489.95312 343.91876Q489.8125 343.54376 489.4375 343.325Q489.07812 343.09064 488.57812 343.09064Q487.79688 343.09064 487.21875 343.59064Q486.65625 344.09064 486.65625 345.48126L486.65625 349.45L485.42188 349.45ZM499.78125 352.40314Q498.75 351.10626 498.04688 349.3875Q497.34375 347.66876 497.34375 345.825Q497.34375 344.2 497.875 342.7Q498.48438 340.96564 499.78125 339.2625L500.65625 339.2625Q499.82812 340.6844 499.5625 341.29376Q499.14062 342.23126 498.90625 343.2625Q498.60938 344.52814 498.60938 345.825Q498.60938 349.1219 500.65625 352.40314L499.78125 352.40314ZM502.42188 349.45L502.42188 339.4344L503.65625 339.4344L503.65625 343.02814Q504.51562 342.02814 505.82812 342.02814Q506.64062 342.02814 507.23438 342.35626Q507.82812 342.66876 508.07812 343.23126Q508.34375 343.77814 508.34375 344.85626L508.34375 349.45L507.10938 349.45L507.10938 344.85626Q507.10938 343.91876 506.70312 343.5125Q506.3125 343.09064 505.57812 343.09064Q505.03125 343.09064 504.54688 343.3719Q504.0625 343.65314 503.85938 344.1375Q503.65625 344.6219 503.65625 345.48126L503.65625 349.45L502.42188 349.45ZM510.40625 349.45L510.40625 342.1844L511.51562 342.1844L511.51562 343.29376Q511.9375 342.5125 512.2969 342.27814Q512.65625 342.02814 513.09375 342.02814Q513.71875 342.02814 514.3594 342.41876L513.9375 343.5594Q513.4844 343.29376 513.03125 343.29376Q512.625 343.29376 512.2969 343.54376Q511.98438 343.77814 511.84375 344.21564Q511.64062 344.8719 511.64062 345.65314L511.64062 349.45L510.40625 349.45ZM515.7656 343.59064L515.7656 342.1844L517.1719 342.1844L517.1719 343.59064L515.7656 343.59064ZM515.7656 349.45L515.7656 348.04376L517.1719 348.04376L517.1719 349.45L515.7656 349.45ZM519.4219 349.45L519.4219 342.1844L520.53125 342.1844L520.53125 343.21564Q520.8594 342.66876 521.4219 342.35626Q522.0 342.02814 522.71875 342.02814Q523.53125 342.02814 524.0469 342.3719Q524.5625 342.7 524.78125 343.29376Q525.6406 342.02814 527.0156 342.02814Q528.09375 342.02814 528.6719 342.6219Q529.2656 343.21564 529.2656 344.46564L529.2656 349.45L528.03125 349.45L528.03125 344.8719Q528.03125 344.1375 527.90625 343.8094Q527.7969 343.48126 527.4844 343.29376Q527.1719 343.09064 526.75 343.09064Q525.9844 343.09064 525.46875 343.60626Q524.96875 344.10626 524.96875 345.23126L524.96875 349.45L523.7344 349.45L523.7344 344.73126Q523.7344 343.91876 523.4375 343.5125Q523.1406 343.09064 522.4531 343.09064Q521.9375 343.09064 521.4844 343.3719Q521.0469 343.6375 520.84375 344.16876Q520.65625 344.6844 520.65625 345.6844L520.65625 349.45L519.4219 349.45ZM531.4375 340.84064L531.4375 339.4344L532.65625 339.4344L532.65625 340.84064L531.4375 340.84064ZM531.4375 349.45L531.4375 342.1844L532.65625 342.1844L532.65625 349.45L531.4375 349.45ZM534.4219 349.45L534.4219 342.1844L535.53125 342.1844L535.53125 343.21564Q536.3281 342.02814 537.84375 342.02814Q538.5 342.02814 539.0469 342.2625Q539.59375 342.4969 539.8594 342.8875Q540.1406 343.2625 540.25 343.79376Q540.3281 344.1375 540.3281 344.98126L540.3281 349.45L539.09375 349.45L539.09375 345.02814Q539.09375 344.27814 538.9531 343.91876Q538.8125 343.54376 538.4375 343.325Q538.0781 343.09064 537.5781 343.09064Q536.7969 343.09064 536.21875 343.59064Q535.65625 344.09064 535.65625 345.48126L535.65625 349.45L534.4219 349.45ZM543.2344 352.40314L542.34375 352.40314Q544.3906 349.1219 544.3906 345.825Q544.3906 344.54376 544.09375 343.27814Q543.8594 342.2469 543.4531 341.3094Q543.1875 340.7 542.34375 339.2625L543.2344 339.2625Q544.5156 340.96564 545.125 342.7Q545.65625 344.2 545.65625 345.825Q545.65625 347.66876 544.9375 349.3875Q544.2344 351.10626 543.2344 352.40314Z" fill-rule="nonzero"/><path fill="#000000" d="M31.550013 202.42188L21.534388 202.42188L21.534388 198.64062Q21.534388 197.64062 21.628138 197.10938Q21.753138 196.375 22.096888 195.875Q22.440638 195.375 23.065638 195.07812Q23.675013 194.76562 24.425013 194.76562Q25.706263 194.76562 26.596888 195.57812Q27.471888 196.39062 27.471888 198.51562L27.471888 201.09375L31.550013 201.09375L31.550013 202.42188ZM26.300013 201.09375L26.300013 198.5Q26.300013 197.21875 25.815638 196.6875Q25.331263 196.14062 24.471888 196.14062Q23.831263 196.14062 23.393763 196.45312Q22.940638 196.76562 22.800013 197.29688Q22.706263 197.625 22.706263 198.53125L22.706263 201.09375L26.300013 201.09375ZM29.206263 188.60938L29.362513 187.32812Q30.487513 187.64062 31.112513 188.45312Q31.721888 189.26562 31.721888 190.53125Q31.721888 192.125 30.737513 193.0625Q29.753138 193.98438 27.987513 193.98438Q26.143763 193.98438 25.143763 193.04688Q24.128138 192.09375 24.128138 190.59375Q24.128138 189.14062 25.128138 188.21875Q26.112513 187.29688 27.909388 187.29688Q28.018763 187.29688 28.237513 187.29688L28.237513 192.71875Q29.425013 192.64062 30.065638 192.04688Q30.706263 191.4375 30.706263 190.51562Q30.706263 189.84375 30.346888 189.375Q29.987513 188.89062 29.206263 188.60938ZM27.221888 192.64062L27.221888 188.59375Q26.300013 188.67188 25.846888 189.0625Q25.143763 189.64062 25.143763 190.57812Q25.143763 191.4375 25.706263 192.01562Q26.268763 192.57812 27.221888 192.64062ZM31.550013 185.59375L24.284388 185.59375L24.284388 184.48438L25.393763 184.48438Q24.612513 184.0625 24.378138 183.70312Q24.128138 183.34375 24.128138 182.90625Q24.128138 182.28125 24.518763 181.64062L25.659388 182.0625Q25.393763 182.51562 25.393763 182.96875Q25.393763 183.375 25.643763 183.70312Q25.878138 184.01562 26.315638 184.15625Q26.971888 184.35938 27.753138 184.35938L31.550013 184.35938L31.550013 185.59375ZM28.893763 175.84375L29.050013 174.625Q30.300013 174.82812 31.018763 175.65625Q31.721888 176.46875 31.721888 177.65625Q31.721888 179.14062 30.753138 180.04688Q29.768763 180.95312 27.940638 180.95312Q26.768763 180.95312 25.893763 180.5625Q25.003138 180.17188 24.565638 179.375Q24.128138 178.57812 24.128138 177.64062Q24.128138 176.46875 24.721888 175.71875Q25.315638 174.95312 26.425013 174.75L26.612513 175.9375Q25.878138 176.10938 25.518763 176.54688Q25.143763 176.98438 25.143763 177.59375Q25.143763 178.53125 25.815638 179.10938Q26.471888 179.6875 27.909388 179.6875Q29.378138 179.6875 30.050013 179.125Q30.706263 178.5625 30.706263 177.67188Q30.706263 176.9375 30.268763 176.45312Q29.815638 175.96875 28.893763 175.84375ZM29.206263 168.60938L29.362513 167.32812Q30.487513 167.64062 31.112513 168.45312Q31.721888 169.26562 31.721888 170.53125Q31.721888 172.125 30.737513 173.0625Q29.753138 173.98438 27.987513 173.98438Q26.143763 173.98438 25.143763 173.04688Q24.128138 172.09375 24.128138 170.59375Q24.128138 169.14062 25.128138 168.21875Q26.112513 167.29688 27.909388 167.29688Q28.018763 167.29688 28.237513 167.29688L28.237513 172.71875Q29.425013 172.64062 30.065638 172.04688Q30.706263 171.4375 30.706263 170.51562Q30.706263 169.84375 30.346888 169.375Q29.987513 168.89062 29.206263 168.60938ZM27.221888 172.64062L27.221888 168.59375Q26.300013 168.67188 25.846888 169.0625Q25.143763 169.64062 25.143763 170.57812Q25.143763 171.4375 25.706263 172.01562Q26.268763 172.57812 27.221888 172.64062ZM31.550013 165.57812L24.284388 165.57812L24.284388 164.46875L25.315638 164.46875Q24.128138 163.67188 24.128138 162.15625Q24.128138 161.5 24.362513 160.95312Q24.596888 160.40625 24.987513 160.14062Q25.362513 159.85938 25.893763 159.75Q26.237513 159.67188 27.081263 159.67188L31.550013 159.67188L31.550013 160.90625L27.128138 160.90625Q26.378138 160.90625 26.018763 161.04688Q25.643763 161.1875 25.425013 161.5625Q25.190638 161.92188 25.190638 162.42188Q25.190638 163.20312 25.690638 163.78125Q26.190638 164.34375 27.581263 164.34375L31.550013 164.34375L31.550013 165.57812ZM30.456263 154.89062L31.534388 154.71875Q31.643763 155.23438 31.643763 155.64062Q31.643763 156.3125 31.440638 156.6875Q31.221888 157.04688 30.878138 157.20312Q30.534388 157.34375 29.425013 157.34375L25.253138 157.34375L25.253138 158.25L24.284388 158.25L24.284388 157.34375L22.487513 157.34375L21.753138 156.125L24.284388 156.125L24.284388 154.89062L25.253138 154.89062L25.253138 156.125L29.487513 156.125Q30.018763 156.125 30.175013 156.0625Q30.315638 156.0 30.409388 155.85938Q30.503138 155.70312 30.503138 155.4375Q30.503138 155.21875 30.456263 154.89062ZM30.659388 148.84375Q31.237513 149.51562 31.487513 150.15625Q31.721888 150.78125 31.721888 151.51562Q31.721888 152.70312 31.143763 153.35938Q30.550013 154.0 29.628138 154.0Q29.096888 154.0 28.659388 153.76562Q28.221888 153.51562 27.956263 153.125Q27.690638 152.71875 27.550013 152.23438Q27.456263 151.875 27.362513 151.14062Q27.190638 149.64062 26.940638 148.9375Q26.690638 148.9375 26.628138 148.9375Q25.862513 148.9375 25.565638 149.28125Q25.143763 149.75 25.143763 150.6875Q25.143763 151.54688 25.456263 151.96875Q25.753138 152.375 26.518763 152.57812L26.362513 153.78125Q25.581263 153.625 25.112513 153.25Q24.643763 152.85938 24.393763 152.15625Q24.128138 151.4375 24.128138 150.5Q24.128138 149.57812 24.346888 149.0Q24.565638 148.42188 24.893763 148.15625Q25.221888 147.875 25.737513 147.76562Q26.050013 147.70312 26.862513 147.70312L28.503138 147.70312Q30.221888 147.70312 30.675013 147.625Q31.128138 147.54688 31.550013 147.3125L31.550013 148.59375Q31.159388 148.78125 30.659388 148.84375ZM27.909388 148.9375Q28.175013 149.60938 28.378138 150.95312Q28.487513 151.70312 28.628138 152.03125Q28.753138 152.34375 29.018763 152.51562Q29.284388 152.6875 29.596888 152.6875Q30.096888 152.6875 30.425013 152.3125Q30.753138 151.9375 30.753138 151.21875Q30.753138 150.5 30.440638 149.95312Q30.128138 149.40625 29.581263 149.14062Q29.175013 148.9375 28.362513 148.9375L27.909388 148.9375ZM32.159386 145.79688L32.33126 144.60938Q32.878136 144.53125 33.14376 144.1875Q33.471886 143.73438 33.471886 142.9375Q33.471886 142.07812 33.128136 141.625Q32.80001 141.15625 32.17501 140.98438Q31.800013 140.89062 30.596888 140.90625Q31.550013 141.70312 31.550013 142.90625Q31.550013 144.40625 30.471888 145.23438Q29.393763 146.04688 27.878138 146.04688Q26.846888 146.04688 25.971888 145.67188Q25.081263 145.29688 24.612513 144.59375Q24.128138 143.875 24.128138 142.90625Q24.128138 141.625 25.159388 140.78125L24.284388 140.78125L24.284388 139.65625L30.565638 139.65625Q32.26876 139.65625 32.971886 140.0Q33.67501 140.34375 34.08126 141.09375Q34.503136 141.84375 34.503136 142.9375Q34.503136 144.23438 33.909386 145.03125Q33.33126 145.82812 32.159386 145.79688ZM27.784388 144.78125Q29.221888 144.78125 29.878138 144.21875Q30.534388 143.65625 30.534388 142.79688Q30.534388 141.95312 29.878138 141.375Q29.221888 140.79688 27.831263 140.79688Q26.503138 140.79688 25.831263 141.39062Q25.143763 141.98438 25.143763 142.8125Q25.143763 143.64062 25.815638 144.21875Q26.471888 144.78125 27.784388 144.78125ZM29.206263 132.60938L29.362513 131.32812Q30.487513 131.64062 31.112513 132.45312Q31.721888 133.26562 31.721888 134.53125Q31.721888 136.125 30.737513 137.0625Q29.753138 137.98438 27.987513 137.98438Q26.143763 137.98438 25.143763 137.04688Q24.128138 136.09375 24.128138 134.59375Q24.128138 133.14062 25.128138 132.21875Q26.112513 131.29688 27.909388 131.29688Q28.018763 131.29688 28.237513 131.29688L28.237513 136.71875Q29.425013 136.64062 30.065638 136.04688Q30.706263 135.4375 30.706263 134.51562Q30.706263 133.84375 30.346888 133.375Q29.987513 132.89062 29.206263 132.60938ZM27.221888 136.64062L27.221888 132.59375Q26.300013 132.67188 25.846888 133.0625Q25.143763 133.64062 25.143763 134.57812Q25.143763 135.4375 25.706263 136.01562Q26.268763 136.57812 27.221888 136.64062Z" fill-rule="nonzero"/><path fill="#000000" d="M72.12813 292.5125Q72.12813 290.73126 72.4875 289.65314Q72.8625 288.5594 73.58125 287.98126Q74.3 287.3875 75.39375 287.3875Q76.20625 287.3875 76.81563 287.71564Q77.425 288.04376 77.81563 288.65314Q78.22188 289.2625 78.44063 290.1375Q78.65938 291.0125 78.65938 292.5125Q78.65938 294.27814 78.3 295.35626Q77.94063 296.4344 77.22188 297.02814Q76.50313 297.6219 75.39375 297.6219Q73.95625 297.6219 73.12813 296.575Q72.12813 295.325 72.12813 292.5125ZM73.39375 292.5125Q73.39375 294.98126 73.97188 295.79376Q74.55 296.60626 75.39375 296.60626Q76.25313 296.60626 76.83125 295.79376Q77.40938 294.96564 77.40938 292.5125Q77.40938 290.02814 76.83125 289.21564Q76.25313 288.40314 75.37813 288.40314Q74.53438 288.40314 74.03438 289.1219Q73.39375 290.04376 73.39375 292.5125Z" fill-rule="nonzero"/><path fill="#000000" d="M72.12813 250.50833L73.425 250.39896Q73.56563 251.33646 74.08125 251.82083Q74.6125 252.28958 75.34688 252.28958Q76.2375 252.28958 76.84688 251.6177Q77.47188 250.94583 77.47188 249.85208Q77.47188 248.78958 76.87813 248.1802Q76.28438 247.57083 75.33125 247.57083Q74.7375 247.57083 74.25313 247.85208Q73.78438 248.1177 73.50313 248.53958L72.34688 248.39896L73.31563 243.2427L78.3 243.2427L78.3 244.4302L74.3 244.4302L73.76875 247.1177Q74.675 246.4927 75.65938 246.4927Q76.97188 246.4927 77.8625 247.39896Q78.76875 248.3052 78.76875 249.7427Q78.76875 251.10208 77.9875 252.08646Q77.01875 253.3052 75.34688 253.3052Q73.9875 253.3052 73.1125 252.53958Q72.25313 251.77396 72.12813 250.50833Z" fill-rule="nonzero"/><path fill="#000000" d="M68.76875 208.81667L67.53438 208.81667L67.53438 200.97292Q67.09688 201.39479 66.3625 201.83229Q65.64375 202.25417 65.08125 202.45729L65.08125 201.26979Q66.1125 200.78542 66.87813 200.09792Q67.65938 199.41042 67.97188 198.75417L68.76875 198.75417L68.76875 208.81667ZM72.12813 203.87917Q72.12813 202.09792 72.4875 201.01979Q72.8625 199.92604 73.58125 199.34792Q74.3 198.75417 75.39375 198.75417Q76.20625 198.75417 76.81563 199.08229Q77.425 199.41042 77.81563 200.01979Q78.22188 200.62917 78.44063 201.50417Q78.65938 202.37917 78.65938 203.87917Q78.65938 205.64479 78.3 206.72292Q77.94063 207.80104 77.22188 208.39479Q76.50313 208.98854 75.39375 208.98854Q73.95625 208.98854 73.12813 207.94167Q72.12813 206.69167 72.12813 203.87917ZM73.39375 203.87917Q73.39375 206.34792 73.97188 207.16042Q74.55 207.97292 75.39375 207.97292Q76.25313 207.97292 76.83125 207.16042Q77.40938 206.33229 77.40938 203.87917Q77.40938 201.39479 76.83125 200.58229Q76.25313 199.76979 75.37813 199.76979Q74.53438 199.76979 74.03438 200.48854Q73.39375 201.41042 73.39375 203.87917Z" fill-rule="nonzero"/><path fill="#000000" d="M68.76875 164.5L67.53438 164.5L67.53438 156.65625Q67.09688 157.07812 66.3625 157.51562Q65.64375 157.9375 65.08125 158.14062L65.08125 156.95312Q66.1125 156.46875 66.87813 155.78125Q67.65938 155.09375 67.97188 154.4375L68.76875 154.4375L68.76875 164.5ZM72.12813 161.875L73.425 161.76562Q73.56563 162.70312 74.08125 163.1875Q74.6125 163.65625 75.34688 163.65625Q76.2375 163.65625 76.84688 162.98438Q77.47188 162.3125 77.47188 161.21875Q77.47188 160.15625 76.87813 159.54688Q76.28438 158.9375 75.33125 158.9375Q74.7375 158.9375 74.25313 159.21875Q73.78438 159.48438 73.50313 159.90625L72.34688 159.76562L73.31563 154.60938L78.3 154.60938L78.3 155.79688L74.3 155.79688L73.76875 158.48438Q74.675 157.85938 75.65938 157.85938Q76.97188 157.85938 77.8625 158.76562Q78.76875 159.67188 78.76875 161.10938Q78.76875 162.46875 77.9875 163.45312Q77.01875 164.67188 75.34688 164.67188Q73.9875 164.67188 73.1125 163.90625Q72.25313 163.14062 72.12813 161.875Z" fill-rule="nonzero"/><path fill="#000000" d="M70.59688 118.995834L70.59688 120.183334L63.971874 120.183334Q63.95625 119.745834 64.1125 119.32396Q64.37813 118.652084 64.925 117.995834Q65.4875 117.339584 66.53438 116.48021Q68.175 115.13646 68.7375 114.35521Q69.31563 113.57396 69.31563 112.870834Q69.31563 112.13646 68.78438 111.63646Q68.26875 111.13646 67.44063 111.13646Q66.55 111.13646 66.00313 111.66771Q65.47188 112.19896 65.47188 113.152084L64.20625 113.01146Q64.33125 111.60521 65.175 110.870834Q66.03438 110.120834 67.45625 110.120834Q68.90938 110.120834 69.7375 110.91771Q70.58125 111.714584 70.58125 112.902084Q70.58125 113.51146 70.33125 114.089584Q70.09688 114.66771 69.51875 115.308334Q68.95625 115.94896 67.62813 117.07396Q66.51875 117.995834 66.20625 118.339584Q65.89375 118.66771 65.69063 118.995834L70.59688 118.995834ZM72.12813 115.245834Q72.12813 113.464584 72.4875 112.38646Q72.8625 111.29271 73.58125 110.714584Q74.3 110.120834 75.39375 110.120834Q76.20625 110.120834 76.81563 110.44896Q77.425 110.777084 77.81563 111.38646Q78.22188 111.995834 78.44063 112.870834Q78.65938 113.745834 78.65938 115.245834Q78.65938 117.01146 78.3 118.089584Q77.94063 119.16771 77.22188 119.76146Q76.50313 120.35521 75.39375 120.35521Q73.95625 120.35521 73.12813 119.308334Q72.12813 118.058334 72.12813 115.245834ZM73.39375 115.245834Q73.39375 117.714584 73.97188 118.527084Q74.55 119.339584 75.39375 119.339584Q76.25313 119.339584 76.83125 118.527084Q77.40938 117.69896 77.40938 115.245834Q77.40938 112.76146 76.83125 111.94896Q76.25313 111.13646 75.37813 111.13646Q74.53438 111.13646 74.03438 111.85521Q73.39375 112.777084 73.39375 115.245834Z" fill-rule="nonzero"/><path fill="#000000" d="M70.59688 74.67917L70.59688 75.86667L63.971874 75.86667Q63.95625 75.42917 64.1125 75.00729Q64.37813 74.33542 64.925 73.67917Q65.4875 73.02292 66.53438 72.16354Q68.175 70.81979 68.7375 70.03854Q69.31563 69.25729 69.31563 68.55417Q69.31563 67.81979 68.78438 67.31979Q68.26875 66.81979 67.44063 66.81979Q66.55 66.81979 66.00313 67.35104Q65.47188 67.88229 65.47188 68.83542L64.20625 68.69479Q64.33125 67.28854 65.175 66.55417Q66.03438 65.80417 67.45625 65.80417Q68.90938 65.80417 69.7375 66.60104Q70.58125 67.39792 70.58125 68.58542Q70.58125 69.19479 70.33125 69.77292Q70.09688 70.35104 69.51875 70.99167Q68.95625 71.63229 67.62813 72.75729Q66.51875 73.67917 66.20625 74.02292Q65.89375 74.35104 65.69063 74.67917L70.59688 74.67917ZM72.12813 73.24167L73.425 73.13229Q73.56563 74.06979 74.08125 74.55417Q74.6125 75.02292 75.34688 75.02292Q76.2375 75.02292 76.84688 74.35104Q77.47188 73.67917 77.47188 72.58542Q77.47188 71.52292 76.87813 70.91354Q76.28438 70.30417 75.33125 70.30417Q74.7375 70.30417 74.25313 70.58542Q73.78438 70.85104 73.50313 71.27292L72.34688 71.13229L73.31563 65.97604L78.3 65.97604L78.3 67.16354L74.3 67.16354L73.76875 69.85104Q74.675 69.22604 75.65938 69.22604Q76.97188 69.22604 77.8625 70.13229Q78.76875 71.03854 78.76875 72.47604Q78.76875 73.83542 77.9875 74.81979Q77.01875 76.03854 75.34688 76.03854Q73.9875 76.03854 73.1125 75.27292Q72.25313 74.50729 72.12813 73.24167Z" fill-rule="nonzero"/><path fill="#000000" d="M64.14375 28.909374L65.3625 28.7375Q65.58125 29.784374 66.08125 30.253124Q66.59688 30.70625 67.33125 30.70625Q68.20625 30.70625 68.8 30.1125Q69.39375 29.503124 69.39375 28.6125Q69.39375 27.76875 68.83125 27.221874Q68.28438 26.675 67.44063 26.675Q67.08125 26.675 66.56563 26.8L66.70625 25.721874Q66.83125 25.7375 66.89375 25.7375Q67.69063 25.7375 68.31563 25.33125Q68.94063 24.925 68.94063 24.065624Q68.94063 23.39375 68.4875 22.95625Q68.03438 22.503124 67.3 22.503124Q66.58125 22.503124 66.09688 22.95625Q65.62813 23.39375 65.4875 24.3L64.26875 24.08125Q64.4875 22.846874 65.28438 22.175Q66.08125 21.4875 67.26875 21.4875Q68.09688 21.4875 68.78438 21.846874Q69.47188 22.190624 69.83125 22.8Q70.20625 23.409374 70.20625 24.096874Q70.20625 24.7375 69.8625 25.26875Q69.51875 25.8 68.83125 26.128124Q69.72188 26.33125 70.20625 26.971874Q70.70625 27.6125 70.70625 28.596874Q70.70625 29.909374 69.7375 30.815624Q68.78438 31.721874 67.33125 31.721874Q66.00313 31.721874 65.12813 30.940624Q64.26875 30.159374 64.14375 28.909374ZM72.12813 26.6125Q72.12813 24.83125 72.4875 23.753124Q72.8625 22.659374 73.58125 22.08125Q74.3 21.4875 75.39375 21.4875Q76.20625 21.4875 76.81563 21.815624Q77.425 22.14375 77.81563 22.753124Q78.22188 23.3625 78.44063 24.2375Q78.65938 25.1125 78.65938 26.6125Q78.65938 28.378124 78.3 29.45625Q77.94063 30.534374 77.22188 31.128124Q76.50313 31.721874 75.39375 31.721874Q73.95625 31.721874 73.12813 30.675Q72.12813 29.425 72.12813 26.6125ZM73.39375 26.6125Q73.39375 29.08125 73.97188 29.89375Q74.55 30.70625 75.39375 30.70625Q76.25313 30.70625 76.83125 29.89375Q77.40938 29.065624 77.40938 26.6125Q77.40938 24.128124 76.83125 23.315624Q76.25313 22.503124 75.37813 22.503124Q74.53438 22.503124 74.03438 23.221874Q73.39375 24.14375 73.39375 26.6125Z" fill-rule="nonzero"/><path fill="#000000" d="M104.73064 309.8094L105.94939 309.6375Q106.16814 310.6844 106.66814 311.15314Q107.18376 311.60626 107.91814 311.60626Q108.79314 311.60626 109.38689 311.0125Q109.98064 310.40314 109.98064 309.5125Q109.98064 308.66876 109.41814 308.1219Q108.87126 307.575 108.02751 307.575Q107.66814 307.575 107.15251 307.7L107.29314 306.6219Q107.41814 306.6375 107.48064 306.6375Q108.27751 306.6375 108.90251 306.23126Q109.52751 305.825 109.52751 304.96564Q109.52751 304.29376 109.07439 303.85626Q108.62126 303.40314 107.88689 303.40314Q107.16814 303.40314 106.68376 303.85626Q106.21501 304.29376 106.07439 305.2L104.85564 304.98126Q105.07439 303.7469 105.87126 303.075Q106.66814 302.3875 107.85564 302.3875Q108.68376 302.3875 109.37126 302.7469Q110.05876 303.09064 110.41814 303.7Q110.79314 304.3094 110.79314 304.9969Q110.79314 305.6375 110.44939 306.16876Q110.10564 306.7 109.41814 307.02814Q110.30876 307.23126 110.79314 307.8719Q111.29314 308.5125 111.29314 309.4969Q111.29314 310.8094 110.32439 311.71564Q109.37126 312.6219 107.91814 312.6219Q106.59001 312.6219 105.71501 311.84064Q104.85564 311.0594 104.73064 309.8094ZM113.40251 306.59064L113.40251 305.1844L114.80876 305.1844L114.80876 306.59064L113.40251 306.59064ZM113.40251 312.45L113.40251 311.04376L114.80876 311.04376L114.80876 312.45L113.40251 312.45ZM116.71501 307.5125Q116.71501 305.73126 117.07439 304.65314Q117.44939 303.5594 118.16814 302.98126Q118.88689 302.3875 119.98064 302.3875Q120.79314 302.3875 121.40251 302.71564Q122.01189 303.04376 122.40251 303.65314Q122.80876 304.2625 123.02751 305.1375Q123.24626 306.0125 123.24626 307.5125Q123.24626 309.27814 122.88689 310.35626Q122.52751 311.4344 121.80876 312.02814Q121.09001 312.6219 119.98064 312.6219Q118.54314 312.6219 117.71501 311.575Q116.71501 310.325 116.71501 307.5125ZM117.98064 307.5125Q117.98064 309.98126 118.55876 310.79376Q119.13689 311.60626 119.98064 311.60626Q120.84001 311.60626 121.41814 310.79376Q121.99626 309.96564 121.99626 307.5125Q121.99626 305.02814 121.41814 304.21564Q120.84001 303.40314 119.96501 303.40314Q119.12126 303.40314 118.62126 304.1219Q117.98064 305.04376 117.98064 307.5125ZM124.71501 307.5125Q124.71501 305.73126 125.07439 304.65314Q125.44939 303.5594 126.16814 302.98126Q126.88689 302.3875 127.98064 302.3875Q128.79314 302.3875 129.40251 302.71564Q130.01189 303.04376 130.40251 303.65314Q130.80876 304.2625 131.02751 305.1375Q131.24626 306.0125 131.24626 307.5125Q131.24626 309.27814 130.88689 310.35626Q130.52751 311.4344 129.80876 312.02814Q129.09001 312.6219 127.98064 312.6219Q126.54314 312.6219 125.71501 311.575Q124.71501 310.325 124.71501 307.5125ZM125.98064 307.5125Q125.98064 309.98126 126.55876 310.79376Q127.13689 311.60626 127.98064 311.60626Q128.84001 311.60626 129.41814 310.79376Q129.99626 309.96564 129.99626 307.5125Q129.99626 305.02814 129.41814 304.21564Q128.84001 303.40314 127.96501 303.40314Q127.12126 303.40314 126.62126 304.1219Q125.98064 305.04376 125.98064 307.5125Z" fill-rule="nonzero"/><path fill="#000000" d="M151.52603 309.8094L152.74478 309.6375Q152.96353 310.6844 153.46353 311.15314Q153.97916 311.60626 154.71353 311.60626Q155.58853 311.60626 156.18228 311.0125Q156.77603 310.40314 156.77603 309.5125Q156.77603 308.66876 156.21353 308.1219Q155.66666 307.575 154.8229 307.575Q154.46353 307.575 153.9479 307.7L154.08853 306.6219Q154.21353 306.6375 154.27603 306.6375Q155.0729 306.6375 155.6979 306.23126Q156.3229 305.825 156.3229 304.96564Q156.3229 304.29376 155.86978 303.85626Q155.41666 303.40314 154.68228 303.40314Q153.96353 303.40314 153.47916 303.85626Q153.0104 304.29376 152.86978 305.2L151.65103 304.98126Q151.86978 303.7469 152.66666 303.075Q153.46353 302.3875 154.65103 302.3875Q155.47916 302.3875 156.16666 302.7469Q156.85416 303.09064 157.21353 303.7Q157.58853 304.3094 157.58853 304.9969Q157.58853 305.6375 157.24478 306.16876Q156.90103 306.7 156.21353 307.02814Q157.10416 307.23126 157.58853 307.8719Q158.08853 308.5125 158.08853 309.4969Q158.08853 310.8094 157.11978 311.71564Q156.16666 312.6219 154.71353 312.6219Q153.3854 312.6219 152.5104 311.84064Q151.65103 311.0594 151.52603 309.8094ZM160.1979 306.59064L160.1979 305.1844L161.60416 305.1844L161.60416 306.59064L160.1979 306.59064ZM160.1979 312.45L160.1979 311.04376L161.60416 311.04376L161.60416 312.45L160.1979 312.45ZM163.52603 309.8094L164.74478 309.6375Q164.96353 310.6844 165.46353 311.15314Q165.97916 311.60626 166.71353 311.60626Q167.58853 311.60626 168.18228 311.0125Q168.77603 310.40314 168.77603 309.5125Q168.77603 308.66876 168.21353 308.1219Q167.66666 307.575 166.8229 307.575Q166.46353 307.575 165.9479 307.7L166.08853 306.6219Q166.21353 306.6375 166.27603 306.6375Q167.0729 306.6375 167.6979 306.23126Q168.3229 305.825 168.3229 304.96564Q168.3229 304.29376 167.86978 303.85626Q167.41666 303.40314 166.68228 303.40314Q165.96353 303.40314 165.47916 303.85626Q165.0104 304.29376 164.86978 305.2L163.65103 304.98126Q163.86978 303.7469 164.66666 303.075Q165.46353 302.3875 166.65103 302.3875Q167.47916 302.3875 168.16666 302.7469Q168.85416 303.09064 169.21353 303.7Q169.58853 304.3094 169.58853 304.9969Q169.58853 305.6375 169.24478 306.16876Q168.90103 306.7 168.21353 307.02814Q169.10416 307.23126 169.58853 307.8719Q170.08853 308.5125 170.08853 309.4969Q170.08853 310.8094 169.11978 311.71564Q168.16666 312.6219 166.71353 312.6219Q165.3854 312.6219 164.5104 311.84064Q163.65103 311.0594 163.52603 309.8094ZM171.5104 307.5125Q171.5104 305.73126 171.86978 304.65314Q172.24478 303.5594 172.96353 302.98126Q173.68228 302.3875 174.77603 302.3875Q175.58853 302.3875 176.1979 302.71564Q176.80728 303.04376 177.1979 303.65314Q177.60416 304.2625 177.8229 305.1375Q178.04166 306.0125 178.04166 307.5125Q178.04166 309.27814 177.68228 310.35626Q177.3229 311.4344 176.60416 312.02814Q175.8854 312.6219 174.77603 312.6219Q173.33853 312.6219 172.5104 311.575Q171.5104 310.325 171.5104 307.5125ZM172.77603 307.5125Q172.77603 309.98126 173.35416 310.79376Q173.93228 311.60626 174.77603 311.60626Q175.6354 311.60626 176.21353 310.79376Q176.79166 309.96564 176.79166 307.5125Q176.79166 305.02814 176.21353 304.21564Q175.6354 303.40314 174.7604 303.40314Q173.91666 303.40314 173.41666 304.1219Q172.77603 305.04376 172.77603 307.5125Z" fill-rule="nonzero"/><path fill="#000000" d="M202.25891 312.45L202.25891 310.04376L197.89954 310.04376L197.89954 308.91876L202.47766 302.4344L203.47766 302.4344L203.47766 308.91876L204.83704 308.91876L204.83704 310.04376L203.47766 310.04376L203.47766 312.45L202.25891 312.45ZM202.25891 308.91876L202.25891 304.40314L199.11829 308.91876L202.25891 308.91876ZM206.99329 306.59064L206.99329 305.1844L208.39954 305.1844L208.39954 306.59064L206.99329 306.59064ZM206.99329 312.45L206.99329 311.04376L208.39954 311.04376L208.39954 312.45L206.99329 312.45ZM210.30579 307.5125Q210.30579 305.73126 210.66516 304.65314Q211.04016 303.5594 211.75891 302.98126Q212.47766 302.3875 213.57141 302.3875Q214.38391 302.3875 214.99329 302.71564Q215.60266 303.04376 215.99329 303.65314Q216.39954 304.2625 216.61829 305.1375Q216.83704 306.0125 216.83704 307.5125Q216.83704 309.27814 216.47766 310.35626Q216.11829 311.4344 215.39954 312.02814Q214.68079 312.6219 213.57141 312.6219Q212.13391 312.6219 211.30579 311.575Q210.30579 310.325 210.30579 307.5125ZM211.57141 307.5125Q211.57141 309.98126 212.14954 310.79376Q212.72766 311.60626 213.57141 311.60626Q214.43079 311.60626 215.00891 310.79376Q215.58704 309.96564 215.58704 307.5125Q215.58704 305.02814 215.00891 304.21564Q214.43079 303.40314 213.55579 303.40314Q212.71204 303.40314 212.21204 304.1219Q211.57141 305.04376 211.57141 307.5125ZM218.30579 307.5125Q218.30579 305.73126 218.66516 304.65314Q219.04016 303.5594 219.75891 302.98126Q220.47766 302.3875 221.57141 302.3875Q222.38391 302.3875 222.99329 302.71564Q223.60266 303.04376 223.99329 303.65314Q224.39954 304.2625 224.61829 305.1375Q224.83704 306.0125 224.83704 307.5125Q224.83704 309.27814 224.47766 310.35626Q224.11829 311.4344 223.39954 312.02814Q222.68079 312.6219 221.57141 312.6219Q220.13391 312.6219 219.30579 311.575Q218.30579 310.325 218.30579 307.5125ZM219.57141 307.5125Q219.57141 309.98126 220.14954 310.79376Q220.72766 311.60626 221.57141 311.60626Q222.43079 311.60626 223.00891 310.79376Q223.58704 309.96564 223.58704 307.5125Q223.58704 305.02814 223.00891 304.21564Q222.43079 303.40314 221.55579 303.40314Q220.71204 303.40314 220.21204 304.1219Q219.57141 305.04376 219.57141 307.5125Z" fill-rule="nonzero"/><path fill="#000000" d="M249.0543 312.45L249.0543 310.04376L244.69493 310.04376L244.69493 308.91876L249.27306 302.4344L250.27306 302.4344L250.27306 308.91876L251.63243 308.91876L251.63243 310.04376L250.27306 310.04376L250.27306 312.45L249.0543 312.45ZM249.0543 308.91876L249.0543 304.40314L245.91368 308.91876L249.0543 308.91876ZM253.78868 306.59064L253.78868 305.1844L255.19493 305.1844L255.19493 306.59064L253.78868 306.59064ZM253.78868 312.45L253.78868 311.04376L255.19493 311.04376L255.19493 312.45L253.78868 312.45ZM257.11682 309.8094L258.33557 309.6375Q258.55432 310.6844 259.05432 311.15314Q259.56995 311.60626 260.30432 311.60626Q261.17932 311.60626 261.77307 311.0125Q262.36682 310.40314 262.36682 309.5125Q262.36682 308.66876 261.80432 308.1219Q261.25745 307.575 260.4137 307.575Q260.05432 307.575 259.5387 307.7L259.67932 306.6219Q259.80432 306.6375 259.86682 306.6375Q260.6637 306.6375 261.2887 306.23126Q261.9137 305.825 261.9137 304.96564Q261.9137 304.29376 261.46057 303.85626Q261.00745 303.40314 260.27307 303.40314Q259.55432 303.40314 259.06995 303.85626Q258.6012 304.29376 258.46057 305.2L257.24182 304.98126Q257.46057 303.7469 258.25745 303.075Q259.05432 302.3875 260.24182 302.3875Q261.06995 302.3875 261.75745 302.7469Q262.44495 303.09064 262.80432 303.7Q263.17932 304.3094 263.17932 304.9969Q263.17932 305.6375 262.83557 306.16876Q262.49182 306.7 261.80432 307.02814Q262.69495 307.23126 263.17932 307.8719Q263.67932 308.5125 263.67932 309.4969Q263.67932 310.8094 262.71057 311.71564Q261.75745 312.6219 260.30432 312.6219Q258.9762 312.6219 258.1012 311.84064Q257.24182 311.0594 257.11682 309.8094ZM265.1012 307.5125Q265.1012 305.73126 265.46057 304.65314Q265.83557 303.5594 266.55432 302.98126Q267.27307 302.3875 268.36682 302.3875Q269.17932 302.3875 269.7887 302.71564Q270.39807 303.04376 270.7887 303.65314Q271.19495 304.2625 271.4137 305.1375Q271.63245 306.0125 271.63245 307.5125Q271.63245 309.27814 271.27307 310.35626Q270.9137 311.4344 270.19495 312.02814Q269.4762 312.6219 268.36682 312.6219Q266.92932 312.6219 266.1012 311.575Q265.1012 310.325 265.1012 307.5125ZM266.36682 307.5125Q266.36682 309.98126 266.94495 310.79376Q267.52307 311.60626 268.36682 311.60626Q269.2262 311.60626 269.80432 310.79376Q270.38245 309.96564 270.38245 307.5125Q270.38245 305.02814 269.80432 304.21564Q269.2262 303.40314 268.3512 303.40314Q267.50745 303.40314 267.00745 304.1219Q266.36682 305.04376 266.36682 307.5125Z" fill-rule="nonzero"/><path fill="#000000" d="M291.89658 309.825L293.19345 309.71564Q293.33408 310.65314 293.8497 311.1375Q294.38095 311.60626 295.11533 311.60626Q296.00595 311.60626 296.61533 310.9344Q297.24033 310.2625 297.24033 309.16876Q297.24033 308.10626 296.64658 307.4969Q296.05283 306.8875 295.0997 306.8875Q294.50595 306.8875 294.02158 307.16876Q293.55283 307.4344 293.27158 307.85626L292.11533 307.71564L293.08408 302.5594L298.06845 302.5594L298.06845 303.7469L294.06845 303.7469L293.5372 306.4344Q294.44345 305.8094 295.42783 305.8094Q296.74033 305.8094 297.63095 306.71564Q298.5372 307.6219 298.5372 309.0594Q298.5372 310.41876 297.75595 311.40314Q296.7872 312.6219 295.11533 312.6219Q293.75595 312.6219 292.88095 311.85626Q292.02158 311.09064 291.89658 309.825ZM300.58408 306.59064L300.58408 305.1844L301.99033 305.1844L301.99033 306.59064L300.58408 306.59064ZM300.58408 312.45L300.58408 311.04376L301.99033 311.04376L301.99033 312.45L300.58408 312.45ZM303.89658 307.5125Q303.89658 305.73126 304.25595 304.65314Q304.63095 303.5594 305.3497 302.98126Q306.06845 302.3875 307.1622 302.3875Q307.9747 302.3875 308.58408 302.71564Q309.19345 303.04376 309.58408 303.65314Q309.99033 304.2625 310.20908 305.1375Q310.42783 306.0125 310.42783 307.5125Q310.42783 309.27814 310.06845 310.35626Q309.70908 311.4344 308.99033 312.02814Q308.27158 312.6219 307.1622 312.6219Q305.7247 312.6219 304.89658 311.575Q303.89658 310.325 303.89658 307.5125ZM305.1622 307.5125Q305.1622 309.98126 305.74033 310.79376Q306.31845 311.60626 307.1622 311.60626Q308.02158 311.60626 308.5997 310.79376Q309.17783 309.96564 309.17783 307.5125Q309.17783 305.02814 308.5997 304.21564Q308.02158 303.40314 307.14658 303.40314Q306.30283 303.40314 305.80283 304.1219Q305.1622 305.04376 305.1622 307.5125ZM311.89658 307.5125Q311.89658 305.73126 312.25595 304.65314Q312.63095 303.5594 313.3497 302.98126Q314.06845 302.3875 315.1622 302.3875Q315.9747 302.3875 316.58408 302.71564Q317.19345 303.04376 317.58408 303.65314Q317.99033 304.2625 318.20908 305.1375Q318.42783 306.0125 318.42783 307.5125Q318.42783 309.27814 318.06845 310.35626Q317.70908 311.4344 316.99033 312.02814Q316.27158 312.6219 315.1622 312.6219Q313.7247 312.6219 312.89658 311.575Q311.89658 310.325 311.89658 307.5125ZM313.1622 307.5125Q313.1622 309.98126 313.74033 310.79376Q314.31845 311.60626 315.1622 311.60626Q316.02158 311.60626 316.5997 310.79376Q317.17783 309.96564 317.17783 307.5125Q317.17783 305.02814 316.5997 304.21564Q316.02158 303.40314 315.14658 303.40314Q314.30283 303.40314 313.80283 304.1219Q313.1622 305.04376 313.1622 307.5125Z" fill-rule="nonzero"/><path fill="#000000" d="M338.69196 309.825L339.98883 309.71564Q340.12946 310.65314 340.64508 311.1375Q341.17633 311.60626 341.9107 311.60626Q342.80133 311.60626 343.4107 310.9344Q344.0357 310.2625 344.0357 309.16876Q344.0357 308.10626 343.44196 307.4969Q342.8482 306.8875 341.89508 306.8875Q341.30133 306.8875 340.81696 307.16876Q340.3482 307.4344 340.06696 307.85626L338.9107 307.71564L339.87946 302.5594L344.86383 302.5594L344.86383 303.7469L340.86383 303.7469L340.33258 306.4344Q341.23883 305.8094 342.2232 305.8094Q343.5357 305.8094 344.42633 306.71564Q345.33258 307.6219 345.33258 309.0594Q345.33258 310.41876 344.55133 311.40314Q343.58258 312.6219 341.9107 312.6219Q340.55133 312.6219 339.67633 311.85626Q338.81696 311.09064 338.69196 309.825ZM347.37946 306.59064L347.37946 305.1844L348.7857 305.1844L348.7857 306.59064L347.37946 306.59064ZM347.37946 312.45L347.37946 311.04376L348.7857 311.04376L348.7857 312.45L347.37946 312.45ZM350.70758 309.8094L351.92633 309.6375Q352.14508 310.6844 352.64508 311.15314Q353.1607 311.60626 353.89508 311.60626Q354.77008 311.60626 355.36383 311.0125Q355.95758 310.40314 355.95758 309.5125Q355.95758 308.66876 355.39508 308.1219Q354.8482 307.575 354.00446 307.575Q353.64508 307.575 353.12946 307.7L353.27008 306.6219Q353.39508 306.6375 353.45758 306.6375Q354.25446 306.6375 354.87946 306.23126Q355.50446 305.825 355.50446 304.96564Q355.50446 304.29376 355.05133 303.85626Q354.5982 303.40314 353.86383 303.40314Q353.14508 303.40314 352.6607 303.85626Q352.19196 304.29376 352.05133 305.2L350.83258 304.98126Q351.05133 303.7469 351.8482 303.075Q352.64508 302.3875 353.83258 302.3875Q354.6607 302.3875 355.3482 302.7469Q356.0357 303.09064 356.39508 303.7Q356.77008 304.3094 356.77008 304.9969Q356.77008 305.6375 356.42633 306.16876Q356.08258 306.7 355.39508 307.02814Q356.2857 307.23126 356.77008 307.8719Q357.27008 308.5125 357.27008 309.4969Q357.27008 310.8094 356.30133 311.71564Q355.3482 312.6219 353.89508 312.6219Q352.56696 312.6219 351.69196 311.84064Q350.83258 311.0594 350.70758 309.8094ZM358.69196 307.5125Q358.69196 305.73126 359.05133 304.65314Q359.42633 303.5594 360.14508 302.98126Q360.86383 302.3875 361.95758 302.3875Q362.77008 302.3875 363.37946 302.71564Q363.98883 303.04376 364.37946 303.65314Q364.7857 304.2625 365.00446 305.1375Q365.2232 306.0125 365.2232 307.5125Q365.2232 309.27814 364.86383 310.35626Q364.50446 311.4344 363.7857 312.02814Q363.06696 312.6219 361.95758 312.6219Q360.52008 312.6219 359.69196 311.575Q358.69196 310.325 358.69196 307.5125ZM359.95758 307.5125Q359.95758 309.98126 360.5357 310.79376Q361.11383 311.60626 361.95758 311.60626Q362.81696 311.60626 363.39508 310.79376Q363.9732 309.96564 363.9732 307.5125Q363.9732 305.02814 363.39508 304.21564Q362.81696 303.40314 361.94196 303.40314Q361.0982 303.40314 360.5982 304.1219Q359.95758 305.04376 359.95758 307.5125Z" fill-rule="nonzero"/><path fill="#000000" d="M391.87796 304.8875L390.6592 304.98126Q390.48734 304.2469 390.19046 303.91876Q389.69046 303.40314 388.9561 303.40314Q388.36234 303.40314 387.92484 303.73126Q387.3467 304.15314 387.00296 304.96564Q386.67484 305.77814 386.6592 307.27814Q387.0967 306.60626 387.73734 306.27814Q388.3936 305.95 389.0967 305.95Q390.3311 305.95 391.19046 306.85626Q392.04984 307.7625 392.04984 309.2Q392.04984 310.1375 391.6436 310.95Q391.23734 311.7625 390.5186 312.2Q389.81546 312.6219 388.9092 312.6219Q387.37796 312.6219 386.4092 311.4969Q385.44046 310.35626 385.44046 307.7625Q385.44046 304.85626 386.50296 303.52814Q387.44046 302.3875 389.0342 302.3875Q390.2217 302.3875 390.9717 303.0594Q391.7217 303.71564 391.87796 304.8875ZM386.8467 309.2Q386.8467 309.84064 387.11234 310.41876Q387.3936 310.9969 387.87796 311.3094Q388.36234 311.60626 388.8936 311.60626Q389.67484 311.60626 390.23734 310.98126Q390.79984 310.35626 390.79984 309.27814Q390.79984 308.23126 390.23734 307.6375Q389.69046 307.02814 388.8467 307.02814Q388.0186 307.02814 387.42484 307.6375Q386.8467 308.23126 386.8467 309.2ZM394.17484 306.59064L394.17484 305.1844L395.5811 305.1844L395.5811 306.59064L394.17484 306.59064ZM394.17484 312.45L394.17484 311.04376L395.5811 311.04376L395.5811 312.45L394.17484 312.45ZM397.48734 307.5125Q397.48734 305.73126 397.8467 304.65314Q398.2217 303.5594 398.94046 302.98126Q399.6592 302.3875 400.75296 302.3875Q401.56546 302.3875 402.17484 302.71564Q402.7842 303.04376 403.17484 303.65314Q403.5811 304.2625 403.79984 305.1375Q404.0186 306.0125 404.0186 307.5125Q404.0186 309.27814 403.6592 310.35626Q403.29984 311.4344 402.5811 312.02814Q401.86234 312.6219 400.75296 312.6219Q399.31546 312.6219 398.48734 311.575Q397.48734 310.325 397.48734 307.5125ZM398.75296 307.5125Q398.75296 309.98126 399.3311 310.79376Q399.9092 311.60626 400.75296 311.60626Q401.61234 311.60626 402.19046 310.79376Q402.7686 309.96564 402.7686 307.5125Q402.7686 305.02814 402.19046 304.21564Q401.61234 303.40314 400.73734 303.40314Q399.8936 303.40314 399.3936 304.1219Q398.75296 305.04376 398.75296 307.5125ZM405.48734 307.5125Q405.48734 305.73126 405.8467 304.65314Q406.2217 303.5594 406.94046 302.98126Q407.6592 302.3875 408.75296 302.3875Q409.56546 302.3875 410.17484 302.71564Q410.7842 303.04376 411.17484 303.65314Q411.5811 304.2625 411.79984 305.1375Q412.0186 306.0125 412.0186 307.5125Q412.0186 309.27814 411.6592 310.35626Q411.29984 311.4344 410.5811 312.02814Q409.86234 312.6219 408.75296 312.6219Q407.31546 312.6219 406.48734 311.575Q405.48734 310.325 405.48734 307.5125ZM406.75296 307.5125Q406.75296 309.98126 407.3311 310.79376Q407.9092 311.60626 408.75296 311.60626Q409.61234 311.60626 410.19046 310.79376Q410.7686 309.96564 410.7686 307.5125Q410.7686 305.02814 410.19046 304.21564Q409.61234 303.40314 408.73734 303.40314Q407.8936 303.40314 407.3936 304.1219Q406.75296 305.04376 406.75296 307.5125Z" fill-rule="nonzero"/><path fill="#000000" d="M438.67337 304.8875L437.45462 304.98126Q437.28275 304.2469 436.98587 303.91876Q436.48587 303.40314 435.7515 303.40314Q435.15775 303.40314 434.72025 303.73126Q434.14212 304.15314 433.79837 304.96564Q433.47025 305.77814 433.45462 307.27814Q433.89212 306.60626 434.53275 306.27814Q435.189 305.95 435.89212 305.95Q437.1265 305.95 437.98587 306.85626Q438.84525 307.7625 438.84525 309.2Q438.84525 310.1375 438.439 310.95Q438.03275 311.7625 437.314 312.2Q436.61087 312.6219 435.70462 312.6219Q434.17337 312.6219 433.20462 311.4969Q432.23587 310.35626 432.23587 307.7625Q432.23587 304.85626 433.29837 303.52814Q434.23587 302.3875 435.82962 302.3875Q437.01712 302.3875 437.76712 303.0594Q438.51712 303.71564 438.67337 304.8875ZM433.64212 309.2Q433.64212 309.84064 433.90775 310.41876Q434.189 310.9969 434.67337 311.3094Q435.15775 311.60626 435.689 311.60626Q436.47025 311.60626 437.03275 310.98126Q437.59525 310.35626 437.59525 309.27814Q437.59525 308.23126 437.03275 307.6375Q436.48587 307.02814 435.64212 307.02814Q434.814 307.02814 434.22025 307.6375Q433.64212 308.23126 433.64212 309.2ZM440.97025 306.59064L440.97025 305.1844L442.3765 305.1844L442.3765 306.59064L440.97025 306.59064ZM440.97025 312.45L440.97025 311.04376L442.3765 311.04376L442.3765 312.45L440.97025 312.45ZM444.29837 309.8094L445.51712 309.6375Q445.73587 310.6844 446.23587 311.15314Q446.7515 311.60626 447.48587 311.60626Q448.36087 311.60626 448.95462 311.0125Q449.54837 310.40314 449.54837 309.5125Q449.54837 308.66876 448.98587 308.1219Q448.439 307.575 447.59525 307.575Q447.23587 307.575 446.72025 307.7L446.86087 306.6219Q446.98587 306.6375 447.04837 306.6375Q447.84525 306.6375 448.47025 306.23126Q449.09525 305.825 449.09525 304.96564Q449.09525 304.29376 448.64212 303.85626Q448.189 303.40314 447.45462 303.40314Q446.73587 303.40314 446.2515 303.85626Q445.78275 304.29376 445.64212 305.2L444.42337 304.98126Q444.64212 303.7469 445.439 303.075Q446.23587 302.3875 447.42337 302.3875Q448.2515 302.3875 448.939 302.7469Q449.6265 303.09064 449.98587 303.7Q450.36087 304.3094 450.36087 304.9969Q450.36087 305.6375 450.01712 306.16876Q449.67337 306.7 448.98587 307.02814Q449.8765 307.23126 450.36087 307.8719Q450.86087 308.5125 450.86087 309.4969Q450.86087 310.8094 449.89212 311.71564Q448.939 312.6219 447.48587 312.6219Q446.15775 312.6219 445.28275 311.84064Q444.42337 311.0594 444.29837 309.8094ZM452.28275 307.5125Q452.28275 305.73126 452.64212 304.65314Q453.01712 303.5594 453.73587 302.98126Q454.45462 302.3875 455.54837 302.3875Q456.36087 302.3875 456.97025 302.71564Q457.57962 303.04376 457.97025 303.65314Q458.3765 304.2625 458.59525 305.1375Q458.814 306.0125 458.814 307.5125Q458.814 309.27814 458.45462 310.35626Q458.09525 311.4344 457.3765 312.02814Q456.65775 312.6219 455.54837 312.6219Q454.11087 312.6219 453.28275 311.575Q452.28275 310.325 452.28275 307.5125ZM453.54837 307.5125Q453.54837 309.98126 454.1265 310.79376Q454.70462 311.60626 455.54837 311.60626Q456.40775 311.60626 456.98587 310.79376Q457.564 309.96564 457.564 307.5125Q457.564 305.02814 456.98587 304.21564Q456.40775 303.40314 455.53275 303.40314Q454.689 303.40314 454.189 304.1219Q453.54837 305.04376 453.54837 307.5125Z" fill-rule="nonzero"/><path fill="#000000" d="M479.15625 303.7469L479.15625 302.5594L485.65625 302.5594L485.65625 303.5125Q484.6875 304.52814 483.75 306.21564Q482.8125 307.90314 482.29688 309.7Q481.9375 310.95 481.82812 312.45L480.5625 312.45Q480.57812 311.2625 481.01562 309.59064Q481.46875 307.91876 482.29688 306.3719Q483.14062 304.8094 484.07812 303.7469L479.15625 303.7469ZM487.76562 306.59064L487.76562 305.1844L489.17188 305.1844L489.17188 306.59064L487.76562 306.59064ZM487.76562 312.45L487.76562 311.04376L489.17188 311.04376L489.17188 312.45L487.76562 312.45ZM491.07812 307.5125Q491.07812 305.73126 491.4375 304.65314Q491.8125 303.5594 492.53125 302.98126Q493.25 302.3875 494.34375 302.3875Q495.15625 302.3875 495.76562 302.71564Q496.375 303.04376 496.76562 303.65314Q497.17188 304.2625 497.39062 305.1375Q497.60938 306.0125 497.60938 307.5125Q497.60938 309.27814 497.25 310.35626Q496.89062 311.4344 496.17188 312.02814Q495.45312 312.6219 494.34375 312.6219Q492.90625 312.6219 492.07812 311.575Q491.07812 310.325 491.07812 307.5125ZM492.34375 307.5125Q492.34375 309.98126 492.92188 310.79376Q493.5 311.60626 494.34375 311.60626Q495.20312 311.60626 495.78125 310.79376Q496.35938 309.96564 496.35938 307.5125Q496.35938 305.02814 495.78125 304.21564Q495.20312 303.40314 494.32812 303.40314Q493.48438 303.40314 492.98438 304.1219Q492.34375 305.04376 492.34375 307.5125ZM499.07812 307.5125Q499.07812 305.73126 499.4375 304.65314Q499.8125 303.5594 500.53125 302.98126Q501.25 302.3875 502.34375 302.3875Q503.15625 302.3875 503.76562 302.71564Q504.375 303.04376 504.76562 303.65314Q505.17188 304.2625 505.39062 305.1375Q505.60938 306.0125 505.60938 307.5125Q505.60938 309.27814 505.25 310.35626Q504.89062 311.4344 504.17188 312.02814Q503.45312 312.6219 502.34375 312.6219Q500.90625 312.6219 500.07812 311.575Q499.07812 310.325 499.07812 307.5125ZM500.34375 307.5125Q500.34375 309.98126 500.92188 310.79376Q501.5 311.60626 502.34375 311.60626Q503.20312 311.60626 503.78125 310.79376Q504.35938 309.96564 504.35938 307.5125Q504.35938 305.02814 503.78125 304.21564Q503.20312 303.40314 502.32812 303.40314Q501.48438 303.40314 500.98438 304.1219Q500.34375 305.04376 500.34375 307.5125Z" fill-rule="nonzero"/><path fill="#000000" d="M525.95166 303.7469L525.95166 302.5594L532.45166 302.5594L532.45166 303.5125Q531.4829 304.52814 530.5454 306.21564Q529.6079 307.90314 529.0923 309.7Q528.7329 310.95 528.62354 312.45L527.3579 312.45Q527.37354 311.2625 527.81104 309.59064Q528.26416 307.91876 529.0923 306.3719Q529.93604 304.8094 530.87354 303.7469L525.95166 303.7469ZM534.56104 306.59064L534.56104 305.1844L535.9673 305.1844L535.9673 306.59064L534.56104 306.59064ZM534.56104 312.45L534.56104 311.04376L535.9673 311.04376L535.9673 312.45L534.56104 312.45ZM537.88916 309.8094L539.1079 309.6375Q539.32666 310.6844 539.82666 311.15314Q540.3423 311.60626 541.07666 311.60626Q541.95166 311.60626 542.5454 311.0125Q543.13916 310.40314 543.13916 309.5125Q543.13916 308.66876 542.57666 308.1219Q542.0298 307.575 541.18604 307.575Q540.82666 307.575 540.31104 307.7L540.45166 306.6219Q540.57666 306.6375 540.63916 306.6375Q541.43604 306.6375 542.06104 306.23126Q542.68604 305.825 542.68604 304.96564Q542.68604 304.29376 542.2329 303.85626Q541.7798 303.40314 541.0454 303.40314Q540.32666 303.40314 539.8423 303.85626Q539.37354 304.29376 539.2329 305.2L538.01416 304.98126Q538.2329 303.7469 539.0298 303.075Q539.82666 302.3875 541.01416 302.3875Q541.8423 302.3875 542.5298 302.7469Q543.2173 303.09064 543.57666 303.7Q543.95166 304.3094 543.95166 304.9969Q543.95166 305.6375 543.6079 306.16876Q543.26416 306.7 542.57666 307.02814Q543.4673 307.23126 543.95166 307.8719Q544.45166 308.5125 544.45166 309.4969Q544.45166 310.8094 543.4829 311.71564Q542.5298 312.6219 541.07666 312.6219Q539.74854 312.6219 538.87354 311.84064Q538.01416 311.0594 537.88916 309.8094ZM545.87354 307.5125Q545.87354 305.73126 546.2329 304.65314Q546.6079 303.5594 547.32666 302.98126Q548.0454 302.3875 549.13916 302.3875Q549.95166 302.3875 550.56104 302.71564Q551.1704 303.04376 551.56104 303.65314Q551.9673 304.2625 552.18604 305.1375Q552.4048 306.0125 552.4048 307.5125Q552.4048 309.27814 552.0454 310.35626Q551.68604 311.4344 550.9673 312.02814Q550.24854 312.6219 549.13916 312.6219Q547.70166 312.6219 546.87354 311.575Q545.87354 310.325 545.87354 307.5125ZM547.13916 307.5125Q547.13916 309.98126 547.7173 310.79376Q548.2954 311.60626 549.13916 311.60626Q549.99854 311.60626 550.57666 310.79376Q551.1548 309.96564 551.1548 307.5125Q551.1548 305.02814 550.57666 304.21564Q549.99854 303.40314 549.12354 303.40314Q548.2798 303.40314 547.7798 304.1219Q547.13916 305.04376 547.13916 307.5125Z" fill-rule="nonzero"/><path fill="#000000" d="M574.5595 307.0125Q573.7939 306.73126 573.4189 306.21564Q573.0595 305.7 573.0595 304.96564Q573.0595 303.8719 573.84076 303.1375Q574.63763 302.3875 575.9345 302.3875Q577.247 302.3875 578.0439 303.15314Q578.8564 303.91876 578.8564 305.0125Q578.8564 305.7 578.4814 306.21564Q578.122 306.73126 577.372 307.0125Q578.2939 307.3094 578.77826 307.98126Q579.26263 308.65314 579.26263 309.59064Q579.26263 310.8719 578.3564 311.7469Q577.45013 312.6219 575.96576 312.6219Q574.4814 312.6219 573.5595 311.7469Q572.65326 310.85626 572.65326 309.54376Q572.65326 308.575 573.15326 307.91876Q573.65326 307.2469 574.5595 307.0125ZM574.32513 304.9344Q574.32513 305.6375 574.77826 306.09064Q575.2314 306.54376 575.96576 306.54376Q576.6845 306.54376 577.13763 306.10626Q577.59076 305.65314 577.59076 304.9969Q577.59076 304.325 577.122 303.8719Q576.65326 303.40314 575.95013 303.40314Q575.247 303.40314 574.77826 303.85626Q574.32513 304.29376 574.32513 304.9344ZM573.9189 309.5594Q573.9189 310.09064 574.1689 310.59064Q574.4189 311.075 574.90326 311.34064Q575.40326 311.60626 575.9814 311.60626Q576.8564 311.60626 577.4189 311.04376Q577.997 310.48126 577.997 309.60626Q577.997 308.71564 577.40326 308.1375Q576.82513 307.54376 575.9345 307.54376Q575.0595 307.54376 574.4814 308.1219Q573.9189 308.7 573.9189 309.5594ZM581.3564 306.59064L581.3564 305.1844L582.76263 305.1844L582.76263 306.59064L581.3564 306.59064ZM581.3564 312.45L581.3564 311.04376L582.76263 311.04376L582.76263 312.45L581.3564 312.45ZM584.6689 307.5125Q584.6689 305.73126 585.02826 304.65314Q585.40326 303.5594 586.122 302.98126Q586.84076 302.3875 587.9345 302.3875Q588.747 302.3875 589.3564 302.71564Q589.96576 303.04376 590.3564 303.65314Q590.76263 304.2625 590.9814 305.1375Q591.20013 306.0125 591.20013 307.5125Q591.20013 309.27814 590.84076 310.35626Q590.4814 311.4344 589.76263 312.02814Q589.0439 312.6219 587.9345 312.6219Q586.497 312.6219 585.6689 311.575Q584.6689 310.325 584.6689 307.5125ZM585.9345 307.5125Q585.9345 309.98126 586.51263 310.79376Q587.09076 311.60626 587.9345 311.60626Q588.7939 311.60626 589.372 310.79376Q589.95013 309.96564 589.95013 307.5125Q589.95013 305.02814 589.372 304.21564Q588.7939 303.40314 587.9189 303.40314Q587.07513 303.40314 586.57513 304.1219Q585.9345 305.04376 585.9345 307.5125ZM592.6689 307.5125Q592.6689 305.73126 593.02826 304.65314Q593.40326 303.5594 594.122 302.98126Q594.84076 302.3875 595.9345 302.3875Q596.747 302.3875 597.3564 302.71564Q597.96576 303.04376 598.3564 303.65314Q598.76263 304.2625 598.9814 305.1375Q599.20013 306.0125 599.20013 307.5125Q599.20013 309.27814 598.84076 310.35626Q598.4814 311.4344 597.76263 312.02814Q597.0439 312.6219 595.9345 312.6219Q594.497 312.6219 593.6689 311.575Q592.6689 310.325 592.6689 307.5125ZM593.9345 307.5125Q593.9345 309.98126 594.51263 310.79376Q595.09076 311.60626 595.9345 311.60626Q596.7939 311.60626 597.372 310.79376Q597.95013 309.96564 597.95013 307.5125Q597.95013 305.02814 597.372 304.21564Q596.7939 303.40314 595.9189 303.40314Q595.07513 303.40314 594.57513 304.1219Q593.9345 305.04376 593.9345 307.5125Z" fill-rule="nonzero"/><path fill="#000000" d="M621.3549 307.0125Q620.5893 306.73126 620.2143 306.21564Q619.8549 305.7 619.8549 304.96564Q619.8549 303.8719 620.63617 303.1375Q621.43304 302.3875 622.7299 302.3875Q624.0424 302.3875 624.8393 303.15314Q625.6518 303.91876 625.6518 305.0125Q625.6518 305.7 625.2768 306.21564Q624.9174 306.73126 624.1674 307.0125Q625.0893 307.3094 625.57367 307.98126Q626.05804 308.65314 626.05804 309.59064Q626.05804 310.8719 625.1518 311.7469Q624.24554 312.6219 622.76117 312.6219Q621.2768 312.6219 620.3549 311.7469Q619.44867 310.85626 619.44867 309.54376Q619.44867 308.575 619.94867 307.91876Q620.44867 307.2469 621.3549 307.0125ZM621.12054 304.9344Q621.12054 305.6375 621.57367 306.09064Q622.0268 306.54376 622.76117 306.54376Q623.4799 306.54376 623.93304 306.10626Q624.38617 305.65314 624.38617 304.9969Q624.38617 304.325 623.9174 303.8719Q623.44867 303.40314 622.74554 303.40314Q622.0424 303.40314 621.57367 303.85626Q621.12054 304.29376 621.12054 304.9344ZM620.7143 309.5594Q620.7143 310.09064 620.9643 310.59064Q621.2143 311.075 621.69867 311.34064Q622.19867 311.60626 622.7768 311.60626Q623.6518 311.60626 624.2143 311.04376Q624.7924 310.48126 624.7924 309.60626Q624.7924 308.71564 624.19867 308.1375Q623.62054 307.54376 622.7299 307.54376Q621.8549 307.54376 621.2768 308.1219Q620.7143 308.7 620.7143 309.5594ZM628.1518 306.59064L628.1518 305.1844L629.55804 305.1844L629.55804 306.59064L628.1518 306.59064ZM628.1518 312.45L628.1518 311.04376L629.55804 311.04376L629.55804 312.45L628.1518 312.45ZM631.4799 309.8094L632.69867 309.6375Q632.9174 310.6844 633.4174 311.15314Q633.93304 311.60626 634.6674 311.60626Q635.5424 311.60626 636.13617 311.0125Q636.7299 310.40314 636.7299 309.5125Q636.7299 308.66876 636.1674 308.1219Q635.62054 307.575 634.7768 307.575Q634.4174 307.575 633.9018 307.7L634.0424 306.6219Q634.1674 306.6375 634.2299 306.6375Q635.0268 306.6375 635.6518 306.23126Q636.2768 305.825 636.2768 304.96564Q636.2768 304.29376 635.82367 303.85626Q635.37054 303.40314 634.63617 303.40314Q633.9174 303.40314 633.43304 303.85626Q632.9643 304.29376 632.82367 305.2L631.6049 304.98126Q631.82367 303.7469 632.62054 303.075Q633.4174 302.3875 634.6049 302.3875Q635.43304 302.3875 636.12054 302.7469Q636.80804 303.09064 637.1674 303.7Q637.5424 304.3094 637.5424 304.9969Q637.5424 305.6375 637.19867 306.16876Q636.8549 306.7 636.1674 307.02814Q637.05804 307.23126 637.5424 307.8719Q638.0424 308.5125 638.0424 309.4969Q638.0424 310.8094 637.07367 311.71564Q636.12054 312.6219 634.6674 312.6219Q633.3393 312.6219 632.4643 311.84064Q631.6049 311.0594 631.4799 309.8094ZM639.4643 307.5125Q639.4643 305.73126 639.82367 304.65314Q640.19867 303.5594 640.9174 302.98126Q641.63617 302.3875 642.7299 302.3875Q643.5424 302.3875 644.1518 302.71564Q644.76117 303.04376 645.1518 303.65314Q645.55804 304.2625 645.7768 305.1375Q645.99554 306.0125 645.99554 307.5125Q645.99554 309.27814 645.63617 310.35626Q645.2768 311.4344 644.55804 312.02814Q643.8393 312.6219 642.7299 312.6219Q641.2924 312.6219 640.4643 311.575Q639.4643 310.325 639.4643 307.5125ZM640.7299 307.5125Q640.7299 309.98126 641.30804 310.79376Q641.88617 311.60626 642.7299 311.60626Q643.5893 311.60626 644.1674 310.79376Q644.74554 309.96564 644.74554 307.5125Q644.74554 305.02814 644.1674 304.21564Q643.5893 303.40314 642.7143 303.40314Q641.87054 303.40314 641.37054 304.1219Q640.7299 305.04376 640.7299 307.5125Z" fill-rule="nonzero"/><path fill="#000000" d="M666.4472 310.1375L667.6347 310.02814Q667.7753 310.85626 668.1972 311.23126Q668.6347 311.60626 669.29095 311.60626Q669.85345 311.60626 670.2753 311.35626Q670.7128 311.09064 670.97845 310.65314Q671.2597 310.21564 671.4472 309.48126Q671.6347 308.7469 671.6347 307.98126Q671.6347 307.90314 671.6191 307.73126Q671.2597 308.325 670.6191 308.7Q669.97845 309.0594 669.22845 309.0594Q667.97845 309.0594 667.1191 308.15314Q666.2597 307.2469 666.2597 305.77814Q666.2597 304.2469 667.1503 303.325Q668.0566 302.3875 669.41595 302.3875Q670.3847 302.3875 671.1972 302.91876Q672.0097 303.4344 672.4316 304.41876Q672.85345 305.3875 672.85345 307.23126Q672.85345 309.15314 672.4316 310.29376Q672.0253 311.4344 671.1972 312.02814Q670.3691 312.6219 669.2597 312.6219Q668.0878 312.6219 667.3378 311.96564Q666.60345 311.3094 666.4472 310.1375ZM671.47845 305.71564Q671.47845 304.65314 670.91595 304.02814Q670.35345 303.40314 669.5722 303.40314Q668.7441 303.40314 668.1347 304.075Q667.5253 304.7469 667.5253 305.8094Q667.5253 306.7625 668.10345 307.3719Q668.6816 307.96564 669.5253 307.96564Q670.3847 307.96564 670.9316 307.3719Q671.47845 306.7625 671.47845 305.71564ZM674.9472 306.59064L674.9472 305.1844L676.35345 305.1844L676.35345 306.59064L674.9472 306.59064ZM674.9472 312.45L674.9472 311.04376L676.35345 311.04376L676.35345 312.45L674.9472 312.45ZM678.2597 307.5125Q678.2597 305.73126 678.6191 304.65314Q678.9941 303.5594 679.7128 302.98126Q680.4316 302.3875 681.5253 302.3875Q682.3378 302.3875 682.9472 302.71564Q683.5566 303.04376 683.9472 303.65314Q684.35345 304.2625 684.5722 305.1375Q684.79095 306.0125 684.79095 307.5125Q684.79095 309.27814 684.4316 310.35626Q684.0722 311.4344 683.35345 312.02814Q682.6347 312.6219 681.5253 312.6219Q680.0878 312.6219 679.2597 311.575Q678.2597 310.325 678.2597 307.5125ZM679.5253 307.5125Q679.5253 309.98126 680.10345 310.79376Q680.6816 311.60626 681.5253 311.60626Q682.3847 311.60626 682.9628 310.79376Q683.54095 309.96564 683.54095 307.5125Q683.54095 305.02814 682.9628 304.21564Q682.3847 303.40314 681.5097 303.40314Q680.66595 303.40314 680.16595 304.1219Q679.5253 305.04376 679.5253 307.5125ZM686.2597 307.5125Q686.2597 305.73126 686.6191 304.65314Q686.9941 303.5594 687.7128 302.98126Q688.4316 302.3875 689.5253 302.3875Q690.3378 302.3875 690.9472 302.71564Q691.5566 303.04376 691.9472 303.65314Q692.35345 304.2625 692.5722 305.1375Q692.79095 306.0125 692.79095 307.5125Q692.79095 309.27814 692.4316 310.35626Q692.0722 311.4344 691.35345 312.02814Q690.6347 312.6219 689.5253 312.6219Q688.0878 312.6219 687.2597 311.575Q686.2597 310.325 686.2597 307.5125ZM687.5253 307.5125Q687.5253 309.98126 688.10345 310.79376Q688.6816 311.60626 689.5253 311.60626Q690.3847 311.60626 690.9628 310.79376Q691.54095 309.96564 691.54095 307.5125Q691.54095 305.02814 690.9628 304.21564Q690.3847 303.40314 689.5097 303.40314Q688.66595 303.40314 688.16595 304.1219Q687.5253 305.04376 687.5253 307.5125Z" fill-rule="nonzero"/><path fill="#000000" d="M713.24255 310.1375L714.43005 310.02814Q714.5707 310.85626 714.99255 311.23126Q715.43005 311.60626 716.0863 311.60626Q716.6488 311.60626 717.0707 311.35626Q717.5082 311.09064 717.7738 310.65314Q718.05505 310.21564 718.24255 309.48126Q718.43005 308.7469 718.43005 307.98126Q718.43005 307.90314 718.4144 307.73126Q718.05505 308.325 717.4144 308.7Q716.7738 309.0594 716.0238 309.0594Q714.7738 309.0594 713.9144 308.15314Q713.05505 307.2469 713.05505 305.77814Q713.05505 304.2469 713.9457 303.325Q714.8519 302.3875 716.2113 302.3875Q717.18005 302.3875 717.99255 302.91876Q718.80505 303.4344 719.2269 304.41876Q719.6488 305.3875 719.6488 307.23126Q719.6488 309.15314 719.2269 310.29376Q718.8207 311.4344 717.99255 312.02814Q717.1644 312.6219 716.05505 312.6219Q714.8832 312.6219 714.1332 311.96564Q713.3988 311.3094 713.24255 310.1375ZM718.2738 305.71564Q718.2738 304.65314 717.7113 304.02814Q717.1488 303.40314 716.36755 303.40314Q715.5394 303.40314 714.93005 304.075Q714.3207 304.7469 714.3207 305.8094Q714.3207 306.7625 714.8988 307.3719Q715.4769 307.96564 716.3207 307.96564Q717.18005 307.96564 717.7269 307.3719Q718.2738 306.7625 718.2738 305.71564ZM721.74255 306.59064L721.74255 305.1844L723.1488 305.1844L723.1488 306.59064L721.74255 306.59064ZM721.74255 312.45L721.74255 311.04376L723.1488 311.04376L723.1488 312.45L721.74255 312.45ZM725.0707 309.8094L726.2894 309.6375Q726.5082 310.6844 727.0082 311.15314Q727.5238 311.60626 728.2582 311.60626Q729.1332 311.60626 729.7269 311.0125Q730.3207 310.40314 730.3207 309.5125Q730.3207 308.66876 729.7582 308.1219Q729.2113 307.575 728.36755 307.575Q728.0082 307.575 727.49255 307.7L727.6332 306.6219Q727.7582 306.6375 727.8207 306.6375Q728.61755 306.6375 729.24255 306.23126Q729.86755 305.825 729.86755 304.96564Q729.86755 304.29376 729.4144 303.85626Q728.9613 303.40314 728.2269 303.40314Q727.5082 303.40314 727.0238 303.85626Q726.55505 304.29376 726.4144 305.2L725.1957 304.98126Q725.4144 303.7469 726.2113 303.075Q727.0082 302.3875 728.1957 302.3875Q729.0238 302.3875 729.7113 302.7469Q730.3988 303.09064 730.7582 303.7Q731.1332 304.3094 731.1332 304.9969Q731.1332 305.6375 730.7894 306.16876Q730.4457 306.7 729.7582 307.02814Q730.6488 307.23126 731.1332 307.8719Q731.6332 308.5125 731.6332 309.4969Q731.6332 310.8094 730.6644 311.71564Q729.7113 312.6219 728.2582 312.6219Q726.93005 312.6219 726.05505 311.84064Q725.1957 311.0594 725.0707 309.8094ZM733.05505 307.5125Q733.05505 305.73126 733.4144 304.65314Q733.7894 303.5594 734.5082 302.98126Q735.2269 302.3875 736.3207 302.3875Q737.1332 302.3875 737.74255 302.71564Q738.3519 303.04376 738.74255 303.65314Q739.1488 304.2625 739.36755 305.1375Q739.5863 306.0125 739.5863 307.5125Q739.5863 309.27814 739.2269 310.35626Q738.86755 311.4344 738.1488 312.02814Q737.43005 312.6219 736.3207 312.6219Q734.8832 312.6219 734.05505 311.575Q733.05505 310.325 733.05505 307.5125ZM734.3207 307.5125Q734.3207 309.98126 734.8988 310.79376Q735.4769 311.60626 736.3207 311.60626Q737.18005 311.60626 737.7582 310.79376Q738.3363 309.96564 738.3363 307.5125Q738.3363 305.02814 737.7582 304.21564Q737.18005 303.40314 736.30505 303.40314Q735.4613 303.40314 734.9613 304.1219Q734.3207 305.04376 734.3207 307.5125Z" fill-rule="nonzero"/><path fill="#000000" d="M760.4911 312.45L759.2567 312.45L759.2567 304.60626Q758.8192 305.02814 758.08484 305.46564Q757.3661 305.8875 756.8036 306.09064L756.8036 304.90314Q757.83484 304.41876 758.60046 303.73126Q759.3817 303.04376 759.6942 302.3875L760.4911 302.3875L760.4911 312.45ZM763.85046 307.5125Q763.85046 305.73126 764.20984 304.65314Q764.58484 303.5594 765.3036 302.98126Q766.02234 302.3875 767.1161 302.3875Q767.9286 302.3875 768.53796 302.71564Q769.14734 303.04376 769.53796 303.65314Q769.9442 304.2625 770.16296 305.1375Q770.3817 306.0125 770.3817 307.5125Q770.3817 309.27814 770.02234 310.35626Q769.66296 311.4344 768.9442 312.02814Q768.22546 312.6219 767.1161 312.6219Q765.6786 312.6219 764.85046 311.575Q763.85046 310.325 763.85046 307.5125ZM765.1161 307.5125Q765.1161 309.98126 765.6942 310.79376Q766.27234 311.60626 767.1161 311.60626Q767.97546 311.60626 768.5536 310.79376Q769.1317 309.96564 769.1317 307.5125Q769.1317 305.02814 768.5536 304.21564Q767.97546 303.40314 767.10046 303.40314Q766.2567 303.40314 765.7567 304.1219Q765.1161 305.04376 765.1161 307.5125ZM772.53796 306.59064L772.53796 305.1844L773.9442 305.1844L773.9442 306.59064L772.53796 306.59064ZM772.53796 312.45L772.53796 311.04376L773.9442 311.04376L773.9442 312.45L772.53796 312.45ZM775.85046 307.5125Q775.85046 305.73126 776.20984 304.65314Q776.58484 303.5594 777.3036 302.98126Q778.02234 302.3875 779.1161 302.3875Q779.9286 302.3875 780.53796 302.71564Q781.14734 303.04376 781.53796 303.65314Q781.9442 304.2625 782.16296 305.1375Q782.3817 306.0125 782.3817 307.5125Q782.3817 309.27814 782.02234 310.35626Q781.66296 311.4344 780.9442 312.02814Q780.22546 312.6219 779.1161 312.6219Q777.6786 312.6219 776.85046 311.575Q775.85046 310.325 775.85046 307.5125ZM777.1161 307.5125Q777.1161 309.98126 777.6942 310.79376Q778.27234 311.60626 779.1161 311.60626Q779.97546 311.60626 780.5536 310.79376Q781.1317 309.96564 781.1317 307.5125Q781.1317 305.02814 780.5536 304.21564Q779.97546 303.40314 779.10046 303.40314Q778.2567 303.40314 777.7567 304.1219Q777.1161 305.04376 777.1161 307.5125ZM783.85046 307.5125Q783.85046 305.73126 784.20984 304.65314Q784.58484 303.5594 785.3036 302.98126Q786.02234 302.3875 787.1161 302.3875Q787.9286 302.3875 788.53796 302.71564Q789.14734 303.04376 789.53796 303.65314Q789.9442 304.2625 790.16296 305.1375Q790.3817 306.0125 790.3817 307.5125Q790.3817 309.27814 790.02234 310.35626Q789.66296 311.4344 788.9442 312.02814Q788.22546 312.6219 787.1161 312.6219Q785.6786 312.6219 784.85046 311.575Q783.85046 310.325 783.85046 307.5125ZM785.1161 307.5125Q785.1161 309.98126 785.6942 310.79376Q786.27234 311.60626 787.1161 311.60626Q787.97546 311.60626 788.5536 310.79376Q789.1317 309.96564 789.1317 307.5125Q789.1317 305.02814 788.5536 304.21564Q787.97546 303.40314 787.10046 303.40314Q786.2567 303.40314 785.7567 304.1219Q785.1161 305.04376 785.1161 307.5125Z" fill-rule="nonzero"/><path fill="#000000" d="M807.2865 312.45L806.0521 312.45L806.0521 304.60626Q805.6146 305.02814 804.88025 305.46564Q804.1615 305.8875 803.599 306.09064L803.599 304.90314Q804.63025 304.41876 805.3959 303.73126Q806.1771 303.04376 806.4896 302.3875L807.2865 302.3875L807.2865 312.45ZM810.6459 307.5125Q810.6459 305.73126 811.00525 304.65314Q811.38025 303.5594 812.099 302.98126Q812.81775 302.3875 813.9115 302.3875Q814.724 302.3875 815.3334 302.71564Q815.94275 303.04376 816.3334 303.65314Q816.7396 304.2625 816.9584 305.1375Q817.1771 306.0125 817.1771 307.5125Q817.1771 309.27814 816.81775 310.35626Q816.4584 311.4344 815.7396 312.02814Q815.0209 312.6219 813.9115 312.6219Q812.474 312.6219 811.6459 311.575Q810.6459 310.325 810.6459 307.5125ZM811.9115 307.5125Q811.9115 309.98126 812.4896 310.79376Q813.06775 311.60626 813.9115 311.60626Q814.7709 311.60626 815.349 310.79376Q815.9271 309.96564 815.9271 307.5125Q815.9271 305.02814 815.349 304.21564Q814.7709 303.40314 813.8959 303.40314Q813.0521 303.40314 812.5521 304.1219Q811.9115 305.04376 811.9115 307.5125ZM819.3334 306.59064L819.3334 305.1844L820.7396 305.1844L820.7396 306.59064L819.3334 306.59064ZM819.3334 312.45L819.3334 311.04376L820.7396 311.04376L820.7396 312.45L819.3334 312.45ZM822.6615 309.8094L823.88025 309.6375Q824.099 310.6844 824.599 311.15314Q825.1146 311.60626 825.849 311.60626Q826.724 311.60626 827.31775 311.0125Q827.9115 310.40314 827.9115 309.5125Q827.9115 308.66876 827.349 308.1219Q826.8021 307.575 825.9584 307.575Q825.599 307.575 825.0834 307.7L825.224 306.6219Q825.349 306.6375 825.4115 306.6375Q826.2084 306.6375 826.8334 306.23126Q827.4584 305.825 827.4584 304.96564Q827.4584 304.29376 827.00525 303.85626Q826.5521 303.40314 825.81775 303.40314Q825.099 303.40314 824.6146 303.85626Q824.1459 304.29376 824.00525 305.2L822.7865 304.98126Q823.00525 303.7469 823.8021 303.075Q824.599 302.3875 825.7865 302.3875Q826.6146 302.3875 827.3021 302.7469Q827.9896 303.09064 828.349 303.7Q828.724 304.3094 828.724 304.9969Q828.724 305.6375 828.38025 306.16876Q828.0365 306.7 827.349 307.02814Q828.2396 307.23126 828.724 307.8719Q829.224 308.5125 829.224 309.4969Q829.224 310.8094 828.25525 311.71564Q827.3021 312.6219 825.849 312.6219Q824.5209 312.6219 823.6459 311.84064Q822.7865 311.0594 822.6615 309.8094ZM830.6459 307.5125Q830.6459 305.73126 831.00525 304.65314Q831.38025 303.5594 832.099 302.98126Q832.81775 302.3875 833.9115 302.3875Q834.724 302.3875 835.3334 302.71564Q835.94275 303.04376 836.3334 303.65314Q836.7396 304.2625 836.9584 305.1375Q837.1771 306.0125 837.1771 307.5125Q837.1771 309.27814 836.81775 310.35626Q836.4584 311.4344 835.7396 312.02814Q835.0209 312.6219 833.9115 312.6219Q832.474 312.6219 831.6459 311.575Q830.6459 310.325 830.6459 307.5125ZM831.9115 307.5125Q831.9115 309.98126 832.4896 310.79376Q833.06775 311.60626 833.9115 311.60626Q834.7709 311.60626 835.349 310.79376Q835.9271 309.96564 835.9271 307.5125Q835.9271 305.02814 835.349 304.21564Q834.7709 303.40314 833.8959 303.40314Q833.0521 303.40314 832.5521 304.1219Q831.9115 305.04376 831.9115 307.5125Z" fill-rule="nonzero"/><path fill="#000000" d="M854.08185 312.45L852.8475 312.45L852.8475 304.60626Q852.41 305.02814 851.6756 305.46564Q850.95685 305.8875 850.39435 306.09064L850.39435 304.90314Q851.4256 304.41876 852.1912 303.73126Q852.9725 303.04376 853.285 302.3875L854.08185 302.3875L854.08185 312.45ZM862.08185 312.45L860.8475 312.45L860.8475 304.60626Q860.41 305.02814 859.6756 305.46564Q858.95685 305.8875 858.39435 306.09064L858.39435 304.90314Q859.4256 304.41876 860.1912 303.73126Q860.9725 303.04376 861.285 302.3875L862.08185 302.3875L862.08185 312.45ZM866.1287 306.59064L866.1287 305.1844L867.535 305.1844L867.535 306.59064L866.1287 306.59064ZM866.1287 312.45L866.1287 311.04376L867.535 311.04376L867.535 312.45L866.1287 312.45ZM869.4412 307.5125Q869.4412 305.73126 869.8006 304.65314Q870.1756 303.5594 870.89435 302.98126Q871.6131 302.3875 872.70685 302.3875Q873.51935 302.3875 874.1287 302.71564Q874.7381 303.04376 875.1287 303.65314Q875.535 304.2625 875.7537 305.1375Q875.9725 306.0125 875.9725 307.5125Q875.9725 309.27814 875.6131 310.35626Q875.2537 311.4344 874.535 312.02814Q873.8162 312.6219 872.70685 312.6219Q871.26935 312.6219 870.4412 311.575Q869.4412 310.325 869.4412 307.5125ZM870.70685 307.5125Q870.70685 309.98126 871.285 310.79376Q871.8631 311.60626 872.70685 311.60626Q873.5662 311.60626 874.14435 310.79376Q874.7225 309.96564 874.7225 307.5125Q874.7225 305.02814 874.14435 304.21564Q873.5662 303.40314 872.6912 303.40314Q871.8475 303.40314 871.3475 304.1219Q870.70685 305.04376 870.70685 307.5125ZM877.4412 307.5125Q877.4412 305.73126 877.8006 304.65314Q878.1756 303.5594 878.89435 302.98126Q879.6131 302.3875 880.70685 302.3875Q881.51935 302.3875 882.1287 302.71564Q882.7381 303.04376 883.1287 303.65314Q883.535 304.2625 883.7537 305.1375Q883.9725 306.0125 883.9725 307.5125Q883.9725 309.27814 883.6131 310.35626Q883.2537 311.4344 882.535 312.02814Q881.8162 312.6219 880.70685 312.6219Q879.26935 312.6219 878.4412 311.575Q877.4412 310.325 877.4412 307.5125ZM878.70685 307.5125Q878.70685 309.98126 879.285 310.79376Q879.8631 311.60626 880.70685 311.60626Q881.5662 311.60626 882.14435 310.79376Q882.7225 309.96564 882.7225 307.5125Q882.7225 305.02814 882.14435 304.21564Q881.5662 303.40314 880.6912 303.40314Q879.8475 303.40314 879.3475 304.1219Q878.70685 305.04376 878.70685 307.5125Z" fill-rule="nonzero"/></svg>