<svg version="1.1" viewBox="0.0 0.0 917.0 371.0" fill="none" stroke="none" stroke-linecap="square" stroke-miterlimit="10" width="917" height="371" xmlns:xlink="http://www.w3.org/1999/xlink" xmlns="http://www.w3.org/2000/svg"><path fill="#ffffff" d="M0 0L917.0 0L917.0 371.0L0 371.0L0 0Z" fill-rule="nonzero"/><path stroke="#333333" stroke-width="1.0" stroke-linecap="butt" d="M82.5 292.5L898.5 292.5" fill-rule="nonzero"/><path stroke="#cccccc" stroke-width="1.0" stroke-linecap="butt" d="M82.5 244.5L898.5 244.5" fill-rule="nonzero"/><path stroke="#cccccc" stroke-width="1.0" stroke-linecap="butt" d="M82.5 197.5L898.5 197.5" fill-rule="nonzero"/><path stroke="#cccccc" stroke-width="1.0" stroke-linecap="butt" d="M82.5 149.5L898.5 149.5" fill-rule="nonzero"/><path stroke="#cccccc" stroke-width="1.0" stroke-linecap="butt" d="M82.5 101.5L898.5 101.5" fill-rule="nonzero"/><path stroke="#cccccc" stroke-width="1.0" stroke-linecap="butt" d="M82.5 53.5L898.5 53.5" fill-rule="nonzero"/><clipPath id="id_0"><path d="M82.55 53.916668L898.45 53.916668L898.45 292.45L82.55 292.45L82.55 53.916668Z" clip-rule="nonzero"/></clipPath><path stroke="#000000" stroke-width="0.0" stroke-linecap="butt" stroke-opacity="0.0" clip-path="url(#id_0)" d="M115.0 292.0L100.0 292.0L100.0 291.0C100.0 290.44772 100.447716 290.0 101.0 290.0L114.0 290.0C114.552284 290.0 115.0 290.44772 115.0 291.0Z" fill-rule="nonzero"/><path fill="#f1c232" clip-path="url(#id_0)" d="M115.0 292.0L100.0 292.0L100.0 291.0C100.0 290.44772 100.447716 290.0 101.0 290.0L114.0 290.0C114.552284 290.0 115.0 290.44772 115.0 291.0Z" fill-rule="nonzero"/><path stroke="#000000" stroke-width="0.0" stroke-linecap="butt" stroke-opacity="0.0" clip-path="url(#id_0)" d="M165.0 292.0L150.0 292.0L150.0 292.0L165.0 292.0Z" fill-rule="nonzero"/><path fill="#f1c232" clip-path="url(#id_0)" d="M165.0 292.0L150.0 292.0L150.0 292.0L165.0 292.0Z" fill-rule="nonzero"/><path stroke="#000000" stroke-width="0.0" stroke-linecap="butt" stroke-opacity="0.0" clip-path="url(#id_0)" d="M215.0 292.0L200.0 292.0L200.0 292.0L215.0 292.0Z" fill-rule="nonzero"/><path fill="#f1c232" clip-path="url(#id_0)" d="M215.0 292.0L200.0 292.0L200.0 292.0L215.0 292.0Z" fill-rule="nonzero"/><path stroke="#000000" stroke-width="0.0" stroke-linecap="butt" stroke-opacity="0.0" clip-path="url(#id_0)" d="M265.0 292.0L250.0 292.0L250.0 292.0L265.0 292.0Z" fill-rule="nonzero"/><path fill="#f1c232" clip-path="url(#id_0)" d="M265.0 292.0L250.0 292.0L250.0 292.0L265.0 292.0Z" fill-rule="nonzero"/><path stroke="#000000" stroke-width="0.0" stroke-linecap="butt" stroke-opacity="0.0" clip-path="url(#id_0)" d="M315.0 292.0L300.0 292.0L300.0 284.0C300.0 282.89542 300.89542 282.0 302.0 282.0L313.0 282.0C314.10458 282.0 315.0 282.89542 315.0 284.0Z" fill-rule="nonzero"/><path fill="#f1c232" clip-path="url(#id_0)" d="M315.0 292.0L300.0 292.0L300.0 284.0C300.0 282.89542 300.89542 282.0 302.0 282.0L313.0 282.0C314.10458 282.0 315.0 282.89542 315.0 284.0Z" fill-rule="nonzero"/><path stroke="#000000" stroke-width="0.0" stroke-linecap="butt" stroke-opacity="0.0" clip-path="url(#id_0)" d="M365.0 292.0L350.0 292.0L350.0 271.0C350.0 269.89542 350.89542 269.0 352.0 269.0L363.0 269.0C364.10458 269.0 365.0 269.89542 365.0 271.0Z" fill-rule="nonzero"/><path fill="#f1c232" clip-path="url(#id_0)" d="M365.0 292.0L350.0 292.0L350.0 271.0C350.0 269.89542 350.89542 269.0 352.0 269.0L363.0 269.0C364.10458 269.0 365.0 269.89542 365.0 271.0Z" fill-rule="nonzero"/><path stroke="#000000" stroke-width="0.0" stroke-linecap="butt" stroke-opacity="0.0" clip-path="url(#id_0)" d="M415.0 292.0L400.0 292.0L400.0 260.0C400.0 258.89542 400.89542 258.0 402.0 258.0L413.0 258.0C414.10458 258.0 415.0 258.89542 415.0 260.0Z" fill-rule="nonzero"/><path fill="#f1c232" clip-path="url(#id_0)" d="M415.0 292.0L400.0 292.0L400.0 260.0C400.0 258.89542 400.89542 258.0 402.0 258.0L413.0 258.0C414.10458 258.0 415.0 258.89542 415.0 260.0Z" fill-rule="nonzero"/><path stroke="#000000" stroke-width="0.0" stroke-linecap="butt" stroke-opacity="0.0" clip-path="url(#id_0)" d="M465.0 292.0L450.0 292.0L450.0 199.0C450.0 197.89543 450.89542 197.0 452.0 197.0L463.0 197.0C464.10458 197.0 465.0 197.89543 465.0 199.0Z" fill-rule="nonzero"/><path fill="#f1c232" clip-path="url(#id_0)" d="M465.0 292.0L450.0 292.0L450.0 199.0C450.0 197.89543 450.89542 197.0 452.0 197.0L463.0 197.0C464.10458 197.0 465.0 197.89543 465.0 199.0Z" fill-rule="nonzero"/><path stroke="#000000" stroke-width="0.0" stroke-linecap="butt" stroke-opacity="0.0" clip-path="url(#id_0)" d="M514.0 292.0L499.0 292.0L499.0 131.0C499.0 129.89543 499.89542 129.0 501.0 129.0L512.0 129.0C513.10455 129.0 514.0 129.89543 514.0 131.0Z" fill-rule="nonzero"/><path fill="#f1c232" clip-path="url(#id_0)" d="M514.0 292.0L499.0 292.0L499.0 131.0C499.0 129.89543 499.89542 129.0 501.0 129.0L512.0 129.0C513.10455 129.0 514.0 129.89543 514.0 131.0Z" fill-rule="nonzero"/><path stroke="#000000" stroke-width="0.0" stroke-linecap="butt" stroke-opacity="0.0" clip-path="url(#id_0)" d="M564.0 292.0L549.0 292.0L549.0 115.0C549.0 113.89543 549.89545 113.0 551.0 113.0L562.0 113.0C563.10455 113.0 564.0 113.89543 564.0 115.0Z" fill-rule="nonzero"/><path fill="#f1c232" clip-path="url(#id_0)" d="M564.0 292.0L549.0 292.0L549.0 115.0C549.0 113.89543 549.89545 113.0 551.0 113.0L562.0 113.0C563.10455 113.0 564.0 113.89543 564.0 115.0Z" fill-rule="nonzero"/><path stroke="#000000" stroke-width="0.0" stroke-linecap="butt" stroke-opacity="0.0" clip-path="url(#id_0)" d="M614.0 292.0L599.0 292.0L599.0 91.0C599.0 89.89543 599.89545 89.0 601.0 89.0L612.0 89.0C613.10455 89.0 614.0 89.89543 614.0 91.0Z" fill-rule="nonzero"/><path fill="#f1c232" clip-path="url(#id_0)" d="M614.0 292.0L599.0 292.0L599.0 91.0C599.0 89.89543 599.89545 89.0 601.0 89.0L612.0 89.0C613.10455 89.0 614.0 89.89543 614.0 91.0Z" fill-rule="nonzero"/><path stroke="#000000" stroke-width="0.0" stroke-linecap="butt" stroke-opacity="0.0" clip-path="url(#id_0)" d="M664.0 292.0L649.0 292.0L649.0 178.0C649.0 176.89543 649.89545 176.0 651.0 176.0L662.0 176.0C663.10455 176.0 664.0 176.89543 664.0 178.0Z" fill-rule="nonzero"/><path fill="#f1c232" clip-path="url(#id_0)" d="M664.0 292.0L649.0 292.0L649.0 178.0C649.0 176.89543 649.89545 176.0 651.0 176.0L662.0 176.0C663.10455 176.0 664.0 176.89543 664.0 178.0Z" fill-rule="nonzero"/><path stroke="#000000" stroke-width="0.0" stroke-linecap="butt" stroke-opacity="0.0" clip-path="url(#id_0)" d="M714.0 292.0L699.0 292.0L699.0 210.0C699.0 208.89543 699.89545 208.0 701.0 208.0L712.0 208.0C713.10455 208.0 714.0 208.89543 714.0 210.0Z" fill-rule="nonzero"/><path fill="#f1c232" clip-path="url(#id_0)" d="M714.0 292.0L699.0 292.0L699.0 210.0C699.0 208.89543 699.89545 208.0 701.0 208.0L712.0 208.0C713.10455 208.0 714.0 208.89543 714.0 210.0Z" fill-rule="nonzero"/><path stroke="#000000" stroke-width="0.0" stroke-linecap="butt" stroke-opacity="0.0" clip-path="url(#id_0)" d="M764.0 292.0L749.0 292.0L749.0 265.0C749.0 263.89542 749.89545 263.0 751.0 263.0L762.0 263.0C763.10455 263.0 764.0 263.89542 764.0 265.0Z" fill-rule="nonzero"/><path fill="#f1c232" clip-path="url(#id_0)" d="M764.0 292.0L749.0 292.0L749.0 265.0C749.0 263.89542 749.89545 263.0 751.0 263.0L762.0 263.0C763.10455 263.0 764.0 263.89542 764.0 265.0Z" fill-rule="nonzero"/><path stroke="#000000" stroke-width="0.0" stroke-linecap="butt" stroke-opacity="0.0" clip-path="url(#id_0)" d="M814.0 292.0L799.0 292.0L799.0 289.0C799.0 287.89542 799.89545 287.0 801.0 287.0L812.0 287.0C813.10455 287.0 814.0 287.89542 814.0 289.0Z" fill-rule="nonzero"/><path fill="#f1c232" clip-path="url(#id_0)" d="M814.0 292.0L799.0 292.0L799.0 289.0C799.0 287.89542 799.89545 287.0 801.0 287.0L812.0 287.0C813.10455 287.0 814.0 287.89542 814.0 289.0Z" fill-rule="nonzero"/><path stroke="#000000" stroke-width="0.0" stroke-linecap="butt" stroke-opacity="0.0" clip-path="url(#id_0)" d="M864.0 292.0L849.0 292.0L849.0 289.0C849.0 287.89542 849.89545 287.0 851.0 287.0L862.0 287.0C863.10455 287.0 864.0 287.89542 864.0 289.0Z" fill-rule="nonzero"/><path fill="#f1c232" clip-path="url(#id_0)" d="M864.0 292.0L849.0 292.0L849.0 289.0C849.0 287.89542 849.89545 287.0 851.0 287.0L862.0 287.0C863.10455 287.0 864.0 287.89542 864.0 289.0Z" fill-rule="nonzero"/><path stroke="#000000" stroke-width="0.0" stroke-linecap="butt" stroke-opacity="0.0" clip-path="url(#id_0)" d="M131.0 292.0L116.0 292.0L116.0 271.0C116.0 269.89542 116.89543 269.0 118.0 269.0L129.0 269.0C130.10457 269.0 131.0 269.89542 131.0 271.0Z" fill-rule="nonzero"/><path fill="#46bdc6" clip-path="url(#id_0)" d="M131.0 292.0L116.0 292.0L116.0 271.0C116.0 269.89542 116.89543 269.0 118.0 269.0L129.0 269.0C130.10457 269.0 131.0 269.89542 131.0 271.0Z" fill-rule="nonzero"/><path stroke="#000000" stroke-width="0.0" stroke-linecap="butt" stroke-opacity="0.0" clip-path="url(#id_0)" d="M181.0 292.0L166.0 292.0L166.0 281.0C166.0 279.89542 166.89543 279.0 168.0 279.0L179.0 279.0C180.10457 279.0 181.0 279.89542 181.0 281.0Z" fill-rule="nonzero"/><path fill="#46bdc6" clip-path="url(#id_0)" d="M181.0 292.0L166.0 292.0L166.0 281.0C166.0 279.89542 166.89543 279.0 168.0 279.0L179.0 279.0C180.10457 279.0 181.0 279.89542 181.0 281.0Z" fill-rule="nonzero"/><path stroke="#000000" stroke-width="0.0" stroke-linecap="butt" stroke-opacity="0.0" clip-path="url(#id_0)" d="M231.0 292.0L216.0 292.0L216.0 276.0C216.0 274.89542 216.89543 274.0 218.0 274.0L229.0 274.0C230.10457 274.0 231.0 274.89542 231.0 276.0Z" fill-rule="nonzero"/><path fill="#46bdc6" clip-path="url(#id_0)" d="M231.0 292.0L216.0 292.0L216.0 276.0C216.0 274.89542 216.89543 274.0 218.0 274.0L229.0 274.0C230.10457 274.0 231.0 274.89542 231.0 276.0Z" fill-rule="nonzero"/><path stroke="#000000" stroke-width="0.0" stroke-linecap="butt" stroke-opacity="0.0" clip-path="url(#id_0)" d="M281.0 292.0L266.0 292.0L266.0 223.0C266.0 221.89543 266.89542 221.0 268.0 221.0L279.0 221.0C280.10458 221.0 281.0 221.89543 281.0 223.0Z" fill-rule="nonzero"/><path fill="#46bdc6" clip-path="url(#id_0)" d="M281.0 292.0L266.0 292.0L266.0 223.0C266.0 221.89543 266.89542 221.0 268.0 221.0L279.0 221.0C280.10458 221.0 281.0 221.89543 281.0 223.0Z" fill-rule="nonzero"/><path stroke="#000000" stroke-width="0.0" stroke-linecap="butt" stroke-opacity="0.0" clip-path="url(#id_0)" d="M331.0 292.0L316.0 292.0L316.0 183.0C316.0 181.89543 316.89542 181.0 318.0 181.0L329.0 181.0C330.10458 181.0 331.0 181.89543 331.0 183.0Z" fill-rule="nonzero"/><path fill="#46bdc6" clip-path="url(#id_0)" d="M331.0 292.0L316.0 292.0L316.0 183.0C316.0 181.89543 316.89542 181.0 318.0 181.0L329.0 181.0C330.10458 181.0 331.0 181.89543 331.0 183.0Z" fill-rule="nonzero"/><path stroke="#000000" stroke-width="0.0" stroke-linecap="butt" stroke-opacity="0.0" clip-path="url(#id_0)" d="M381.0 292.0L366.0 292.0L366.0 99.0C366.0 97.89543 366.89542 97.0 368.0 97.0L379.0 97.0C380.10458 97.0 381.0 97.89543 381.0 99.0Z" fill-rule="nonzero"/><path fill="#46bdc6" clip-path="url(#id_0)" d="M381.0 292.0L366.0 292.0L366.0 99.0C366.0 97.89543 366.89542 97.0 368.0 97.0L379.0 97.0C380.10458 97.0 381.0 97.89543 381.0 99.0Z" fill-rule="nonzero"/><path stroke="#000000" stroke-width="0.0" stroke-linecap="butt" stroke-opacity="0.0" clip-path="url(#id_0)" d="M431.0 292.0L416.0 292.0L416.0 96.0C416.0 94.89543 416.89542 94.0 418.0 94.0L429.0 94.0C430.10458 94.0 431.0 94.89543 431.0 96.0Z" fill-rule="nonzero"/><path fill="#46bdc6" clip-path="url(#id_0)" d="M431.0 292.0L416.0 292.0L416.0 96.0C416.0 94.89543 416.89542 94.0 418.0 94.0L429.0 94.0C430.10458 94.0 431.0 94.89543 431.0 96.0Z" fill-rule="nonzero"/><path stroke="#000000" stroke-width="0.0" stroke-linecap="butt" stroke-opacity="0.0" clip-path="url(#id_0)" d="M481.0 292.0L466.0 292.0L466.0 133.0C466.0 131.89543 466.89542 131.0 468.0 131.0L479.0 131.0C480.10458 131.0 481.0 131.89543 481.0 133.0Z" fill-rule="nonzero"/><path fill="#46bdc6" clip-path="url(#id_0)" d="M481.0 292.0L466.0 292.0L466.0 133.0C466.0 131.89543 466.89542 131.0 468.0 131.0L479.0 131.0C480.10458 131.0 481.0 131.89543 481.0 133.0Z" fill-rule="nonzero"/><path stroke="#000000" stroke-width="0.0" stroke-linecap="butt" stroke-opacity="0.0" clip-path="url(#id_0)" d="M530.0 292.0L515.0 292.0L515.0 199.0C515.0 197.89543 515.89545 197.0 517.0 197.0L528.0 197.0C529.10455 197.0 530.0 197.89543 530.0 199.0Z" fill-rule="nonzero"/><path fill="#46bdc6" clip-path="url(#id_0)" d="M530.0 292.0L515.0 292.0L515.0 199.0C515.0 197.89543 515.89545 197.0 517.0 197.0L528.0 197.0C529.10455 197.0 530.0 197.89543 530.0 199.0Z" fill-rule="nonzero"/><path stroke="#000000" stroke-width="0.0" stroke-linecap="butt" stroke-opacity="0.0" clip-path="url(#id_0)" d="M580.0 292.0L565.0 292.0L565.0 252.0C565.0 250.89543 565.89545 250.0 567.0 250.0L578.0 250.0C579.10455 250.0 580.0 250.89543 580.0 252.0Z" fill-rule="nonzero"/><path fill="#46bdc6" clip-path="url(#id_0)" d="M580.0 292.0L565.0 292.0L565.0 252.0C565.0 250.89543 565.89545 250.0 567.0 250.0L578.0 250.0C579.10455 250.0 580.0 250.89543 580.0 252.0Z" fill-rule="nonzero"/><path stroke="#000000" stroke-width="0.0" stroke-linecap="butt" stroke-opacity="0.0" clip-path="url(#id_0)" d="M630.0 292.0L615.0 292.0L615.0 279.0C615.0 277.89542 615.89545 277.0 617.0 277.0L628.0 277.0C629.10455 277.0 630.0 277.89542 630.0 279.0Z" fill-rule="nonzero"/><path fill="#46bdc6" clip-path="url(#id_0)" d="M630.0 292.0L615.0 292.0L615.0 279.0C615.0 277.89542 615.89545 277.0 617.0 277.0L628.0 277.0C629.10455 277.0 630.0 277.89542 630.0 279.0Z" fill-rule="nonzero"/><path stroke="#000000" stroke-width="0.0" stroke-linecap="butt" stroke-opacity="0.0" clip-path="url(#id_0)" d="M680.0 292.0L665.0 292.0L665.0 287.0C665.0 285.89542 665.89545 285.0 667.0 285.0L678.0 285.0C679.10455 285.0 680.0 285.89542 680.0 287.0Z" fill-rule="nonzero"/><path fill="#46bdc6" clip-path="url(#id_0)" d="M680.0 292.0L665.0 292.0L665.0 287.0C665.0 285.89542 665.89545 285.0 667.0 285.0L678.0 285.0C679.10455 285.0 680.0 285.89542 680.0 287.0Z" fill-rule="nonzero"/><path stroke="#000000" stroke-width="0.0" stroke-linecap="butt" stroke-opacity="0.0" clip-path="url(#id_0)" d="M730.0 292.0L715.0 292.0L715.0 292.0L730.0 292.0Z" fill-rule="nonzero"/><path fill="#46bdc6" clip-path="url(#id_0)" d="M730.0 292.0L715.0 292.0L715.0 292.0L730.0 292.0Z" fill-rule="nonzero"/><path stroke="#000000" stroke-width="0.0" stroke-linecap="butt" stroke-opacity="0.0" clip-path="url(#id_0)" d="M780.0 292.0L765.0 292.0L765.0 292.0L780.0 292.0Z" fill-rule="nonzero"/><path fill="#46bdc6" clip-path="url(#id_0)" d="M780.0 292.0L765.0 292.0L765.0 292.0L780.0 292.0Z" fill-rule="nonzero"/><path stroke="#000000" stroke-width="0.0" stroke-linecap="butt" stroke-opacity="0.0" clip-path="url(#id_0)" d="M830.0 292.0L815.0 292.0L815.0 292.0L830.0 292.0Z" fill-rule="nonzero"/><path fill="#46bdc6" clip-path="url(#id_0)" d="M830.0 292.0L815.0 292.0L815.0 292.0L830.0 292.0Z" fill-rule="nonzero"/><path stroke="#000000" stroke-width="0.0" stroke-linecap="butt" stroke-opacity="0.0" clip-path="url(#id_0)" d="M880.0 292.0L865.0 292.0L865.0 292.0L880.0 292.0Z" fill-rule="nonzero"/><path fill="#46bdc6" clip-path="url(#id_0)" d="M880.0 292.0L865.0 292.0L865.0 292.0L880.0 292.0Z" fill-rule="nonzero"/><path fill="#000000" d="M437.57812 349.45L437.57812 339.4344L441.03125 339.4344Q442.20312 339.4344 442.8125 339.575Q443.67188 339.7625 444.28125 340.29376Q445.07812 340.96564 445.46875 342.0125Q445.85938 343.04376 445.85938 344.3875Q445.85938 345.52814 445.59375 346.41876Q445.32812 347.29376 444.90625 347.8719Q444.5 348.45 444.0 348.77814Q443.5 349.10626 442.79688 349.27814Q442.10938 349.45 441.20312 349.45L437.57812 349.45ZM438.90625 348.2625L441.04688 348.2625Q442.03125 348.2625 442.59375 348.09064Q443.17188 347.90314 443.5 347.5594Q443.96875 347.09064 444.23438 346.29376Q444.5 345.4969 444.5 344.35626Q444.5 342.79376 443.98438 341.95Q443.46875 341.10626 442.73438 340.8094Q442.1875 340.60626 441.01562 340.60626L438.90625 340.60626L438.90625 348.2625ZM452.1875 349.45L452.1875 348.3875Q451.32812 349.6219 449.875 349.6219Q449.23438 349.6219 448.67188 349.3719Q448.125 349.1219 447.84375 348.7469Q447.57812 348.3719 447.46875 347.84064Q447.39062 347.48126 447.39062 346.6844L447.39062 342.1844L448.625 342.1844L448.625 346.21564Q448.625 347.1844 448.70312 347.5125Q448.8125 347.9969 449.1875 348.27814Q449.5625 348.5594 450.125 348.5594Q450.67188 348.5594 451.15625 348.27814Q451.64062 347.98126 451.84375 347.4969Q452.04688 347.0125 452.04688 346.075L452.04688 342.1844L453.28125 342.1844L453.28125 349.45L452.1875 349.45ZM455.40625 349.45L455.40625 342.1844L456.51562 342.1844L456.51562 343.29376Q456.9375 342.5125 457.29688 342.27814Q457.65625 342.02814 458.09375 342.02814Q458.71875 342.02814 459.35938 342.41876L458.9375 343.5594Q458.48438 343.29376 458.03125 343.29376Q457.625 343.29376 457.29688 343.54376Q456.98438 343.77814 456.84375 344.21564Q456.64062 344.8719 456.64062 345.65314L456.64062 349.45L455.40625 349.45ZM465.15625 348.5594Q464.48438 349.1375 463.84375 349.3875Q463.21875 349.6219 462.48438 349.6219Q461.29688 349.6219 460.64062 349.04376Q460.0 348.45 460.0 347.52814Q460.0 346.9969 460.23438 346.5594Q460.48438 346.1219 460.875 345.85626Q461.28125 345.59064 461.76562 345.45Q462.125 345.35626 462.85938 345.2625Q464.35938 345.09064 465.0625 344.84064Q465.0625 344.59064 465.0625 344.52814Q465.0625 343.7625 464.71875 343.46564Q464.25 343.04376 463.3125 343.04376Q462.45312 343.04376 462.03125 343.35626Q461.625 343.65314 461.42188 344.41876L460.21875 344.2625Q460.375 343.48126 460.75 343.0125Q461.14062 342.54376 461.84375 342.29376Q462.5625 342.02814 463.5 342.02814Q464.42188 342.02814 465.0 342.2469Q465.57812 342.46564 465.84375 342.79376Q466.125 343.1219 466.23438 343.6375Q466.29688 343.95 466.29688 344.7625L466.29688 346.40314Q466.29688 348.1219 466.375 348.575Q466.45312 349.02814 466.6875 349.45L465.40625 349.45Q465.21875 349.0594 465.15625 348.5594ZM465.0625 345.8094Q464.39062 346.075 463.04688 346.27814Q462.29688 346.3875 461.96875 346.52814Q461.65625 346.65314 461.48438 346.91876Q461.3125 347.1844 461.3125 347.4969Q461.3125 347.9969 461.6875 348.325Q462.0625 348.65314 462.78125 348.65314Q463.5 348.65314 464.04688 348.34064Q464.59375 348.02814 464.85938 347.48126Q465.0625 347.075 465.0625 346.2625L465.0625 345.8094ZM471.10938 348.35626L471.28125 349.4344Q470.76562 349.54376 470.35938 349.54376Q469.6875 349.54376 469.3125 349.34064Q468.95312 349.1219 468.79688 348.77814Q468.65625 348.4344 468.65625 347.325L468.65625 343.15314L467.75 343.15314L467.75 342.1844L468.65625 342.1844L468.65625 340.3875L469.875 339.65314L469.875 342.1844L471.10938 342.1844L471.10938 343.15314L469.875 343.15314L469.875 347.3875Q469.875 347.91876 469.9375 348.075Q470.0 348.21564 470.14062 348.3094Q470.29688 348.40314 470.5625 348.40314Q470.78125 348.40314 471.10938 348.35626ZM472.4375 340.84064L472.4375 339.4344L473.65625 339.4344L473.65625 340.84064L472.4375 340.84064ZM472.4375 349.45L472.4375 342.1844L473.65625 342.1844L473.65625 349.45L472.4375 349.45ZM474.96875 345.825Q474.96875 343.8094 476.09375 342.825Q477.01562 342.02814 478.375 342.02814Q479.85938 342.02814 480.8125 343.0125Q481.76562 343.98126 481.76562 345.71564Q481.76562 347.1219 481.34375 347.9344Q480.92188 348.73126 480.10938 349.1844Q479.3125 349.6219 478.375 349.6219Q476.84375 349.6219 475.90625 348.6375Q474.96875 347.65314 474.96875 345.825ZM476.23438 345.825Q476.23438 347.21564 476.84375 347.91876Q477.45312 348.60626 478.375 348.60626Q479.28125 348.60626 479.89062 347.90314Q480.5 347.2 480.5 345.77814Q480.5 344.4344 479.89062 343.7469Q479.28125 343.04376 478.375 343.04376Q477.45312 343.04376 476.84375 343.73126Q476.23438 344.41876 476.23438 345.825ZM483.42188 349.45L483.42188 342.1844L484.53125 342.1844L484.53125 343.21564Q485.32812 342.02814 486.84375 342.02814Q487.5 342.02814 488.04688 342.2625Q488.59375 342.4969 488.85938 342.8875Q489.14062 343.2625 489.25 343.79376Q489.32812 344.1375 489.32812 344.98126L489.32812 349.45L488.09375 349.45L488.09375 345.02814Q488.09375 344.27814 487.95312 343.91876Q487.8125 343.54376 487.4375 343.325Q487.07812 343.09064 486.57812 343.09064Q485.79688 343.09064 485.21875 343.59064Q484.65625 344.09064 484.65625 345.48126L484.65625 349.45L483.42188 349.45ZM497.78125 352.40314Q496.75 351.10626 496.04688 349.3875Q495.34375 347.66876 495.34375 345.825Q495.34375 344.2 495.875 342.7Q496.48438 340.96564 497.78125 339.2625L498.65625 339.2625Q497.82812 340.6844 497.5625 341.29376Q497.14062 342.23126 496.90625 343.2625Q496.60938 344.52814 496.60938 345.825Q496.60938 349.1219 498.65625 352.40314L497.78125 352.40314ZM500.42188 349.45L500.42188 339.4344L501.65625 339.4344L501.65625 343.02814Q502.51562 342.02814 503.82812 342.02814Q504.64062 342.02814 505.23438 342.35626Q505.82812 342.66876 506.07812 343.23126Q506.34375 343.77814 506.34375 344.85626L506.34375 349.45L505.10938 349.45L505.10938 344.85626Q505.10938 343.91876 504.70312 343.5125Q504.3125 343.09064 503.57812 343.09064Q503.03125 343.09064 502.54688 343.3719Q502.0625 343.65314 501.85938 344.1375Q501.65625 344.6219 501.65625 345.48126L501.65625 349.45L500.42188 349.45ZM508.40625 349.45L508.40625 342.1844L509.51562 342.1844L509.51562 343.29376Q509.9375 342.5125 510.29688 342.27814Q510.65625 342.02814 511.09375 342.02814Q511.71875 342.02814 512.3594 342.41876L511.9375 343.5594Q511.48438 343.29376 511.03125 343.29376Q510.625 343.29376 510.29688 343.54376Q509.98438 343.77814 509.84375 344.21564Q509.64062 344.8719 509.64062 345.65314L509.64062 349.45L508.40625 349.45ZM513.7656 343.59064L513.7656 342.1844L515.1719 342.1844L515.1719 343.59064L513.7656 343.59064ZM513.7656 349.45L513.7656 348.04376L515.1719 348.04376L515.1719 349.45L513.7656 349.45ZM517.4219 349.45L517.4219 342.1844L518.53125 342.1844L518.53125 343.21564Q518.8594 342.66876 519.4219 342.35626Q520.0 342.02814 520.71875 342.02814Q521.53125 342.02814 522.0469 342.3719Q522.5625 342.7 522.78125 343.29376Q523.6406 342.02814 525.0156 342.02814Q526.09375 342.02814 526.6719 342.6219Q527.2656 343.21564 527.2656 344.46564L527.2656 349.45L526.03125 349.45L526.03125 344.8719Q526.03125 344.1375 525.90625 343.8094Q525.7969 343.48126 525.4844 343.29376Q525.1719 343.09064 524.75 343.09064Q523.9844 343.09064 523.46875 343.60626Q522.96875 344.10626 522.96875 345.23126L522.96875 349.45L521.7344 349.45L521.7344 344.73126Q521.7344 343.91876 521.4375 343.5125Q521.1406 343.09064 520.4531 343.09064Q519.9375 343.09064 519.4844 343.3719Q519.0469 343.6375 518.84375 344.16876Q518.65625 344.6844 518.65625 345.6844L518.65625 349.45L517.4219 349.45ZM529.4375 340.84064L529.4375 339.4344L530.65625 339.4344L530.65625 340.84064L529.4375 340.84064ZM529.4375 349.45L529.4375 342.1844L530.65625 342.1844L530.65625 349.45L529.4375 349.45ZM532.4219 349.45L532.4219 342.1844L533.53125 342.1844L533.53125 343.21564Q534.3281 342.02814 535.84375 342.02814Q536.5 342.02814 537.0469 342.2625Q537.59375 342.4969 537.8594 342.8875Q538.1406 343.2625 538.25 343.79376Q538.3281 344.1375 538.3281 344.98126L538.3281 349.45L537.09375 349.45L537.09375 345.02814Q537.09375 344.27814 536.9531 343.91876Q536.8125 343.54376 536.4375 343.325Q536.0781 343.09064 535.5781 343.09064Q534.7969 343.09064 534.21875 343.59064Q533.65625 344.09064 533.65625 345.48126L533.65625 349.45L532.4219 349.45ZM541.2344 352.40314L540.34375 352.40314Q542.3906 349.1219 542.3906 345.825Q542.3906 344.54376 542.09375 343.27814Q541.8594 342.2469 541.4531 341.3094Q541.1875 340.7 540.34375 339.2625L541.2344 339.2625Q542.5156 340.96564 543.125 342.7Q543.65625 344.2 543.65625 345.825Q543.65625 347.66876 542.9375 349.3875Q542.2344 351.10626 541.2344 352.40314Z" fill-rule="nonzero"/><path fill="#000000" d="M31.550013 216.60521L21.534388 216.60521L21.534388 212.82396Q21.534388 211.82396 21.628138 211.29271Q21.753138 210.55833 22.096888 210.05833Q22.440638 209.55833 23.065638 209.26146Q23.675013 208.94896 24.425013 208.94896Q25.706263 208.94896 26.596888 209.76146Q27.471888 210.57396 27.471888 212.69896L27.471888 215.27708L31.550013 215.27708L31.550013 216.60521ZM26.300013 215.27708L26.300013 212.68333Q26.300013 211.40208 25.815638 210.87083Q25.331263 210.32396 24.471888 210.32396Q23.831263 210.32396 23.393763 210.63646Q22.940638 210.94896 22.800013 211.48021Q22.706263 211.80833 22.706263 212.71458L22.706263 215.27708L26.300013 215.27708ZM29.206263 202.79271L29.362513 201.51146Q30.487513 201.82396 31.112513 202.63646Q31.721888 203.44896 31.721888 204.71458Q31.721888 206.30833 30.737513 207.24583Q29.753138 208.16771 27.987513 208.16771Q26.143763 208.16771 25.143763 207.23021Q24.128138 206.27708 24.128138 204.77708Q24.128138 203.32396 25.128138 202.40208Q26.112513 201.48021 27.909388 201.48021Q28.018763 201.48021 28.237513 201.48021L28.237513 206.90208Q29.425013 206.82396 30.065638 206.23021Q30.706263 205.62083 30.706263 204.69896Q30.706263 204.02708 30.346888 203.55833Q29.987513 203.07396 29.206263 202.79271ZM27.221888 206.82396L27.221888 202.77708Q26.300013 202.85521 25.846888 203.24583Q25.143763 203.82396 25.143763 204.76146Q25.143763 205.62083 25.706263 206.19896Q26.268763 206.76146 27.221888 206.82396ZM31.550013 199.77708L24.284388 199.77708L24.284388 198.66771L25.393763 198.66771Q24.612513 198.24583 24.378138 197.88646Q24.128138 197.52708 24.128138 197.08958Q24.128138 196.46458 24.518763 195.82396L25.659388 196.24583Q25.393763 196.69896 25.393763 197.15208Q25.393763 197.55833 25.643763 197.88646Q25.878138 198.19896 26.315638 198.33958Q26.971888 198.54271 27.753138 198.54271L31.550013 198.54271L31.550013 199.77708ZM28.893763 190.02708L29.050013 188.80833Q30.300013 189.01146 31.018763 189.83958Q31.721888 190.65208 31.721888 191.83958Q31.721888 193.32396 30.753138 194.23021Q29.768763 195.13646 27.940638 195.13646Q26.768763 195.13646 25.893763 194.74583Q25.003138 194.35521 24.565638 193.55833Q24.128138 192.76146 24.128138 191.82396Q24.128138 190.65208 24.721888 189.90208Q25.315638 189.13646 26.425013 188.93333L26.612513 190.12083Q25.878138 190.29271 25.518763 190.73021Q25.143763 191.16771 25.143763 191.77708Q25.143763 192.71458 25.815638 193.29271Q26.471888 193.87083 27.909388 193.87083Q29.378138 193.87083 30.050013 193.30833Q30.706263 192.74583 30.706263 191.85521Q30.706263 191.12083 30.268763 190.63646Q29.815638 190.15208 28.893763 190.02708ZM29.206263 182.79271L29.362513 181.51146Q30.487513 181.82396 31.112513 182.63646Q31.721888 183.44896 31.721888 184.71458Q31.721888 186.30833 30.737513 187.24583Q29.753138 188.16771 27.987513 188.16771Q26.143763 188.16771 25.143763 187.23021Q24.128138 186.27708 24.128138 184.77708Q24.128138 183.32396 25.128138 182.40208Q26.112513 181.48021 27.909388 181.48021Q28.018763 181.48021 28.237513 181.48021L28.237513 186.90208Q29.425013 186.82396 30.065638 186.23021Q30.706263 185.62083 30.706263 184.69896Q30.706263 184.02708 30.346888 183.55833Q29.987513 183.07396 29.206263 182.79271ZM27.221888 186.82396L27.221888 182.77708Q26.300013 182.85521 25.846888 183.24583Q25.143763 183.82396 25.143763 184.76146Q25.143763 185.62083 25.706263 186.19896Q26.268763 186.76146 27.221888 186.82396ZM31.550013 179.76146L24.284388 179.76146L24.284388 178.65208L25.315638 178.65208Q24.128138 177.85521 24.128138 176.33958Q24.128138 175.68333 24.362513 175.13646Q24.596888 174.58958 24.987513 174.32396Q25.362513 174.04271 25.893763 173.93333Q26.237513 173.85521 27.081263 173.85521L31.550013 173.85521L31.550013 175.08958L27.128138 175.08958Q26.378138 175.08958 26.018763 175.23021Q25.643763 175.37083 25.425013 175.74583Q25.190638 176.10521 25.190638 176.60521Q25.190638 177.38646 25.690638 177.96458Q26.190638 178.52708 27.581263 178.52708L31.550013 178.52708L31.550013 179.76146ZM30.456263 169.07396L31.534388 168.90208Q31.643763 169.41771 31.643763 169.82396Q31.643763 170.49583 31.440638 170.87083Q31.221888 171.23021 30.878138 171.38646Q30.534388 171.52708 29.425013 171.52708L25.253138 171.52708L25.253138 172.43333L24.284388 172.43333L24.284388 171.52708L22.487513 171.52708L21.753138 170.30833L24.284388 170.30833L24.284388 169.07396L25.253138 169.07396L25.253138 170.30833L29.487513 170.30833Q30.018763 170.30833 30.175013 170.24583Q30.315638 170.18333 30.409388 170.04271Q30.503138 169.88646 30.503138 169.62083Q30.503138 169.40208 30.456263 169.07396ZM30.659388 163.02708Q31.237513 163.69896 31.487513 164.33958Q31.721888 164.96458 31.721888 165.69896Q31.721888 166.88646 31.143763 167.54271Q30.550013 168.18333 29.628138 168.18333Q29.096888 168.18333 28.659388 167.94896Q28.221888 167.69896 27.956263 167.30833Q27.690638 166.90208 27.550013 166.41771Q27.456263 166.05833 27.362513 165.32396Q27.190638 163.82396 26.940638 163.12083Q26.690638 163.12083 26.628138 163.12083Q25.862513 163.12083 25.565638 163.46458Q25.143763 163.93333 25.143763 164.87083Q25.143763 165.73021 25.456263 166.15208Q25.753138 166.55833 26.518763 166.76146L26.362513 167.96458Q25.581263 167.80833 25.112513 167.43333Q24.643763 167.04271 24.393763 166.33958Q24.128138 165.62083 24.128138 164.68333Q24.128138 163.76146 24.346888 163.18333Q24.565638 162.60521 24.893763 162.33958Q25.221888 162.05833 25.737513 161.94896Q26.050013 161.88646 26.862513 161.88646L28.503138 161.88646Q30.221888 161.88646 30.675013 161.80833Q31.128138 161.73021 31.550013 161.49583L31.550013 162.77708Q31.159388 162.96458 30.659388 163.02708ZM27.909388 163.12083Q28.175013 163.79271 28.378138 165.13646Q28.487513 165.88646 28.628138 166.21458Q28.753138 166.52708 29.018763 166.69896Q29.284388 166.87083 29.596888 166.87083Q30.096888 166.87083 30.425013 166.49583Q30.753138 166.12083 30.753138 165.40208Q30.753138 164.68333 30.440638 164.13646Q30.128138 163.58958 29.581263 163.32396Q29.175013 163.12083 28.362513 163.12083L27.909388 163.12083ZM32.159386 159.98021L32.33126 158.79271Q32.878136 158.71458 33.14376 158.37083Q33.471886 157.91771 33.471886 157.12083Q33.471886 156.26146 33.128136 155.80833Q32.80001 155.33958 32.17501 155.16771Q31.800013 155.07396 30.596888 155.08958Q31.550013 155.88646 31.550013 157.08958Q31.550013 158.58958 30.471888 159.41771Q29.393763 160.23021 27.878138 160.23021Q26.846888 160.23021 25.971888 159.85521Q25.081263 159.48021 24.612513 158.77708Q24.128138 158.05833 24.128138 157.08958Q24.128138 155.80833 25.159388 154.96458L24.284388 154.96458L24.284388 153.83958L30.565638 153.83958Q32.26876 153.83958 32.971886 154.18333Q33.67501 154.52708 34.08126 155.27708Q34.503136 156.02708 34.503136 157.12083Q34.503136 158.41771 33.909386 159.21458Q33.33126 160.01146 32.159386 159.98021ZM27.784388 158.96458Q29.221888 158.96458 29.878138 158.40208Q30.534388 157.83958 30.534388 156.98021Q30.534388 156.13646 29.878138 155.55833Q29.221888 154.98021 27.831263 154.98021Q26.503138 154.98021 25.831263 155.57396Q25.143763 156.16771 25.143763 156.99583Q25.143763 157.82396 25.815638 158.40208Q26.471888 158.96458 27.784388 158.96458ZM29.206263 146.79271L29.362513 145.51146Q30.487513 145.82396 31.112513 146.63646Q31.721888 147.44896 31.721888 148.71458Q31.721888 150.30833 30.737513 151.24583Q29.753138 152.16771 27.987513 152.16771Q26.143763 152.16771 25.143763 151.23021Q24.128138 150.27708 24.128138 148.77708Q24.128138 147.32396 25.128138 146.40208Q26.112513 145.48021 27.909388 145.48021Q28.018763 145.48021 28.237513 145.48021L28.237513 150.90208Q29.425013 150.82396 30.065638 150.23021Q30.706263 149.62083 30.706263 148.69896Q30.706263 148.02708 30.346888 147.55833Q29.987513 147.07396 29.206263 146.79271ZM27.221888 150.82396L27.221888 146.77708Q26.300013 146.85521 25.846888 147.24583Q25.143763 147.82396 25.143763 148.76146Q25.143763 149.62083 25.706263 150.19896Q26.268763 150.76146 27.221888 150.82396Z" fill-rule="nonzero"/><path fill="#000000" d="M70.05 292.21564Q70.05 290.6844 70.3625 289.7625Q70.675 288.825 71.28438 288.325Q71.90938 287.825 72.84688 287.825Q73.53438 287.825 74.05 288.10626Q74.58125 288.3875 74.925 288.91876Q75.26875 289.4344 75.45625 290.1844Q75.64375 290.9344 75.64375 292.21564Q75.64375 293.73126 75.33125 294.65314Q75.03438 295.575 74.40938 296.09064Q73.8 296.59064 72.84688 296.59064Q71.6125 296.59064 70.89375 295.7Q70.05 294.6375 70.05 292.21564ZM71.12813 292.21564Q71.12813 294.325 71.62813 295.02814Q72.12813 295.73126 72.84688 295.73126Q73.58125 295.73126 74.06563 295.02814Q74.56563 294.325 74.56563 292.21564Q74.56563 290.09064 74.06563 289.40314Q73.58125 288.7 72.83125 288.7Q72.1125 288.7 71.675 289.3094Q71.12813 290.09064 71.12813 292.21564Z" fill-rule="nonzero"/><path fill="#000000" d="M70.05 246.49333L71.15938 246.39958Q71.28438 247.21208 71.72188 247.61833Q72.175 248.02458 72.81563 248.02458Q73.56563 248.02458 74.09688 247.44646Q74.62813 246.86833 74.62813 245.93083Q74.62813 245.02458 74.1125 244.50896Q73.6125 243.9777 72.78438 243.9777Q72.28438 243.9777 71.8625 244.21208Q71.45625 244.44646 71.22188 244.80583L70.2375 244.68083L71.06563 240.27458L75.34688 240.27458L75.34688 241.27458L71.90938 241.27458L71.45625 243.58708Q72.22188 243.0402 73.06563 243.0402Q74.19063 243.0402 74.95625 243.82146Q75.7375 244.6027 75.7375 245.83708Q75.7375 246.99333 75.06563 247.8527Q74.2375 248.88396 72.81563 248.88396Q71.64375 248.88396 70.89375 248.2277Q70.15938 247.57146 70.05 246.49333Z" fill-rule="nonzero"/><path fill="#000000" d="M67.01875 201.03667L65.97188 201.03667L65.97188 194.31792Q65.58125 194.67729 64.95625 195.05229Q64.34688 195.41167 63.8625 195.58354L63.8625 194.56792Q64.7375 194.14604 65.39375 193.56792Q66.06563 192.97417 66.34688 192.41167L67.01875 192.41167L67.01875 201.03667ZM70.05 196.80229Q70.05 195.27104 70.3625 194.34917Q70.675 193.41167 71.28438 192.91167Q71.90938 192.41167 72.84688 192.41167Q73.53438 192.41167 74.05 192.69292Q74.58125 192.97417 74.925 193.50542Q75.26875 194.02104 75.45625 194.77104Q75.64375 195.52104 75.64375 196.80229Q75.64375 198.31792 75.33125 199.23979Q75.03438 200.16167 74.40938 200.67729Q73.8 201.17729 72.84688 201.17729Q71.6125 201.17729 70.89375 200.28667Q70.05 199.22417 70.05 196.80229ZM71.12813 196.80229Q71.12813 198.91167 71.62813 199.61479Q72.12813 200.31792 72.84688 200.31792Q73.58125 200.31792 74.06563 199.61479Q74.56563 198.91167 74.56563 196.80229Q74.56563 194.67729 74.06563 193.98979Q73.58125 193.28667 72.83125 193.28667Q72.1125 193.28667 71.675 193.89604Q71.12813 194.67729 71.12813 196.80229Z" fill-rule="nonzero"/><path fill="#000000" d="M67.01875 153.33L65.97188 153.33L65.97188 146.61125Q65.58125 146.97063 64.95625 147.34563Q64.34688 147.705 63.8625 147.87688L63.8625 146.86125Q64.7375 146.43938 65.39375 145.86125Q66.06563 145.2675 66.34688 144.705L67.01875 144.705L67.01875 153.33ZM70.05 151.08L71.15938 150.98625Q71.28438 151.79875 71.72188 152.205Q72.175 152.61125 72.81563 152.61125Q73.56563 152.61125 74.09688 152.03313Q74.62813 151.455 74.62813 150.5175Q74.62813 149.61125 74.1125 149.09563Q73.6125 148.56438 72.78438 148.56438Q72.28438 148.56438 71.8625 148.79875Q71.45625 149.03313 71.22188 149.3925L70.2375 149.2675L71.06563 144.86125L75.34688 144.86125L75.34688 145.86125L71.90938 145.86125L71.45625 148.17375Q72.22188 147.62688 73.06563 147.62688Q74.19063 147.62688 74.95625 148.40813Q75.7375 149.18938 75.7375 150.42375Q75.7375 151.58 75.06563 152.43938Q74.2375 153.47063 72.81563 153.47063Q71.64375 153.47063 70.89375 152.81438Q70.15938 152.15813 70.05 151.08Z" fill-rule="nonzero"/><path fill="#000000" d="M68.59688 104.60771L68.59688 105.62334L62.909374 105.62334Q62.909374 105.24834 63.034374 104.88896Q63.253124 104.31084 63.721874 103.74834Q64.20625 103.18584 65.1125 102.45146Q66.51875 101.29521 67.00313 100.62334Q67.50313 99.95146 67.50313 99.35771Q67.50313 98.73271 67.05 98.31084Q66.59688 97.87334 65.87813 97.87334Q65.1125 97.87334 64.65938 98.32646Q64.20625 98.77959 64.19063 99.59209L63.1125 99.48271Q63.221874 98.26396 63.940624 97.63896Q64.675 96.99834 65.90938 96.99834Q67.14375 96.99834 67.8625 97.68584Q68.58125 98.37334 68.58125 99.38896Q68.58125 99.90459 68.3625 100.40459Q68.15938 100.88896 67.65938 101.45146Q67.175 101.99834 66.05 102.95146Q65.09688 103.74834 64.81563 104.04521Q64.55 104.32646 64.37813 104.60771L68.59688 104.60771ZM70.05 101.38896Q70.05 99.85771 70.3625 98.93584Q70.675 97.99834 71.28438 97.49834Q71.90938 96.99834 72.84688 96.99834Q73.53438 96.99834 74.05 97.27959Q74.58125 97.56084 74.925 98.09209Q75.26875 98.60771 75.45625 99.35771Q75.64375 100.10771 75.64375 101.38896Q75.64375 102.90459 75.33125 103.82646Q75.03438 104.74834 74.40938 105.26396Q73.8 105.76396 72.84688 105.76396Q71.6125 105.76396 70.89375 104.87334Q70.05 103.81084 70.05 101.38896ZM71.12813 101.38896Q71.12813 103.49834 71.62813 104.20146Q72.12813 104.90459 72.84688 104.90459Q73.58125 104.90459 74.06563 104.20146Q74.56563 103.49834 74.56563 101.38896Q74.56563 99.26396 74.06563 98.57646Q73.58125 97.87334 72.83125 97.87334Q72.1125 97.87334 71.675 98.48271Q71.12813 99.26396 71.12813 101.38896Z" fill-rule="nonzero"/><path fill="#000000" d="M68.59688 56.901043L68.59688 57.916668L62.909374 57.916668Q62.909374 57.541668 63.034374 57.182293Q63.253124 56.604168 63.721874 56.041668Q64.20625 55.479168 65.1125 54.744793Q66.51875 53.588543 67.00313 52.916668Q67.50313 52.244793 67.50313 51.651043Q67.50313 51.026043 67.05 50.604168Q66.59688 50.166668 65.87813 50.166668Q65.1125 50.166668 64.65938 50.619793Q64.20625 51.072918 64.19063 51.885418L63.1125 51.776043Q63.221874 50.557293 63.940624 49.932293Q64.675 49.291668 65.90938 49.291668Q67.14375 49.291668 67.8625 49.979168Q68.58125 50.666668 68.58125 51.682293Q68.58125 52.197918 68.3625 52.697918Q68.15938 53.182293 67.65938 53.744793Q67.175 54.291668 66.05 55.244793Q65.09688 56.041668 64.81563 56.338543Q64.55 56.619793 64.37813 56.901043L68.59688 56.901043ZM70.05 55.666668L71.15938 55.572918Q71.28438 56.385418 71.72188 56.791668Q72.175 57.197918 72.81563 57.197918Q73.56563 57.197918 74.09688 56.619793Q74.62813 56.041668 74.62813 55.104168Q74.62813 54.197918 74.1125 53.682293Q73.6125 53.151043 72.78438 53.151043Q72.28438 53.151043 71.8625 53.385418Q71.45625 53.619793 71.22188 53.979168L70.2375 53.854168L71.06563 49.447918L75.34688 49.447918L75.34688 50.447918L71.90938 50.447918L71.45625 52.760418Q72.22188 52.213543 73.06563 52.213543Q74.19063 52.213543 74.95625 52.994793Q75.7375 53.776043 75.7375 55.010418Q75.7375 56.166668 75.06563 57.026043Q74.2375 58.057293 72.81563 58.057293Q71.64375 58.057293 70.89375 57.401043Q70.15938 56.744793 70.05 55.666668Z" fill-rule="nonzero"/><path fill="#000000" d="M102.81207 307.5125Q102.81207 305.73126 103.17145 304.65314Q103.54645 303.5594 104.2652 302.98126Q104.98395 302.3875 106.0777 302.3875Q106.8902 302.3875 107.49957 302.71564Q108.10895 303.04376 108.49957 303.65314Q108.90582 304.2625 109.12457 305.1375Q109.34332 306.0125 109.34332 307.5125Q109.34332 309.27814 108.98395 310.35626Q108.62457 311.4344 107.90582 312.02814Q107.18707 312.6219 106.0777 312.6219Q104.6402 312.6219 103.81207 311.575Q102.81207 310.325 102.81207 307.5125ZM104.0777 307.5125Q104.0777 309.98126 104.65582 310.79376Q105.23395 311.60626 106.0777 311.60626Q106.93707 311.60626 107.5152 310.79376Q108.09332 309.96564 108.09332 307.5125Q108.09332 305.02814 107.5152 304.21564Q106.93707 303.40314 106.06207 303.40314Q105.21832 303.40314 104.71832 304.1219Q104.0777 305.04376 104.0777 307.5125ZM111.49957 306.59064L111.49957 305.1844L112.90582 305.1844L112.90582 306.59064L111.49957 306.59064ZM111.49957 312.45L111.49957 311.04376L112.90582 311.04376L112.90582 312.45L111.49957 312.45ZM114.81207 307.5125Q114.81207 305.73126 115.17145 304.65314Q115.54645 303.5594 116.2652 302.98126Q116.98395 302.3875 118.0777 302.3875Q118.8902 302.3875 119.49957 302.71564Q120.10895 303.04376 120.49957 303.65314Q120.90582 304.2625 121.12457 305.1375Q121.34332 306.0125 121.34332 307.5125Q121.34332 309.27814 120.98395 310.35626Q120.62457 311.4344 119.90582 312.02814Q119.18707 312.6219 118.0777 312.6219Q116.6402 312.6219 115.81207 311.575Q114.81207 310.325 114.81207 307.5125ZM116.0777 307.5125Q116.0777 309.98126 116.65582 310.79376Q117.23395 311.60626 118.0777 311.60626Q118.93707 311.60626 119.5152 310.79376Q120.09332 309.96564 120.09332 307.5125Q120.09332 305.02814 119.5152 304.21564Q118.93707 303.40314 118.06207 303.40314Q117.21832 303.40314 116.71832 304.1219Q116.0777 305.04376 116.0777 307.5125ZM122.81207 307.5125Q122.81207 305.73126 123.17145 304.65314Q123.54645 303.5594 124.2652 302.98126Q124.98395 302.3875 126.0777 302.3875Q126.8902 302.3875 127.49957 302.71564Q128.10895 303.04376 128.49957 303.65314Q128.90582 304.2625 129.12457 305.1375Q129.34332 306.0125 129.34332 307.5125Q129.34332 309.27814 128.98395 310.35626Q128.62457 311.4344 127.90582 312.02814Q127.18707 312.6219 126.0777 312.6219Q124.6402 312.6219 123.81207 311.575Q122.81207 310.325 122.81207 307.5125ZM124.0777 307.5125Q124.0777 309.98126 124.65582 310.79376Q125.23395 311.60626 126.0777 311.60626Q126.93707 311.60626 127.5152 310.79376Q128.09332 309.96564 128.09332 307.5125Q128.09332 305.02814 127.5152 304.21564Q126.93707 303.40314 126.06207 303.40314Q125.21832 303.40314 124.71832 304.1219Q124.0777 305.04376 124.0777 307.5125Z" fill-rule="nonzero"/><path fill="#000000" d="M152.71422 307.5125Q152.71422 305.73126 153.0736 304.65314Q153.4486 303.5594 154.16734 302.98126Q154.8861 302.3875 155.97984 302.3875Q156.79234 302.3875 157.40172 302.71564Q158.0111 303.04376 158.40172 303.65314Q158.80797 304.2625 159.02672 305.1375Q159.24547 306.0125 159.24547 307.5125Q159.24547 309.27814 158.8861 310.35626Q158.52672 311.4344 157.80797 312.02814Q157.08922 312.6219 155.97984 312.6219Q154.54234 312.6219 153.71422 311.575Q152.71422 310.325 152.71422 307.5125ZM153.97984 307.5125Q153.97984 309.98126 154.55797 310.79376Q155.1361 311.60626 155.97984 311.60626Q156.83922 311.60626 157.41734 310.79376Q157.99547 309.96564 157.99547 307.5125Q157.99547 305.02814 157.41734 304.21564Q156.83922 303.40314 155.96422 303.40314Q155.12047 303.40314 154.62047 304.1219Q153.97984 305.04376 153.97984 307.5125ZM161.40172 306.59064L161.40172 305.1844L162.80797 305.1844L162.80797 306.59064L161.40172 306.59064ZM161.40172 312.45L161.40172 311.04376L162.80797 311.04376L162.80797 312.45L161.40172 312.45ZM164.72984 309.8094L165.9486 309.6375Q166.16734 310.6844 166.66734 311.15314Q167.18297 311.60626 167.91734 311.60626Q168.79234 311.60626 169.3861 311.0125Q169.97984 310.40314 169.97984 309.5125Q169.97984 308.66876 169.41734 308.1219Q168.87047 307.575 168.02672 307.575Q167.66734 307.575 167.15172 307.7L167.29234 306.6219Q167.41734 306.6375 167.47984 306.6375Q168.27672 306.6375 168.90172 306.23126Q169.52672 305.825 169.52672 304.96564Q169.52672 304.29376 169.0736 303.85626Q168.62047 303.40314 167.8861 303.40314Q167.16734 303.40314 166.68297 303.85626Q166.21422 304.29376 166.0736 305.2L164.85484 304.98126Q165.0736 303.7469 165.87047 303.075Q166.66734 302.3875 167.85484 302.3875Q168.68297 302.3875 169.37047 302.7469Q170.05797 303.09064 170.41734 303.7Q170.79234 304.3094 170.79234 304.9969Q170.79234 305.6375 170.4486 306.16876Q170.10484 306.7 169.41734 307.02814Q170.30797 307.23126 170.79234 307.8719Q171.29234 308.5125 171.29234 309.4969Q171.29234 310.8094 170.3236 311.71564Q169.37047 312.6219 167.91734 312.6219Q166.58922 312.6219 165.71422 311.84064Q164.85484 311.0594 164.72984 309.8094ZM172.71422 307.5125Q172.71422 305.73126 173.0736 304.65314Q173.4486 303.5594 174.16734 302.98126Q174.8861 302.3875 175.97984 302.3875Q176.79234 302.3875 177.40172 302.71564Q178.0111 303.04376 178.40172 303.65314Q178.80797 304.2625 179.02672 305.1375Q179.24547 306.0125 179.24547 307.5125Q179.24547 309.27814 178.8861 310.35626Q178.52672 311.4344 177.80797 312.02814Q177.08922 312.6219 175.97984 312.6219Q174.54234 312.6219 173.71422 311.575Q172.71422 310.325 172.71422 307.5125ZM173.97984 307.5125Q173.97984 309.98126 174.55797 310.79376Q175.1361 311.60626 175.97984 311.60626Q176.83922 311.60626 177.41734 310.79376Q177.99547 309.96564 177.99547 307.5125Q177.99547 305.02814 177.41734 304.21564Q176.83922 303.40314 175.96422 303.40314Q175.12047 303.40314 174.62047 304.1219Q173.97984 305.04376 173.97984 307.5125Z" fill-rule="nonzero"/><path fill="#000000" d="M207.25697 312.45L206.0226 312.45L206.0226 304.60626Q205.5851 305.02814 204.85072 305.46564Q204.13197 305.8875 203.56947 306.09064L203.56947 304.90314Q204.60072 304.41876 205.36635 303.73126Q206.1476 303.04376 206.4601 302.3875L207.25697 302.3875L207.25697 312.45ZM211.30385 306.59064L211.30385 305.1844L212.7101 305.1844L212.7101 306.59064L211.30385 306.59064ZM211.30385 312.45L211.30385 311.04376L212.7101 311.04376L212.7101 312.45L211.30385 312.45ZM214.61635 307.5125Q214.61635 305.73126 214.97572 304.65314Q215.35072 303.5594 216.06947 302.98126Q216.78822 302.3875 217.88197 302.3875Q218.69447 302.3875 219.30385 302.71564Q219.91322 303.04376 220.30385 303.65314Q220.7101 304.2625 220.92885 305.1375Q221.1476 306.0125 221.1476 307.5125Q221.1476 309.27814 220.78822 310.35626Q220.42885 311.4344 219.7101 312.02814Q218.99135 312.6219 217.88197 312.6219Q216.44447 312.6219 215.61635 311.575Q214.61635 310.325 214.61635 307.5125ZM215.88197 307.5125Q215.88197 309.98126 216.4601 310.79376Q217.03822 311.60626 217.88197 311.60626Q218.74135 311.60626 219.31947 310.79376Q219.8976 309.96564 219.8976 307.5125Q219.8976 305.02814 219.31947 304.21564Q218.74135 303.40314 217.86635 303.40314Q217.0226 303.40314 216.5226 304.1219Q215.88197 305.04376 215.88197 307.5125ZM222.61635 307.5125Q222.61635 305.73126 222.97572 304.65314Q223.35072 303.5594 224.06947 302.98126Q224.78822 302.3875 225.88197 302.3875Q226.69447 302.3875 227.30385 302.71564Q227.91322 303.04376 228.30385 303.65314Q228.7101 304.2625 228.92885 305.1375Q229.1476 306.0125 229.1476 307.5125Q229.1476 309.27814 228.78822 310.35626Q228.42885 311.4344 227.7101 312.02814Q226.99135 312.6219 225.88197 312.6219Q224.44447 312.6219 223.61635 311.575Q222.61635 310.325 222.61635 307.5125ZM223.88197 307.5125Q223.88197 309.98126 224.4601 310.79376Q225.03822 311.60626 225.88197 311.60626Q226.74135 311.60626 227.31947 310.79376Q227.8976 309.96564 227.8976 307.5125Q227.8976 305.02814 227.31947 304.21564Q226.74135 303.40314 225.86635 303.40314Q225.0226 303.40314 224.5226 304.1219Q223.88197 305.04376 223.88197 307.5125Z" fill-rule="nonzero"/><path fill="#000000" d="M257.15912 312.45L255.92474 312.45L255.92474 304.60626Q255.48724 305.02814 254.75287 305.46564Q254.03412 305.8875 253.47162 306.09064L253.47162 304.90314Q254.50287 304.41876 255.2685 303.73126Q256.04974 303.04376 256.36224 302.3875L257.15912 302.3875L257.15912 312.45ZM261.206 306.59064L261.206 305.1844L262.61224 305.1844L262.61224 306.59064L261.206 306.59064ZM261.206 312.45L261.206 311.04376L262.61224 311.04376L262.61224 312.45L261.206 312.45ZM264.53412 309.8094L265.75287 309.6375Q265.97162 310.6844 266.47162 311.15314Q266.98724 311.60626 267.72162 311.60626Q268.59662 311.60626 269.19037 311.0125Q269.78412 310.40314 269.78412 309.5125Q269.78412 308.66876 269.22162 308.1219Q268.67474 307.575 267.831 307.575Q267.47162 307.575 266.956 307.7L267.09662 306.6219Q267.22162 306.6375 267.28412 306.6375Q268.081 306.6375 268.706 306.23126Q269.331 305.825 269.331 304.96564Q269.331 304.29376 268.87787 303.85626Q268.42474 303.40314 267.69037 303.40314Q266.97162 303.40314 266.48724 303.85626Q266.0185 304.29376 265.87787 305.2L264.65912 304.98126Q264.87787 303.7469 265.67474 303.075Q266.47162 302.3875 267.65912 302.3875Q268.48724 302.3875 269.17474 302.7469Q269.86224 303.09064 270.22162 303.7Q270.59662 304.3094 270.59662 304.9969Q270.59662 305.6375 270.25287 306.16876Q269.90912 306.7 269.22162 307.02814Q270.11224 307.23126 270.59662 307.8719Q271.09662 308.5125 271.09662 309.4969Q271.09662 310.8094 270.12787 311.71564Q269.17474 312.6219 267.72162 312.6219Q266.3935 312.6219 265.5185 311.84064Q264.65912 311.0594 264.53412 309.8094ZM272.5185 307.5125Q272.5185 305.73126 272.87787 304.65314Q273.25287 303.5594 273.97162 302.98126Q274.69037 302.3875 275.78412 302.3875Q276.59662 302.3875 277.206 302.71564Q277.81537 303.04376 278.206 303.65314Q278.61224 304.2625 278.831 305.1375Q279.04974 306.0125 279.04974 307.5125Q279.04974 309.27814 278.69037 310.35626Q278.331 311.4344 277.61224 312.02814Q276.8935 312.6219 275.78412 312.6219Q274.34662 312.6219 273.5185 311.575Q272.5185 310.325 272.5185 307.5125ZM273.78412 307.5125Q273.78412 309.98126 274.36224 310.79376Q274.94037 311.60626 275.78412 311.60626Q276.6435 311.60626 277.22162 310.79376Q277.79974 309.96564 277.79974 307.5125Q277.79974 305.02814 277.22162 304.21564Q276.6435 303.40314 275.7685 303.40314Q274.92474 303.40314 274.42474 304.1219Q273.78412 305.04376 273.78412 307.5125Z" fill-rule="nonzero"/><path fill="#000000" d="M308.88937 311.2625L308.88937 312.45L302.26437 312.45Q302.24875 312.0125 302.405 311.59064Q302.67062 310.91876 303.2175 310.2625Q303.78 309.60626 304.82687 308.7469Q306.4675 307.40314 307.03 306.6219Q307.60812 305.84064 307.60812 305.1375Q307.60812 304.40314 307.07687 303.90314Q306.56125 303.40314 305.73312 303.40314Q304.8425 303.40314 304.29562 303.9344Q303.76437 304.46564 303.76437 305.41876L302.49875 305.27814Q302.62375 303.8719 303.4675 303.1375Q304.32687 302.3875 305.74875 302.3875Q307.20187 302.3875 308.03 303.1844Q308.87375 303.98126 308.87375 305.16876Q308.87375 305.77814 308.62375 306.35626Q308.38937 306.9344 307.81125 307.575Q307.24875 308.21564 305.92062 309.34064Q304.81125 310.2625 304.49875 310.60626Q304.18625 310.9344 303.98312 311.2625L308.88937 311.2625ZM311.10812 306.59064L311.10812 305.1844L312.51437 305.1844L312.51437 306.59064L311.10812 306.59064ZM311.10812 312.45L311.10812 311.04376L312.51437 311.04376L312.51437 312.45L311.10812 312.45ZM314.42062 307.5125Q314.42062 305.73126 314.78 304.65314Q315.155 303.5594 315.87375 302.98126Q316.5925 302.3875 317.68625 302.3875Q318.49875 302.3875 319.10812 302.71564Q319.7175 303.04376 320.10812 303.65314Q320.51437 304.2625 320.73312 305.1375Q320.95187 306.0125 320.95187 307.5125Q320.95187 309.27814 320.5925 310.35626Q320.23312 311.4344 319.51437 312.02814Q318.79562 312.6219 317.68625 312.6219Q316.24875 312.6219 315.42062 311.575Q314.42062 310.325 314.42062 307.5125ZM315.68625 307.5125Q315.68625 309.98126 316.26437 310.79376Q316.8425 311.60626 317.68625 311.60626Q318.54562 311.60626 319.12375 310.79376Q319.70187 309.96564 319.70187 307.5125Q319.70187 305.02814 319.12375 304.21564Q318.54562 303.40314 317.67062 303.40314Q316.82687 303.40314 316.32687 304.1219Q315.68625 305.04376 315.68625 307.5125ZM322.42062 307.5125Q322.42062 305.73126 322.78 304.65314Q323.155 303.5594 323.87375 302.98126Q324.5925 302.3875 325.68625 302.3875Q326.49875 302.3875 327.10812 302.71564Q327.7175 303.04376 328.10812 303.65314Q328.51437 304.2625 328.73312 305.1375Q328.95187 306.0125 328.95187 307.5125Q328.95187 309.27814 328.5925 310.35626Q328.23312 311.4344 327.51437 312.02814Q326.79562 312.6219 325.68625 312.6219Q324.24875 312.6219 323.42062 311.575Q322.42062 310.325 322.42062 307.5125ZM323.68625 307.5125Q323.68625 309.98126 324.26437 310.79376Q324.8425 311.60626 325.68625 311.60626Q326.54562 311.60626 327.12375 310.79376Q327.70187 309.96564 327.70187 307.5125Q327.70187 305.02814 327.12375 304.21564Q326.54562 303.40314 325.67062 303.40314Q324.82687 303.40314 324.32687 304.1219Q323.68625 305.04376 323.68625 307.5125Z" fill-rule="nonzero"/><path fill="#000000" d="M358.79153 311.2625L358.79153 312.45L352.16653 312.45Q352.1509 312.0125 352.30716 311.59064Q352.57278 310.91876 353.11966 310.2625Q353.68216 309.60626 354.72903 308.7469Q356.36966 307.40314 356.93216 306.6219Q357.51028 305.84064 357.51028 305.1375Q357.51028 304.40314 356.97903 303.90314Q356.4634 303.40314 355.63528 303.40314Q354.74466 303.40314 354.19778 303.9344Q353.66653 304.46564 353.66653 305.41876L352.4009 305.27814Q352.5259 303.8719 353.36966 303.1375Q354.22903 302.3875 355.6509 302.3875Q357.10403 302.3875 357.93216 303.1844Q358.7759 303.98126 358.7759 305.16876Q358.7759 305.77814 358.5259 306.35626Q358.29153 306.9344 357.7134 307.575Q357.1509 308.21564 355.82278 309.34064Q354.7134 310.2625 354.4009 310.60626Q354.0884 310.9344 353.88528 311.2625L358.79153 311.2625ZM361.01028 306.59064L361.01028 305.1844L362.41653 305.1844L362.41653 306.59064L361.01028 306.59064ZM361.01028 312.45L361.01028 311.04376L362.41653 311.04376L362.41653 312.45L361.01028 312.45ZM364.3384 309.8094L365.55716 309.6375Q365.7759 310.6844 366.2759 311.15314Q366.79153 311.60626 367.5259 311.60626Q368.4009 311.60626 368.99466 311.0125Q369.5884 310.40314 369.5884 309.5125Q369.5884 308.66876 369.0259 308.1219Q368.47903 307.575 367.63528 307.575Q367.2759 307.575 366.76028 307.7L366.9009 306.6219Q367.0259 306.6375 367.0884 306.6375Q367.88528 306.6375 368.51028 306.23126Q369.13528 305.825 369.13528 304.96564Q369.13528 304.29376 368.68216 303.85626Q368.22903 303.40314 367.49466 303.40314Q366.7759 303.40314 366.29153 303.85626Q365.82278 304.29376 365.68216 305.2L364.4634 304.98126Q364.68216 303.7469 365.47903 303.075Q366.2759 302.3875 367.4634 302.3875Q368.29153 302.3875 368.97903 302.7469Q369.66653 303.09064 370.0259 303.7Q370.4009 304.3094 370.4009 304.9969Q370.4009 305.6375 370.05716 306.16876Q369.7134 306.7 369.0259 307.02814Q369.91653 307.23126 370.4009 307.8719Q370.9009 308.5125 370.9009 309.4969Q370.9009 310.8094 369.93216 311.71564Q368.97903 312.6219 367.5259 312.6219Q366.19778 312.6219 365.32278 311.84064Q364.4634 311.0594 364.3384 309.8094ZM372.32278 307.5125Q372.32278 305.73126 372.68216 304.65314Q373.05716 303.5594 373.7759 302.98126Q374.49466 302.3875 375.5884 302.3875Q376.4009 302.3875 377.01028 302.71564Q377.61966 303.04376 378.01028 303.65314Q378.41653 304.2625 378.63528 305.1375Q378.85403 306.0125 378.85403 307.5125Q378.85403 309.27814 378.49466 310.35626Q378.13528 311.4344 377.41653 312.02814Q376.69778 312.6219 375.5884 312.6219Q374.1509 312.6219 373.32278 311.575Q372.32278 310.325 372.32278 307.5125ZM373.5884 307.5125Q373.5884 309.98126 374.16653 310.79376Q374.74466 311.60626 375.5884 311.60626Q376.44778 311.60626 377.0259 310.79376Q377.60403 309.96564 377.60403 307.5125Q377.60403 305.02814 377.0259 304.21564Q376.44778 303.40314 375.57278 303.40314Q374.72903 303.40314 374.22903 304.1219Q373.5884 305.04376 373.5884 307.5125Z" fill-rule="nonzero"/><path fill="#000000" d="M402.24054 309.8094L403.4593 309.6375Q403.67804 310.6844 404.17804 311.15314Q404.69366 311.60626 405.42804 311.60626Q406.30304 311.60626 406.8968 311.0125Q407.49054 310.40314 407.49054 309.5125Q407.49054 308.66876 406.92804 308.1219Q406.38116 307.575 405.5374 307.575Q405.17804 307.575 404.6624 307.7L404.80304 306.6219Q404.92804 306.6375 404.99054 306.6375Q405.7874 306.6375 406.4124 306.23126Q407.0374 305.825 407.0374 304.96564Q407.0374 304.29376 406.5843 303.85626Q406.13116 303.40314 405.3968 303.40314Q404.67804 303.40314 404.19366 303.85626Q403.7249 304.29376 403.5843 305.2L402.36554 304.98126Q402.5843 303.7469 403.38116 303.075Q404.17804 302.3875 405.36554 302.3875Q406.19366 302.3875 406.88116 302.7469Q407.56866 303.09064 407.92804 303.7Q408.30304 304.3094 408.30304 304.9969Q408.30304 305.6375 407.9593 306.16876Q407.61554 306.7 406.92804 307.02814Q407.81866 307.23126 408.30304 307.8719Q408.80304 308.5125 408.80304 309.4969Q408.80304 310.8094 407.8343 311.71564Q406.88116 312.6219 405.42804 312.6219Q404.0999 312.6219 403.2249 311.84064Q402.36554 311.0594 402.24054 309.8094ZM410.9124 306.59064L410.9124 305.1844L412.31866 305.1844L412.31866 306.59064L410.9124 306.59064ZM410.9124 312.45L410.9124 311.04376L412.31866 311.04376L412.31866 312.45L410.9124 312.45ZM414.2249 307.5125Q414.2249 305.73126 414.5843 304.65314Q414.9593 303.5594 415.67804 302.98126Q416.3968 302.3875 417.49054 302.3875Q418.30304 302.3875 418.9124 302.71564Q419.5218 303.04376 419.9124 303.65314Q420.31866 304.2625 420.5374 305.1375Q420.75616 306.0125 420.75616 307.5125Q420.75616 309.27814 420.3968 310.35626Q420.0374 311.4344 419.31866 312.02814Q418.5999 312.6219 417.49054 312.6219Q416.05304 312.6219 415.2249 311.575Q414.2249 310.325 414.2249 307.5125ZM415.49054 307.5125Q415.49054 309.98126 416.06866 310.79376Q416.6468 311.60626 417.49054 311.60626Q418.3499 311.60626 418.92804 310.79376Q419.50616 309.96564 419.50616 307.5125Q419.50616 305.02814 418.92804 304.21564Q418.3499 303.40314 417.4749 303.40314Q416.63116 303.40314 416.13116 304.1219Q415.49054 305.04376 415.49054 307.5125ZM422.2249 307.5125Q422.2249 305.73126 422.5843 304.65314Q422.9593 303.5594 423.67804 302.98126Q424.3968 302.3875 425.49054 302.3875Q426.30304 302.3875 426.9124 302.71564Q427.5218 303.04376 427.9124 303.65314Q428.31866 304.2625 428.5374 305.1375Q428.75616 306.0125 428.75616 307.5125Q428.75616 309.27814 428.3968 310.35626Q428.0374 311.4344 427.31866 312.02814Q426.5999 312.6219 425.49054 312.6219Q424.05304 312.6219 423.2249 311.575Q422.2249 310.325 422.2249 307.5125ZM423.49054 307.5125Q423.49054 309.98126 424.06866 310.79376Q424.6468 311.60626 425.49054 311.60626Q426.3499 311.60626 426.92804 310.79376Q427.50616 309.96564 427.50616 307.5125Q427.50616 305.02814 426.92804 304.21564Q426.3499 303.40314 425.4749 303.40314Q424.63116 303.40314 424.13116 304.1219Q423.49054 305.04376 423.49054 307.5125Z" fill-rule="nonzero"/><path fill="#000000" d="M452.14267 309.8094L453.36142 309.6375Q453.58017 310.6844 454.08017 311.15314Q454.5958 311.60626 455.33017 311.60626Q456.20517 311.60626 456.79892 311.0125Q457.39267 310.40314 457.39267 309.5125Q457.39267 308.66876 456.83017 308.1219Q456.2833 307.575 455.43954 307.575Q455.08017 307.575 454.56454 307.7L454.70517 306.6219Q454.83017 306.6375 454.89267 306.6375Q455.68954 306.6375 456.31454 306.23126Q456.93954 305.825 456.93954 304.96564Q456.93954 304.29376 456.48642 303.85626Q456.0333 303.40314 455.29892 303.40314Q454.58017 303.40314 454.0958 303.85626Q453.62704 304.29376 453.48642 305.2L452.26767 304.98126Q452.48642 303.7469 453.2833 303.075Q454.08017 302.3875 455.26767 302.3875Q456.0958 302.3875 456.7833 302.7469Q457.4708 303.09064 457.83017 303.7Q458.20517 304.3094 458.20517 304.9969Q458.20517 305.6375 457.86142 306.16876Q457.51767 306.7 456.83017 307.02814Q457.7208 307.23126 458.20517 307.8719Q458.70517 308.5125 458.70517 309.4969Q458.70517 310.8094 457.73642 311.71564Q456.7833 312.6219 455.33017 312.6219Q454.00204 312.6219 453.12704 311.84064Q452.26767 311.0594 452.14267 309.8094ZM460.81454 306.59064L460.81454 305.1844L462.2208 305.1844L462.2208 306.59064L460.81454 306.59064ZM460.81454 312.45L460.81454 311.04376L462.2208 311.04376L462.2208 312.45L460.81454 312.45ZM464.14267 309.8094L465.36142 309.6375Q465.58017 310.6844 466.08017 311.15314Q466.5958 311.60626 467.33017 311.60626Q468.20517 311.60626 468.79892 311.0125Q469.39267 310.40314 469.39267 309.5125Q469.39267 308.66876 468.83017 308.1219Q468.2833 307.575 467.43954 307.575Q467.08017 307.575 466.56454 307.7L466.70517 306.6219Q466.83017 306.6375 466.89267 306.6375Q467.68954 306.6375 468.31454 306.23126Q468.93954 305.825 468.93954 304.96564Q468.93954 304.29376 468.48642 303.85626Q468.0333 303.40314 467.29892 303.40314Q466.58017 303.40314 466.0958 303.85626Q465.62704 304.29376 465.48642 305.2L464.26767 304.98126Q464.48642 303.7469 465.2833 303.075Q466.08017 302.3875 467.26767 302.3875Q468.0958 302.3875 468.7833 302.7469Q469.4708 303.09064 469.83017 303.7Q470.20517 304.3094 470.20517 304.9969Q470.20517 305.6375 469.86142 306.16876Q469.51767 306.7 468.83017 307.02814Q469.7208 307.23126 470.20517 307.8719Q470.70517 308.5125 470.70517 309.4969Q470.70517 310.8094 469.73642 311.71564Q468.7833 312.6219 467.33017 312.6219Q466.00204 312.6219 465.12704 311.84064Q464.26767 311.0594 464.14267 309.8094ZM472.12704 307.5125Q472.12704 305.73126 472.48642 304.65314Q472.86142 303.5594 473.58017 302.98126Q474.29892 302.3875 475.39267 302.3875Q476.20517 302.3875 476.81454 302.71564Q477.42392 303.04376 477.81454 303.65314Q478.2208 304.2625 478.43954 305.1375Q478.6583 306.0125 478.6583 307.5125Q478.6583 309.27814 478.29892 310.35626Q477.93954 311.4344 477.2208 312.02814Q476.50204 312.6219 475.39267 312.6219Q473.95517 312.6219 473.12704 311.575Q472.12704 310.325 472.12704 307.5125ZM473.39267 307.5125Q473.39267 309.98126 473.9708 310.79376Q474.54892 311.60626 475.39267 311.60626Q476.25204 311.60626 476.83017 310.79376Q477.4083 309.96564 477.4083 307.5125Q477.4083 305.02814 476.83017 304.21564Q476.25204 303.40314 475.37704 303.40314Q474.5333 303.40314 474.0333 304.1219Q473.39267 305.04376 473.39267 307.5125Z" fill-rule="nonzero"/><path fill="#000000" d="M505.98233 312.45L505.98233 310.04376L501.62296 310.04376L501.62296 308.91876L506.20108 302.4344L507.20108 302.4344L507.20108 308.91876L508.56046 308.91876L508.56046 310.04376L507.20108 310.04376L507.20108 312.45L505.98233 312.45ZM505.98233 308.91876L505.98233 304.40314L502.8417 308.91876L505.98233 308.91876ZM510.7167 306.59064L510.7167 305.1844L512.1229 305.1844L512.1229 306.59064L510.7167 306.59064ZM510.7167 312.45L510.7167 311.04376L512.1229 311.04376L512.1229 312.45L510.7167 312.45ZM514.0292 307.5125Q514.0292 305.73126 514.38855 304.65314Q514.76355 303.5594 515.4823 302.98126Q516.20105 302.3875 517.2948 302.3875Q518.1073 302.3875 518.7167 302.71564Q519.32605 303.04376 519.7167 303.65314Q520.1229 304.2625 520.3417 305.1375Q520.5604 306.0125 520.5604 307.5125Q520.5604 309.27814 520.20105 310.35626Q519.8417 311.4344 519.1229 312.02814Q518.4042 312.6219 517.2948 312.6219Q515.8573 312.6219 515.0292 311.575Q514.0292 310.325 514.0292 307.5125ZM515.2948 307.5125Q515.2948 309.98126 515.8729 310.79376Q516.45105 311.60626 517.2948 311.60626Q518.1542 311.60626 518.7323 310.79376Q519.3104 309.96564 519.3104 307.5125Q519.3104 305.02814 518.7323 304.21564Q518.1542 303.40314 517.2792 303.40314Q516.4354 303.40314 515.9354 304.1219Q515.2948 305.04376 515.2948 307.5125ZM522.0292 307.5125Q522.0292 305.73126 522.38855 304.65314Q522.76355 303.5594 523.4823 302.98126Q524.20105 302.3875 525.2948 302.3875Q526.1073 302.3875 526.7167 302.71564Q527.32605 303.04376 527.7167 303.65314Q528.1229 304.2625 528.3417 305.1375Q528.5604 306.0125 528.5604 307.5125Q528.5604 309.27814 528.20105 310.35626Q527.8417 311.4344 527.1229 312.02814Q526.4042 312.6219 525.2948 312.6219Q523.8573 312.6219 523.0292 311.575Q522.0292 310.325 522.0292 307.5125ZM523.2948 307.5125Q523.2948 309.98126 523.8729 310.79376Q524.45105 311.60626 525.2948 311.60626Q526.1542 311.60626 526.7323 310.79376Q527.3104 309.96564 527.3104 307.5125Q527.3104 305.02814 526.7323 304.21564Q526.1542 303.40314 525.2792 303.40314Q524.4354 303.40314 523.9354 304.1219Q523.2948 305.04376 523.2948 307.5125Z" fill-rule="nonzero"/><path fill="#000000" d="M555.88446 312.45L555.88446 310.04376L551.5251 310.04376L551.5251 308.91876L556.1032 302.4344L557.1032 302.4344L557.1032 308.91876L558.4626 308.91876L558.4626 310.04376L557.1032 310.04376L557.1032 312.45L555.88446 312.45ZM555.88446 308.91876L555.88446 304.40314L552.74384 308.91876L555.88446 308.91876ZM560.61884 306.59064L560.61884 305.1844L562.0251 305.1844L562.0251 306.59064L560.61884 306.59064ZM560.61884 312.45L560.61884 311.04376L562.0251 311.04376L562.0251 312.45L560.61884 312.45ZM563.94696 309.8094L565.1657 309.6375Q565.38446 310.6844 565.88446 311.15314Q566.4001 311.60626 567.13446 311.60626Q568.00946 311.60626 568.6032 311.0125Q569.19696 310.40314 569.19696 309.5125Q569.19696 308.66876 568.63446 308.1219Q568.0876 307.575 567.24384 307.575Q566.88446 307.575 566.36884 307.7L566.50946 306.6219Q566.63446 306.6375 566.69696 306.6375Q567.49384 306.6375 568.11884 306.23126Q568.74384 305.825 568.74384 304.96564Q568.74384 304.29376 568.2907 303.85626Q567.8376 303.40314 567.1032 303.40314Q566.38446 303.40314 565.9001 303.85626Q565.43134 304.29376 565.2907 305.2L564.07196 304.98126Q564.2907 303.7469 565.0876 303.075Q565.88446 302.3875 567.07196 302.3875Q567.9001 302.3875 568.5876 302.7469Q569.2751 303.09064 569.63446 303.7Q570.00946 304.3094 570.00946 304.9969Q570.00946 305.6375 569.6657 306.16876Q569.32196 306.7 568.63446 307.02814Q569.5251 307.23126 570.00946 307.8719Q570.50946 308.5125 570.50946 309.4969Q570.50946 310.8094 569.5407 311.71564Q568.5876 312.6219 567.13446 312.6219Q565.80634 312.6219 564.93134 311.84064Q564.07196 311.0594 563.94696 309.8094ZM571.93134 307.5125Q571.93134 305.73126 572.2907 304.65314Q572.6657 303.5594 573.38446 302.98126Q574.1032 302.3875 575.19696 302.3875Q576.00946 302.3875 576.61884 302.71564Q577.2282 303.04376 577.61884 303.65314Q578.0251 304.2625 578.24384 305.1375Q578.4626 306.0125 578.4626 307.5125Q578.4626 309.27814 578.1032 310.35626Q577.74384 311.4344 577.0251 312.02814Q576.30634 312.6219 575.19696 312.6219Q573.75946 312.6219 572.93134 311.575Q571.93134 310.325 571.93134 307.5125ZM573.19696 307.5125Q573.19696 309.98126 573.7751 310.79376Q574.3532 311.60626 575.19696 311.60626Q576.05634 311.60626 576.63446 310.79376Q577.2126 309.96564 577.2126 307.5125Q577.2126 305.02814 576.63446 304.21564Q576.05634 303.40314 575.18134 303.40314Q574.3376 303.40314 573.8376 304.1219Q573.19696 305.04376 573.19696 307.5125Z" fill-rule="nonzero"/><path fill="#000000" d="M601.8335 309.825L603.1304 309.71564Q603.271 310.65314 603.7866 311.1375Q604.3179 311.60626 605.05225 311.60626Q605.9429 311.60626 606.55225 310.9344Q607.17725 310.2625 607.17725 309.16876Q607.17725 308.10626 606.5835 307.4969Q605.98975 306.8875 605.0366 306.8875Q604.4429 306.8875 603.9585 307.16876Q603.48975 307.4344 603.2085 307.85626L602.05225 307.71564L603.021 302.5594L608.0054 302.5594L608.0054 303.7469L604.0054 303.7469L603.4741 306.4344Q604.3804 305.8094 605.36475 305.8094Q606.67725 305.8094 607.5679 306.71564Q608.4741 307.6219 608.4741 309.0594Q608.4741 310.41876 607.6929 311.40314Q606.7241 312.6219 605.05225 312.6219Q603.6929 312.6219 602.8179 311.85626Q601.9585 311.09064 601.8335 309.825ZM610.521 306.59064L610.521 305.1844L611.92725 305.1844L611.92725 306.59064L610.521 306.59064ZM610.521 312.45L610.521 311.04376L611.92725 311.04376L611.92725 312.45L610.521 312.45ZM613.8335 307.5125Q613.8335 305.73126 614.1929 304.65314Q614.5679 303.5594 615.2866 302.98126Q616.0054 302.3875 617.0991 302.3875Q617.9116 302.3875 618.521 302.71564Q619.1304 303.04376 619.521 303.65314Q619.92725 304.2625 620.146 305.1375Q620.36475 306.0125 620.36475 307.5125Q620.36475 309.27814 620.0054 310.35626Q619.646 311.4344 618.92725 312.02814Q618.2085 312.6219 617.0991 312.6219Q615.6616 312.6219 614.8335 311.575Q613.8335 310.325 613.8335 307.5125ZM615.0991 307.5125Q615.0991 309.98126 615.67725 310.79376Q616.2554 311.60626 617.0991 311.60626Q617.9585 311.60626 618.5366 310.79376Q619.11475 309.96564 619.11475 307.5125Q619.11475 305.02814 618.5366 304.21564Q617.9585 303.40314 617.0835 303.40314Q616.23975 303.40314 615.73975 304.1219Q615.0991 305.04376 615.0991 307.5125ZM621.8335 307.5125Q621.8335 305.73126 622.1929 304.65314Q622.5679 303.5594 623.2866 302.98126Q624.0054 302.3875 625.0991 302.3875Q625.9116 302.3875 626.521 302.71564Q627.1304 303.04376 627.521 303.65314Q627.92725 304.2625 628.146 305.1375Q628.36475 306.0125 628.36475 307.5125Q628.36475 309.27814 628.0054 310.35626Q627.646 311.4344 626.92725 312.02814Q626.2085 312.6219 625.0991 312.6219Q623.6616 312.6219 622.8335 311.575Q621.8335 310.325 621.8335 307.5125ZM623.0991 307.5125Q623.0991 309.98126 623.67725 310.79376Q624.2554 311.60626 625.0991 311.60626Q625.9585 311.60626 626.5366 310.79376Q627.11475 309.96564 627.11475 307.5125Q627.11475 305.02814 626.5366 304.21564Q625.9585 303.40314 625.0835 303.40314Q624.23975 303.40314 623.73975 304.1219Q623.0991 305.04376 623.0991 307.5125Z" fill-rule="nonzero"/><path fill="#000000" d="M651.7356 309.825L653.0325 309.71564Q653.1731 310.65314 653.6887 311.1375Q654.22 311.60626 654.95435 311.60626Q655.845 311.60626 656.45435 310.9344Q657.07935 310.2625 657.07935 309.16876Q657.07935 308.10626 656.4856 307.4969Q655.89185 306.8875 654.9387 306.8875Q654.345 306.8875 653.8606 307.16876Q653.39185 307.4344 653.1106 307.85626L651.95435 307.71564L652.9231 302.5594L657.9075 302.5594L657.9075 303.7469L653.9075 303.7469L653.3762 306.4344Q654.2825 305.8094 655.26685 305.8094Q656.57935 305.8094 657.47 306.71564Q658.3762 307.6219 658.3762 309.0594Q658.3762 310.41876 657.595 311.40314Q656.6262 312.6219 654.95435 312.6219Q653.595 312.6219 652.72 311.85626Q651.8606 311.09064 651.7356 309.825ZM660.4231 306.59064L660.4231 305.1844L661.82935 305.1844L661.82935 306.59064L660.4231 306.59064ZM660.4231 312.45L660.4231 311.04376L661.82935 311.04376L661.82935 312.45L660.4231 312.45ZM663.7512 309.8094L664.97 309.6375Q665.1887 310.6844 665.6887 311.15314Q666.20435 311.60626 666.9387 311.60626Q667.8137 311.60626 668.4075 311.0125Q669.0012 310.40314 669.0012 309.5125Q669.0012 308.66876 668.4387 308.1219Q667.89185 307.575 667.0481 307.575Q666.6887 307.575 666.1731 307.7L666.3137 306.6219Q666.4387 306.6375 666.5012 306.6375Q667.2981 306.6375 667.9231 306.23126Q668.5481 305.825 668.5481 304.96564Q668.5481 304.29376 668.095 303.85626Q667.64185 303.40314 666.9075 303.40314Q666.1887 303.40314 665.70435 303.85626Q665.2356 304.29376 665.095 305.2L663.8762 304.98126Q664.095 303.7469 664.89185 303.075Q665.6887 302.3875 666.8762 302.3875Q667.70435 302.3875 668.39185 302.7469Q669.07935 303.09064 669.4387 303.7Q669.8137 304.3094 669.8137 304.9969Q669.8137 305.6375 669.47 306.16876Q669.1262 306.7 668.4387 307.02814Q669.32935 307.23126 669.8137 307.8719Q670.3137 308.5125 670.3137 309.4969Q670.3137 310.8094 669.345 311.71564Q668.39185 312.6219 666.9387 312.6219Q665.6106 312.6219 664.7356 311.84064Q663.8762 311.0594 663.7512 309.8094ZM671.7356 307.5125Q671.7356 305.73126 672.095 304.65314Q672.47 303.5594 673.1887 302.98126Q673.9075 302.3875 675.0012 302.3875Q675.8137 302.3875 676.4231 302.71564Q677.0325 303.04376 677.4231 303.65314Q677.82935 304.2625 678.0481 305.1375Q678.26685 306.0125 678.26685 307.5125Q678.26685 309.27814 677.9075 310.35626Q677.5481 311.4344 676.82935 312.02814Q676.1106 312.6219 675.0012 312.6219Q673.5637 312.6219 672.7356 311.575Q671.7356 310.325 671.7356 307.5125ZM673.0012 307.5125Q673.0012 309.98126 673.57935 310.79376Q674.1575 311.60626 675.0012 311.60626Q675.8606 311.60626 676.4387 310.79376Q677.01685 309.96564 677.01685 307.5125Q677.01685 305.02814 676.4387 304.21564Q675.8606 303.40314 674.9856 303.40314Q674.14185 303.40314 673.64185 304.1219Q673.0012 305.04376 673.0012 307.5125Z" fill-rule="nonzero"/><path fill="#000000" d="M708.0284 304.8875L706.80963 304.98126Q706.63776 304.2469 706.3409 303.91876Q705.8409 303.40314 705.1065 303.40314Q704.51276 303.40314 704.07526 303.73126Q703.49713 304.15314 703.1534 304.96564Q702.82526 305.77814 702.80963 307.27814Q703.24713 306.60626 703.88776 306.27814Q704.544 305.95 705.24713 305.95Q706.4815 305.95 707.3409 306.85626Q708.20026 307.7625 708.20026 309.2Q708.20026 310.1375 707.794 310.95Q707.38776 311.7625 706.669 312.2Q705.9659 312.6219 705.05963 312.6219Q703.5284 312.6219 702.55963 311.4969Q701.5909 310.35626 701.5909 307.7625Q701.5909 304.85626 702.6534 303.52814Q703.5909 302.3875 705.18463 302.3875Q706.37213 302.3875 707.12213 303.0594Q707.87213 303.71564 708.0284 304.8875ZM702.99713 309.2Q702.99713 309.84064 703.26276 310.41876Q703.544 310.9969 704.0284 311.3094Q704.51276 311.60626 705.044 311.60626Q705.82526 311.60626 706.38776 310.98126Q706.95026 310.35626 706.95026 309.27814Q706.95026 308.23126 706.38776 307.6375Q705.8409 307.02814 704.99713 307.02814Q704.169 307.02814 703.57526 307.6375Q702.99713 308.23126 702.99713 309.2ZM710.32526 306.59064L710.32526 305.1844L711.7315 305.1844L711.7315 306.59064L710.32526 306.59064ZM710.32526 312.45L710.32526 311.04376L711.7315 311.04376L711.7315 312.45L710.32526 312.45ZM713.63776 307.5125Q713.63776 305.73126 713.99713 304.65314Q714.37213 303.5594 715.0909 302.98126Q715.80963 302.3875 716.9034 302.3875Q717.7159 302.3875 718.32526 302.71564Q718.93463 303.04376 719.32526 303.65314Q719.7315 304.2625 719.95026 305.1375Q720.169 306.0125 720.169 307.5125Q720.169 309.27814 719.80963 310.35626Q719.45026 311.4344 718.7315 312.02814Q718.01276 312.6219 716.9034 312.6219Q715.4659 312.6219 714.63776 311.575Q713.63776 310.325 713.63776 307.5125ZM714.9034 307.5125Q714.9034 309.98126 715.4815 310.79376Q716.05963 311.60626 716.9034 311.60626Q717.76276 311.60626 718.3409 310.79376Q718.919 309.96564 718.919 307.5125Q718.919 305.02814 718.3409 304.21564Q717.76276 303.40314 716.88776 303.40314Q716.044 303.40314 715.544 304.1219Q714.9034 305.04376 714.9034 307.5125ZM721.63776 307.5125Q721.63776 305.73126 721.99713 304.65314Q722.37213 303.5594 723.0909 302.98126Q723.80963 302.3875 724.9034 302.3875Q725.7159 302.3875 726.32526 302.71564Q726.93463 303.04376 727.32526 303.65314Q727.7315 304.2625 727.95026 305.1375Q728.169 306.0125 728.169 307.5125Q728.169 309.27814 727.80963 310.35626Q727.45026 311.4344 726.7315 312.02814Q726.01276 312.6219 724.9034 312.6219Q723.4659 312.6219 722.63776 311.575Q721.63776 310.325 721.63776 307.5125ZM722.9034 307.5125Q722.9034 309.98126 723.4815 310.79376Q724.05963 311.60626 724.9034 311.60626Q725.76276 311.60626 726.3409 310.79376Q726.919 309.96564 726.919 307.5125Q726.919 305.02814 726.3409 304.21564Q725.76276 303.40314 724.88776 303.40314Q724.044 303.40314 723.544 304.1219Q722.9034 305.04376 722.9034 307.5125Z" fill-rule="nonzero"/><path fill="#000000" d="M757.93054 304.8875L756.7118 304.98126Q756.5399 304.2469 756.24304 303.91876Q755.74304 303.40314 755.00867 303.40314Q754.4149 303.40314 753.9774 303.73126Q753.3993 304.15314 753.05554 304.96564Q752.7274 305.77814 752.7118 307.27814Q753.1493 306.60626 753.7899 306.27814Q754.44617 305.95 755.1493 305.95Q756.38367 305.95 757.24304 306.85626Q758.1024 307.7625 758.1024 309.2Q758.1024 310.1375 757.69617 310.95Q757.2899 311.7625 756.57117 312.2Q755.86804 312.6219 754.9618 312.6219Q753.43054 312.6219 752.4618 311.4969Q751.49304 310.35626 751.49304 307.7625Q751.49304 304.85626 752.55554 303.52814Q753.49304 302.3875 755.0868 302.3875Q756.2743 302.3875 757.0243 303.0594Q757.7743 303.71564 757.93054 304.8875ZM752.8993 309.2Q752.8993 309.84064 753.1649 310.41876Q753.44617 310.9969 753.93054 311.3094Q754.4149 311.60626 754.94617 311.60626Q755.7274 311.60626 756.2899 310.98126Q756.8524 310.35626 756.8524 309.27814Q756.8524 308.23126 756.2899 307.6375Q755.74304 307.02814 754.8993 307.02814Q754.07117 307.02814 753.4774 307.6375Q752.8993 308.23126 752.8993 309.2ZM760.2274 306.59064L760.2274 305.1844L761.63367 305.1844L761.63367 306.59064L760.2274 306.59064ZM760.2274 312.45L760.2274 311.04376L761.63367 311.04376L761.63367 312.45L760.2274 312.45ZM763.55554 309.8094L764.7743 309.6375Q764.99304 310.6844 765.49304 311.15314Q766.00867 311.60626 766.74304 311.60626Q767.61804 311.60626 768.2118 311.0125Q768.80554 310.40314 768.80554 309.5125Q768.80554 308.66876 768.24304 308.1219Q767.69617 307.575 766.8524 307.575Q766.49304 307.575 765.9774 307.7L766.11804 306.6219Q766.24304 306.6375 766.30554 306.6375Q767.1024 306.6375 767.7274 306.23126Q768.3524 305.825 768.3524 304.96564Q768.3524 304.29376 767.8993 303.85626Q767.44617 303.40314 766.7118 303.40314Q765.99304 303.40314 765.50867 303.85626Q765.0399 304.29376 764.8993 305.2L763.68054 304.98126Q763.8993 303.7469 764.69617 303.075Q765.49304 302.3875 766.68054 302.3875Q767.50867 302.3875 768.19617 302.7469Q768.88367 303.09064 769.24304 303.7Q769.61804 304.3094 769.61804 304.9969Q769.61804 305.6375 769.2743 306.16876Q768.93054 306.7 768.24304 307.02814Q769.13367 307.23126 769.61804 307.8719Q770.11804 308.5125 770.11804 309.4969Q770.11804 310.8094 769.1493 311.71564Q768.19617 312.6219 766.74304 312.6219Q765.4149 312.6219 764.5399 311.84064Q763.68054 311.0594 763.55554 309.8094ZM771.5399 307.5125Q771.5399 305.73126 771.8993 304.65314Q772.2743 303.5594 772.99304 302.98126Q773.7118 302.3875 774.80554 302.3875Q775.61804 302.3875 776.2274 302.71564Q776.8368 303.04376 777.2274 303.65314Q777.63367 304.2625 777.8524 305.1375Q778.07117 306.0125 778.07117 307.5125Q778.07117 309.27814 777.7118 310.35626Q777.3524 311.4344 776.63367 312.02814Q775.9149 312.6219 774.80554 312.6219Q773.36804 312.6219 772.5399 311.575Q771.5399 310.325 771.5399 307.5125ZM772.80554 307.5125Q772.80554 309.98126 773.38367 310.79376Q773.9618 311.60626 774.80554 311.60626Q775.6649 311.60626 776.24304 310.79376Q776.82117 309.96564 776.82117 307.5125Q776.82117 305.02814 776.24304 304.21564Q775.6649 303.40314 774.7899 303.40314Q773.94617 303.40314 773.44617 304.1219Q772.80554 305.04376 772.80554 307.5125Z" fill-rule="nonzero"/><path fill="#000000" d="M801.52014 303.7469L801.52014 302.5594L808.02014 302.5594L808.02014 303.5125Q807.0514 304.52814 806.1139 306.21564Q805.1764 307.90314 804.66077 309.7Q804.3014 310.95 804.192 312.45L802.9264 312.45Q802.942 311.2625 803.3795 309.59064Q803.83264 307.91876 804.66077 306.3719Q805.5045 304.8094 806.442 303.7469L801.52014 303.7469ZM810.1295 306.59064L810.1295 305.1844L811.53577 305.1844L811.53577 306.59064L810.1295 306.59064ZM810.1295 312.45L810.1295 311.04376L811.53577 311.04376L811.53577 312.45L810.1295 312.45ZM813.442 307.5125Q813.442 305.73126 813.8014 304.65314Q814.1764 303.5594 814.89514 302.98126Q815.6139 302.3875 816.70764 302.3875Q817.52014 302.3875 818.1295 302.71564Q818.7389 303.04376 819.1295 303.65314Q819.53577 304.2625 819.7545 305.1375Q819.97327 306.0125 819.97327 307.5125Q819.97327 309.27814 819.6139 310.35626Q819.2545 311.4344 818.53577 312.02814Q817.817 312.6219 816.70764 312.6219Q815.27014 312.6219 814.442 311.575Q813.442 310.325 813.442 307.5125ZM814.70764 307.5125Q814.70764 309.98126 815.28577 310.79376Q815.8639 311.60626 816.70764 311.60626Q817.567 311.60626 818.14514 310.79376Q818.72327 309.96564 818.72327 307.5125Q818.72327 305.02814 818.14514 304.21564Q817.567 303.40314 816.692 303.40314Q815.84827 303.40314 815.34827 304.1219Q814.70764 305.04376 814.70764 307.5125ZM821.442 307.5125Q821.442 305.73126 821.8014 304.65314Q822.1764 303.5594 822.89514 302.98126Q823.6139 302.3875 824.70764 302.3875Q825.52014 302.3875 826.1295 302.71564Q826.7389 303.04376 827.1295 303.65314Q827.53577 304.2625 827.7545 305.1375Q827.97327 306.0125 827.97327 307.5125Q827.97327 309.27814 827.6139 310.35626Q827.2545 311.4344 826.53577 312.02814Q825.817 312.6219 824.70764 312.6219Q823.27014 312.6219 822.442 311.575Q821.442 310.325 821.442 307.5125ZM822.70764 307.5125Q822.70764 309.98126 823.28577 310.79376Q823.8639 311.60626 824.70764 311.60626Q825.567 311.60626 826.14514 310.79376Q826.72327 309.96564 826.72327 307.5125Q826.72327 305.02814 826.14514 304.21564Q825.567 303.40314 824.692 303.40314Q823.84827 303.40314 823.34827 304.1219Q822.70764 305.04376 822.70764 307.5125Z" fill-rule="nonzero"/><path fill="#000000" d="M851.4223 303.7469L851.4223 302.5594L857.9223 302.5594L857.9223 303.5125Q856.95355 304.52814 856.01605 306.21564Q855.07855 307.90314 854.5629 309.7Q854.20355 310.95 854.0942 312.45L852.82855 312.45Q852.8442 311.2625 853.2817 309.59064Q853.7348 307.91876 854.5629 306.3719Q855.4067 304.8094 856.3442 303.7469L851.4223 303.7469ZM860.0317 306.59064L860.0317 305.1844L861.4379 305.1844L861.4379 306.59064L860.0317 306.59064ZM860.0317 312.45L860.0317 311.04376L861.4379 311.04376L861.4379 312.45L860.0317 312.45ZM863.3598 309.8094L864.57855 309.6375Q864.7973 310.6844 865.2973 311.15314Q865.8129 311.60626 866.5473 311.60626Q867.4223 311.60626 868.01605 311.0125Q868.6098 310.40314 868.6098 309.5125Q868.6098 308.66876 868.0473 308.1219Q867.5004 307.575 866.6567 307.575Q866.2973 307.575 865.7817 307.7L865.9223 306.6219Q866.0473 306.6375 866.1098 306.6375Q866.9067 306.6375 867.5317 306.23126Q868.1567 305.825 868.1567 304.96564Q868.1567 304.29376 867.70355 303.85626Q867.2504 303.40314 866.51605 303.40314Q865.7973 303.40314 865.3129 303.85626Q864.8442 304.29376 864.70355 305.2L863.4848 304.98126Q863.70355 303.7469 864.5004 303.075Q865.2973 302.3875 866.4848 302.3875Q867.3129 302.3875 868.0004 302.7469Q868.6879 303.09064 869.0473 303.7Q869.4223 304.3094 869.4223 304.9969Q869.4223 305.6375 869.07855 306.16876Q868.7348 306.7 868.0473 307.02814Q868.9379 307.23126 869.4223 307.8719Q869.9223 308.5125 869.9223 309.4969Q869.9223 310.8094 868.95355 311.71564Q868.0004 312.6219 866.5473 312.6219Q865.2192 312.6219 864.3442 311.84064Q863.4848 311.0594 863.3598 309.8094ZM871.3442 307.5125Q871.3442 305.73126 871.70355 304.65314Q872.07855 303.5594 872.7973 302.98126Q873.51605 302.3875 874.6098 302.3875Q875.4223 302.3875 876.0317 302.71564Q876.64105 303.04376 877.0317 303.65314Q877.4379 304.2625 877.6567 305.1375Q877.8754 306.0125 877.8754 307.5125Q877.8754 309.27814 877.51605 310.35626Q877.1567 311.4344 876.4379 312.02814Q875.7192 312.6219 874.6098 312.6219Q873.1723 312.6219 872.3442 311.575Q871.3442 310.325 871.3442 307.5125ZM872.6098 307.5125Q872.6098 309.98126 873.1879 310.79376Q873.76605 311.60626 874.6098 311.60626Q875.4692 311.60626 876.0473 310.79376Q876.6254 309.96564 876.6254 307.5125Q876.6254 305.02814 876.0473 304.21564Q875.4692 303.40314 874.5942 303.40314Q873.7504 303.40314 873.2504 304.1219Q872.6098 305.04376 872.6098 307.5125Z" fill-rule="nonzero"/><path fill="#f1c232" d="M359.5 21.55C359.5 20.997715 359.94772 20.55 360.5 20.55L370.5 20.55C371.05228 20.55 371.5 20.997715 371.5 21.55L371.5 31.55C371.5 32.102283 371.05228 32.55 370.5 32.55L360.5 32.55C359.94772 32.55 359.5 32.102283 359.5 31.55Z" fill-rule="nonzero"/><path fill="#1a1a1a" d="M380.53125 31.55L380.53125 21.534374L381.85938 21.534374L381.85938 30.3625L386.78125 30.3625L386.78125 31.55L380.53125 31.55ZM388.4375 22.940624L388.4375 21.534374L389.65625 21.534374L389.65625 22.940624L388.4375 22.940624ZM388.4375 31.55L388.4375 24.284374L389.65625 24.284374L389.65625 31.55L388.4375 31.55ZM391.20312 32.159374L392.39062 32.33125Q392.46875 32.878124 392.8125 33.14375Q393.26562 33.471874 394.0625 33.471874Q394.92188 33.471874 395.375 33.128124Q395.84375 32.8 396.01562 32.175Q396.10938 31.8 396.09375 30.596874Q395.29688 31.55 394.09375 31.55Q392.59375 31.55 391.76562 30.471874Q390.95312 29.39375 390.95312 27.878124Q390.95312 26.846874 391.32812 25.971874Q391.70312 25.08125 392.40625 24.6125Q393.125 24.128124 394.09375 24.128124Q395.375 24.128124 396.21875 25.159374L396.21875 24.284374L397.34375 24.284374L397.34375 30.565624Q397.34375 32.26875 397.0 32.971874Q396.65625 33.675 395.90625 34.08125Q395.15625 34.503124 394.0625 34.503124Q392.76562 34.503124 391.96875 33.909374Q391.17188 33.33125 391.20312 32.159374ZM392.21875 27.784374Q392.21875 29.221874 392.78125 29.878124Q393.34375 30.534374 394.20312 30.534374Q395.04688 30.534374 395.625 29.878124Q396.20312 29.221874 396.20312 27.83125Q396.20312 26.503124 395.60938 25.83125Q395.01562 25.14375 394.1875 25.14375Q393.35938 25.14375 392.78125 25.815624Q392.21875 26.471874 392.21875 27.784374ZM399.42188 31.55L399.42188 21.534374L400.65625 21.534374L400.65625 25.128124Q401.51562 24.128124 402.82812 24.128124Q403.64062 24.128124 404.23438 24.45625Q404.82812 24.76875 405.07812 25.33125Q405.34375 25.878124 405.34375 26.95625L405.34375 31.55L404.10938 31.55L404.10938 26.95625Q404.10938 26.01875 403.70312 25.6125Q403.3125 25.190624 402.57812 25.190624Q402.03125 25.190624 401.54688 25.471874Q401.0625 25.753124 400.85938 26.2375Q400.65625 26.721874 400.65625 27.58125L400.65625 31.55L399.42188 31.55ZM410.10938 30.45625L410.28125 31.534374Q409.76562 31.64375 409.35938 31.64375Q408.6875 31.64375 408.3125 31.440624Q407.95312 31.221874 407.79688 30.878124Q407.65625 30.534374 407.65625 29.425L407.65625 25.253124L406.75 25.253124L406.75 24.284374L407.65625 24.284374L407.65625 22.4875L408.875 21.753124L408.875 24.284374L410.10938 24.284374L410.10938 25.253124L408.875 25.253124L408.875 29.4875Q408.875 30.01875 408.9375 30.175Q409.0 30.315624 409.14062 30.409374Q409.29688 30.503124 409.5625 30.503124Q409.78125 30.503124 410.10938 30.45625ZM415.125 28.33125L416.375 28.221874Q416.46875 28.971874 416.79688 29.45625Q417.125 29.940624 417.79688 30.2375Q418.48438 30.534374 419.34375 30.534374Q420.09375 30.534374 420.67188 30.315624Q421.26562 30.08125 421.54688 29.690624Q421.82812 29.3 421.82812 28.83125Q421.82812 28.3625 421.54688 28.01875Q421.28125 27.659374 420.65625 27.409374Q420.25 27.253124 418.85938 26.925Q417.48438 26.596874 416.9375 26.3Q416.21875 25.925 415.85938 25.378124Q415.51562 24.815624 415.51562 24.1125Q415.51562 23.3625 415.9375 22.70625Q416.375 22.034374 417.20312 21.70625Q418.03125 21.3625 419.04688 21.3625Q420.15625 21.3625 421.0 21.721874Q421.85938 22.08125 422.3125 22.784374Q422.76562 23.471874 422.8125 24.346874L421.53125 24.440624Q421.4375 23.503124 420.84375 23.01875Q420.25 22.51875 419.09375 22.51875Q417.89062 22.51875 417.34375 22.971874Q416.79688 23.409374 416.79688 24.034374Q416.79688 24.565624 417.1875 24.925Q417.5625 25.26875 419.17188 25.64375Q420.79688 26.003124 421.39062 26.26875Q422.26562 26.675 422.6875 27.3Q423.10938 27.909374 423.10938 28.721874Q423.10938 29.51875 422.64062 30.2375Q422.1875 30.940624 421.32812 31.33125Q420.46875 31.721874 419.40625 31.721874Q418.04688 31.721874 417.125 31.33125Q416.20312 30.925 415.67188 30.128124Q415.15625 29.33125 415.125 28.33125ZM424.39062 31.55L424.39062 21.534374L425.625 21.534374L425.625 31.55L424.39062 31.55ZM432.39062 29.20625L433.67188 29.3625Q433.35938 30.4875 432.54688 31.1125Q431.73438 31.721874 430.46875 31.721874Q428.875 31.721874 427.9375 30.7375Q427.01562 29.753124 427.01562 27.9875Q427.01562 26.14375 427.95312 25.14375Q428.90625 24.128124 430.40625 24.128124Q431.85938 24.128124 432.78125 25.128124Q433.70312 26.1125 433.70312 27.909374Q433.70312 28.01875 433.70312 28.2375L428.28125 28.2375Q428.35938 29.425 428.95312 30.065624Q429.5625 30.70625 430.48438 30.70625Q431.15625 30.70625 431.625 30.346874Q432.10938 29.9875 432.39062 29.20625ZM428.35938 27.221874L432.40625 27.221874Q432.32812 26.3 431.9375 25.846874Q431.35938 25.14375 430.42188 25.14375Q429.5625 25.14375 428.98438 25.70625Q428.42188 26.26875 428.35938 27.221874ZM440.39062 29.20625L441.67188 29.3625Q441.35938 30.4875 440.54688 31.1125Q439.73438 31.721874 438.46875 31.721874Q436.875 31.721874 435.9375 30.7375Q435.01562 29.753124 435.01562 27.9875Q435.01562 26.14375 435.95312 25.14375Q436.90625 24.128124 438.40625 24.128124Q439.85938 24.128124 440.78125 25.128124Q441.70312 26.1125 441.70312 27.909374Q441.70312 28.01875 441.70312 28.2375L436.28125 28.2375Q436.35938 29.425 436.95312 30.065624Q437.5625 30.70625 438.48438 30.70625Q439.15625 30.70625 439.625 30.346874Q440.10938 29.9875 440.39062 29.20625ZM436.35938 27.221874L440.40625 27.221874Q440.32812 26.3 439.9375 25.846874Q439.35938 25.14375 438.42188 25.14375Q437.5625 25.14375 436.98438 25.70625Q436.42188 26.26875 436.35938 27.221874ZM443.42188 34.33125L443.42188 24.284374L444.54688 24.284374L444.54688 25.2375Q444.9375 24.675 445.4375 24.409374Q445.9375 24.128124 446.65625 24.128124Q447.57812 24.128124 448.28125 24.6125Q449.0 25.08125 449.35938 25.95625Q449.71875 26.83125 449.71875 27.8625Q449.71875 28.971874 449.3125 29.878124Q448.92188 30.76875 448.15625 31.253124Q447.40625 31.721874 446.5625 31.721874Q445.95312 31.721874 445.45312 31.45625Q444.96875 31.190624 444.65625 30.8L444.65625 34.33125L443.42188 34.33125ZM444.53125 27.95625Q444.53125 29.3625 445.09375 30.034374Q445.67188 30.70625 446.48438 30.70625Q447.29688 30.70625 447.875 30.01875Q448.46875 29.315624 448.46875 27.8625Q448.46875 26.471874 447.89062 25.784374Q447.32812 25.096874 446.53125 25.096874Q445.75 25.096874 445.14062 25.83125Q444.53125 26.565624 444.53125 27.95625Z" fill-rule="nonzero"/><path fill="#46bdc6" d="M466.5 21.55C466.5 20.997715 466.94772 20.55 467.5 20.55L477.5 20.55C478.05228 20.55 478.5 20.997715 478.5 21.55L478.5 31.55C478.5 32.102283 478.05228 32.55 477.5 32.55L467.5 32.55C466.94772 32.55 466.5 32.102283 466.5 31.55Z" fill-rule="nonzero"/><path fill="#1a1a1a" d="M487.59375 31.55L487.59375 21.534374L492.04688 21.534374Q493.39062 21.534374 494.07812 21.8Q494.78125 22.065624 495.1875 22.753124Q495.60938 23.440624 495.60938 24.26875Q495.60938 25.33125 494.92188 26.065624Q494.23438 26.784374 492.79688 26.9875Q493.3125 27.2375 493.59375 27.4875Q494.17188 28.01875 494.6875 28.815624L496.4375 31.55L494.76562 31.55L493.4375 29.471874Q492.85938 28.565624 492.48438 28.096874Q492.10938 27.6125 491.8125 27.425Q491.51562 27.221874 491.20312 27.14375Q490.98438 27.096874 490.46875 27.096874L488.92188 27.096874L488.92188 31.55L487.59375 31.55ZM488.92188 25.95625L491.78125 25.95625Q492.6875 25.95625 493.20312 25.76875Q493.71875 25.58125 493.98438 25.175Q494.25 24.753124 494.25 24.26875Q494.25 23.55 493.73438 23.096874Q493.21875 22.628124 492.09375 22.628124L488.92188 22.628124L488.92188 25.95625ZM497.60938 31.55L497.60938 21.534374L504.85938 21.534374L504.85938 22.70625L498.9375 22.70625L498.9375 25.784374L504.48438 25.784374L504.48438 26.95625L498.9375 26.95625L498.9375 30.3625L505.09375 30.3625L505.09375 31.55L497.60938 31.55ZM506.54688 31.55L506.54688 21.534374L508.53125 21.534374L510.90625 28.628124Q511.23438 29.6125 511.39062 30.1125Q511.5625 29.565624 511.92188 28.503124L514.3125 21.534374L516.1094 21.534374L516.1094 31.55L514.8281 31.55L514.8281 23.159374L511.90625 31.55L510.71875 31.55L507.8125 23.01875L507.8125 31.55L506.54688 31.55ZM522.125 28.33125L523.375 28.221874Q523.46875 28.971874 523.7969 29.45625Q524.125 29.940624 524.7969 30.2375Q525.4844 30.534374 526.34375 30.534374Q527.09375 30.534374 527.6719 30.315624Q528.2656 30.08125 528.5469 29.690624Q528.8281 29.3 528.8281 28.83125Q528.8281 28.3625 528.5469 28.01875Q528.28125 27.659374 527.65625 27.409374Q527.25 27.253124 525.8594 26.925Q524.4844 26.596874 523.9375 26.3Q523.21875 25.925 522.8594 25.378124Q522.5156 24.815624 522.5156 24.1125Q522.5156 23.3625 522.9375 22.70625Q523.375 22.034374 524.2031 21.70625Q525.03125 21.3625 526.0469 21.3625Q527.15625 21.3625 528.0 21.721874Q528.8594 22.08125 529.3125 22.784374Q529.7656 23.471874 529.8125 24.346874L528.53125 24.440624Q528.4375 23.503124 527.84375 23.01875Q527.25 22.51875 526.09375 22.51875Q524.8906 22.51875 524.34375 22.971874Q523.7969 23.409374 523.7969 24.034374Q523.7969 24.565624 524.1875 24.925Q524.5625 25.26875 526.1719 25.64375Q527.7969 26.003124 528.3906 26.26875Q529.2656 26.675 529.6875 27.3Q530.1094 27.909374 530.1094 28.721874Q530.1094 29.51875 529.6406 30.2375Q529.1875 30.940624 528.3281 31.33125Q527.46875 31.721874 526.40625 31.721874Q525.0469 31.721874 524.125 31.33125Q523.2031 30.925 522.6719 30.128124Q522.15625 29.33125 522.125 28.33125ZM531.3906 31.55L531.3906 21.534374L532.625 21.534374L532.625 31.55L531.3906 31.55ZM539.3906 29.20625L540.6719 29.3625Q540.3594 30.4875 539.5469 31.1125Q538.7344 31.721874 537.46875 31.721874Q535.875 31.721874 534.9375 30.7375Q534.0156 29.753124 534.0156 27.9875Q534.0156 26.14375 534.9531 25.14375Q535.90625 24.128124 537.40625 24.128124Q538.8594 24.128124 539.78125 25.128124Q540.7031 26.1125 540.7031 27.909374Q540.7031 28.01875 540.7031 28.2375L535.28125 28.2375Q535.3594 29.425 535.9531 30.065624Q536.5625 30.70625 537.4844 30.70625Q538.15625 30.70625 538.625 30.346874Q539.1094 29.9875 539.3906 29.20625ZM535.3594 27.221874L539.40625 27.221874Q539.3281 26.3 538.9375 25.846874Q538.3594 25.14375 537.4219 25.14375Q536.5625 25.14375 535.9844 25.70625Q535.4219 26.26875 535.3594 27.221874ZM547.3906 29.20625L548.6719 29.3625Q548.3594 30.4875 547.5469 31.1125Q546.7344 31.721874 545.46875 31.721874Q543.875 31.721874 542.9375 30.7375Q542.0156 29.753124 542.0156 27.9875Q542.0156 26.14375 542.9531 25.14375Q543.90625 24.128124 545.40625 24.128124Q546.8594 24.128124 547.78125 25.128124Q548.7031 26.1125 548.7031 27.909374Q548.7031 28.01875 548.7031 28.2375L543.28125 28.2375Q543.3594 29.425 543.9531 30.065624Q544.5625 30.70625 545.4844 30.70625Q546.15625 30.70625 546.625 30.346874Q547.1094 29.9875 547.3906 29.20625ZM543.3594 27.221874L547.40625 27.221874Q547.3281 26.3 546.9375 25.846874Q546.3594 25.14375 545.4219 25.14375Q544.5625 25.14375 543.9844 25.70625Q543.4219 26.26875 543.3594 27.221874ZM550.4219 34.33125L550.4219 24.284374L551.5469 24.284374L551.5469 25.2375Q551.9375 24.675 552.4375 24.409374Q552.9375 24.128124 553.65625 24.128124Q554.5781 24.128124 555.28125 24.6125Q556.0 25.08125 556.3594 25.95625Q556.71875 26.83125 556.71875 27.8625Q556.71875 28.971874 556.3125 29.878124Q555.9219 30.76875 555.15625 31.253124Q554.40625 31.721874 553.5625 31.721874Q552.9531 31.721874 552.4531 31.45625Q551.96875 31.190624 551.65625 30.8L551.65625 34.33125L550.4219 34.33125ZM551.53125 27.95625Q551.53125 29.3625 552.09375 30.034374Q552.6719 30.70625 553.4844 30.70625Q554.2969 30.70625 554.875 30.01875Q555.46875 29.315624 555.46875 27.8625Q555.46875 26.471874 554.8906 25.784374Q554.3281 25.096874 553.53125 25.096874Q552.75 25.096874 552.1406 25.83125Q551.53125 26.565624 551.53125 27.95625Z" fill-rule="nonzero"/></svg>